<svg id="Capa_1" enable-background="new 0 0 510 510" height="512" viewBox="0 0 510 510" width="512" xmlns="http://www.w3.org/2000/svg" xmlns:xlink="http://www.w3.org/1999/xlink"><linearGradient id="lg1"><stop offset="0" stop-color="#fbc56d"/><stop offset=".593" stop-color="#dc8758"/><stop offset="1" stop-color="#9e5528"/></linearGradient><linearGradient id="SVGID_1_" gradientUnits="userSpaceOnUse" x1="-7" x2="509.725" xlink:href="#lg1" y1="255" y2="255"/><linearGradient id="SVGID_2_" gradientUnits="userSpaceOnUse" x1="-84" x2="423.963" xlink:href="#lg1" y1="254.999" y2="254.999"/><linearGradient id="SVGID_3_" gradientUnits="userSpaceOnUse" x1="-14" x2="732.073" xlink:href="#lg1" y1="255" y2="255"/><linearGradient id="SVGID_4_" gradientUnits="userSpaceOnUse" x1="-127.736" x2="603.723" xlink:href="#lg1" y1="255" y2="255"/><g><g><path d="m501.213 501.213c-11.716 11.716-30.711 11.716-42.426 0l-354.489-354.488c-6.681-6.681-15.787-10.218-25.235-10.195-.047 0-.094 0-.14 0-32.718 0-80.409-48.619-78.888-81.672 1.359-29.511 25.313-53.465 54.825-54.823 33.053-1.52 81.671 46.17 81.671 78.888v.14c-.023 9.448 3.514 18.554 10.195 25.235l354.488 354.488c11.715 11.717 11.715 30.712-.001 42.427z" fill="url(#SVGID_1_)"/><path d="m501.213 458.787-354.488-354.489c-6.681-6.681-10.218-15.787-10.195-25.235 0-.047 0-.093 0-.14 0-32.718-48.618-80.408-81.671-78.888-3.331.153-6.586.609-9.75 1.313 25.784 5.725 66.41 50.067 66.41 77.575v.14c-.013 9.616 3.802 18.842 10.602 25.642l162.098 162.098-29.921 29.921 17.685 17.685 8.782-8.782c11.675-11.675 30.604-11.675 42.279 0l153.158 153.159c11.716 11.716 11.716 30.711 0 42.426-2.597 2.597-5.553 4.616-8.707 6.062 11.073 5.075 24.6 3.057 33.719-6.062 11.715-11.714 11.715-30.709-.001-42.425z" fill="url(#SVGID_2_)"/></g><g><path d="m8.787 501.213c-11.716-11.716-11.716-30.711 0-42.426l354.488-354.489c6.681-6.681 10.218-15.787 10.195-25.235 0-.047 0-.093 0-.14 0-32.718 48.619-80.409 81.672-78.888 29.512 1.358 53.466 25.312 54.823 54.824 1.52 33.053-46.17 81.671-78.888 81.671-.047 0-.093 0-.14 0-9.448-.023-18.554 3.514-25.235 10.195l-354.489 354.488c-11.716 11.716-30.711 11.716-42.426 0z" fill="url(#SVGID_3_)"/></g><path d="m509.965 54.86c-1.357-29.512-25.311-53.466-54.823-54.824-6.489-.299-13.579 1.306-20.782 4.316 20.077 8.348 34.54 27.773 35.586 50.508 1.52 33.053-46.17 81.671-78.888 81.671-.047 0-.093 0-.14 0-9.448-.023-18.554 3.514-25.235 10.195l-354.49 354.487c-.393.393-.795.77-1.203 1.136 11.779 10.564 29.9 10.187 41.223-1.136l354.488-354.488c6.681-6.681 15.787-10.218 25.235-10.195h.14c32.718 0 80.409-48.618 78.889-81.67z" fill="url(#SVGID_4_)"/></g></svg>