<svg id="Capa_1" enable-background="new 0 0 510 510" height="512" viewBox="0 0 510 510" width="512" xmlns="http://www.w3.org/2000/svg" xmlns:xlink="http://www.w3.org/1999/xlink"><linearGradient id="lg1"><stop offset="0" stop-color="#f8f6f7"/><stop offset=".1788" stop-color="#f8f6f7"/><stop offset="1" stop-color="#e7e6f5"/></linearGradient><linearGradient id="SVGID_1_" gradientUnits="userSpaceOnUse" x1="39.88" x2="103.198" xlink:href="#lg1" y1="433.065" y2="433.065"/><linearGradient id="SVGID_2_" gradientUnits="userSpaceOnUse" x1="100.179" x2="163.497" xlink:href="#lg1" y1="433.065" y2="433.065"/><linearGradient id="SVGID_3_" gradientUnits="userSpaceOnUse" x1="160.479" x2="223.796" xlink:href="#lg1" y1="433.065" y2="433.065"/><linearGradient id="SVGID_4_" gradientUnits="userSpaceOnUse" x1="220.778" x2="284.095" xlink:href="#lg1" y1="433.065" y2="433.065"/><linearGradient id="SVGID_5_" gradientUnits="userSpaceOnUse" x1="281.077" x2="344.394" xlink:href="#lg1" y1="433.065" y2="433.065"/><linearGradient id="SVGID_6_" gradientUnits="userSpaceOnUse" x1="341.376" x2="404.694" xlink:href="#lg1" y1="433.065" y2="433.065"/><linearGradient id="SVGID_7_" gradientUnits="userSpaceOnUse" x1="401.676" x2="464.993" xlink:href="#lg1" y1="433.065" y2="433.065"/><linearGradient id="lg2"><stop offset="0" stop-color="#f8f6f7"/><stop offset="1" stop-color="#d1ceeb"/></linearGradient><linearGradient id="SVGID_8_" gradientUnits="userSpaceOnUse" x1="392.833" x2="453.07" xlink:href="#lg2" y1="433.067" y2="433.067"/><linearGradient id="SVGID_9_" gradientUnits="userSpaceOnUse" x1="17.383" x2="80.701" xlink:href="#lg2" y1="394.297" y2="394.297"/><linearGradient id="SVGID_10_" gradientUnits="userSpaceOnUse" x1="76.183" x2="139.501" xlink:href="#lg2" y1="385.362" y2="385.362"/><linearGradient id="SVGID_11_" gradientUnits="userSpaceOnUse" x1="142.483" x2="205.801" xlink:href="#lg2" y1="385.362" y2="385.362"/><linearGradient id="SVGID_12_" gradientUnits="userSpaceOnUse" x1="202.284" x2="265.591" xlink:href="#lg2" y1="385.362" y2="385.362"/><linearGradient id="SVGID_13_" gradientUnits="userSpaceOnUse" x1="267.573" x2="330.891" xlink:href="#lg2" y1="385.362" y2="385.362"/><linearGradient id="SVGID_14_" gradientUnits="userSpaceOnUse" x1="319.373" x2="382.691" xlink:href="#lg2" y1="385.362" y2="385.362"/><linearGradient id="SVGID_15_" gradientUnits="userSpaceOnUse" x1="464.247" x2="465.171" y1="494.972" y2="494.972"><stop offset="0" stop-color="#f2fbff"/><stop offset=".593" stop-color="#faf7f7"/><stop offset="1" stop-color="#f3eae6"/></linearGradient><linearGradient id="lg3"><stop offset="0" stop-color="#537983"/><stop offset=".593" stop-color="#554e56"/><stop offset="1" stop-color="#433f43"/></linearGradient><linearGradient id="SVGID_16_" gradientUnits="userSpaceOnUse" x1="83.162" x2="122.348" xlink:href="#lg3" y1="409.932" y2="409.932"/><linearGradient id="SVGID_17_" gradientUnits="userSpaceOnUse" x1="143.461" x2="182.647" xlink:href="#lg3" y1="409.932" y2="409.932"/><linearGradient id="SVGID_18_" gradientUnits="userSpaceOnUse" x1="264.06" x2="303.245" xlink:href="#lg3" y1="409.932" y2="409.932"/><linearGradient id="SVGID_19_" gradientUnits="userSpaceOnUse" x1="324.359" x2="363.545" xlink:href="#lg3" y1="409.932" y2="409.932"/><linearGradient id="SVGID_20_" gradientUnits="userSpaceOnUse" x1="384.658" x2="423.844" xlink:href="#lg3" y1="409.932" y2="409.932"/><linearGradient id="SVGID_21_" gradientUnits="userSpaceOnUse" x1="52" x2="118.03" xlink:href="#lg3" y1="385.362" y2="385.362"/><linearGradient id="SVGID_22_" gradientUnits="userSpaceOnUse" x1="353.496" x2="419.527" xlink:href="#lg3" y1="385.362" y2="385.362"/><linearGradient id="SVGID_23_" gradientUnits="userSpaceOnUse" x1="293.197" x2="359.227" xlink:href="#lg3" y1="385.362" y2="385.362"/><linearGradient id="SVGID_24_" gradientUnits="userSpaceOnUse" x1="232.898" x2="298.928" xlink:href="#lg3" y1="385.362" y2="385.362"/><linearGradient id="SVGID_25_" gradientUnits="userSpaceOnUse" x1="112.299" x2="178.33" xlink:href="#lg3" y1="385.362" y2="385.362"/><linearGradient id="SVGID_26_" gradientUnits="userSpaceOnUse" x1="-136.863" x2="568.443" xlink:href="#lg3" y1="255" y2="255"/><linearGradient id="SVGID_27_" gradientUnits="userSpaceOnUse" x1="-34.667" x2="86.046" xlink:href="#lg3" y1="447.44" y2="447.44"/><linearGradient id="SVGID_28_" gradientUnits="userSpaceOnUse" x1="-253.858" x2="408.602" xlink:href="#lg3" y1="255" y2="255"/><g><g><g><path d="m87.1 505.3h-25.526c-9.603 0-17.387-7.784-17.387-17.387v-109.696c0-9.603 7.784-17.387 17.387-17.387h25.526c9.603 0 17.387 7.784 17.387 17.387v109.696c0 9.602-7.785 17.387-17.387 17.387z" fill="url(#SVGID_1_)"/><path d="m147.399 505.3h-25.525c-9.603 0-17.387-7.784-17.387-17.387v-109.696c0-9.603 7.784-17.387 17.387-17.387h25.525c9.603 0 17.387 7.784 17.387 17.387v109.696c0 9.602-7.785 17.387-17.387 17.387z" fill="url(#SVGID_2_)"/><path d="m207.698 505.3h-25.525c-9.603 0-17.387-7.784-17.387-17.387v-109.696c0-9.603 7.784-17.387 17.387-17.387h25.525c9.603 0 17.387 7.784 17.387 17.387v109.696c0 9.602-7.784 17.387-17.387 17.387z" fill="url(#SVGID_3_)"/><path d="m267.997 505.3h-25.525c-9.603 0-17.387-7.784-17.387-17.387v-109.696c0-9.603 7.784-17.387 17.387-17.387h25.525c9.603 0 17.387 7.784 17.387 17.387v109.696c0 9.602-7.784 17.387-17.387 17.387z" fill="url(#SVGID_4_)"/><path d="m328.297 505.3h-25.525c-9.603 0-17.387-7.784-17.387-17.387v-109.696c0-9.603 7.784-17.387 17.387-17.387h25.525c9.603 0 17.387 7.784 17.387 17.387v109.696c0 9.602-7.785 17.387-17.387 17.387z" fill="url(#SVGID_5_)"/><path d="m388.596 505.3h-25.525c-9.603 0-17.387-7.784-17.387-17.387v-109.696c0-9.603 7.784-17.387 17.387-17.387h25.525c9.603 0 17.387 7.784 17.387 17.387v109.696c0 9.602-7.785 17.387-17.387 17.387z" fill="url(#SVGID_6_)"/><path d="m448.895 505.3h-25.525c-9.603 0-17.387-7.784-17.387-17.387v-109.696c0-9.603 7.784-17.387 17.387-17.387h25.525c9.603 0 17.387 7.784 17.387 17.387v109.696c0 9.602-7.784 17.387-17.387 17.387z" fill="url(#SVGID_7_)"/><path d="m466.28 378.212v109.7c0 1.36-.16 2.69-.46 3.96-1.78 7.69-8.68 13.43-16.92 13.43h-25.53c-2.59 0-5.04-.57-7.25-1.59 5.99-2.74 10.14-8.78 10.14-15.8v-78.02h-20.28v-31.68c0-7.01 4.16-13.05 10.14-15.79 2.21-1.02 4.66-1.59 7.25-1.59h25.53c9.6 0 17.38 7.78 17.38 17.38z" fill="url(#SVGID_8_)"/></g><g><path d="m104.49 378.212v31.68h-41.97c-9.96 0-18.08 7.96-18.33 17.87v-49.55c0-9.6 7.78-17.38 17.38-17.38h25.53c9.6 0 17.39 7.78 17.39 17.38z" fill="url(#SVGID_9_)"/><path d="m164.79 378.212v31.68h-60.3v-31.68c0-9.6 7.78-17.38 17.38-17.38h25.53c9.6 0 17.39 7.78 17.39 17.38z" fill="url(#SVGID_10_)"/><path d="m225.09 378.212v31.68h-60.3v-31.68c0-9.6 7.78-17.38 17.38-17.38h25.53c9.6 0 17.39 7.78 17.39 17.38z" fill="url(#SVGID_11_)"/><path d="m285.38 378.212v31.68h-60.29v-31.68c0-9.6 7.78-17.38 17.38-17.38h25.53c9.6 0 17.38 7.78 17.38 17.38z" fill="url(#SVGID_12_)"/><path d="m345.68 378.212v31.68h-60.3v-31.68c0-9.6 7.79-17.38 17.39-17.38h25.53c9.6 0 17.38 7.78 17.38 17.38z" fill="url(#SVGID_13_)"/><path d="m405.98 378.212v31.68h-60.3v-31.68c0-9.6 7.79-17.38 17.39-17.38h25.53c9.6 0 17.38 7.78 17.38 17.38z" fill="url(#SVGID_14_)"/><path d="m464.31 495.962c.33-.64.62-1.3.88-1.98-.25.68-.54 1.34-.88 1.98z" fill="url(#SVGID_15_)"/></g><path d="m111.868 459.035h-14.763c-6.228 0-11.277-5.049-11.277-11.277v-75.651c0-6.228 5.049-11.277 11.277-11.277h14.763c6.228 0 11.277 5.049 11.277 11.277v75.651c.001 6.228-5.048 11.277-11.277 11.277z" fill="url(#SVGID_16_)"/><path d="m172.168 459.035h-14.763c-6.228 0-11.277-5.049-11.277-11.277v-75.651c0-6.228 5.049-11.277 11.277-11.277h14.763c6.228 0 11.277 5.049 11.277 11.277v75.651c0 6.228-5.049 11.277-11.277 11.277z" fill="url(#SVGID_17_)"/><path d="m292.766 459.035h-14.763c-6.228 0-11.277-5.049-11.277-11.277v-75.651c0-6.228 5.049-11.277 11.277-11.277h14.763c6.228 0 11.277 5.049 11.277 11.277v75.651c0 6.228-5.049 11.277-11.277 11.277z" fill="url(#SVGID_18_)"/><path d="m353.065 459.035h-14.763c-6.228 0-11.277-5.049-11.277-11.277v-75.651c0-6.228 5.049-11.277 11.277-11.277h14.763c6.228 0 11.277 5.049 11.277 11.277v75.651c.001 6.228-5.048 11.277-11.277 11.277z" fill="url(#SVGID_19_)"/><path d="m413.365 459.035h-14.763c-6.228 0-11.277-5.049-11.277-11.277v-75.651c0-6.228 5.049-11.277 11.277-11.277h14.763c6.228 0 11.277 5.049 11.277 11.277v75.651c0 6.228-5.049 11.277-11.277 11.277z" fill="url(#SVGID_20_)"/><path d="m111.907 360.832h-14.841c-6.21.021-11.239 5.06-11.239 11.275v37.785h37.318v-37.785c.001-6.215-5.028-11.254-11.238-11.275z" fill="url(#SVGID_21_)"/><path d="m413.403 360.832h-14.841c-6.21.021-11.239 5.06-11.239 11.275v37.785h37.318v-37.785c.001-6.215-5.028-11.254-11.238-11.275z" fill="url(#SVGID_22_)"/><path d="m353.104 360.832h-14.841c-6.21.021-11.239 5.06-11.239 11.275v37.785h37.318v-37.785c.001-6.215-5.028-11.254-11.238-11.275z" fill="url(#SVGID_23_)"/><path d="m292.805 360.832h-14.841c-6.21.021-11.239 5.06-11.239 11.275v37.785h37.318v-37.785c0-6.215-5.028-11.254-11.238-11.275z" fill="url(#SVGID_24_)"/><path d="m172.206 360.832h-14.841c-6.21.021-11.239 5.06-11.239 11.275v37.785h37.318v-37.785c.001-6.215-5.028-11.254-11.238-11.275z" fill="url(#SVGID_25_)"/></g><path d="m327.025 173.771v-10.259c0-90.305-73.207-163.512-163.513-163.512-90.305 0-163.512 73.207-163.512 163.512v190.345c0 55.94 2.953 111.879 8.859 138.329l.934 4.199c1.776 7.954 8.843 13.615 16.992 13.615 4.801 0 9.157-1.952 12.302-5.096 3.154-3.154 5.096-7.502 5.096-12.311v-89.37c0-10.13 8.212-18.342 18.342-18.342h384.95c10.13 0 18.342 8.212 18.342 18.342v88.928c0 9.118 6.831 17.028 15.917 17.788 4.635.388 9.001-1.063 12.368-3.767 3.006-2.405 5.217-5.809 6.105-9.786l.934-4.199c5.906-26.449 8.859-82.389 8.859-138.329v-17.941c0-50.527-40.96-91.488-91.488-91.488h-20.83c-39.023-.001-70.657-31.635-70.657-70.658z" fill="url(#SVGID_26_)"/><path d="m37.514 384.881c-10.13 0-18.342 8.212-18.342 18.342v89.37c0 4.701-1.864 8.952-4.893 12.088 3.196 3.303 7.654 5.32 12.506 5.32 4.801 0 9.157-1.952 12.302-5.096 3.154-3.154 5.096-7.502 5.096-12.311v-89.37c0-10.13 8.212-18.342 18.342-18.342h-25.011z" fill="url(#SVGID_27_)"/><path d="m418.512 244.428h-20.83c-39.023 0-70.657-31.634-70.657-70.657v-10.259c0-90.305-73.207-163.512-163.512-163.512-6.775 0-13.451.42-20.01 1.22 80.865 9.868 143.502 78.761 143.502 162.292v10.259c0 39.023 31.634 70.657 70.657 70.657h20.83c50.527 0 91.488 40.96 91.488 91.488v17.941c0 38.345-1.388 76.686-4.163 105.533v32.761c0 9.118 6.831 17.028 15.917 17.788 4.635.388 9.001-1.063 12.368-3.767 3.006-2.405 5.217-5.809 6.105-9.786l.934-4.199c5.906-26.449 8.859-82.389 8.859-138.329v-17.941c0-50.528-40.96-91.489-91.488-91.489z" fill="url(#SVGID_28_)"/></g></svg>