<svg id="Capa_1" enable-background="new 0 0 510 510" height="512" viewBox="0 0 510 510" width="512" xmlns="http://www.w3.org/2000/svg" xmlns:xlink="http://www.w3.org/1999/xlink"><linearGradient id="lg1"><stop offset="0" stop-color="#f8f6f7"/><stop offset=".1788" stop-color="#f8f6f7"/><stop offset="1" stop-color="#e7e6f5"/></linearGradient><linearGradient id="SVGID_1_" gradientUnits="userSpaceOnUse" x1="39.88" x2="103.198" xlink:href="#lg1" y1="334.208" y2="334.208"/><linearGradient id="SVGID_2_" gradientUnits="userSpaceOnUse" x1="100.179" x2="163.497" xlink:href="#lg1" y1="334.208" y2="334.208"/><linearGradient id="SVGID_3_" gradientUnits="userSpaceOnUse" x1="160.479" x2="223.796" xlink:href="#lg1" y1="334.208" y2="334.208"/><linearGradient id="SVGID_4_" gradientUnits="userSpaceOnUse" x1="220.778" x2="284.095" xlink:href="#lg1" y1="334.208" y2="334.208"/><linearGradient id="SVGID_5_" gradientUnits="userSpaceOnUse" x1="281.077" x2="344.394" xlink:href="#lg1" y1="334.208" y2="334.208"/><linearGradient id="SVGID_6_" gradientUnits="userSpaceOnUse" x1="341.376" x2="404.694" xlink:href="#lg1" y1="334.208" y2="334.208"/><linearGradient id="SVGID_7_" gradientUnits="userSpaceOnUse" x1="401.676" x2="464.993" xlink:href="#lg1" y1="334.208" y2="334.208"/><linearGradient id="lg2"><stop offset="0" stop-color="#f8f6f7"/><stop offset="1" stop-color="#d1ceeb"/></linearGradient><linearGradient id="SVGID_8_" gradientUnits="userSpaceOnUse" x1="394.833" x2="455.07" xlink:href="#lg2" y1="334.21" y2="334.21"/><linearGradient id="SVGID_9_" gradientUnits="userSpaceOnUse" x1="21.383" x2="84.701" xlink:href="#lg2" y1="295.44" y2="295.44"/><linearGradient id="SVGID_10_" gradientUnits="userSpaceOnUse" x1="86.183" x2="149.501" xlink:href="#lg2" y1="286.505" y2="286.505"/><linearGradient id="SVGID_11_" gradientUnits="userSpaceOnUse" x1="147.983" x2="211.301" xlink:href="#lg2" y1="286.505" y2="286.505"/><linearGradient id="SVGID_12_" gradientUnits="userSpaceOnUse" x1="204.284" x2="267.591" xlink:href="#lg2" y1="286.505" y2="286.505"/><linearGradient id="SVGID_13_" gradientUnits="userSpaceOnUse" x1="265.573" x2="328.891" xlink:href="#lg2" y1="286.505" y2="286.505"/><linearGradient id="SVGID_14_" gradientUnits="userSpaceOnUse" x1="329.873" x2="393.191" xlink:href="#lg2" y1="286.505" y2="286.505"/><linearGradient id="SVGID_15_" gradientUnits="userSpaceOnUse" x1="464.247" x2="465.171" y1="396.115" y2="396.115"><stop offset="0" stop-color="#f2fbff"/><stop offset=".593" stop-color="#faf7f7"/><stop offset="1" stop-color="#f3eae6"/></linearGradient><linearGradient id="lg3"><stop offset="0" stop-color="#537983"/><stop offset=".593" stop-color="#554e56"/><stop offset="1" stop-color="#433f43"/></linearGradient><linearGradient id="SVGID_16_" gradientUnits="userSpaceOnUse" x1="83.162" x2="122.348" xlink:href="#lg3" y1="311.075" y2="311.075"/><linearGradient id="SVGID_17_" gradientUnits="userSpaceOnUse" x1="143.461" x2="182.647" xlink:href="#lg3" y1="311.075" y2="311.075"/><linearGradient id="SVGID_18_" gradientUnits="userSpaceOnUse" x1="264.06" x2="303.245" xlink:href="#lg3" y1="311.075" y2="311.075"/><linearGradient id="SVGID_19_" gradientUnits="userSpaceOnUse" x1="324.359" x2="363.545" xlink:href="#lg3" y1="311.075" y2="311.075"/><linearGradient id="SVGID_20_" gradientUnits="userSpaceOnUse" x1="384.658" x2="423.844" xlink:href="#lg3" y1="311.075" y2="311.075"/><linearGradient id="SVGID_21_" gradientUnits="userSpaceOnUse" x1="52" x2="118.03" xlink:href="#lg3" y1="286.505" y2="286.505"/><linearGradient id="SVGID_22_" gradientUnits="userSpaceOnUse" x1="353.496" x2="419.527" xlink:href="#lg3" y1="286.505" y2="286.505"/><linearGradient id="SVGID_23_" gradientUnits="userSpaceOnUse" x1="293.197" x2="359.227" xlink:href="#lg3" y1="286.505" y2="286.505"/><linearGradient id="SVGID_24_" gradientUnits="userSpaceOnUse" x1="232.898" x2="298.928" xlink:href="#lg3" y1="286.505" y2="286.505"/><linearGradient id="SVGID_25_" gradientUnits="userSpaceOnUse" x1="112.299" x2="178.33" xlink:href="#lg3" y1="286.505" y2="286.505"/><linearGradient id="SVGID_26_" gradientUnits="userSpaceOnUse" x1="-23.396" x2="659.933" xlink:href="#lg3" y1="255" y2="255"/><linearGradient id="SVGID_27_" gradientUnits="userSpaceOnUse" x1="-27.922" x2="137.506" xlink:href="#lg3" y1="348.584" y2="348.584"/><linearGradient id="SVGID_28_" gradientUnits="userSpaceOnUse" x1="173" x2="368.023" y1="193.005" y2="193.005"><stop offset="0" stop-color="#60b7ff"/><stop offset=".5857" stop-color="#0182fc"/><stop offset="1" stop-color="#2740b0"/></linearGradient><linearGradient id="SVGID_29_" gradientUnits="userSpaceOnUse" x1="-25.239" x2="153.861" xlink:href="#lg3" y1="132.157" y2="132.157"/><linearGradient id="SVGID_30_" gradientUnits="userSpaceOnUse" x1="-25.239" x2="153.861" xlink:href="#lg3" y1="161.157" y2="161.157"/><linearGradient id="SVGID_31_" gradientUnits="userSpaceOnUse" x1="-25.239" x2="153.861" xlink:href="#lg3" y1="190.157" y2="190.157"/><linearGradient id="SVGID_32_" gradientUnits="userSpaceOnUse" x1="-25.239" x2="153.861" xlink:href="#lg3" y1="219.157" y2="219.157"/><linearGradient id="SVGID_33_" gradientUnits="userSpaceOnUse" x1="164.583" x2="452.067" xlink:href="#lg3" y1="255" y2="255"/><linearGradient id="lg4"><stop offset="0" stop-color="#fe646f"/><stop offset=".593" stop-color="#fb2b3a"/><stop offset="1" stop-color="#c41926"/></linearGradient><linearGradient id="SVGID_34_" gradientUnits="userSpaceOnUse" x1="24.767" x2="63.241" xlink:href="#lg4" y1="253.852" y2="253.852"/><linearGradient id="SVGID_35_" gradientUnits="userSpaceOnUse" x1="66.165" x2="104.639" xlink:href="#lg4" y1="253.852" y2="253.852"/><linearGradient id="lg5"><stop offset="0" stop-color="#fef056"/><stop offset=".5213" stop-color="#fbc56d"/><stop offset="1" stop-color="#c86d36"/></linearGradient><linearGradient id="SVGID_36_" gradientUnits="userSpaceOnUse" x1="107.563" x2="146.037" xlink:href="#lg5" y1="253.852" y2="253.852"/><linearGradient id="SVGID_37_" gradientUnits="userSpaceOnUse" x1="352.422" x2="390.896" xlink:href="#lg5" y1="253.852" y2="253.852"/><linearGradient id="SVGID_38_" gradientUnits="userSpaceOnUse" x1="393.82" x2="432.294" xlink:href="#lg5" y1="253.852" y2="253.852"/><linearGradient id="SVGID_39_" gradientUnits="userSpaceOnUse" x1="435.218" x2="473.692" xlink:href="#lg5" y1="253.852" y2="253.852"/><g><g><path d="m87.1 406.443h-25.526c-9.603 0-17.387-7.784-17.387-17.387v-109.696c0-9.603 7.784-17.387 17.387-17.387h25.526c9.603 0 17.387 7.784 17.387 17.387v109.696c0 9.602-7.785 17.387-17.387 17.387z" fill="url(#SVGID_1_)"/><path d="m147.399 406.443h-25.525c-9.603 0-17.387-7.784-17.387-17.387v-109.696c0-9.603 7.784-17.387 17.387-17.387h25.525c9.603 0 17.387 7.784 17.387 17.387v109.696c0 9.602-7.785 17.387-17.387 17.387z" fill="url(#SVGID_2_)"/><path d="m207.698 406.443h-25.525c-9.603 0-17.387-7.784-17.387-17.387v-109.696c0-9.603 7.784-17.387 17.387-17.387h25.525c9.603 0 17.387 7.784 17.387 17.387v109.696c0 9.602-7.784 17.387-17.387 17.387z" fill="url(#SVGID_3_)"/><path d="m267.997 406.443h-25.525c-9.603 0-17.387-7.784-17.387-17.387v-109.696c0-9.603 7.784-17.387 17.387-17.387h25.525c9.603 0 17.387 7.784 17.387 17.387v109.696c0 9.602-7.784 17.387-17.387 17.387z" fill="url(#SVGID_4_)"/><path d="m328.297 406.443h-25.525c-9.603 0-17.387-7.784-17.387-17.387v-109.696c0-9.603 7.784-17.387 17.387-17.387h25.525c9.603 0 17.387 7.784 17.387 17.387v109.696c0 9.602-7.785 17.387-17.387 17.387z" fill="url(#SVGID_5_)"/><path d="m388.596 406.443h-25.525c-9.603 0-17.387-7.784-17.387-17.387v-109.696c0-9.603 7.784-17.387 17.387-17.387h25.525c9.603 0 17.387 7.784 17.387 17.387v109.696c0 9.602-7.785 17.387-17.387 17.387z" fill="url(#SVGID_6_)"/><path d="m448.895 406.443h-25.525c-9.603 0-17.387-7.784-17.387-17.387v-109.696c0-9.603 7.784-17.387 17.387-17.387h25.525c9.603 0 17.387 7.784 17.387 17.387v109.696c0 9.602-7.784 17.387-17.387 17.387z" fill="url(#SVGID_7_)"/><path d="m466.28 279.355v109.7c0 1.36-.16 2.69-.46 3.96-1.78 7.69-8.68 13.43-16.92 13.43h-25.53c-2.59 0-5.04-.57-7.25-1.59 5.99-2.74 10.14-8.78 10.14-15.8v-78.02h-20.28v-31.68c0-7.01 4.16-13.05 10.14-15.79 2.21-1.02 4.66-1.59 7.25-1.59h25.53c9.6 0 17.38 7.78 17.38 17.38z" fill="url(#SVGID_8_)"/></g><g><path d="m104.49 279.355v31.68h-41.97c-9.96 0-18.08 7.96-18.33 17.87v-49.55c0-9.6 7.78-17.38 17.38-17.38h25.53c9.6 0 17.39 7.78 17.39 17.38z" fill="url(#SVGID_9_)"/><path d="m164.79 279.355v31.68h-60.3v-31.68c0-9.6 7.78-17.38 17.38-17.38h25.53c9.6 0 17.39 7.78 17.39 17.38z" fill="url(#SVGID_10_)"/><path d="m225.09 279.355v31.68h-60.3v-31.68c0-9.6 7.78-17.38 17.38-17.38h25.53c9.6 0 17.39 7.78 17.39 17.38z" fill="url(#SVGID_11_)"/><path d="m285.38 279.355v31.68h-60.29v-31.68c0-9.6 7.78-17.38 17.38-17.38h25.53c9.6 0 17.38 7.78 17.38 17.38z" fill="url(#SVGID_12_)"/><path d="m345.68 279.355v31.68h-60.3v-31.68c0-9.6 7.79-17.38 17.39-17.38h25.53c9.6 0 17.38 7.78 17.38 17.38z" fill="url(#SVGID_13_)"/><path d="m405.98 279.355v31.68h-60.3v-31.68c0-9.6 7.79-17.38 17.39-17.38h25.53c9.6 0 17.38 7.78 17.38 17.38z" fill="url(#SVGID_14_)"/><path d="m464.31 397.105c.33-.64.62-1.3.88-1.98-.25.68-.54 1.34-.88 1.98z" fill="url(#SVGID_15_)"/></g><path d="m111.868 360.178h-14.763c-6.228 0-11.277-5.049-11.277-11.277v-75.651c0-6.228 5.049-11.277 11.277-11.277h14.763c6.228 0 11.277 5.049 11.277 11.277v75.651c.001 6.228-5.048 11.277-11.277 11.277z" fill="url(#SVGID_16_)"/><path d="m172.168 360.178h-14.763c-6.228 0-11.277-5.049-11.277-11.277v-75.651c0-6.228 5.049-11.277 11.277-11.277h14.763c6.228 0 11.277 5.049 11.277 11.277v75.651c0 6.228-5.049 11.277-11.277 11.277z" fill="url(#SVGID_17_)"/><path d="m292.766 360.178h-14.763c-6.228 0-11.277-5.049-11.277-11.277v-75.651c0-6.228 5.049-11.277 11.277-11.277h14.763c6.228 0 11.277 5.049 11.277 11.277v75.651c0 6.228-5.049 11.277-11.277 11.277z" fill="url(#SVGID_18_)"/><path d="m353.065 360.178h-14.763c-6.228 0-11.277-5.049-11.277-11.277v-75.651c0-6.228 5.049-11.277 11.277-11.277h14.763c6.228 0 11.277 5.049 11.277 11.277v75.651c.001 6.228-5.048 11.277-11.277 11.277z" fill="url(#SVGID_19_)"/><path d="m413.365 360.178h-14.763c-6.228 0-11.277-5.049-11.277-11.277v-75.651c0-6.228 5.049-11.277 11.277-11.277h14.763c6.228 0 11.277 5.049 11.277 11.277v75.651c0 6.228-5.049 11.277-11.277 11.277z" fill="url(#SVGID_20_)"/><path d="m111.907 261.975h-14.841c-6.21.021-11.239 5.06-11.239 11.275v37.785h37.318v-37.785c.001-6.215-5.028-11.254-11.238-11.275z" fill="url(#SVGID_21_)"/><path d="m413.403 261.975h-14.841c-6.21.021-11.239 5.06-11.239 11.275v37.785h37.318v-37.785c.001-6.215-5.028-11.254-11.238-11.275z" fill="url(#SVGID_22_)"/><path d="m353.104 261.975h-14.841c-6.21.021-11.239 5.06-11.239 11.275v37.785h37.318v-37.785c.001-6.215-5.028-11.254-11.238-11.275z" fill="url(#SVGID_23_)"/><path d="m292.805 261.975h-14.841c-6.21.021-11.239 5.06-11.239 11.275v37.785h37.318v-37.785c0-6.215-5.028-11.254-11.238-11.275z" fill="url(#SVGID_24_)"/><path d="m172.206 261.975h-14.841c-6.21.021-11.239 5.06-11.239 11.275v37.785h37.318v-37.785c.001-6.215-5.028-11.254-11.238-11.275z" fill="url(#SVGID_25_)"/><path d="m501.141 393.329-.934 4.199c-.888 3.977-3.099 7.381-6.105 9.786-3.006 2.414-6.808 3.829-10.887 3.829-9.61 0-17.398-7.797-17.398-17.408v-89.37c0-10.128-8.214-18.342-18.342-18.342h-384.95c-10.128 0-18.342 8.214-18.342 18.342v89.37c0 4.81-1.942 9.157-5.097 12.311-3.145 3.145-7.501 5.096-12.302 5.096-8.149 0-15.216-5.661-16.992-13.615l-.934-4.199c-11.812-52.899-11.812-223.759 0-276.657l.934-4.199c1.776-7.955 8.843-13.615 16.992-13.615h456.431c8.149 0 15.216 5.661 16.992 13.615l.934 4.199c11.812 52.899 11.812 223.759 0 276.658z" fill="url(#SVGID_26_)"/><path d="m38.514 286.024c-10.128 0-18.342 8.214-18.342 18.342v89.37c0 4.81-1.943 9.157-5.097 12.311-.098.098-.207.184-.308.28 3.154 3.008 7.412 4.817 12.017 4.817 4.801 0 9.157-1.952 12.302-5.096 3.154-3.154 5.097-7.502 5.097-12.311v-89.37c0-10.128 8.214-18.342 18.342-18.342h-24.011z" fill="url(#SVGID_27_)"/><path d="m311.457 261.352h-112.914c-10.928 0-19.787-8.859-19.787-19.787v-97.122c0-10.928 8.859-19.787 19.787-19.787h112.915c10.928 0 19.787 8.859 19.787 19.787v97.122c-.001 10.929-8.86 19.787-19.788 19.787z" fill="url(#SVGID_28_)"/><g><path d="m136.397 139.657h-90.449c-4.142 0-7.5-3.358-7.5-7.5s3.358-7.5 7.5-7.5h90.449c4.142 0 7.5 3.358 7.5 7.5s-3.358 7.5-7.5 7.5z" fill="url(#SVGID_29_)"/><path d="m136.397 168.657h-90.449c-4.142 0-7.5-3.358-7.5-7.5s3.358-7.5 7.5-7.5h90.449c4.142 0 7.5 3.358 7.5 7.5s-3.358 7.5-7.5 7.5z" fill="url(#SVGID_30_)"/><path d="m136.397 197.657h-90.449c-4.142 0-7.5-3.358-7.5-7.5s3.358-7.5 7.5-7.5h90.449c4.142 0 7.5 3.358 7.5 7.5s-3.358 7.5-7.5 7.5z" fill="url(#SVGID_31_)"/><path d="m136.397 226.657h-90.449c-4.142 0-7.5-3.358-7.5-7.5s3.358-7.5 7.5-7.5h90.449c4.142 0 7.5 3.358 7.5 7.5s-3.358 7.5-7.5 7.5z" fill="url(#SVGID_32_)"/></g><path d="m501.141 116.672-.934-4.199c-1.776-7.955-8.843-13.615-16.992-13.615h-40.02c8.149 0 15.216 5.661 16.992 13.615 0 0 0 .001.001.003 1.34 6.268-3.438 12.182-9.847 12.182h-76.423c-4.107 0-7.688 3.164-7.811 7.269-.128 4.247 3.278 7.731 7.497 7.731 0 0 62.805-.009 84.159-.026 4.029-.003 7.233 3.407 6.945 7.426l-.013.184c-.262 3.616-3.272 6.416-6.898 6.416h-83.878c-4.107 0-7.688 3.164-7.811 7.269-.128 4.247 3.278 7.731 7.497 7.731h90.449.035c1.806-.004 3.383 1.463 3.499 3.265.151 2.368.296 4.774.433 7.213.111 1.98-1.511 3.661-3.49 3.537-.157-.01-.316-.015-.476-.015h-90.134c-4.107 0-7.688 3.164-7.811 7.269-.128 4.247 3.278 7.731 7.497 7.731h90.449.054c2.635-.009 4.877 2.134 4.97 4.768.051 1.434.1 2.875.147 4.322.09 2.776-2.201 4.984-4.978 4.913-.064-.002-.129-.002-.194-.002h-90.134c-4.107 0-7.688 3.164-7.811 7.269-.128 4.247 3.278 7.731 7.497 7.731h90.449c.224 0 .446-.01.665-.029 2.672-.236 5.039 1.688 5.08 4.37.703 45.87-.624 94.648-3.98 129.535v32.76c0 9.118 6.831 17.028 15.917 17.788 4.636.388 9.001-1.063 12.368-3.767 3.006-2.405 5.217-5.809 6.105-9.786l.934-4.199c11.808-52.901 11.808-223.761-.004-276.659z" fill="url(#SVGID_33_)"/><g><path d="m38.448 253.207v1.291c0 3.786 3.069 6.854 6.854 6.854h8.943c3.786 0 6.854-3.069 6.854-6.854v-1.291c0-3.786-3.069-6.854-6.854-6.854h-8.943c-3.785-.001-6.854 3.068-6.854 6.854z" fill="url(#SVGID_34_)"/><path d="m79.846 253.207v1.291c0 3.786 3.069 6.854 6.854 6.854h8.943c3.786 0 6.854-3.069 6.854-6.854v-1.291c0-3.786-3.069-6.854-6.854-6.854h-8.943c-3.785-.001-6.854 3.068-6.854 6.854z" fill="url(#SVGID_35_)"/><path d="m121.244 253.207v1.291c0 3.786 3.069 6.854 6.854 6.854h8.943c3.786 0 6.854-3.069 6.854-6.854v-1.291c0-3.786-3.069-6.854-6.854-6.854h-8.943c-3.785-.001-6.854 3.068-6.854 6.854z" fill="url(#SVGID_36_)"/></g><g><path d="m366.103 253.207v1.291c0 3.786 3.069 6.854 6.854 6.854h8.943c3.786 0 6.854-3.069 6.854-6.854v-1.291c0-3.786-3.069-6.854-6.854-6.854h-8.943c-3.785-.001-6.854 3.068-6.854 6.854z" fill="url(#SVGID_37_)"/><path d="m407.501 253.207v1.291c0 3.786 3.069 6.854 6.854 6.854h8.943c3.786 0 6.854-3.069 6.854-6.854v-1.291c0-3.786-3.069-6.854-6.854-6.854h-8.943c-3.785-.001-6.854 3.068-6.854 6.854z" fill="url(#SVGID_38_)"/><path d="m448.9 253.207v1.291c0 3.786 3.069 6.854 6.854 6.854h8.943c3.786 0 6.854-3.069 6.854-6.854v-1.291c0-3.786-3.069-6.854-6.854-6.854h-8.943c-3.786-.001-6.854 3.068-6.854 6.854z" fill="url(#SVGID_39_)"/></g></g></svg>