<svg id="Capa_1" enable-background="new 0 0 510 510" height="512" viewBox="0 0 510 510" width="512" xmlns="http://www.w3.org/2000/svg" xmlns:xlink="http://www.w3.org/1999/xlink"><linearGradient id="lg1"><stop offset="0" stop-color="#537983"/><stop offset=".593" stop-color="#554e56"/><stop offset="1" stop-color="#433f43"/></linearGradient><linearGradient id="SVGID_1_" gradientUnits="userSpaceOnUse" x1="142.049" x2="425.77" xlink:href="#lg1" y1="300.105" y2="300.105"/><linearGradient id="SVGID_2_" gradientUnits="userSpaceOnUse" x1="218.1" x2="278.146" xlink:href="#lg1" y1="246.279" y2="246.279"/><linearGradient id="SVGID_3_" gradientUnits="userSpaceOnUse" x1="260.767" x2="352.161" xlink:href="#lg1" y1="209.294" y2="209.294"/><linearGradient id="SVGID_4_" gradientUnits="userSpaceOnUse" x1="112.1" x2="249.467" xlink:href="#lg1" y1="473.492" y2="473.492"/><linearGradient id="lg2"><stop offset="0" stop-color="#fef056"/><stop offset=".5213" stop-color="#fbc56d"/><stop offset="1" stop-color="#c86d36"/></linearGradient><linearGradient id="SVGID_5_" gradientUnits="userSpaceOnUse" x1="93.286" x2="242.733" xlink:href="#lg2" y1="54.167" y2="54.167"/><linearGradient id="SVGID_6_" gradientUnits="userSpaceOnUse" x1="44.1" x2="213.426" xlink:href="#lg2" y1="54.179" y2="54.179"/><linearGradient id="SVGID_7_" gradientUnits="userSpaceOnUse" x1="109.266" x2="219.731" xlink:href="#lg2" y1="157.732" y2="157.732"/><linearGradient id="SVGID_8_" gradientUnits="userSpaceOnUse" x1="40.6" x2="238.596" xlink:href="#lg2" y1="157.733" y2="157.733"/><linearGradient id="lg3"><stop offset="0" stop-color="#60b7ff"/><stop offset=".5857" stop-color="#0182fc"/><stop offset="1" stop-color="#2740b0"/></linearGradient><linearGradient id="SVGID_9_" gradientUnits="userSpaceOnUse" x1="71.23" x2="213.496" xlink:href="#lg3" y1="446.943" y2="446.943"/><linearGradient id="SVGID_10_" gradientUnits="userSpaceOnUse" x1="56.434" x2="197.769" xlink:href="#lg3" y1="446.943" y2="446.943"/><linearGradient id="SVGID_11_" gradientUnits="userSpaceOnUse" x1="69.697" x2="276.687" xlink:href="#lg3" y1="309.492" y2="309.492"/><linearGradient id="SVGID_12_" gradientUnits="userSpaceOnUse" x1="42.434" x2="247.102" xlink:href="#lg3" y1="309.492" y2="309.492"/><linearGradient id="SVGID_13_" gradientUnits="userSpaceOnUse" x1="131.1" x2="179.119" y1="309.492" y2="309.492"><stop offset="0" stop-color="#f8f6f7"/><stop offset=".1788" stop-color="#f8f6f7"/><stop offset="1" stop-color="#e7e6f5"/></linearGradient><linearGradient id="SVGID_14_" gradientUnits="userSpaceOnUse" x1="285.434" x2="452.141" xlink:href="#lg2" y1="72.207" y2="72.207"/><linearGradient id="SVGID_16_" gradientUnits="userSpaceOnUse" x1="285.434" x2="452.141" xlink:href="#lg2" y1="54.589" y2="54.589"/><g><g><path d="m241.531 510h-54.411c-24.852 0-45.071-20.219-45.071-45.071v-10.391c0-6.904 5.597-12.5 12.5-12.5s12.5 5.596 12.5 12.5v10.391c0 11.067 9.004 20.071 20.071 20.071h54.411c34.625 0 62.794-28.169 62.794-62.794v-164.173c-6.844 1.544-13.956 2.358-21.26 2.358-25.508 0-46.26-20.752-46.26-46.26v-.689c0-25.508 20.752-46.26 46.26-46.26s46.26 20.752 46.26 46.26v4.938c15.455-13.132 25.275-32.702 25.275-54.524v-61.146c0-6.904 5.597-12.5 12.5-12.5s12.5 5.596 12.5 12.5v61.146c0 36.482-20.339 68.3-50.275 84.712v173.638c0 48.41-39.384 87.794-87.794 87.794zm41.534-317.818c-11.723 0-21.26 9.537-21.26 21.26v.689c0 11.723 9.537 21.26 21.26 21.26 7.401 0 14.54-1.129 21.26-3.225v-18.725c0-11.722-9.537-21.259-21.26-21.259z" fill="url(#SVGID_1_)"/><path d="m283.065 235.391c-1.282 0-2.531-.133-3.751-.352v25.187c1.239.1 2.487.165 3.751.165 7.304 0 14.416-.814 21.26-2.358v-25.866c-6.72 2.095-13.859 3.224-21.26 3.224z" fill="url(#SVGID_2_)"/><path d="m354.336 170.02c-1.657 19.323-11.027 36.477-25.011 48.36v30.188c9.393-5.149 17.84-11.817 25.011-19.668z" fill="url(#SVGID_3_)"/><path d="m202.624 485h-15.504c-11.067 0-20.071-9.004-20.071-20.071v-10.391c0-2.409-.693-4.652-1.875-6.56h-21.251c-1.181 1.909-1.875 4.151-1.875 6.56v10.391c0 13.602 6.065 25.806 15.623 34.077h22.604c9.833 0 18.328-5.716 22.349-14.006z" fill="url(#SVGID_4_)"/></g><path d="m205.262 32.578-2.857-4.949c-21.269-36.839-74.441-36.839-95.71 0l-2.857 4.949c-6.791 11.763 1.698 26.466 15.28 26.466 5.648 0 10.227 4.579 10.227 10.227v39.063h50.41v-39.063c0-5.648 4.579-10.227 10.227-10.227 13.582 0 22.071-14.703 15.28-26.466z" fill="url(#SVGID_5_)"/><path d="m205.262 32.578-2.857-4.949c-13.035-22.577-38.047-31.292-60.36-26.196 14.095 3.219 27.115 11.934 35.349 26.196l2.857 4.949c6.791 11.763-1.698 26.466-15.28 26.466-5.648 0-10.227 4.579-10.227 10.227v39.063h25.011v-39.063c0-5.648 4.579-10.227 10.227-10.227 13.582 0 22.071-14.703 15.28-26.466z" fill="url(#SVGID_6_)"/><path d="m193.8 224.059h-78.502v-116.554c0-8.892 7.208-16.1 16.1-16.1h46.303c8.892 0 16.1 7.208 16.1 16.1v116.554z" fill="url(#SVGID_7_)"/><path d="m177.701 91.406h-25.011c8.892 0 16.1 7.208 16.1 16.1v2.829h-37.66c-4.107 0-7.688 3.165-7.811 7.269-.127 4.247 3.278 7.731 7.497 7.731h20.58c9.607 0 17.395 7.788 17.395 17.395v.535h-37.66c-4.107 0-7.688 3.165-7.811 7.269-.127 4.247 3.278 7.731 7.497 7.731h20.58c9.607 0 17.395 7.788 17.395 17.395v48.4h25.011v-116.555c-.002-8.891-7.211-16.099-16.102-16.099z" fill="url(#SVGID_8_)"/><path d="m180.276 472.456h-51.453c-13.71 0-24.825-11.114-24.825-24.825v-26.203h101.102v26.203c0 13.711-11.114 24.825-24.824 24.825z" fill="url(#SVGID_9_)"/><path d="m180.089 421.429v26.203c0 13.71-11.114 24.825-24.825 24.825h25.011c13.71 0 24.825-11.114 24.825-24.825v-26.203z" fill="url(#SVGID_10_)"/><path d="m172.217 444.79h-35.335c-30.863 0-55.882-25.019-55.882-55.882v-193.345c0-11.802 9.567-21.369 21.369-21.369h104.36c11.802 0 21.369 9.567 21.369 21.369v193.345c.001 30.863-25.019 55.882-55.881 55.882z" fill="url(#SVGID_11_)"/><path d="m206.729 174.194h-40.02c11.802 0 21.369 9.567 21.369 21.369v193.345c0 30.077-23.764 54.593-53.539 55.823.778.032 1.557.059 2.343.059h35.335c30.863 0 55.882-25.019 55.882-55.882v-193.345c0-11.802-9.568-21.369-21.37-21.369z" fill="url(#SVGID_12_)"/><path d="m167.059 268.904v81.175c0 4.599-3.728 8.327-8.327 8.327h-8.365c-4.599 0-8.327-3.728-8.327-8.327v-81.175c0-4.599 3.728-8.327 8.327-8.327h8.365c4.599 0 8.327 3.728 8.327 8.327z" fill="url(#SVGID_13_)"/><g><path d="m322.606 55.937c-3.905-3.905-10.237-3.905-14.142 0-3.905 3.905-3.905 10.237 0 14.142l18.398 18.398c3.905 3.905 10.237 3.905 14.142 0 3.905-3.905 3.905-10.237 0-14.142z" fill="url(#SVGID_14_)"/><path d="m426.071 55.937c-3.905-3.905-10.237-3.905-14.142 0l-18.397 18.397c-3.905 3.905-3.905 10.237 0 14.142 3.905 3.905 10.237 3.905 14.142 0l18.397-18.397c3.905-3.905 3.905-10.237 0-14.142z" fill="url(#SVGID_14_)"/><path d="m367.267 31.58c-5.523 0-10 4.477-10 10v26.018c0 5.523 4.477 10 10 10s10-4.477 10-10v-26.018c0-5.523-4.477-10-10-10z" fill="url(#SVGID_16_)"/></g></g></svg>