<svg id="Capa_1" enable-background="new 0 0 510 510" height="512" viewBox="0 0 510 510" width="512" xmlns="http://www.w3.org/2000/svg" xmlns:xlink="http://www.w3.org/1999/xlink"><linearGradient id="lg1"><stop offset="0" stop-color="#537983"/><stop offset=".593" stop-color="#554e56"/><stop offset="1" stop-color="#433f43"/></linearGradient><linearGradient id="SVGID_1_" gradientUnits="userSpaceOnUse" x1="99.993" x2="179.545" xlink:href="#lg1" y1="301.223" y2="301.223"/><linearGradient id="SVGID_2_" gradientUnits="userSpaceOnUse" x1="180.846" x2="260.398" xlink:href="#lg1" y1="301.223" y2="301.223"/><linearGradient id="SVGID_3_" gradientUnits="userSpaceOnUse" x1="261.699" x2="341.251" xlink:href="#lg1" y1="301.223" y2="301.223"/><linearGradient id="SVGID_4_" gradientUnits="userSpaceOnUse" x1="342.552" x2="422.104" xlink:href="#lg1" y1="301.223" y2="301.223"/><linearGradient id="SVGID_5_" gradientUnits="userSpaceOnUse" x1="-22.667" x2="250.719" xlink:href="#lg1" y1="187.15" y2="187.15"/><linearGradient id="lg2"><stop offset="0" stop-color="#fef056"/><stop offset=".5213" stop-color="#fbc56d"/><stop offset="1" stop-color="#c86d36"/></linearGradient><linearGradient id="SVGID_9_" gradientUnits="userSpaceOnUse" x1="-34" x2="636.585" xlink:href="#lg2" y1="255" y2="255"/><linearGradient id="SVGID_10_" gradientUnits="userSpaceOnUse" x1="-51.841" x2="553.166" xlink:href="#lg2" y1="255" y2="255"/><linearGradient id="SVGID_11_" gradientUnits="userSpaceOnUse" x1="-24.896" x2="247.259" xlink:href="#lg2" y1="210.667" y2="210.667"/><linearGradient id="SVGID_12_" gradientUnits="userSpaceOnUse" x1="14.156" x2="510.688" y1="163.414" y2="163.414"><stop offset="0" stop-color="#f8f6f7"/><stop offset=".1788" stop-color="#f8f6f7"/><stop offset="1" stop-color="#e7e6f5"/></linearGradient><linearGradient id="SVGID_13_" gradientUnits="userSpaceOnUse" x1="216.646" x2="497.232" y1="163.414" y2="163.414"><stop offset="0" stop-color="#f8f6f7"/><stop offset="1" stop-color="#d1ceeb"/></linearGradient><g><g><path d="m123.721 157.726v276.993c0 5.523 4.477 10 10 10s10-4.477 10-10v-276.993z" fill="url(#SVGID_1_)"/><path d="m204.574 157.726v276.993c0 5.523 4.477 10 10 10s10-4.477 10-10v-276.993z" fill="url(#SVGID_2_)"/><path d="m285.426 157.726v276.993c0 5.523 4.477 10 10 10s10-4.477 10-10v-276.993z" fill="url(#SVGID_3_)"/><path d="m366.279 157.726v276.993c0 5.523 4.477 10 10 10s10-4.477 10-10v-276.993z" fill="url(#SVGID_4_)"/></g><g fill="url(#SVGID_5_)"><path d="m123.72 157.73h20v58.84h-20z"/><path d="m204.57 157.73h20v58.84h-20z"/><path d="m285.43 157.73h20v58.84h-20z"/><path d="m366.28 157.73h20v58.84h-20z"/></g><path d="m477.86 130.479c19.883-13.033 32.832-35.768 32.111-61.482-1.053-37.549-31.721-68.08-69.274-68.976-40.027-.955-72.774 31.207-72.774 71.018 0 11.555 2.776 22.454 7.671 32.098.562 1.729 58.41 138.373 58.41 138.373 15.783 41.774 10.093 86.83-15.633 123.425-25.054 35.639-66.281 56.4-109.845 56.4h-107.052c-43.564 0-84.791-20.761-109.845-56.4-25.726-36.595-31.416-81.651-15.633-123.425 0 0 57.848-136.644 58.41-138.372 5.084-10.016 7.882-21.387 7.658-33.439-.703-37.902-31.602-68.888-69.503-69.681-39.93-.838-72.561 31.28-72.561 71.02 0 24.97 12.886 46.925 32.369 59.59 11.779 7.656 16.421 22.646 11.455 35.788l-28.633 75.785c-11.842 31.345-15.587 63.806-11.131 96.484 4.173 30.601 15.742 60.323 33.457 85.952s41.429 46.956 68.58 61.676c28.992 15.717 60.683 23.687 94.189 23.687h109.428c33.506 0 65.197-7.97 94.19-23.688 27.151-14.72 50.865-36.047 68.58-61.676s29.283-55.351 33.457-85.952c4.456-32.677.711-65.139-11.131-96.483l-28.739-76.065c-4.981-13.179.006-27.934 11.789-35.657z" fill="url(#SVGID_9_)"/><path d="m466.07 166.137c-4.982-13.185.018-27.937 11.804-35.667 19.828-13.004 32.756-35.657 32.102-61.289-.943-36.942-30.588-67.313-67.499-69.096-8.228-.398-16.164.613-23.597 2.799 28.799 8.491 50.195 34.863 51.071 66.113.721 25.694-12.208 48.413-32.065 61.451-11.794 7.744-16.823 22.49-11.837 35.689l7.181 19.006h-23.075c4.817 11.39 9.428 22.291 13.293 31.426 13.032 0 24.703 8.067 29.308 20.257l2.031 5.375c11.842 31.344 15.587 63.806 11.131 96.483-4.173 30.601-15.742 60.323-33.457 85.952s-41.429 46.956-68.58 61.676c-28.99 15.718-60.681 23.688-94.187 23.688h40.02c33.506 0 65.197-7.97 94.19-23.688 27.151-14.72 50.865-36.047 68.58-61.676s29.283-55.351 33.457-85.952c4.456-32.677.711-65.139-11.131-96.483z" fill="url(#SVGID_10_)"/><path d="m91.629 364.933c-25.726-36.595-31.416-81.651-15.633-123.425 0 0 57.848-136.644 58.41-138.372 5.371-10.581 8.191-22.675 7.591-35.487-1.702-36.384-31.195-65.883-67.58-67.571-8.183-.38-16.077.629-23.472 2.805 29.025 8.558 50.513 35.283 51.098 66.813.224 12.052-2.575 23.423-7.658 33.439-.314.967-18.551 44.142-34.562 82.007h-23.074l-11.873 31.426c10.274 0 17.218 10.487 13.213 19.948-1.35 3.19-2.112 4.99-2.112 4.99-15.783 41.774-10.093 86.83 15.633 123.425 25.054 35.639 66.281 56.4 109.845 56.4h40.02c-43.565.002-84.792-20.759-109.846-56.398z" fill="url(#SVGID_11_)"/><path d="m460.033 135.271h-410.066c-15.543 0-28.144 12.6-28.144 28.144 0 15.543 12.6 28.144 28.144 28.144h410.067c15.543 0 28.144-12.6 28.144-28.144-.001-15.544-12.601-28.144-28.145-28.144z" fill="url(#SVGID_12_)"/><path d="m460.033 135.271h-40.02c15.543 0 28.144 12.6 28.144 28.144 0 15.543-12.6 28.144-28.144 28.144h40.02c15.543 0 28.144-12.6 28.144-28.144 0-15.544-12.6-28.144-28.144-28.144z" fill="url(#SVGID_13_)"/></g></svg>