<svg id="Capa_1" enable-background="new 0 0 510 510" height="512" viewBox="0 0 510 510" width="512" xmlns="http://www.w3.org/2000/svg" xmlns:xlink="http://www.w3.org/1999/xlink"><linearGradient id="lg1"><stop offset="0" stop-color="#fef056"/><stop offset=".5213" stop-color="#fbc56d"/><stop offset="1" stop-color="#c86d36"/></linearGradient><linearGradient id="SVGID_1_" gradientUnits="userSpaceOnUse" x1="2.415" x2="145.975" xlink:href="#lg1" y1="273.189" y2="273.189"/><linearGradient id="SVGID_2_" gradientUnits="userSpaceOnUse" x1="-31.025" x2="130.975" xlink:href="#lg1" y1="273.189" y2="273.189"/><linearGradient id="SVGID_3_" gradientUnits="userSpaceOnUse" x1="391.44" x2="535" xlink:href="#lg1" y1="273.189" y2="273.189"/><linearGradient id="SVGID_4_" gradientUnits="userSpaceOnUse" x1="358" x2="520" xlink:href="#lg1" y1="273.189" y2="273.189"/><linearGradient id="SVGID_5_" gradientUnits="userSpaceOnUse" x1="304.659" x2="448.22" xlink:href="#lg1" y1="132.03" y2="132.03"/><linearGradient id="SVGID_6_" gradientUnits="userSpaceOnUse" x1="271.219" x2="433.219" xlink:href="#lg1" y1="132.03" y2="132.03"/><linearGradient id="SVGID_7_" gradientUnits="userSpaceOnUse" x1="89.195" x2="232.756" xlink:href="#lg1" y1="132.03" y2="132.03"/><linearGradient id="SVGID_8_" gradientUnits="userSpaceOnUse" x1="55.756" x2="217.756" xlink:href="#lg1" y1="132.03" y2="132.03"/><linearGradient id="lg2"><stop offset="0" stop-color="#bbec6c"/><stop offset=".5857" stop-color="#78a91f"/><stop offset="1" stop-color="#02905d"/></linearGradient><linearGradient id="SVGID_9_" gradientUnits="userSpaceOnUse" x1="31" x2="527" xlink:href="#lg2" y1="257.539" y2="257.539"/><linearGradient id="SVGID_10_" gradientUnits="userSpaceOnUse" x1="77.333" x2="272.002" xlink:href="#lg2" y1="370.025" y2="370.025"/><linearGradient id="SVGID_11_" gradientUnits="userSpaceOnUse" x1="21.333" x2="223.773" xlink:href="#lg2" y1="264.076" y2="264.076"/><linearGradient id="SVGID_12_" gradientUnits="userSpaceOnUse" x1="-77" x2="406.299" xlink:href="#lg2" y1="257.539" y2="257.539"/><linearGradient id="lg3"><stop offset="0" stop-color="#537983"/><stop offset=".593" stop-color="#554e56"/><stop offset="1" stop-color="#433f43"/></linearGradient><linearGradient id="SVGID_13_" gradientUnits="userSpaceOnUse" x1="184.029" x2="325.971" xlink:href="#lg3" y1="364.771" y2="364.771"/><linearGradient id="SVGID_14_" gradientUnits="userSpaceOnUse" x1="152" x2="304.072" xlink:href="#lg3" y1="364.77" y2="364.77"/><g><g><circle cx="60.487" cy="273.189" fill="url(#SVGID_1_)" r="60.487"/><path d="m60.487 212.702c-4.998 0-9.85.618-14.495 1.761 26.404 6.496 45.992 30.318 45.992 58.727 0 28.408-19.589 52.231-45.992 58.727 4.645 1.143 9.497 1.761 14.495 1.761 33.406 0 60.487-27.081 60.487-60.487s-27.08-60.489-60.487-60.489z" fill="url(#SVGID_2_)"/></g><g><circle cx="449.513" cy="273.189" fill="url(#SVGID_3_)" r="60.487"/><path d="m449.513 212.702c-4.998 0-9.85.618-14.495 1.761 26.404 6.496 45.992 30.318 45.992 58.727 0 28.408-19.589 52.231-45.992 58.727 4.645 1.143 9.497 1.761 14.495 1.761 33.406 0 60.487-27.081 60.487-60.487s-27.081-60.489-60.487-60.489z" fill="url(#SVGID_4_)"/></g><g><g><circle cx="362.732" cy="132.03" fill="url(#SVGID_5_)" r="60.487"/><path d="m362.732 71.543c-4.998 0-9.85.618-14.495 1.761 26.404 6.496 45.992 30.318 45.992 58.727s-19.589 52.231-45.992 58.727c4.645 1.143 9.497 1.761 14.495 1.761 33.406 0 60.487-27.081 60.487-60.487s-27.081-60.489-60.487-60.489z" fill="url(#SVGID_6_)"/></g><g><circle cx="147.268" cy="132.03" fill="url(#SVGID_7_)" r="60.487"/><path d="m147.268 71.543c-4.998 0-9.85.618-14.495 1.761 26.404 6.496 45.992 30.318 45.992 58.727s-19.589 52.231-45.992 58.727c4.645 1.143 9.497 1.761 14.495 1.761 33.406 0 60.487-27.081 60.487-60.487s-27.081-60.489-60.487-60.489z" fill="url(#SVGID_8_)"/></g></g><path d="m399.639 438.457c-13.462 0-26.588-4.589-37.237-13.236-30.67-24.907-67.81-38.073-107.403-38.073-39.594 0-76.734 13.166-107.404 38.073-13.697 11.124-31.495 15.53-48.829 12.088-17.448-3.464-32.322-14.428-40.808-30.081-17.636-32.53-26.958-69.395-26.958-106.607 0-59.833 23.3-116.084 65.608-158.392s98.559-65.608 158.392-65.608c59.481 0 115.439 22.919 157.565 64.537 42.132 41.623 65.72 97.3 66.42 156.774.45 38.185-8.878 76-26.975 109.356-8.476 15.624-23.335 26.568-40.766 30.026-3.863.767-7.748 1.143-11.605 1.143zm-144.639-104.78c51.265 0 101.379 17.77 141.111 50.036 1.711 1.389 3.518 1.392 4.728 1.152 1.047-.207 2.981-.883 4.17-3.076 13.759-25.36 20.85-54.14 20.508-83.228-.533-45.308-18.479-87.699-50.533-119.365-32.052-31.665-74.664-49.105-119.984-49.104-94.03 0-170.528 76.499-170.528 170.529 0 28.34 7.087 56.392 20.496 81.125 1.206 2.224 3.157 2.908 4.213 3.117 1.208.238 3.003.235 4.709-1.148 39.729-32.267 89.844-50.038 141.11-50.038z" fill="url(#SVGID_9_)"/><path d="m159.018 355.315v27.107c0 11.362 7.337 20.575 17.15 23.951 24.109-12.643 50.856-19.225 78.831-19.225 15.015 0 29.676 1.898 43.766 5.607 1.401-3.13 2.194-6.615 2.194-10.334v-29.806c0-5.622-1.856-10.864-5.017-15.132-13.445-2.508-27.151-3.806-40.943-3.806-33.326 0-66.163 7.517-95.981 21.638z" fill="url(#SVGID_10_)"/><path d="m220.242 133.657c-89.511 5.379-160.782 84.337-160.782 180.634 0 22.861 4.097 45.547 11.954 66.642 4.075 10.942 16.39 16.365 27.264 12.112 1.278-.5 2.461-1.214 3.498-2.113l7.004-6.069c-1.056-.209-3.007-.893-4.213-3.117-13.408-24.732-20.496-52.785-20.496-81.125 0-82.123 58.353-150.868 135.771-166.964z" fill="url(#SVGID_11_)"/><path d="m478.984 297.932c-.7-59.474-24.288-115.151-66.42-156.774-42.126-41.618-98.083-64.538-157.564-64.537-6.712 0-13.375.309-19.982.89 51.926 4.552 100.167 26.739 137.526 63.647 42.132 41.623 65.721 97.3 66.42 156.774.45 38.185-8.878 76-26.975 109.356-7.069 13.031-18.587 22.788-32.325 27.68 6.385 2.299 13.136 3.49 19.975 3.49 3.857 0 7.742-.377 11.604-1.143 17.431-3.458 32.29-14.402 40.766-30.026 18.097-33.357 27.425-71.172 26.975-109.357z" fill="url(#SVGID_12_)"/><path d="m255 402.505c13.525 0 26.763 1.538 39.555 4.555 16.02 3.779 31.416-8.179 31.416-24.638v-29.806c0-11.906-8.246-22.166-19.836-24.89-16.677-3.921-33.84-5.946-51.134-5.946s-34.457 2.025-51.134 5.946c-11.59 2.725-19.836 12.984-19.836 24.89v29.806c0 16.459 15.396 28.417 31.416 24.638 12.79-3.017 26.028-4.555 39.553-4.555z" fill="url(#SVGID_13_)"/><path d="m325.97 352.619v29.8c0 16.46-15.4 28.42-31.42 24.64-6.58-1.55-13.27-2.71-20.06-3.47 6.83-4.47 11.46-12.14 11.46-21.17v-29.8c0-11.91-8.25-22.17-19.84-24.89-10.21-2.4-20.62-4.09-31.12-5.04 6.64-.6 13.32-.91 20.01-.91 17.29 0 34.46 2.03 51.13 5.95 11.59 2.72 19.84 12.98 19.84 24.89z" fill="url(#SVGID_14_)"/></g></svg>