<svg id="Capa_1" enable-background="new 0 0 510 510" height="512" viewBox="0 0 510 510" width="512" xmlns="http://www.w3.org/2000/svg" xmlns:xlink="http://www.w3.org/1999/xlink"><linearGradient id="lg1"><stop offset="0" stop-color="#fbc56d"/><stop offset=".593" stop-color="#dc8758"/><stop offset="1" stop-color="#9e5528"/></linearGradient><linearGradient id="SVGID_1_" gradientUnits="userSpaceOnUse" x1="151.828" x2="607.931" xlink:href="#lg1" y1="263.268" y2="263.268"/><linearGradient id="SVGID_2_" gradientUnits="userSpaceOnUse" x1="49.667" x2="538.834" xlink:href="#lg1" y1="282.841" y2="282.841"/><linearGradient id="SVGID_3_" gradientUnits="userSpaceOnUse" x1="137" x2="531.73" xlink:href="#lg1" y1="263.267" y2="263.267"/><linearGradient id="lg2"><stop offset="0" stop-color="#537983"/><stop offset=".593" stop-color="#554e56"/><stop offset="1" stop-color="#433f43"/></linearGradient><linearGradient id="SVGID_4_" gradientUnits="userSpaceOnUse" x1="216.195" x2="512.704" xlink:href="#lg2" y1="94.223" y2="94.223"/><linearGradient id="SVGID_5_" gradientUnits="userSpaceOnUse" x1="288.667" x2="432.126" xlink:href="#lg2" y1="92.828" y2="92.828"/><linearGradient id="SVGID_6_" gradientUnits="userSpaceOnUse" x1="148" x2="362.756" xlink:href="#lg2" y1="114.343" y2="114.343"/><linearGradient id="SVGID_7_" gradientUnits="userSpaceOnUse" x1="74.153" x2="509.131" xlink:href="#lg1" y1="296.663" y2="296.663"/><linearGradient id="SVGID_8_" gradientUnits="userSpaceOnUse" x1="-114" x2="503.749" xlink:href="#lg1" y1="296.663" y2="296.663"/><linearGradient id="lg3"><stop offset="0" stop-color="#fef056"/><stop offset=".5213" stop-color="#fbc56d"/><stop offset="1" stop-color="#c86d36"/></linearGradient><linearGradient id="SVGID_9_" gradientUnits="userSpaceOnUse" x1="191" x2="438.202" xlink:href="#lg3" y1="71.135" y2="71.135"/><linearGradient id="SVGID_10_" gradientUnits="userSpaceOnUse" x1="-9.735" x2="446.368" xlink:href="#lg1" y1="303.908" y2="303.908"/><linearGradient id="SVGID_11_" gradientUnits="userSpaceOnUse" x1="-38" x2="402.041" xlink:href="#lg1" y1="303.908" y2="303.908"/><linearGradient id="SVGID_12_" gradientUnits="userSpaceOnUse" x1="60.96" x2="287.477" xlink:href="#lg2" y1="179.294" y2="179.294"/><linearGradient id="SVGID_13_" gradientUnits="userSpaceOnUse" x1="1" x2="228.317" xlink:href="#lg2" y1="159.919" y2="159.919"/><linearGradient id="SVGID_14_" gradientUnits="userSpaceOnUse" x1="125.598" x2="222.842" xlink:href="#lg3" y1="146.988" y2="146.988"/><g><g><path d="m456.142 169.199c-11.524-11.015-15.841-27.812-10.388-42.791 2.146-5.896 3.285-12.061 3.285-18.406 0-6.768-1.296-13.331-3.728-19.581-9.58-24.618-34.055-36.84-56.506-28.772-15.819 5.685-33.866 8.905-53.025 8.905s-37.205-3.221-53.025-8.905c-22.451-8.068-46.926 4.154-56.506 28.772-2.432 6.251-3.728 12.814-3.728 19.581 0 6.344 1.138 12.507 3.284 18.402 5.477 15.047 1.036 31.853-10.528 42.93-33.352 31.95-54.028 77.025-53.713 126.932.606 96.059 78.155 173.095 174.216 173.094 96.22 0 174.22-78 174.22-174.219 0-49.529-20.673-94.225-53.858-125.942z" fill="url(#SVGID_1_)"/><path d="m319.59 209.839c-11.524-11.015-15.841-27.812-10.388-42.791 2.146-5.896 3.285-12.061 3.285-18.406 0-6.768-1.296-13.331-3.728-19.581-9.58-24.618-34.055-36.84-56.506-28.772-9.222 3.314-19.206 5.783-29.721 7.272-.001.147-.011.293-.011.441 0 6.344 1.138 12.507 3.284 18.403 5.477 15.047 1.036 31.853-10.528 42.93-33.352 31.95-54.028 77.025-53.713 126.932.557 88.275 66.096 160.478 151.263 171.6 37.114-31.95 60.619-79.27 60.619-132.084.002-49.531-20.671-94.227-53.856-125.944z" fill="url(#SVGID_2_)"/><path d="m456.14 169.199c-11.52-11.01-15.84-27.81-10.39-42.79 2.15-5.9 3.29-12.06 3.29-18.41 0-6.77-1.3-13.33-3.73-19.58-9.58-24.62-34.05-36.84-56.5-28.77-2.21.79-4.47 1.54-6.76 2.22 10.04 5.14 18.48 14.31 23.24 26.55 2.43 6.25 3.73 12.81 3.73 19.58 0 6.35-1.14 12.51-3.29 18.41-5.45 14.98-1.13 31.78 10.39 42.79 33.19 31.72 53.86 76.41 53.86 125.94 0 89.48-67.45 163.2-154.28 173.09 6.59.74 13.29 1.13 20.08 1.13 96.22 0 174.22-78 174.22-174.22 0-49.53-20.67-94.22-53.86-125.94z" fill="url(#SVGID_3_)"/><path d="m388.806 59.648c-15.819 5.685-33.866 8.905-53.025 8.905s-37.205-3.221-53.025-8.905c-22.451-8.068-46.926 4.154-56.506 28.772-2.432 6.251-3.728 12.814-3.728 19.581 0 5.438.842 10.741 2.432 15.859 33.281 4.738 70.938 7.411 110.826 7.411s77.545-2.673 110.826-7.411c1.59-5.117 2.432-10.421 2.432-15.859 0-6.768-1.296-13.331-3.728-19.581-9.578-24.618-34.053-36.84-56.504-28.772z" fill="url(#SVGID_4_)"/><path d="m405.049 128.48c14.449-1.192 28.353-2.74 41.558-4.62 1.59-5.117 2.432-10.421 2.432-15.859 0-6.768-1.296-13.331-3.728-19.581-9.58-24.618-34.055-36.84-56.506-28.772-2.205.792-4.458 1.532-6.746 2.226 10.035 5.141 18.471 14.309 23.23 26.544 2.43 6.25 3.73 12.81 3.73 19.58 0 6.35-1.14 12.51-3.29 18.41-.249.687-.471 1.379-.68 2.072z" fill="url(#SVGID_5_)"/><path d="m309.419 130.87c-.212-.605-.426-1.211-.659-1.81-9.58-24.618-34.055-36.84-56.506-28.772-9.222 3.314-19.206 5.783-29.721 7.272-.001.147-.011.293-.011.441 0 5.438.842 10.741 2.432 15.859 25.849 3.68 54.344 6.106 84.465 7.01z" fill="url(#SVGID_6_)"/><circle cx="335.781" cy="296.663" fill="url(#SVGID_7_)" r="138.937"/><path d="m335.781 157.726c-6.796 0-13.475.497-20.01 1.44 67.25 9.702 118.927 67.56 118.927 137.497 0 42.124-18.748 79.866-48.354 105.343-9.941 8.554-24.914-1.205-20.96-13.71 5.238-16.57 8.065-34.211 8.065-52.514 0-49.592-20.725-94.337-53.982-126.062-11.493-10.963-15.671-27.781-10.249-42.711.848-2.335 1.531-4.713 2.054-7.126-65.043 11.577-114.427 68.411-114.427 136.781 0 69.937 51.674 127.805 118.925 137.506 0 0 .027-.003.04-.005 6.523.939 13.189 1.435 19.972 1.435 76.733 0 138.937-62.204 138.937-138.937s-62.205-138.937-138.938-138.937z" fill="url(#SVGID_8_)"/></g><path d="m174.219 142.271c-6.903 0-12.5-5.597-12.5-12.5v-36.49c0-51.435 41.845-93.281 93.281-93.281s93.281 41.846 93.281 93.281v.676c0 6.903-5.597 12.5-12.5 12.5s-12.5-5.597-12.5-12.5v-.676c0-37.65-30.631-68.281-68.281-68.281s-68.281 30.631-68.281 68.281v36.489c0 6.904-5.597 12.501-12.5 12.501z" fill="url(#SVGID_9_)"/><g><path d="m294.579 209.839c-11.524-11.015-15.841-27.812-10.388-42.791 2.146-5.896 3.285-12.061 3.285-18.406 0-6.768-1.296-13.331-3.728-19.581-9.58-24.618-34.055-36.84-56.506-28.772-15.819 5.685-33.866 8.905-53.025 8.905s-37.205-3.221-53.025-8.905c-22.451-8.068-46.926 4.154-56.506 28.772-2.432 6.251-3.728 12.814-3.728 19.581 0 6.344 1.138 12.507 3.284 18.402 5.477 15.047 1.036 31.853-10.528 42.93-33.352 31.95-54.028 77.025-53.713 126.932.609 96.058 78.158 173.094 174.218 173.094 96.218 0 174.218-78.001 174.218-174.219 0-49.529-20.673-94.225-53.858-125.942z" fill="url(#SVGID_10_)"/><path d="m294.579 209.839c-11.524-11.015-15.841-27.812-10.388-42.791 2.146-5.896 3.285-12.061 3.285-18.406 0-6.768-1.296-13.331-3.728-19.581-9.58-24.618-34.055-36.84-56.506-28.772-2.208.793-4.463 1.533-6.754 2.229 10.04 5.143 18.48 14.31 23.24 26.543 2.432 6.251 3.728 12.814 3.728 19.581 0 6.345-1.139 12.51-3.285 18.406-5.453 14.98-1.137 31.777 10.388 42.791 33.184 31.718 53.858 76.413 53.858 125.943 0 89.464-67.438 163.165-154.251 173.073 6.58.748 13.268 1.146 20.053 1.146 96.218 0 174.218-78 174.218-174.219 0-49.53-20.673-94.226-53.858-125.943z" fill="url(#SVGID_11_)"/><path d="m239.658 244.818c25.049-13.038 40.499-38.744 42.271-66.927.229-3.649.972-7.297 2.263-10.843 2.146-5.896 3.285-12.061 3.285-18.406 0-6.768-1.296-13.331-3.728-19.581-9.58-24.618-34.055-36.84-56.506-28.772-15.819 5.685-33.866 8.905-53.025 8.905s-37.205-3.221-53.025-8.905c-22.451-8.068-46.926 4.154-56.506 28.772-2.432 6.251-3.728 12.814-3.728 19.581 0 6.344 1.138 12.507 3.284 18.402 1.28 3.517 2.018 7.131 2.25 10.744 1.807 28.212 17.193 53.963 42.267 67.02 19.586 10.198 41.848 15.964 65.458 15.964 23.603-.001 45.858-5.762 65.44-15.954z" fill="url(#SVGID_12_)"/><path d="m227.243 100.288c-2.208.793-4.463 1.533-6.754 2.229 10.04 5.143 18.48 14.31 23.24 26.543 2.432 6.251 3.728 12.814 3.728 19.581 0 6.345-1.139 12.51-3.285 18.406-5.453 14.98-1.137 31.777 10.388 42.791 4.051 3.872 7.912 7.94 11.575 12.184 9.251-12.614 14.778-27.962 15.794-44.132.229-3.649.972-7.297 2.263-10.843 2.146-5.896 3.285-12.061 3.285-18.406 0-6.768-1.296-13.331-3.728-19.581-9.58-24.618-34.055-36.84-56.506-28.772z" fill="url(#SVGID_13_)"/></g><path d="m174.22 161.484c-13.311 0-26.4-1.448-38.903-4.304-6.73-1.537-10.94-8.239-9.403-14.969s8.238-10.942 14.969-9.403c10.68 2.439 21.896 3.676 33.337 3.676s22.656-1.237 33.336-3.676c6.728-1.539 13.432 2.673 14.969 9.403s-2.673 13.432-9.403 14.969c-12.502 2.856-25.591 4.304-38.902 4.304z" fill="url(#SVGID_14_)"/></g></svg>