<svg id="Capa_1" enable-background="new 0 0 510 510" height="512" viewBox="0 0 510 510" width="512" xmlns="http://www.w3.org/2000/svg" xmlns:xlink="http://www.w3.org/1999/xlink"><linearGradient id="lg1"><stop offset="0" stop-color="#f8f6f7"/><stop offset=".1788" stop-color="#f8f6f7"/><stop offset="1" stop-color="#e7e6f5"/></linearGradient><linearGradient id="SVGID_1_" gradientUnits="userSpaceOnUse" x1="67.602" x2="88.977" xlink:href="#lg1" y1="293.231" y2="293.231"/><linearGradient id="lg2"><stop offset="0" stop-color="#f8f6f7"/><stop offset="1" stop-color="#d1ceeb"/></linearGradient><linearGradient id="SVGID_2_" gradientUnits="userSpaceOnUse" x1="405.602" x2="426.977" xlink:href="#lg2" y1="293.231" y2="293.231"/><linearGradient id="lg3"><stop offset="0" stop-color="#fe646f"/><stop offset=".593" stop-color="#fb2b3a"/><stop offset="1" stop-color="#c41926"/></linearGradient><linearGradient id="SVGID_3_" gradientUnits="userSpaceOnUse" x1="94.006" x2="415.994" xlink:href="#lg3" y1="344.647" y2="344.647"/><linearGradient id="SVGID_4_" gradientUnits="userSpaceOnUse" x1="-57" x2="342.501" xlink:href="#lg3" y1="344.645" y2="344.645"/><linearGradient id="SVGID_5_" gradientUnits="userSpaceOnUse" x1="79.846" x2="486.004" xlink:href="#lg3" y1="109.599" y2="109.599"/><linearGradient id="SVGID_6_" gradientUnits="userSpaceOnUse" x1="210.667" x2="418" xlink:href="#lg3" y1="109.599" y2="109.599"/><linearGradient id="lg4"><stop offset="0" stop-color="#537983"/><stop offset=".593" stop-color="#554e56"/><stop offset="1" stop-color="#433f43"/></linearGradient><linearGradient id="SVGID_7_" gradientUnits="userSpaceOnUse" x1="116.433" x2="440.001" xlink:href="#lg4" y1="368.235" y2="368.235"/><linearGradient id="SVGID_8_" gradientUnits="userSpaceOnUse" x1="71" x2="143.972" xlink:href="#lg1" y1="85.5" y2="85.5"/><linearGradient id="SVGID_9_" gradientUnits="userSpaceOnUse" x1="91.387" x2="258.093" xlink:href="#lg4" y1="56.964" y2="56.964"/><linearGradient id="SVGID_10_" gradientTransform="matrix(.716 .698 -.698 .716 -1335.88 563.361)" gradientUnits="userSpaceOnUse" x1="712.682" x2="781.574" xlink:href="#lg1" y1="-1395.541" y2="-1395.541"/><linearGradient id="SVGID_11_" gradientTransform="matrix(.716 .698 -.698 .716 -1336.284 562.42)" gradientUnits="userSpaceOnUse" x1="658.295" x2="768.182" xlink:href="#lg2" y1="-1395.149" y2="-1395.149"/><linearGradient id="SVGID_12_" gradientTransform="matrix(.707 .707 -.707 .707 159.098 -213.097)" gradientUnits="userSpaceOnUse" x1="251.667" x2="342.786" xlink:href="#lg1" y1="85.5" y2="85.5"/><linearGradient id="SVGID_13_" gradientTransform="matrix(.707 .707 -.707 .707 159.098 -213.097)" gradientUnits="userSpaceOnUse" x1="254.947" x2="421.653" xlink:href="#lg4" y1="56.964" y2="56.964"/><linearGradient id="SVGID_14_" gradientTransform="matrix(.716 .698 -.698 .716 -1335.88 563.361)" gradientUnits="userSpaceOnUse" x1="829.807" x2="898.7" xlink:href="#lg1" y1="-1509.705" y2="-1509.705"/><linearGradient id="SVGID_15_" gradientTransform="matrix(.716 .698 -.698 .716 -1336.284 562.42)" gradientUnits="userSpaceOnUse" x1="775.421" x2="885.308" xlink:href="#lg2" y1="-1509.313" y2="-1509.313"/><linearGradient id="SVGID_16_" gradientTransform="matrix(.716 .698 -.698 .716 -1335.88 563.361)" gradientUnits="userSpaceOnUse" x1="826.444" x2="895.336" xlink:href="#lg1" y1="-1395.991" y2="-1395.991"/><linearGradient id="SVGID_17_" gradientTransform="matrix(.716 .698 -.698 .716 -1336.284 562.42)" gradientUnits="userSpaceOnUse" x1="772.057" x2="881.944" xlink:href="#lg2" y1="-1395.599" y2="-1395.599"/><linearGradient id="SVGID_18_" gradientUnits="userSpaceOnUse" x1="28" x2="376.415" xlink:href="#lg4" y1="368.129" y2="368.129"/><linearGradient id="SVGID_19_" gradientUnits="userSpaceOnUse" x1="-22" x2="329.628" xlink:href="#lg4" y1="292.151" y2="292.151"/><linearGradient id="SVGID_20_" gradientUnits="userSpaceOnUse" x1="-22" x2="329.628" xlink:href="#lg4" y1="368.333" y2="368.333"/><linearGradient id="SVGID_21_" gradientUnits="userSpaceOnUse" x1="-22" x2="329.628" xlink:href="#lg4" y1="444.319" y2="444.319"/><g><g><path d="m94.127 327.033h-16.254c-6.041 0-10.938-4.897-10.938-10.938v-45.728c0-6.041 4.897-10.938 10.938-10.938h16.253c6.041 0 10.938 4.897 10.938 10.938v45.728c0 6.041-4.897 10.938-10.937 10.938z" fill="url(#SVGID_1_)"/><path d="m432.127 327.033h-16.253c-6.041 0-10.938-4.897-10.938-10.938v-45.728c0-6.041 4.897-10.938 10.938-10.938h16.253c6.041 0 10.938 4.897 10.938 10.938v45.728c-.001 6.041-4.898 10.938-10.938 10.938z" fill="url(#SVGID_2_)"/></g><path d="m386.74 510h-263.48c-16.157 0-29.254-13.098-29.254-29.254v-272.198c0-16.157 13.098-29.254 29.254-29.254h263.48c16.157 0 29.254 13.098 29.254 29.254v272.198c0 16.156-13.097 29.254-29.254 29.254z" fill="url(#SVGID_3_)"/><path d="m415.99 208.54v272.21c0 16.15-13.09 29.25-29.25 29.25h-40.02c16.16 0 29.25-13.1 29.25-29.25v-180.334c0-31.042-25.164-56.206-56.206-56.206h-225.754v-35.66c0-16.16 13.1-29.26 29.26-29.26h263.47c16.154 0 29.25 13.096 29.25 29.25z" fill="url(#SVGID_4_)"/><path d="m400.788 219.198h-291.576c-16.218 0-29.366-13.148-29.366-29.366v-160.466c0-16.218 13.148-29.366 29.366-29.366h291.576c16.218 0 29.366 13.148 29.366 29.366v160.466c0 16.218-13.148 29.366-29.366 29.366z" fill="url(#SVGID_5_)"/><path d="m400.788 0h-40.02c16.218 0 29.366 13.148 29.366 29.366v160.466c0 16.218-13.148 29.366-29.366 29.366h40.02c16.218 0 29.366-13.148 29.366-29.366v-160.466c0-16.218-13.148-29.366-29.366-29.366z" fill="url(#SVGID_6_)"/><path d="m372.98 484.277h-235.96c-11.37 0-20.586-9.217-20.586-20.586v-190.912c0-11.37 9.217-20.586 20.586-20.586h235.96c11.37 0 20.586 9.217 20.586 20.586v190.912c.001 11.37-9.216 20.586-20.586 20.586z" fill="url(#SVGID_7_)"/><g><g><circle cx="173.22" cy="85.5" fill="url(#SVGID_8_)" r="51.544"/><path d="m173.22 33.955c-5.523 0-10 4.477-10 10v26.018c0 5.523 4.477 10 10 10s10-4.477 10-10v-26.018c0-5.523-4.478-10-10-10z" fill="url(#SVGID_9_)"/><circle cx="173.22" cy="85.5" fill="url(#SVGID_10_)" r="34.446"/><path d="m197.263 60.833c-2.731-2.662-5.793-4.769-9.047-6.343 6.609 12.814 4.669 28.936-5.949 39.829-10.617 10.893-26.684 13.245-39.663 6.967 1.657 3.212 3.842 6.22 6.572 8.882 13.623 13.279 35.432 12.999 48.71-.624 13.28-13.624 13.001-35.433-.623-48.711z" fill="url(#SVGID_11_)"/></g><g><circle cx="336.78" cy="85.5" fill="url(#SVGID_12_)" r="51.544"/><path d="m373.227 49.052c-3.905-3.905-10.237-3.905-14.142 0l-18.397 18.398c-3.905 3.905-3.905 10.237 0 14.142s10.237 3.905 14.142 0l18.397-18.397c3.906-3.906 3.905-10.238 0-14.143z" fill="url(#SVGID_13_)"/><circle cx="336.78" cy="85.5" fill="url(#SVGID_14_)" r="34.446"/><path d="m360.823 60.833c-2.731-2.662-5.793-4.769-9.047-6.343 6.609 12.814 4.669 28.936-5.949 39.829-10.617 10.893-26.684 13.245-39.663 6.967 1.657 3.212 3.842 6.22 6.572 8.882 13.623 13.279 35.432 12.999 48.71-.624s13.001-35.433-.623-48.711z" fill="url(#SVGID_15_)"/></g></g><g><circle cx="255" cy="164.582" fill="url(#SVGID_16_)" r="34.446"/><path d="m279.043 139.915c-2.731-2.662-5.793-4.769-9.047-6.343 6.609 12.814 4.669 28.936-5.949 39.829-10.617 10.893-26.684 13.245-39.663 6.967 1.657 3.212 3.842 6.22 6.572 8.882 13.623 13.279 35.432 12.999 48.71-.624 13.28-13.624 13.001-35.432-.623-48.711z" fill="url(#SVGID_17_)"/></g><path d="m375.778 484.065c10.043-1.368 17.789-9.956 17.789-20.374v-190.912c0-11.37-9.217-20.586-20.586-20.586h-24.34c16.37 9.824 27.329 27.742 27.329 48.223v180.334c0 1.122-.069 2.227-.192 3.315z" fill="url(#SVGID_18_)"/><g><path d="m361.025 274.383h-212.05c-3.239 0-5.865 2.626-5.865 5.865v23.806c0 3.239 2.626 5.865 5.865 5.865h212.05c3.239 0 5.865-2.626 5.865-5.865v-23.806c0-3.239-2.626-5.865-5.865-5.865z" fill="url(#SVGID_19_)"/><path d="m361.025 350.565h-212.05c-3.239 0-5.865 2.626-5.865 5.865v23.806c0 3.239 2.626 5.865 5.865 5.865h212.05c3.239 0 5.865-2.626 5.865-5.865v-23.806c0-3.239-2.626-5.865-5.865-5.865z" fill="url(#SVGID_20_)"/><path d="m361.025 426.551h-212.05c-3.239 0-5.865 2.626-5.865 5.865v23.806c0 3.239 2.626 5.865 5.865 5.865h212.05c3.239 0 5.865-2.626 5.865-5.865v-23.806c0-3.239-2.626-5.865-5.865-5.865z" fill="url(#SVGID_21_)"/></g></g></svg>