<svg id="Capa_1" enable-background="new 0 0 510 510" height="512" viewBox="0 0 510 510" width="512" xmlns="http://www.w3.org/2000/svg" xmlns:xlink="http://www.w3.org/1999/xlink"><linearGradient id="lg1"><stop offset="0" stop-color="#60b7ff"/><stop offset=".5857" stop-color="#0182fc"/><stop offset="1" stop-color="#2740b0"/></linearGradient><linearGradient id="SVGID_1_" gradientUnits="userSpaceOnUse" x1="-27.449" x2="678.513" xlink:href="#lg1" y1="268.935" y2="268.935"/><linearGradient id="SVGID_2_" gradientUnits="userSpaceOnUse" x1="-118" x2="356.641" xlink:href="#lg1" y1="131.156" y2="131.156"/><linearGradient id="SVGID_3_" gradientUnits="userSpaceOnUse" x1="88.046" x2="545.523" xlink:href="#lg1" y1="268.935" y2="268.935"/><linearGradient id="SVGID_4_" gradientUnits="userSpaceOnUse" x1="81.077" x2="515.785" xlink:href="#lg1" y1="117.221" y2="117.221"/><linearGradient id="SVGID_5_" gradientUnits="userSpaceOnUse" x1="114" x2="442.877" xlink:href="#lg1" y1="117.221" y2="117.221"/><linearGradient id="lg2"><stop offset="0" stop-color="#537983"/><stop offset=".593" stop-color="#554e56"/><stop offset="1" stop-color="#433f43"/></linearGradient><linearGradient id="SVGID_6_" gradientTransform="matrix(.707 -.707 .707 .707 473.961 1684.974)" gradientUnits="userSpaceOnUse" x1="685.71" x2="852.417" xlink:href="#lg2" y1="-1264.334" y2="-1264.334"/><linearGradient id="SVGID_7_" gradientTransform="matrix(.707 -.707 .707 .707 473.961 1684.974)" gradientUnits="userSpaceOnUse" x1="685.71" x2="852.417" xlink:href="#lg2" y1="-1185.004" y2="-1185.004"/><linearGradient id="SVGID_8_" gradientTransform="matrix(.707 .707 -.707 .707 856.315 -1526.598)" gradientUnits="userSpaceOnUse" x1="694.056" x2="860.763" xlink:href="#lg2" y1="1734.08" y2="1734.08"/><linearGradient id="SVGID_9_" gradientTransform="matrix(.707 .707 -.707 .707 856.315 -1526.598)" gradientUnits="userSpaceOnUse" x1="694.056" x2="860.763" xlink:href="#lg2" y1="1813.411" y2="1813.411"/><linearGradient id="SVGID_10_" gradientUnits="userSpaceOnUse" x1="58.315" x2="280.802" xlink:href="#lg2" y1="276.267" y2="276.267"/><linearGradient id="SVGID_11_" gradientUnits="userSpaceOnUse" x1="-28" x2="237.943" xlink:href="#lg2" y1="276.267" y2="276.267"/><linearGradient id="lg3"><stop offset="0" stop-color="#f8f6f7"/><stop offset=".1788" stop-color="#f8f6f7"/><stop offset="1" stop-color="#e7e6f5"/></linearGradient><linearGradient id="SVGID_12_" gradientUnits="userSpaceOnUse" x1="109.299" x2="192.152" xlink:href="#lg3" y1="276.267" y2="276.267"/><linearGradient id="SVGID_13_" gradientTransform="matrix(.707 -.707 .707 .707 473.961 1684.974)" gradientUnits="userSpaceOnUse" x1="833.178" x2="999.884" xlink:href="#lg2" y1="-1116.866" y2="-1116.866"/><linearGradient id="SVGID_14_" gradientTransform="matrix(.707 -.707 .707 .707 473.961 1684.974)" gradientUnits="userSpaceOnUse" x1="833.178" x2="999.884" xlink:href="#lg2" y1="-1037.536" y2="-1037.536"/><linearGradient id="SVGID_15_" gradientTransform="matrix(.707 .707 -.707 .707 856.315 -1526.598)" gradientUnits="userSpaceOnUse" x1="841.524" x2="1008.23" xlink:href="#lg2" y1="1586.613" y2="1586.613"/><linearGradient id="SVGID_16_" gradientTransform="matrix(.707 .707 -.707 .707 856.315 -1526.598)" gradientUnits="userSpaceOnUse" x1="841.524" x2="1008.23" xlink:href="#lg2" y1="1665.943" y2="1665.943"/><linearGradient id="SVGID_17_" gradientUnits="userSpaceOnUse" x1="266.866" x2="489.352" xlink:href="#lg2" y1="276.267" y2="276.267"/><linearGradient id="SVGID_18_" gradientUnits="userSpaceOnUse" x1="180.551" x2="446.494" xlink:href="#lg2" y1="276.267" y2="276.267"/><linearGradient id="SVGID_19_" gradientUnits="userSpaceOnUse" x1="317.85" x2="400.702" xlink:href="#lg3" y1="276.267" y2="276.267"/><linearGradient id="SVGID_20_" gradientUnits="userSpaceOnUse" x1="16.879" x2="612.046" xlink:href="#lg3" y1="276.267" y2="276.267"/><linearGradient id="lg4"><stop offset="0" stop-color="#f8f6f7"/><stop offset="1" stop-color="#d1ceeb"/></linearGradient><linearGradient id="SVGID_21_" gradientUnits="userSpaceOnUse" x1="-7.333" x2="166.104" xlink:href="#lg4" y1="276.267" y2="276.267"/><linearGradient id="lg5"><stop offset="0" stop-color="#fef056"/><stop offset=".5213" stop-color="#fbc56d"/><stop offset="1" stop-color="#c86d36"/></linearGradient><linearGradient id="SVGID_22_" gradientUnits="userSpaceOnUse" x1="11.327" x2="65.775" xlink:href="#lg5" y1="128.49" y2="128.49"/><linearGradient id="SVGID_23_" gradientUnits="userSpaceOnUse" x1="455.105" x2="509.553" xlink:href="#lg5" y1="128.49" y2="128.49"/><linearGradient id="SVGID_24_" gradientUnits="userSpaceOnUse" x1="11.327" x2="65.775" xlink:href="#lg5" y1="406.479" y2="406.479"/><linearGradient id="SVGID_25_" gradientUnits="userSpaceOnUse" x1="455.105" x2="509.553" xlink:href="#lg5" y1="406.479" y2="406.479"/><linearGradient id="SVGID_26_" gradientUnits="userSpaceOnUse" x1="338" x2="484.818" xlink:href="#lg4" y1="276.267" y2="276.267"/><linearGradient id="SVGID_27_" gradientUnits="userSpaceOnUse" x1="143.438" x2="170.316" xlink:href="#lg3" y1="101.024" y2="101.024"/><linearGradient id="SVGID_28_" gradientUnits="userSpaceOnUse" x1="197.848" x2="224.725" xlink:href="#lg3" y1="112.791" y2="112.791"/><linearGradient id="SVGID_29_" gradientTransform="matrix(-1 0 0 1 4880.059 0)" gradientUnits="userSpaceOnUse" x1="4513.497" x2="4540.375" xlink:href="#lg3" y1="101.024" y2="101.024"/><linearGradient id="SVGID_30_" gradientTransform="matrix(-1 0 0 1 4880.059 0)" gradientUnits="userSpaceOnUse" x1="4567.906" x2="4594.783" xlink:href="#lg3" y1="112.791" y2="112.791"/><g><path d="m485.119 93.59h-460.238c-13.741 0-24.881 11.14-24.881 24.881v300.928c0 13.741 11.14 24.881 24.881 24.881h460.238c13.741 0 24.881-11.14 24.881-24.881v-300.928c0-13.741-11.14-24.881-24.881-24.881zm-58.445 225.617c0 18.869-13.515 34.165-30.187 34.165h-282.974c-16.672 0-30.187-15.296-30.187-34.165v-85.88c0-18.869 13.515-34.165 30.187-34.165h282.974c16.671 0 30.187 15.296 30.187 34.165z" fill="url(#SVGID_1_)"/><path d="m73.784 95.494 15.067 55.462c2.843 10.464 12.678 17.765 23.931 17.765h234.414c11.254 0 21.089-7.301 23.932-17.765l15.067-55.462c.173-.636.307-1.27.424-1.904h-313.259c.117.634.251 1.268.424 1.904z" fill="url(#SVGID_2_)"/><path d="m485.119 93.59h-40.02c13.741 0 24.881 11.14 24.881 24.881v300.928c0 13.741-11.14 24.881-24.881 24.881h40.02c13.741 0 24.881-11.14 24.881-24.881v-300.928c0-13.741-11.14-24.881-24.881-24.881z" fill="url(#SVGID_3_)"/><path d="m372.207 168.722h-234.414c-11.254 0-21.089-7.301-23.932-17.765l-15.066-55.463c-4.092-15.061 7.734-29.774 23.932-29.774h264.548c16.197 0 28.023 14.713 23.932 29.774l-15.067 55.462c-2.844 10.465-12.679 17.766-23.933 17.766z" fill="url(#SVGID_4_)"/><path d="m387.274 65.72h-25.011c16.197 0 28.023 14.713 23.931 29.774l-15.067 55.462c-2.843 10.464-12.678 17.765-23.932 17.765h25.011c11.254 0 21.089-7.301 23.931-17.765l15.067-55.462c4.093-15.061-7.733-29.774-23.93-29.774z" fill="url(#SVGID_5_)"/><g><g><g><g><path d="m106.407 231.95c-3.905 3.905-3.905 10.237 0 14.142l18.397 18.397c3.905 3.905 10.237 3.905 14.142 0s3.905-10.237 0-14.142l-18.396-18.397c-3.906-3.905-10.238-3.905-14.143 0z" fill="url(#SVGID_6_)"/><path d="m162.502 288.045c-3.905 3.905-3.905 10.237 0 14.142l18.397 18.397c3.905 3.905 10.237 3.905 14.142 0s3.905-10.237 0-14.142l-18.397-18.397c-3.905-3.905-10.237-3.905-14.142 0z" fill="url(#SVGID_7_)"/></g><g><path d="m195.042 231.95c-3.905-3.905-10.237-3.905-14.142 0l-18.397 18.397c-3.905 3.905-3.905 10.237 0 14.142s10.237 3.905 14.142 0l18.397-18.397c3.905-3.906 3.905-10.237 0-14.142z" fill="url(#SVGID_8_)"/><path d="m138.947 288.044c-3.905-3.905-10.237-3.905-14.142 0l-18.397 18.397c-3.905 3.905-3.905 10.237 0 14.142s10.237 3.905 14.142 0l18.397-18.397c3.905-3.905 3.905-10.236 0-14.142z" fill="url(#SVGID_9_)"/></g></g><path d="m150.725 368.677c-50.955 0-92.41-41.455-92.41-92.41s41.455-92.41 92.41-92.41 92.41 41.455 92.41 92.41c-.001 50.955-41.456 92.41-92.41 92.41zm0-125.387c-18.184 0-32.977 14.793-32.977 32.977s14.793 32.977 32.977 32.977 32.977-14.793 32.977-32.977-14.794-32.977-32.977-32.977z" fill="url(#SVGID_10_)"/><path d="m150.725 183.857c-4.236 0-8.405.293-12.492.848-.001 0-.014-.002-.014-.002-19.927 2.705-37.85 11.786-51.649 25.128-7.46 7.2-13.72 15.65-18.43 25.01h108.451c22.722 0 41.422 18.257 41.531 40.979.001.149.001.298.001.446 0 46.714-34.843 85.437-79.904 91.561 4.091.556 8.264.849 12.505.849 50.955 0 92.409-41.455 92.409-92.41.001-50.954-41.453-92.409-92.408-92.409z" fill="url(#SVGID_11_)"/><path d="m150.725 317.693c-22.842 0-41.426-18.584-41.426-41.426s18.584-41.426 41.426-41.426c22.843 0 41.427 18.584 41.427 41.426s-18.585 41.426-41.427 41.426zm0-67.853c-14.571 0-26.426 11.855-26.426 26.426s11.854 26.426 26.426 26.426 26.427-11.855 26.427-26.426-11.856-26.426-26.427-26.426z" fill="url(#SVGID_12_)"/></g><g><g><g><path d="m314.958 231.95c-3.905 3.905-3.905 10.237 0 14.142l18.397 18.397c3.905 3.905 10.237 3.905 14.142 0s3.905-10.237 0-14.142l-18.397-18.397c-3.905-3.905-10.237-3.905-14.142 0z" fill="url(#SVGID_13_)"/><path d="m371.053 288.045c-3.905 3.905-3.905 10.237 0 14.142l18.397 18.397c3.905 3.905 10.237 3.905 14.142 0s3.905-10.237 0-14.142l-18.397-18.397c-3.905-3.905-10.237-3.905-14.142 0z" fill="url(#SVGID_14_)"/></g><g><path d="m403.592 231.95c-3.905-3.905-10.237-3.905-14.142 0l-18.397 18.397c-3.905 3.905-3.905 10.237 0 14.142s10.237 3.905 14.142 0l18.397-18.397c3.906-3.906 3.906-10.237 0-14.142z" fill="url(#SVGID_15_)"/><path d="m347.497 288.044c-3.905-3.905-10.237-3.905-14.142 0l-18.397 18.397c-3.905 3.905-3.905 10.237 0 14.142s10.237 3.905 14.142 0l18.397-18.397c3.906-3.905 3.906-10.236 0-14.142z" fill="url(#SVGID_16_)"/></g></g><path d="m359.275 368.677c-50.955 0-92.41-41.455-92.41-92.41s41.455-92.41 92.41-92.41 92.41 41.455 92.41 92.41-41.455 92.41-92.41 92.41zm0-125.387c-18.184 0-32.977 14.793-32.977 32.977s14.793 32.977 32.977 32.977 32.977-14.793 32.977-32.977-14.793-32.977-32.977-32.977z" fill="url(#SVGID_17_)"/><path d="m359.275 183.857c-4.236 0-8.405.293-12.492.848-.001 0-.014-.002-.014-.002-19.927 2.705-37.85 11.786-51.649 25.128-7.46 7.2-13.72 15.65-18.43 25.01h108.451c22.722 0 41.422 18.257 41.531 40.979.001.149.001.298.001.446 0 46.714-34.843 85.437-79.904 91.561 4.091.556 8.264.849 12.505.849 50.955 0 92.409-41.455 92.409-92.41.002-50.954-41.453-92.409-92.408-92.409z" fill="url(#SVGID_18_)"/><path d="m359.275 317.693c-22.842 0-41.426-18.584-41.426-41.426s18.584-41.426 41.426-41.426c22.843 0 41.427 18.584 41.427 41.426s-18.584 41.426-41.427 41.426zm0-67.853c-14.571 0-26.426 11.855-26.426 26.426s11.854 26.426 26.426 26.426 26.427-11.855 26.427-26.426-11.855-26.426-26.427-26.426z" fill="url(#SVGID_19_)"/></g></g><path d="m443.617 168.722h-377.234c-14.56 0-26.363 11.872-26.363 26.516v162.058c0 14.645 11.803 26.516 26.363 26.516h377.233c14.56 0 26.363-11.872 26.363-26.516v-162.058c.001-14.645-11.802-26.516-26.362-26.516zm-31.016 142.576c0 15.394-12.407 27.873-27.712 27.873h-259.778c-15.305 0-27.712-12.479-27.712-27.873v-70.063c0-15.394 12.407-27.873 27.712-27.873h259.777c15.305 0 27.712 12.479 27.712 27.873v70.063z" fill="url(#SVGID_20_)"/><path d="m97.399 311.298v-70.063c0-15.394 12.407-27.873 27.712-27.873h-25.011c-15.305 0-27.712 12.479-27.712 27.873v70.063c0 15.394 12.407 27.873 27.712 27.873h25.011c-15.305 0-27.712-12.479-27.712-27.873z" fill="url(#SVGID_21_)"/><g><circle cx="33.111" cy="128.49" fill="url(#SVGID_22_)" r="19.667"/><circle cx="476.889" cy="128.49" fill="url(#SVGID_23_)" r="19.667"/></g><g><circle cx="33.111" cy="406.479" fill="url(#SVGID_24_)" r="19.667"/><circle cx="476.889" cy="406.479" fill="url(#SVGID_25_)" r="19.667"/></g><path d="m443.617 168.722h-25.011c14.56 0 26.364 11.872 26.364 26.516v162.058c0 14.645-11.803 26.516-26.364 26.516h25.011c14.56 0 26.363-11.872 26.363-26.516v-162.058c0-14.645-11.803-26.516-26.363-26.516z" fill="url(#SVGID_26_)"/><g><g><circle cx="156.321" cy="101.024" fill="url(#SVGID_27_)" r="11.768"/><circle cx="210.73" cy="112.791" fill="url(#SVGID_28_)" r="11.768"/></g><g><circle cx="353.679" cy="101.024" fill="url(#SVGID_29_)" r="11.768"/><circle cx="299.27" cy="112.791" fill="url(#SVGID_30_)" r="11.768"/></g></g></g></svg>