<svg id="Capa_1" enable-background="new 0 0 510 510" height="512" viewBox="0 0 510 510" width="512" xmlns="http://www.w3.org/2000/svg" xmlns:xlink="http://www.w3.org/1999/xlink"><linearGradient id="lg1"><stop offset="0" stop-color="#f8f6f7"/><stop offset=".1788" stop-color="#f8f6f7"/><stop offset="1" stop-color="#e7e6f5"/></linearGradient><linearGradient id="SVGID_1_" gradientUnits="userSpaceOnUse" x1="96.5" x2="413.5" xlink:href="#lg1" y1="52.455" y2="52.455"/><linearGradient id="lg2"><stop offset="0" stop-color="#537983"/><stop offset=".593" stop-color="#554e56"/><stop offset="1" stop-color="#433f43"/></linearGradient><linearGradient id="SVGID_2_" gradientUnits="userSpaceOnUse" x1="11.457" x2="717.01" xlink:href="#lg2" y1="290.741" y2="290.741"/><linearGradient id="SVGID_3_" gradientUnits="userSpaceOnUse" x1="-40.667" x2="243.784" xlink:href="#lg2" y1="290.741" y2="290.741"/><linearGradient id="SVGID_4_" gradientUnits="userSpaceOnUse" x1="-41" x2="449.689" xlink:href="#lg2" y1="343.501" y2="343.501"/><linearGradient id="SVGID_5_" gradientUnits="userSpaceOnUse" x1="176" x2="479" xlink:href="#lg2" y1="290.741" y2="290.741"/><linearGradient id="lg3"><stop offset="0" stop-color="#fef056"/><stop offset=".5213" stop-color="#fbc56d"/><stop offset="1" stop-color="#c86d36"/></linearGradient><linearGradient id="SVGID_6_" gradientUnits="userSpaceOnUse" x1="-36" x2="105.51" xlink:href="#lg3" y1="102.921" y2="102.921"/><linearGradient id="SVGID_7_" gradientUnits="userSpaceOnUse" x1="423" x2="551.655" xlink:href="#lg3" y1="102.921" y2="102.921"/><linearGradient id="SVGID_8_" gradientUnits="userSpaceOnUse" x1="-13" x2="87.404" xlink:href="#lg3" y1="478.561" y2="478.561"/><linearGradient id="SVGID_9_" gradientUnits="userSpaceOnUse" x1="435" x2="525.934" xlink:href="#lg3" y1="478.561" y2="478.561"/><linearGradient id="SVGID_10_" gradientUnits="userSpaceOnUse" x1="13.603" x2="654.074" xlink:href="#lg3" y1="290.741" y2="290.741"/><linearGradient id="SVGID_11_" gradientTransform="matrix(.716 .698 -.698 .716 -1405.147 -330.337)" gradientUnits="userSpaceOnUse" x1="1422.369" x2="1491.262" xlink:href="#lg1" y1="-708.458" y2="-708.458"/><linearGradient id="SVGID_12_" gradientUnits="userSpaceOnUse" x1="50.75" x2="217.456" xlink:href="#lg2" y1="159.199" y2="159.199"/><linearGradient id="lg4"><stop offset="0" stop-color="#f8f6f7"/><stop offset="1" stop-color="#d1ceeb"/></linearGradient><linearGradient id="SVGID_13_" gradientTransform="matrix(.716 .698 -.698 .716 -1405.551 -331.278)" gradientUnits="userSpaceOnUse" x1="1367.983" x2="1477.87" xlink:href="#lg4" y1="-708.066" y2="-708.066"/><linearGradient id="SVGID_14_" gradientTransform="matrix(.716 .698 -.698 .716 -1405.147 -330.337)" gradientUnits="userSpaceOnUse" x1="1487.058" x2="1555.95" xlink:href="#lg1" y1="-771.51" y2="-771.51"/><linearGradient id="SVGID_15_" gradientUnits="userSpaceOnUse" x1="141.084" x2="307.79" xlink:href="#lg2" y1="159.199" y2="159.199"/><linearGradient id="SVGID_16_" gradientTransform="matrix(.716 .698 -.698 .716 -1405.551 -331.278)" gradientUnits="userSpaceOnUse" x1="1432.671" x2="1542.558" xlink:href="#lg4" y1="-771.118" y2="-771.118"/><linearGradient id="SVGID_17_" gradientTransform="matrix(.716 .698 -.698 .716 -1405.147 -330.337)" gradientUnits="userSpaceOnUse" x1="1551.746" x2="1620.638" xlink:href="#lg1" y1="-834.562" y2="-834.562"/><linearGradient id="SVGID_18_" gradientUnits="userSpaceOnUse" x1="231.418" x2="398.123" xlink:href="#lg2" y1="159.199" y2="159.199"/><linearGradient id="SVGID_19_" gradientTransform="matrix(.716 .698 -.698 .716 -1405.551 -331.278)" gradientUnits="userSpaceOnUse" x1="1497.359" x2="1607.246" xlink:href="#lg4" y1="-834.17" y2="-834.17"/><linearGradient id="lg5"><stop offset="0" stop-color="#fe646f"/><stop offset=".593" stop-color="#fb2b3a"/><stop offset="1" stop-color="#c41926"/></linearGradient><linearGradient id="SVGID_20_" gradientUnits="userSpaceOnUse" x1="364.697" x2="426.754" xlink:href="#lg5" y1="179.182" y2="179.182"/><linearGradient id="SVGID_21_" gradientUnits="userSpaceOnUse" x1="354.5" x2="396.574" xlink:href="#lg5" y1="162.82" y2="162.82"/><linearGradient id="SVGID_22_" gradientUnits="userSpaceOnUse" x1="184.029" x2="325.971" xlink:href="#lg2" y1="29.91" y2="29.91"/><linearGradient id="SVGID_23_" gradientUnits="userSpaceOnUse" x1="152" x2="304.072" xlink:href="#lg2" y1="29.909" y2="29.909"/><g><path d="m413.5 93.41h-25c0-26.917-54.826-56.91-133.5-56.91-78.673 0-133.5 29.993-133.5 56.91h-25c0-23.633 17.72-45.073 49.896-60.37 29.217-13.89 67.787-21.54 108.604-21.54 40.816 0 79.387 7.65 108.604 21.541 32.176 15.296 49.896 36.736 49.896 60.369z" fill="url(#SVGID_1_)"/><path d="m11.457 82.555h487.086v416.372h-487.086z" fill="url(#SVGID_2_)"/><path d="m91.322 126v-7.02h-25.011c-16.623 0-30.146 13.523-30.146 30.146v283.228c0 16.623 13.524 30.146 30.146 30.146h25.011v-7.02c-16.623 0-30.146-12.971-30.146-28.914v-271.652c0-15.943 13.524-28.914 30.146-28.914z" fill="url(#SVGID_3_)"/><path d="m423.932 432.056 16.068-16.068v-49.371l-16.068-16.068c-4.002-4.002-4.002-10.491 0-14.493l16.068-16.068v-49.371l-16.068-16.068c-4.002-4.002-4.002-10.491 0-14.493l5.051-5.051c-2.2-.966-4.621-1.505-7.167-1.505h-54.304l6.556 6.556c4.002 4.002 4.002 10.491 0 14.493l-15.822 15.822c-4.002 4.002-10.491 4.002-14.493 0l-15.822-15.822c-4.002-4.002-4.002-10.491 0-14.493l6.556-6.556h-62.976l6.556 6.556c4.002 4.002 4.002 10.491 0 14.493l-15.822 15.822c-4.002 4.002-10.491 4.002-14.493 0l-15.822-15.822c-4.002-4.002-4.002-10.491 0-14.493l6.556-6.556h-62.976l6.556 6.556c4.002 4.002 4.002 10.491 0 14.493l-15.822 15.822c-4.002 4.002-10.491 4.002-14.493 0l-15.822-15.822c-4.002-4.002-4.002-10.491 0-14.493l6.556-6.556h-54.301c-2.546 0-4.967.539-7.167 1.505l5.051 5.051c4.002 4.002 4.002 10.491 0 14.493l-16.068 16.068v49.371l16.068 16.068c4.002 4.002 4.002 10.491 0 14.493l-16.068 16.068v49.371l16.068 16.068c4.002 4.002 4.002 10.491 0 14.493l-5.913 5.913c1.717.661 3.57 1.04 5.514 1.04h57.215l-6.953-6.953c-4.002-4.002-4.002-10.491 0-14.493l15.822-15.822c4.002-4.002 10.491-4.002 14.493 0l15.822 15.822c4.002 4.002 4.002 10.491 0 14.493l-6.953 6.953h63.769l-6.953-6.953c-4.002-4.002-4.002-10.491 0-14.493l15.822-15.822c4.002-4.002 10.491-4.002 14.493 0l15.822 15.822c4.002 4.002 4.002 10.491 0 14.493l-6.953 6.953h63.769l-6.953-6.953c-4.002-4.002-4.002-10.491 0-14.493l15.822-15.822c4.002-4.002 10.491-4.002 14.493 0l15.822 15.822c4.002 4.002 4.002 10.491 0 14.493l-6.953 6.953h57.215c1.944 0 3.797-.379 5.514-1.04l-5.913-5.913c-4.001-4.002-4.001-10.491.001-14.493zm-17.686-159.822 15.822 15.822c4.002 4.002 4.002 10.491 0 14.493l-15.822 15.822c-4.002 4.002-10.491 4.002-14.493 0l-15.822-15.822c-4.002-4.002-4.002-10.491 0-14.493l15.822-15.822c4.003-4.002 10.491-4.002 14.493 0zm-96 0 15.822 15.822c4.002 4.002 4.002 10.491 0 14.493l-15.822 15.822c-4.002 4.002-10.491 4.002-14.493 0l-15.822-15.822c-4.002-4.002-4.002-10.491 0-14.493l15.822-15.822c4.003-4.002 10.491-4.002 14.493 0zm-96 0 15.822 15.822c4.002 4.002 4.002 10.491 0 14.493l-15.822 15.822c-4.002 4.002-10.491 4.002-14.493 0l-15.822-15.822c-4.002-4.002-4.002-10.491 0-14.493l15.822-15.822c4.003-4.002 10.491-4.002 14.493 0zm-126.314 15.822 15.822-15.822c4.002-4.002 10.491-4.002 14.493 0l15.822 15.822c4.002 4.002 4.002 10.491 0 14.493l-15.822 15.822c-4.002 4.002-10.491 4.002-14.493 0l-15.822-15.822c-4.002-4.002-4.002-10.491 0-14.493zm15.822 126.315-15.822-15.822c-4.002-4.002-4.002-10.491 0-14.493l15.822-15.822c4.002-4.002 10.491-4.002 14.493 0l15.822 15.822c4.002 4.002 4.002 10.491 0 14.493l-15.822 15.822c-4.003 4.002-10.491 4.002-14.493 0zm32.178-78.315 15.822-15.822c4.002-4.002 10.491-4.002 14.493 0l15.822 15.822c4.002 4.002 4.002 10.491 0 14.493l-15.822 15.822c-4.002 4.002-10.491 4.002-14.493 0l-15.822-15.822c-4.002-4.002-4.002-10.491 0-14.493zm63.822 78.315-15.822-15.822c-4.002-4.002-4.002-10.491 0-14.493l15.822-15.822c4.002-4.002 10.491-4.002 14.493 0l15.822 15.822c4.002 4.002 4.002 10.491 0 14.493l-15.822 15.822c-4.003 4.002-10.491 4.002-14.493 0zm32.178-78.315 15.822-15.822c4.002-4.002 10.491-4.002 14.493 0l15.822 15.822c4.002 4.002 4.002 10.491 0 14.493l-15.822 15.822c-4.002 4.002-10.491 4.002-14.493 0l-15.822-15.822c-4.002-4.002-4.002-10.491 0-14.493zm63.822 78.315-15.822-15.822c-4.002-4.002-4.002-10.491 0-14.493l15.822-15.822c4.002-4.002 10.491-4.002 14.493 0l15.822 15.822c4.002 4.002 4.002 10.491 0 14.493l-15.822 15.822c-4.003 4.002-10.491 4.002-14.493 0zm32.178-78.315 15.822-15.822c4.002-4.002 10.491-4.002 14.493 0l15.822 15.822c4.002 4.002 4.002 10.491 0 14.493l-15.822 15.822c-4.002 4.002-10.491 4.002-14.493 0l-15.822-15.822c-4.002-4.002-4.002-10.491 0-14.493zm48 48 15.822-15.822c4.002-4.002 10.491-4.002 14.493 0l15.822 15.822c4.002 4.002 4.002 10.491 0 14.493l-15.822 15.822c-4.002 4.002-10.491 4.002-14.493 0l-15.822-15.822c-4.002-4.002-4.002-10.491 0-14.493z" fill="url(#SVGID_4_)"/><path d="m458.523 82.555h40.02v416.372h-40.02z" fill="url(#SVGID_5_)"/><g><path d="m33.909 96.872h20.45c4.705 0 8.519-3.814 8.519-8.519v-8.352c0-4.705-3.814-8.519-8.519-8.519h-30.44c-13.21 0-23.919 10.709-23.919 23.919v30.44c0 4.705 3.814 8.519 8.519 8.519h8.352c4.705 0 8.519-3.814 8.519-8.519v-20.45c0-4.705 3.814-8.519 8.519-8.519z" fill="url(#SVGID_6_)"/><path d="m476.091 96.872h-20.45c-4.705 0-8.519-3.814-8.519-8.519v-8.352c0-4.705 3.814-8.519 8.519-8.519h30.44c13.21 0 23.919 10.709 23.919 23.919v30.44c0 4.705-3.814 8.519-8.519 8.519h-8.352c-4.705 0-8.519-3.814-8.519-8.519v-20.45c0-4.705-3.814-8.519-8.519-8.519z" fill="url(#SVGID_7_)"/><path d="m33.909 484.61h20.45c4.705 0 8.519 3.814 8.519 8.519v8.352c0 4.705-3.814 8.519-8.519 8.519h-30.44c-13.21 0-23.919-10.709-23.919-23.919v-30.44c0-4.705 3.814-8.519 8.519-8.519h8.352c4.705 0 8.519 3.814 8.519 8.519v20.45c0 4.705 3.814 8.519 8.519 8.519z" fill="url(#SVGID_8_)"/><path d="m476.091 484.61h-20.45c-4.705 0-8.519 3.814-8.519 8.519v8.352c0 4.705 3.814 8.519 8.519 8.519h30.44c13.21 0 23.919-10.709 23.919-23.919v-30.44c0-4.705-3.814-8.519-8.519-8.519h-8.352c-4.705 0-8.519 3.814-8.519 8.519v20.45c0 4.705-3.814 8.519-8.519 8.519z" fill="url(#SVGID_9_)"/></g><path d="m418.678 118.98h-327.356c-16.623 0-30.146 13.523-30.146 30.146v283.228c0 16.623 13.524 30.146 30.146 30.146h327.355c16.623 0 30.146-13.523 30.146-30.146v-283.227c.001-16.623-13.522-30.147-30.145-30.147zm-327.356 15h327.355c8.365 0 15.146 6.781 15.146 15.146v57.796c0 9.708-7.87 17.577-17.577 17.577h-322.493c-9.708 0-17.577-7.87-17.577-17.577v-57.796c0-8.364 6.781-15.146 15.146-15.146zm327.356 313.521h-327.356c-8.365 0-15.146-6.781-15.146-15.146v-175.278c0-9.708 7.87-17.577 17.577-17.577h322.494c9.708 0 17.577 7.87 17.577 17.577v175.278c0 8.365-6.781 15.146-15.146 15.146z" fill="url(#SVGID_10_)"/><g><g><circle cx="132.583" cy="179.182" fill="url(#SVGID_11_)" r="34.446"/><path d="m142.583 163.313v-8.46c0-5.501-4.397-10.092-9.897-10.109-.067 0-.135 0-.202 0-5.502.014-9.901 4.608-9.9 10.109v8.803c0 5.743 4.841 10.355 10.666 9.978 5.314-.344 9.333-4.995 9.333-10.321z" fill="url(#SVGID_12_)"/><path d="m156.626 154.515c-2.731-2.662-5.793-4.769-9.047-6.343 6.609 12.814 4.669 28.936-5.949 39.829-10.617 10.893-26.684 13.245-39.663 6.967 1.657 3.212 3.842 6.22 6.572 8.882 13.623 13.279 35.432 12.999 48.71-.624 13.28-13.624 13.001-35.432-.623-48.711z" fill="url(#SVGID_13_)"/></g></g><g><g><circle cx="222.917" cy="179.182" fill="url(#SVGID_14_)" r="34.446"/><path d="m232.917 163.313v-8.46c0-5.501-4.397-10.092-9.897-10.109-.067 0-.135 0-.202 0-5.502.014-9.901 4.608-9.9 10.109v8.803c0 5.743 4.841 10.355 10.666 9.978 5.314-.344 9.333-4.995 9.333-10.321z" fill="url(#SVGID_15_)"/><path d="m246.96 154.515c-2.731-2.662-5.793-4.769-9.047-6.343 6.609 12.814 4.669 28.936-5.949 39.829-10.617 10.893-26.684 13.245-39.663 6.967 1.657 3.212 3.842 6.22 6.572 8.882 13.623 13.279 35.432 12.999 48.71-.624s13-35.432-.623-48.711z" fill="url(#SVGID_16_)"/></g></g><g><g><circle cx="313.251" cy="179.182" fill="url(#SVGID_17_)" r="34.446"/><path d="m323.251 163.313v-8.46c0-5.501-4.397-10.092-9.897-10.109-.067 0-.135 0-.202 0-5.502.014-9.901 4.608-9.9 10.109v8.803c0 5.743 4.841 10.355 10.666 9.978 5.313-.344 9.333-4.995 9.333-10.321z" fill="url(#SVGID_18_)"/><path d="m337.294 154.515c-2.731-2.662-5.793-4.769-9.047-6.343 6.609 12.814 4.669 28.936-5.949 39.829-10.617 10.893-26.684 13.245-39.663 6.967 1.657 3.212 3.842 6.22 6.572 8.882 13.623 13.279 35.432 12.999 48.71-.624s13-35.432-.623-48.711z" fill="url(#SVGID_19_)"/></g></g><path d="m402.18 213.625h-27.144c-5.348 0-9.683-4.335-9.683-9.683v-49.519c0-5.348 4.335-9.683 9.683-9.683h27.144c5.348 0 9.683 4.335 9.683 9.683v49.519c0 5.348-4.335 9.683-9.683 9.683z" fill="url(#SVGID_20_)"/><path d="m402.18 144.739h-27.144c-5.348 0-9.683 4.335-9.683 9.683v26.478h46.51v-26.478c0-5.347-4.335-9.683-9.683-9.683z" fill="url(#SVGID_21_)"/><g><path d="m255 56.162c13.525 0 26.763 1.07 39.555 3.169 16.02 2.629 31.416-5.69 31.416-17.141v-20.737c0-8.283-8.246-15.421-19.836-17.316-16.678-2.727-33.841-4.136-51.135-4.136s-34.457 1.409-51.134 4.136c-11.59 1.896-19.836 9.033-19.836 17.316v20.737c0 11.451 15.396 19.77 31.416 17.141 12.791-2.1 26.029-3.169 39.554-3.169z" fill="url(#SVGID_22_)"/><path d="m325.97 21.456v20.732c0 11.451-15.4 19.772-31.42 17.142-6.58-1.078-13.27-1.885-20.06-2.414 6.83-3.11 11.46-8.446 11.46-14.728v-20.732c0-8.286-8.25-15.424-19.84-17.316-10.21-1.67-20.62-2.845-31.12-3.506 6.64-.418 13.32-.634 20.01-.634 17.29 0 34.46 1.412 51.13 4.139 11.59 1.893 19.84 9.031 19.84 17.317z" fill="url(#SVGID_23_)"/></g></g></svg>