<svg id="Capa_1" enable-background="new 0 0 510 510" height="512" viewBox="0 0 510 510" width="512" xmlns="http://www.w3.org/2000/svg" xmlns:xlink="http://www.w3.org/1999/xlink"><linearGradient id="lg1"><stop offset="0" stop-color="#bbec6c"/><stop offset=".5857" stop-color="#78a91f"/><stop offset="1" stop-color="#02905d"/></linearGradient><linearGradient id="SVGID_1_" gradientUnits="userSpaceOnUse" x1="48" x2="564.314" xlink:href="#lg1" y1="303.236" y2="303.236"/><linearGradient id="SVGID_2_" gradientUnits="userSpaceOnUse" x1="-142" x2="472.326" xlink:href="#lg1" y1="303.235" y2="303.235"/><linearGradient id="lg2"><stop offset="0" stop-color="#fef056"/><stop offset=".5213" stop-color="#fbc56d"/><stop offset="1" stop-color="#c86d36"/></linearGradient><linearGradient id="SVGID_3_" gradientUnits="userSpaceOnUse" x1="127.672" x2="449.076" xlink:href="#lg2" y1="354.864" y2="354.864"/><linearGradient id="lg3"><stop offset="0" stop-color="#f8f6f7"/><stop offset=".1788" stop-color="#f8f6f7"/><stop offset="1" stop-color="#e7e6f5"/></linearGradient><linearGradient id="SVGID_4_" gradientUnits="userSpaceOnUse" x1="-112.031" x2="167.785" xlink:href="#lg3" y1="150.177" y2="150.177"/><linearGradient id="SVGID_5_" gradientUnits="userSpaceOnUse" x1="91.969" x2="371.785" xlink:href="#lg3" y1="150.177" y2="150.177"/><linearGradient id="SVGID_6_" gradientUnits="userSpaceOnUse" x1="295.969" x2="575.785" xlink:href="#lg3" y1="150.177" y2="150.177"/><linearGradient id="SVGID_7_" gradientUnits="userSpaceOnUse" x1="68" x2="633.279" xlink:href="#lg3" y1="53.236" y2="53.236"/><linearGradient id="lg4"><stop offset="0" stop-color="#fe646f"/><stop offset=".593" stop-color="#fb2b3a"/><stop offset="1" stop-color="#c41926"/></linearGradient><linearGradient id="SVGID_8_" gradientUnits="userSpaceOnUse" x1="91" x2="234.349" xlink:href="#lg4" y1="146.177" y2="146.177"/><linearGradient id="SVGID_9_" gradientUnits="userSpaceOnUse" x1="301" x2="438.819" xlink:href="#lg4" y1="147.177" y2="147.177"/><linearGradient id="SVGID_10_" gradientUnits="userSpaceOnUse" x1="160.815" x2="483.975" xlink:href="#lg4" y1="53.236" y2="53.236"/><linearGradient id="SVGID_11_" gradientUnits="userSpaceOnUse" x1="-27.385" x2="295.775" xlink:href="#lg4" y1="53.236" y2="53.236"/><linearGradient id="lg5"><stop offset="0" stop-color="#537983"/><stop offset=".593" stop-color="#554e56"/><stop offset="1" stop-color="#433f43"/></linearGradient><linearGradient id="SVGID_12_" gradientUnits="userSpaceOnUse" x1="48.654" x2="685.578" xlink:href="#lg5" y1="481.856" y2="481.856"/><linearGradient id="SVGID_13_" gradientUnits="userSpaceOnUse" x1="216.646" x2="497.232" xlink:href="#lg5" y1="481.856" y2="481.856"/><linearGradient id="SVGID_14_" gradientUnits="userSpaceOnUse" x1="40.583" x2="432.883" xlink:href="#lg2" y1="344.584" y2="344.584"/><linearGradient id="SVGID_15_" gradientUnits="userSpaceOnUse" x1="149.755" x2="453.326" xlink:href="#lg4" y1="325.584" y2="325.584"/><linearGradient id="SVGID_16_" gradientUnits="userSpaceOnUse" x1="40" x2="372.096" xlink:href="#lg2" y1="214.309" y2="214.309"/><linearGradient id="lg6"><stop offset="0" stop-color="#f8f6f7"/><stop offset="1" stop-color="#d1ceeb"/></linearGradient><linearGradient id="SVGID_19_" gradientUnits="userSpaceOnUse" x1="320" x2="526.7" xlink:href="#lg6" y1="53.236" y2="53.236"/><linearGradient id="SVGID_20_" gradientUnits="userSpaceOnUse" x1="381" x2="492.364" xlink:href="#lg6" y1="150.177" y2="150.177"/><g><path d="m39.597 106.472h430.806v393.528h-430.806z" fill="url(#SVGID_1_)"/><path d="m470.4 106.47v393.53h-40.02v-247.698c0-20.541-4.995-40.911-15.394-58.626-4.44-7.566-6.986-16.379-6.986-25.786 0 14.09-5.71 26.83-14.94 36.06-9.22 9.23-21.98 14.94-36.06 14.94-28.17 0-51-22.83-51-51 0 14.09-5.71 26.83-14.94 36.06-9.22 9.23-21.98 14.94-36.06 14.94-28.17 0-51-22.83-51-51 0 14.09-5.71 26.83-14.94 36.06-9.22 9.23-21.98 14.94-36.06 14.94-28.17 0-51-22.83-51-51 0 14.09-5.71 26.83-14.94 36.06-9.22 9.23-21.98 14.94-36.06 14.94-3.92 0-7.73-.44-11.4-1.28v-111.14z" fill="url(#SVGID_2_)"/><path d="m383.756 500h-257.511v-252.111c0-21.076 17.085-38.161 38.161-38.161h181.189c21.076 0 38.161 17.085 38.161 38.161z" fill="url(#SVGID_3_)"/><g><path d="m51 193.882c-28.167 0-51-22.833-51-51v-36.41h102v36.41c0 28.166-22.833 51-51 51z" fill="url(#SVGID_4_)"/><path d="m255 193.882c-28.167 0-51-22.833-51-51v-36.41h102v36.41c0 28.166-22.833 51-51 51z" fill="url(#SVGID_5_)"/><path d="m459 193.882c-28.167 0-51-22.833-51-51v-36.41h102v36.41c0 28.166-22.833 51-51 51z" fill="url(#SVGID_6_)"/><path d="m97.499 0h315.002c11.638 0 22.588 5.51 29.522 14.856l67.977 91.616h-510l67.977-91.616c6.934-9.346 17.885-14.856 29.522-14.856z" fill="url(#SVGID_7_)"/><path d="m153 193.882c-28.167 0-51-22.833-51-51v-36.41l48.648-8 53.352 8v36.41c0 28.166-22.833 51-51 51z" fill="url(#SVGID_8_)"/><path d="m357 193.882c-28.167 0-51-22.833-51-51v-36.41l52.707-6 49.293 6v36.41c0 28.166-22.833 51-51 51z" fill="url(#SVGID_9_)"/><path d="m360.6 0h-70.4l15.8 106.472h102z" fill="url(#SVGID_10_)"/><path d="m149.4 0-47.4 106.472h102l15.8-106.472z" fill="url(#SVGID_11_)"/></g><g><path d="m460.033 453.712h-410.066c-15.543 0-28.144 12.6-28.144 28.144 0 15.543 12.6 28.144 28.144 28.144h410.067c15.543 0 28.144-12.6 28.144-28.144-.001-15.543-12.601-28.144-28.145-28.144z" fill="url(#SVGID_12_)"/><path d="m460.033 453.712h-40.02c15.543 0 28.144 12.6 28.144 28.144 0 15.543-12.6 28.144-28.144 28.144h40.02c15.543 0 28.144-12.6 28.144-28.144 0-15.543-12.6-28.144-28.144-28.144z" fill="url(#SVGID_13_)"/></g><g><path d="m210.575 247.215c-11.239 0-20.349 9.111-20.349 20.349v67.025c-10.614-1.715-23.216 1.072-34.425 8.564-19.714 13.177-27.647 35.9-17.719 50.753s33.958 16.212 53.672 3.034c14.253-9.527 22.343-24.043 21.982-36.967h.017v-69.779c0-3.475 3.383-5.944 6.692-4.885l78.554 25.14c2.124.68 3.566 2.655 3.566 4.885v55.207c-10.614-1.715-23.216 1.072-34.425 8.564-19.714 13.177-27.647 35.9-17.719 50.753s33.958 16.212 53.672 3.034c14.253-9.527 22.343-24.043 21.982-36.967h.017v-97.905c0-8.849-5.719-16.684-14.147-19.381l-95.165-30.457c-2.008-.64-4.1-.967-6.205-.967z" fill="url(#SVGID_14_)"/><path d="m233.586 228.215c-11.239 0-20.349 9.111-20.349 20.349v67.025c-10.614-1.715-23.216 1.072-34.425 8.564-19.714 13.177-27.647 35.9-17.719 50.753s33.958 16.212 53.672 3.034c14.253-9.527 22.343-24.043 21.982-36.967h.017v-69.779c0-3.475 3.383-5.944 6.692-4.885l78.554 25.14c2.124.68 3.566 2.655 3.566 4.885v55.207c-10.614-1.715-23.216 1.072-34.425 8.564-19.714 13.177-27.647 35.9-17.719 50.753s33.958 16.212 53.672 3.034c14.253-9.527 22.343-24.043 21.982-36.967h.017v-97.905c0-8.849-5.719-16.684-14.147-19.381l-95.165-30.457c-2.008-.64-4.1-.967-6.205-.967z" fill="url(#SVGID_15_)"/></g><g fill="url(#SVGID_16_)"><path d="m255 218.89c10.838 0 20.887-3.394 29.148-9.162h-58.3c8.263 5.769 18.308 9.162 29.152 9.162z"/><path d="m141.298 217.526c3.759.883 7.673 1.364 11.702 1.364 10.838 0 20.887-3.394 29.148-9.162h-17.743c-8.687.001-16.693 2.909-23.107 7.798z"/><path d="m345.595 209.729h-17.747c8.264 5.769 18.308 9.162 29.152 9.162 4.028 0 7.941-.482 11.701-1.365-6.414-4.889-14.419-7.797-23.106-7.797z"/></g><path d="m442.023 14.856c-6.934-9.346-17.885-14.856-29.522-14.856h-40.02c11.637 0 22.588 5.51 29.522 14.856l67.977 91.615h40.02z" fill="url(#SVGID_19_)"/><path d="m469.98 106.472v36.41c0 21.063-12.771 39.14-30.99 46.921 6.144 2.624 12.907 4.079 20.01 4.079 28.167 0 51-22.833 51-51v-36.41z" fill="url(#SVGID_20_)"/></g></svg>