<svg id="Capa_1" enable-background="new 0 0 510 510" height="512" viewBox="0 0 510 510" width="512" xmlns="http://www.w3.org/2000/svg" xmlns:xlink="http://www.w3.org/1999/xlink"><linearGradient id="lg1"><stop offset="0" stop-color="#537983"/><stop offset=".593" stop-color="#554e56"/><stop offset="1" stop-color="#433f43"/></linearGradient><linearGradient id="SVGID_1_" gradientUnits="userSpaceOnUse" x1="31.813" x2="92.498" xlink:href="#lg1" y1="383.261" y2="383.261"/><linearGradient id="SVGID_2_" gradientUnits="userSpaceOnUse" x1="397.287" x2="457.972" xlink:href="#lg1" y1="383.261" y2="383.261"/><linearGradient id="SVGID_3_" gradientUnits="userSpaceOnUse" x1="5.63" x2="761.032" xlink:href="#lg1" y1="236.232" y2="236.232"/><linearGradient id="SVGID_4_" gradientUnits="userSpaceOnUse" x1="94" x2="529.01" xlink:href="#lg1" y1="236.232" y2="236.232"/><linearGradient id="SVGID_5_" gradientUnits="userSpaceOnUse" x1="-30.546" x2="528.779" xlink:href="#lg1" y1="236.232" y2="236.232"/><linearGradient id="SVGID_6_" gradientUnits="userSpaceOnUse" x1="102" x2="285.255" xlink:href="#lg1" y1="253.238" y2="253.238"/><linearGradient id="SVGID_7_" gradientUnits="userSpaceOnUse" x1="-8.667" x2="178.871" xlink:href="#lg1" y1="292.333" y2="292.333"/><linearGradient id="SVGID_8_" gradientUnits="userSpaceOnUse" x1="158" x2="400.821" xlink:href="#lg1" y1="292.333" y2="292.333"/><linearGradient id="SVGID_9_" gradientUnits="userSpaceOnUse" x1="-74" x2="419.584" xlink:href="#lg1" y1="236.232" y2="236.232"/><linearGradient id="lg2"><stop offset="0" stop-color="#f8f6f7"/><stop offset=".1788" stop-color="#f8f6f7"/><stop offset="1" stop-color="#e7e6f5"/></linearGradient><linearGradient id="SVGID_10_" gradientTransform="matrix(.716 .698 -.698 .716 -1707.213 412.329)" gradientUnits="userSpaceOnUse" x1="1251.66" x2="1320.553" xlink:href="#lg2" y1="-1491.742" y2="-1491.742"/><linearGradient id="SVGID_11_" gradientUnits="userSpaceOnUse" x1="173.167" x2="339.873" xlink:href="#lg1" y1="221.797" y2="221.797"/><linearGradient id="lg3"><stop offset="0" stop-color="#f8f6f7"/><stop offset="1" stop-color="#d1ceeb"/></linearGradient><linearGradient id="SVGID_12_" gradientTransform="matrix(.716 .698 -.698 .716 -1707.617 411.387)" gradientUnits="userSpaceOnUse" x1="1197.274" x2="1307.16" xlink:href="#lg3" y1="-1491.35" y2="-1491.35"/><linearGradient id="SVGID_13_" gradientTransform="matrix(.716 .698 -.698 .716 -1707.213 412.329)" gradientUnits="userSpaceOnUse" x1="1169.63" x2="1238.523" xlink:href="#lg2" y1="-1357.193" y2="-1357.193"/><linearGradient id="SVGID_14_" gradientUnits="userSpaceOnUse" x1="20.51" x2="187.216" xlink:href="#lg1" y1="260.892" y2="260.892"/><linearGradient id="SVGID_15_" gradientTransform="matrix(.716 .698 -.698 .716 -1707.617 411.387)" gradientUnits="userSpaceOnUse" x1="1115.243" x2="1225.13" xlink:href="#lg3" y1="-1356.801" y2="-1356.801"/><linearGradient id="SVGID_16_" gradientTransform="matrix(.716 .698 -.698 .716 -1707.213 412.329)" gradientUnits="userSpaceOnUse" x1="1388.266" x2="1457.159" xlink:href="#lg2" y1="-1570.3" y2="-1570.3"/><linearGradient id="SVGID_17_" gradientUnits="userSpaceOnUse" x1="325.824" x2="492.53" xlink:href="#lg1" y1="260.892" y2="260.892"/><linearGradient id="SVGID_18_" gradientTransform="matrix(.716 .698 -.698 .716 -1707.617 411.387)" gradientUnits="userSpaceOnUse" x1="1333.88" x2="1443.767" xlink:href="#lg3" y1="-1569.908" y2="-1569.908"/><linearGradient id="lg4"><stop offset="0" stop-color="#fef056"/><stop offset=".5213" stop-color="#fbc56d"/><stop offset="1" stop-color="#c86d36"/></linearGradient><linearGradient id="SVGID_19_" gradientUnits="userSpaceOnUse" x1="173.167" x2="339.873" xlink:href="#lg4" y1="178.294" y2="178.294"/><linearGradient id="SVGID_20_" gradientUnits="userSpaceOnUse" x1="173.167" x2="339.873" xlink:href="#lg4" y1="305.267" y2="305.267"/><linearGradient id="SVGID_21_" gradientTransform="matrix(0 1 -1 0 2114.519 3732.519)" gradientUnits="userSpaceOnUse" x1="-3572.572" x2="-3405.866" xlink:href="#lg4" y1="1796.032" y2="1796.032"/><linearGradient id="SVGID_22_" gradientTransform="matrix(0 1 -1 0 2114.519 3732.519)" gradientUnits="userSpaceOnUse" x1="-3572.572" x2="-3405.866" xlink:href="#lg4" y1="1923.006" y2="1923.006"/><linearGradient id="SVGID_23_" gradientTransform="matrix(.707 .707 -.707 .707 1830.289 1428.328)" gradientUnits="userSpaceOnUse" x1="-2034.747" x2="-1868.041" xlink:href="#lg4" y1="211.395" y2="211.395"/><linearGradient id="SVGID_24_" gradientTransform="matrix(.707 .707 -.707 .707 1830.289 1428.328)" gradientUnits="userSpaceOnUse" x1="-2034.747" x2="-1868.041" xlink:href="#lg4" y1="338.368" y2="338.368"/><linearGradient id="SVGID_25_" gradientTransform="matrix(-.707 .707 -.707 -.707 686.191 5562.809)" gradientUnits="userSpaceOnUse" x1="-3539.47" x2="-3372.765" xlink:href="#lg4" y1="4003.946" y2="4003.946"/><linearGradient id="SVGID_26_" gradientTransform="matrix(-.707 .707 -.707 -.707 686.191 5562.809)" gradientUnits="userSpaceOnUse" x1="-3539.47" x2="-3372.765" xlink:href="#lg4" y1="4130.919" y2="4130.919"/><linearGradient id="lg5"><stop offset="0" stop-color="#fe646f"/><stop offset=".593" stop-color="#fb2b3a"/><stop offset="1" stop-color="#c41926"/></linearGradient><linearGradient id="SVGID_27_" gradientUnits="userSpaceOnUse" x1="78.431" x2="140.489" xlink:href="#lg5" y1="185.806" y2="185.806"/><linearGradient id="SVGID_28_" gradientUnits="userSpaceOnUse" x1="68.235" x2="110.309" xlink:href="#lg5" y1="169.444" y2="169.444"/><linearGradient id="lg6"><stop offset="0" stop-color="#bbec6c"/><stop offset=".5857" stop-color="#78a91f"/><stop offset="1" stop-color="#02905d"/></linearGradient><linearGradient id="SVGID_29_" gradientUnits="userSpaceOnUse" x1="341.251" x2="379.725" xlink:href="#lg6" y1="185.806" y2="185.806"/><linearGradient id="SVGID_30_" gradientUnits="userSpaceOnUse" x1="382.649" x2="421.124" xlink:href="#lg6" y1="185.806" y2="185.806"/><linearGradient id="SVGID_31_" gradientUnits="userSpaceOnUse" x1="424.048" x2="462.522" xlink:href="#lg4" y1="185.806" y2="185.806"/><g><g><path d="m82.032 407.261h-19.538c-9.611 0-17.402-7.791-17.402-17.402v-30.598h54.343v30.598c0 9.611-7.792 17.402-17.403 17.402z" fill="url(#SVGID_1_)"/><path d="m447.506 407.261h-19.539c-9.611 0-17.402-7.791-17.402-17.402v-30.598h54.343v30.598c.001 9.611-7.791 17.402-17.402 17.402z" fill="url(#SVGID_2_)"/></g><path d="m482.023 369.725h-454.046c-15.451 0-27.977-12.525-27.977-27.976v-211.034c0-15.451 12.526-27.977 27.977-27.977h454.047c15.451 0 27.977 12.526 27.977 27.977v211.033c-.001 15.452-12.527 27.977-27.978 27.977z" fill="url(#SVGID_3_)"/><path d="m482.023 102.739h-40.02c15.451 0 27.977 12.526 27.977 27.977v211.033c0 15.451-12.526 27.977-27.977 27.977h40.02c15.451 0 27.977-12.525 27.977-27.977v-211.034c0-15.451-12.526-27.976-27.977-27.976z" fill="url(#SVGID_4_)"/><path d="m452.598 344.026h-395.196c-12.926 0-23.404-10.478-23.404-23.404v-168.78c0-12.926 10.478-23.404 23.404-23.404h395.195c12.926 0 23.404 10.478 23.404 23.404v168.78c.001 12.926-10.478 23.404-23.403 23.404z" fill="url(#SVGID_5_)"/><circle cx="243.542" cy="253.238" fill="url(#SVGID_6_)" r="34.446"/><circle cx="90.886" cy="292.333" fill="url(#SVGID_7_)" r="34.446"/><circle cx="396.199" cy="292.333" fill="url(#SVGID_8_)" r="34.446"/><path d="m452.598 128.438h-395.196c-12.926 0-23.404 10.478-23.404 23.404v25.011c0-12.926 10.478-23.404 23.404-23.404h330.855c26.357 0 47.724 21.367 47.724 47.724v119.449c0 12.926-10.478 23.404-23.404 23.404h40.02c12.926 0 23.404-10.478 23.404-23.404v-168.78c.001-12.926-10.478-23.404-23.403-23.404z" fill="url(#SVGID_9_)"/><g><g><circle cx="255" cy="241.78" fill="url(#SVGID_10_)" r="34.446"/><path d="m265 225.911v-8.46c0-5.501-4.397-10.092-9.897-10.109-.067 0-.135 0-.202 0-5.502.014-9.901 4.608-9.9 10.109v8.803c0 5.743 4.841 10.355 10.666 9.978 5.314-.344 9.333-4.995 9.333-10.321z" fill="url(#SVGID_11_)"/><path d="m279.043 217.113c-2.731-2.662-5.793-4.769-9.047-6.343 6.609 12.814 4.669 28.936-5.949 39.829-10.617 10.893-26.684 13.245-39.663 6.967 1.657 3.212 3.842 6.22 6.572 8.882 13.623 13.279 35.432 12.999 48.71-.624 13.28-13.624 13.001-35.432-.623-48.711z" fill="url(#SVGID_12_)"/></g></g><g><g><circle cx="102.343" cy="280.875" fill="url(#SVGID_13_)" r="34.446"/><path d="m112.343 265.006v-8.46c0-5.501-4.397-10.092-9.897-10.109-.067 0-.135 0-.202 0-5.502.014-9.901 4.608-9.9 10.109v8.803c0 5.743 4.841 10.355 10.666 9.978 5.314-.344 9.333-4.995 9.333-10.321z" fill="url(#SVGID_14_)"/><path d="m126.386 256.208c-2.731-2.662-5.793-4.769-9.047-6.343 6.609 12.814 4.669 28.936-5.949 39.829-10.617 10.893-26.684 13.245-39.663 6.967 1.657 3.212 3.842 6.22 6.572 8.882 13.623 13.279 35.432 12.999 48.71-.624 13.28-13.624 13.001-35.432-.623-48.711z" fill="url(#SVGID_15_)"/></g></g><g><g><circle cx="407.657" cy="280.875" fill="url(#SVGID_16_)" r="34.446"/><path d="m417.657 265.006v-8.46c0-5.501-4.397-10.092-9.897-10.109-.067 0-.135 0-.202 0-5.502.014-9.901 4.608-9.9 10.109v8.803c0 5.743 4.841 10.355 10.666 9.978 5.314-.344 9.333-4.995 9.333-10.321z" fill="url(#SVGID_17_)"/><path d="m431.7 256.208c-2.731-2.662-5.793-4.769-9.047-6.343 6.609 12.814 4.669 28.936-5.949 39.829-10.617 10.893-26.684 13.245-39.663 6.967 1.657 3.212 3.842 6.22 6.572 8.882 13.623 13.279 35.432 12.999 48.71-.624 13.28-13.624 13-35.432-.623-48.711z" fill="url(#SVGID_18_)"/></g></g><g><path d="m265 178.006v.343c0-5.501-4.397-10.092-9.897-10.109-.067 0-.135 0-.202 0-5.502.014-9.901 4.608-9.9 10.109 0 5.743 4.841 10.355 10.666 9.978 5.314-.344 9.333-4.995 9.333-10.321z" fill="url(#SVGID_19_)"/><path d="m265 304.979v.343c0-5.501-4.397-10.092-9.897-10.109-.067 0-.135 0-.202 0-5.502.014-9.901 4.608-9.9 10.109 0 5.743 4.841 10.355 10.666 9.978 5.314-.344 9.333-4.995 9.333-10.321z" fill="url(#SVGID_20_)"/></g><g><path d="m318.774 251.78h-.343c5.501 0 10.092-4.397 10.109-9.897 0-.067 0-.135 0-.202-.014-5.502-4.608-9.901-10.109-9.9-5.743 0-10.355 4.841-9.978 10.666.345 5.314 4.995 9.333 10.321 9.333z" fill="url(#SVGID_21_)"/><path d="m191.801 251.78h-.343c5.501 0 10.092-4.397 10.109-9.897 0-.067 0-.135 0-.202-.014-5.502-4.608-9.901-10.109-9.9-5.743 0-10.355 4.841-9.978 10.666.344 5.314 4.995 9.333 10.321 9.333z" fill="url(#SVGID_22_)"/></g><g><path d="m307.166 203.756-.242.242c3.889-3.89 4.027-10.245.15-14.147-.048-.048-.095-.096-.143-.143-3.901-3.88-10.259-3.743-14.149.148-4.061 4.061-3.899 10.746.486 14.597 4.002 3.516 10.132 3.069 13.898-.697z" fill="url(#SVGID_23_)"/><path d="m217.383 293.54-.242.242c3.889-3.889 4.027-10.245.15-14.147-.048-.048-.095-.096-.143-.143-3.901-3.88-10.259-3.743-14.149.148-4.061 4.061-3.899 10.746.486 14.597 4.001 3.515 10.132 3.069 13.898-.697z" fill="url(#SVGID_24_)"/></g><g><path d="m293.024 293.947-.242-.242c3.89 3.889 10.245 4.027 14.147.15.048-.048.096-.095.143-.143 3.88-3.901 3.743-10.259-.148-14.149-4.061-4.061-10.746-3.899-14.597.486-3.515 4.001-3.069 10.132.697 13.898z" fill="url(#SVGID_25_)"/><path d="m203.241 204.163-.242-.242c3.89 3.889 10.245 4.027 14.147.15.048-.048.096-.095.143-.143 3.88-3.901 3.743-10.259-.148-14.149-4.061-4.061-10.746-3.899-14.597.486-3.516 4.001-3.07 10.132.697 13.898z" fill="url(#SVGID_26_)"/></g><g><path d="m115.915 220.249h-27.144c-5.348 0-9.683-4.335-9.683-9.683v-49.519c0-5.348 4.335-9.683 9.683-9.683h27.144c5.348 0 9.683 4.335 9.683 9.683v49.519c0 5.348-4.335 9.683-9.683 9.683z" fill="url(#SVGID_27_)"/><path d="m115.915 151.364h-27.144c-5.348 0-9.683 4.335-9.683 9.683v26.478h46.51v-26.478c0-5.348-4.335-9.683-9.683-9.683z" fill="url(#SVGID_28_)"/></g><g><path d="m354.932 185.161v1.291c0 3.786 3.069 6.854 6.854 6.854h8.943c3.786 0 6.854-3.069 6.854-6.854v-1.291c0-3.786-3.069-6.854-6.854-6.854h-8.943c-3.785-.001-6.854 3.068-6.854 6.854z" fill="url(#SVGID_29_)"/><path d="m396.331 185.161v1.291c0 3.786 3.069 6.854 6.854 6.854h8.943c3.786 0 6.854-3.069 6.854-6.854v-1.291c0-3.786-3.069-6.854-6.854-6.854h-8.943c-3.785-.001-6.854 3.068-6.854 6.854z" fill="url(#SVGID_30_)"/><path d="m437.729 185.161v1.291c0 3.786 3.069 6.854 6.854 6.854h8.943c3.786 0 6.854-3.069 6.854-6.854v-1.291c0-3.786-3.069-6.854-6.854-6.854h-8.943c-3.785-.001-6.854 3.068-6.854 6.854z" fill="url(#SVGID_31_)"/></g></g></svg>