<svg id="Capa_1" enable-background="new 0 0 510 510" height="512" viewBox="0 0 510 510" width="512" xmlns="http://www.w3.org/2000/svg" xmlns:xlink="http://www.w3.org/1999/xlink"><linearGradient id="lg1"><stop offset="0" stop-color="#60b7ff"/><stop offset=".5857" stop-color="#0182fc"/><stop offset="1" stop-color="#2740b0"/></linearGradient><linearGradient id="SVGID_1_" gradientUnits="userSpaceOnUse" x1="170" x2="327.088" xlink:href="#lg1" y1="255" y2="255"/><linearGradient id="SVGID_2_" gradientUnits="userSpaceOnUse" x1="147" x2="304.051" xlink:href="#lg1" y1="40.4" y2="40.4"/><linearGradient id="SVGID_3_" gradientUnits="userSpaceOnUse" x1="159.001" x2="292.631" xlink:href="#lg1" y1="394.736" y2="394.736"/><linearGradient id="lg2"><stop offset="0" stop-color="#537983"/><stop offset=".593" stop-color="#554e56"/><stop offset="1" stop-color="#433f43"/></linearGradient><linearGradient id="SVGID_4_" gradientUnits="userSpaceOnUse" x1="160" x2="606.942" xlink:href="#lg2" y1="215.628" y2="215.628"/><linearGradient id="lg3"><stop offset="0" stop-color="#f8f6f7"/><stop offset=".1788" stop-color="#f8f6f7"/><stop offset="1" stop-color="#e7e6f5"/></linearGradient><linearGradient id="SVGID_5_" gradientUnits="userSpaceOnUse" x1="89.987" x2="255" xlink:href="#lg3" y1="214.7" y2="214.7"/><linearGradient id="lg4"><stop offset="0" stop-color="#f8f6f7"/><stop offset="1" stop-color="#d1ceeb"/></linearGradient><linearGradient id="SVGID_6_" gradientUnits="userSpaceOnUse" x1="109.987" x2="244.069" xlink:href="#lg4" y1="214.703" y2="214.703"/><linearGradient id="SVGID_7_" gradientUnits="userSpaceOnUse" x1="255" x2="420.013" xlink:href="#lg3" y1="214.7" y2="214.7"/><linearGradient id="SVGID_8_" gradientUnits="userSpaceOnUse" x1="275" x2="409.082" xlink:href="#lg4" y1="214.703" y2="214.703"/><linearGradient id="SVGID_9_" gradientUnits="userSpaceOnUse" x1="14.156" x2="669.07" xlink:href="#lg2" y1="344.408" y2="344.408"/><linearGradient id="SVGID_10_" gradientUnits="userSpaceOnUse" x1="159.648" x2="440.235" xlink:href="#lg2" y1="344.408" y2="344.408"/><g><g><path d="m283.144 481.856v-453.712c0-15.544-12.601-28.144-28.144-28.144-15.543 0-28.144 12.6-28.144 28.144v453.712c0 15.544 12.601 28.144 28.144 28.144 15.543 0 28.144-12.6 28.144-28.144z" fill="url(#SVGID_1_)"/><path d="m258.133 28.144v52.657h25.011v-52.657c0-15.544-12.601-28.144-28.144-28.144-4.493 0-8.737 1.058-12.505 2.931 9.266 4.605 15.638 14.163 15.638 25.213z" fill="url(#SVGID_2_)"/><path d="m283.14 308.18v173.68c0 7.77-3.15 14.8-8.24 19.9-5.1 5.09-12.13 8.24-19.9 8.24-4.49 0-8.73-1.05-12.5-2.93 2.75-1.36 5.24-3.16 7.39-5.31 5.09-5.1 8.24-12.13 8.24-19.9v-62.529c0-13.367-10.443-24.388-23.788-25.15-2.857-.163-5.469-.349-7.482-.559v-86.01c0-7.77 3.15-14.81 8.24-19.9 2.15-2.15 4.65-3.95 7.4-5.31 3.897-1.943 8.296-3 12.954-2.926 15.457.242 27.686 13.244 27.686 28.704z" fill="url(#SVGID_3_)"/></g><path d="m422.865 71.482h-335.731c-19.642 0-35.623 15.98-35.623 35.623v240.17c0 6.904 5.597 12.5 12.5 12.5h381.977c6.903 0 12.5-5.596 12.5-12.5v-240.17c.001-19.643-15.98-35.623-35.623-35.623zm10.624 35.623v207.528l-149.12-218.151h138.496c5.858 0 10.624 4.766 10.624 10.623zm-16.514 227.67h-323.95l156.184-228.486c2.785-4.075 8.796-4.075 11.582 0zm-329.841-238.293h138.496l-149.119 218.151v-207.528c0-5.857 4.766-10.623 10.623-10.623z" fill="url(#SVGID_4_)"/><g><g><path d="m255 349.401c-55.105-17.93-109.908-17.93-165.013 0v-242.095c0-8.399 5.51-15.714 13.385-17.863 50.601-13.808 100.986-12.473 151.628 4.004z" fill="url(#SVGID_5_)"/></g><g><path d="m241.614 89.443c-29.761-8.121-59.447-10.998-89.155-8.643 16.366 1.294 32.739 4.168 49.135 8.643 7.876 2.149 13.385 9.464 13.385 17.863v232.227c13.328 2.239 26.665 5.522 40.02 9.867 0-80.698 0-175.255 0-255.953.001 0-5.509-1.855-13.385-4.004z" fill="url(#SVGID_6_)"/></g><g><path d="m420.013 349.401c-55.105-17.93-109.908-17.93-165.013 0v-255.954c50.642-16.477 101.027-17.812 151.628-4.004 7.876 2.149 13.385 9.464 13.385 17.863z" fill="url(#SVGID_7_)"/></g><g><path d="m406.628 89.443c-29.761-8.121-59.447-10.998-89.155-8.643 16.366 1.294 32.739 4.168 49.135 8.643 7.876 2.149 13.385 9.464 13.385 17.863v232.227c13.328 2.239 26.665 5.522 40.02 9.867 0-80.698 0-161.396 0-242.095 0-8.398-5.509-15.713-13.385-17.862z" fill="url(#SVGID_8_)"/></g></g><g><path d="m460.033 316.264h-410.066c-15.543 0-28.144 12.6-28.144 28.144 0 15.543 12.6 28.144 28.144 28.144h410.067c15.543 0 28.144-12.6 28.144-28.144-.001-15.543-12.601-28.144-28.145-28.144z" fill="url(#SVGID_9_)"/><path d="m460.033 316.264h-40.02c15.543 0 28.144 12.6 28.144 28.144 0 15.543-12.6 28.144-28.144 28.144h40.02c15.543 0 28.144-12.6 28.144-28.144 0-15.543-12.6-28.144-28.144-28.144z" fill="url(#SVGID_10_)"/></g></g></svg>