<svg id="Capa_1" enable-background="new 0 0 510 510" height="512" viewBox="0 0 510 510" width="512" xmlns="http://www.w3.org/2000/svg" xmlns:xlink="http://www.w3.org/1999/xlink"><linearGradient id="lg1"><stop offset="0" stop-color="#537983"/><stop offset=".593" stop-color="#554e56"/><stop offset="1" stop-color="#433f43"/></linearGradient><linearGradient id="SVGID_1_" gradientUnits="userSpaceOnUse" x1="11.234" x2="687.071" xlink:href="#lg1" y1="213.932" y2="213.932"/><linearGradient id="SVGID_2_" gradientUnits="userSpaceOnUse" x1="-72.742" x2="555.041" xlink:href="#lg1" y1="213.93" y2="213.93"/><linearGradient id="lg2"><stop offset="0" stop-color="#f8f6f7"/><stop offset=".1788" stop-color="#f8f6f7"/><stop offset="1" stop-color="#e7e6f5"/></linearGradient><linearGradient id="SVGID_3_" gradientUnits="userSpaceOnUse" x1="39.88" x2="103.198" xlink:href="#lg2" y1="433.065" y2="433.065"/><linearGradient id="SVGID_4_" gradientUnits="userSpaceOnUse" x1="100.18" x2="163.497" xlink:href="#lg2" y1="433.065" y2="433.065"/><linearGradient id="SVGID_5_" gradientUnits="userSpaceOnUse" x1="160.479" x2="223.796" xlink:href="#lg2" y1="433.065" y2="433.065"/><linearGradient id="SVGID_6_" gradientUnits="userSpaceOnUse" x1="220.778" x2="284.095" xlink:href="#lg2" y1="433.065" y2="433.065"/><linearGradient id="SVGID_7_" gradientUnits="userSpaceOnUse" x1="281.077" x2="344.395" xlink:href="#lg2" y1="433.065" y2="433.065"/><linearGradient id="SVGID_8_" gradientUnits="userSpaceOnUse" x1="341.377" x2="404.694" xlink:href="#lg2" y1="433.065" y2="433.065"/><linearGradient id="SVGID_9_" gradientUnits="userSpaceOnUse" x1="401.676" x2="464.993" xlink:href="#lg2" y1="433.065" y2="433.065"/><linearGradient id="lg3"><stop offset="0" stop-color="#f8f6f7"/><stop offset="1" stop-color="#d1ceeb"/></linearGradient><linearGradient id="SVGID_10_" gradientUnits="userSpaceOnUse" x1="394.834" x2="455.07" xlink:href="#lg3" y1="433.067" y2="433.067"/><linearGradient id="SVGID_11_" gradientUnits="userSpaceOnUse" x1="21.383" x2="84.701" xlink:href="#lg3" y1="394.297" y2="394.297"/><linearGradient id="SVGID_12_" gradientUnits="userSpaceOnUse" x1="86.183" x2="149.501" xlink:href="#lg3" y1="385.362" y2="385.362"/><linearGradient id="SVGID_13_" gradientUnits="userSpaceOnUse" x1="147.983" x2="211.301" xlink:href="#lg3" y1="385.362" y2="385.362"/><linearGradient id="SVGID_14_" gradientUnits="userSpaceOnUse" x1="204.284" x2="267.591" xlink:href="#lg3" y1="385.362" y2="385.362"/><linearGradient id="SVGID_15_" gradientUnits="userSpaceOnUse" x1="265.573" x2="328.891" xlink:href="#lg3" y1="385.362" y2="385.362"/><linearGradient id="SVGID_16_" gradientUnits="userSpaceOnUse" x1="329.873" x2="393.191" xlink:href="#lg3" y1="385.362" y2="385.362"/><linearGradient id="SVGID_17_" gradientUnits="userSpaceOnUse" x1="464.248" x2="465.171" y1="494.972" y2="494.972"><stop offset="0" stop-color="#f2fbff"/><stop offset=".593" stop-color="#faf7f7"/><stop offset="1" stop-color="#f3eae6"/></linearGradient><linearGradient id="SVGID_18_" gradientUnits="userSpaceOnUse" x1="83.162" x2="122.348" xlink:href="#lg1" y1="409.932" y2="409.932"/><linearGradient id="SVGID_19_" gradientUnits="userSpaceOnUse" x1="143.462" x2="182.647" xlink:href="#lg1" y1="409.932" y2="409.932"/><linearGradient id="SVGID_20_" gradientUnits="userSpaceOnUse" x1="264.06" x2="303.246" xlink:href="#lg1" y1="409.932" y2="409.932"/><linearGradient id="SVGID_21_" gradientUnits="userSpaceOnUse" x1="324.359" x2="363.545" xlink:href="#lg1" y1="409.932" y2="409.932"/><linearGradient id="SVGID_22_" gradientUnits="userSpaceOnUse" x1="384.659" x2="423.844" xlink:href="#lg1" y1="409.932" y2="409.932"/><linearGradient id="SVGID_23_" gradientUnits="userSpaceOnUse" x1="52" x2="118.031" xlink:href="#lg1" y1="385.362" y2="385.362"/><linearGradient id="SVGID_24_" gradientUnits="userSpaceOnUse" x1="353.497" x2="419.527" xlink:href="#lg1" y1="385.362" y2="385.362"/><linearGradient id="SVGID_25_" gradientUnits="userSpaceOnUse" x1="293.197" x2="359.228" xlink:href="#lg1" y1="385.362" y2="385.362"/><linearGradient id="SVGID_26_" gradientUnits="userSpaceOnUse" x1="232.898" x2="298.928" xlink:href="#lg1" y1="385.362" y2="385.362"/><linearGradient id="SVGID_27_" gradientUnits="userSpaceOnUse" x1="112.3" x2="178.33" xlink:href="#lg1" y1="385.362" y2="385.362"/><linearGradient id="lg4"><stop offset="0" stop-color="#fe646f"/><stop offset=".593" stop-color="#fb2b3a"/><stop offset="1" stop-color="#c41926"/></linearGradient><linearGradient id="SVGID_28_" gradientUnits="userSpaceOnUse" x1="-23.397" x2="659.933" xlink:href="#lg4" y1="419.998" y2="419.998"/><linearGradient id="SVGID_29_" gradientUnits="userSpaceOnUse" x1="-27.922" x2="137.506" xlink:href="#lg4" y1="447.44" y2="447.44"/><linearGradient id="SVGID_30_" gradientTransform="matrix(.986 .298 -.289 .957 361.296 -340.476)" gradientUnits="userSpaceOnUse" x1="-200.859" x2="416.117" xlink:href="#lg4" y1="462.45" y2="462.45"/><linearGradient id="SVGID_31_" gradientUnits="userSpaceOnUse" x1="-51.718" x2="518.006" xlink:href="#lg4" y1="117.263" y2="117.263"/><linearGradient id="lg5"><stop offset="0" stop-color="#fef056"/><stop offset=".5213" stop-color="#fbc56d"/><stop offset="1" stop-color="#c86d36"/></linearGradient><linearGradient id="SVGID_32_" gradientTransform="matrix(.956 .294 -.294 .956 401.296 -331.448)" gradientUnits="userSpaceOnUse" x1="-148.919" x2="-94.79" xlink:href="#lg5" y1="496.093" y2="496.093"/><linearGradient id="SVGID_33_" gradientTransform="matrix(.956 .294 -.294 .956 401.296 -331.448)" gradientUnits="userSpaceOnUse" x1="-10.346" x2="43.783" xlink:href="#lg5" y1="496.093" y2="496.093"/><linearGradient id="SVGID_34_" gradientTransform="matrix(.956 .294 -.294 .956 401.296 -331.448)" gradientUnits="userSpaceOnUse" x1="128.227" x2="182.356" xlink:href="#lg5" y1="496.093" y2="496.093"/><linearGradient id="SVGID_35_" gradientTransform="matrix(.956 .294 -.294 .956 401.296 -331.448)" gradientUnits="userSpaceOnUse" x1="-79.632" x2="-25.504" xlink:href="#lg5" y1="436.034" y2="436.034"/><linearGradient id="SVGID_36_" gradientTransform="matrix(.956 .294 -.294 .956 401.296 -331.448)" gradientUnits="userSpaceOnUse" x1="58.941" x2="113.069" xlink:href="#lg5" y1="436.034" y2="436.034"/><linearGradient id="SVGID_37_" gradientUnits="userSpaceOnUse" x1="250" x2="493.274" xlink:href="#lg4" y1="419.998" y2="419.998"/><g><path d="m468.3 270.73c0-27.983 5.765-54.616 16.164-78.786l-389.018-124.909-26.717 12.752c-11.852 5.657-17.26 19.556-12.349 31.736 3.569 8.851-.168 18.964-8.633 23.369l-3.615 1.881c-9.107 4.738-12.626 15.976-7.849 25.063 4.415 8.397 1.775 18.772-6.116 24.038l-.024.016c-8.542 5.7-10.82 17.26-5.078 25.774l2.606 3.864c5.277 7.826 3.829 18.367-3.363 24.48l-3.863 3.283c-7.827 6.652-8.749 18.402-2.056 26.194l1.501 1.747c5.412 6.301 5.971 15.433 1.366 22.346l-6.949 10.434c-5.898 8.856-5.507 20.483.972 28.923l20.758 27.038c.082.285 453.711.858 453.711.858-13.718-27.061-21.448-57.681-21.448-90.101z" fill="url(#SVGID_1_)"/><path d="m489.75 360.83c-13.72-27.06-21.45-57.68-21.45-90.1 0-12.27 1.11-24.28 3.22-35.93 2.73-14.93 7.1-29.29 12.94-42.86l-389.01-124.91-16.09 7.68-10.63 5.08c-11.85 5.65-17.26 19.55-12.35 31.73.91 2.26 1.35 4.61 1.35 6.92 0 6.73-3.68 13.18-9.98 16.45l-3.51 1.82c5.16 4.15 11.19 7.39 17.91 9.42l309.204 93.425s.005.001.016.005c.188.054.376.109.564.165 13.067 3.86 8.077 23.465-5.266 20.709l-244.751-50.562c-6.764-1.397-13.38 2.953-14.777 9.717-1.397 6.764 2.953 13.38 9.717 14.777l180.427 37.274c12.607 2.604 10.71 21.162-2.163 21.162h-183.965c-6.886 0-12.792 5.387-12.918 12.271-.128 7.014 5.519 12.74 12.503 12.74h295.244c17.376 0 32.66 11.348 37.85 27.931 1.804 5.766 3.761 10.876 5.864 15.028 24.841.038 40.051.058 40.051.058z" fill="url(#SVGID_2_)"/><g><g><path d="m87.1 505.3h-25.526c-9.603 0-17.387-7.784-17.387-17.387v-109.696c0-9.603 7.784-17.387 17.387-17.387h25.526c9.603 0 17.387 7.784 17.387 17.387v109.696c0 9.602-7.785 17.387-17.387 17.387z" fill="url(#SVGID_3_)"/><path d="m147.399 505.3h-25.525c-9.603 0-17.387-7.784-17.387-17.387v-109.696c0-9.603 7.784-17.387 17.387-17.387h25.525c9.603 0 17.387 7.784 17.387 17.387v109.696c0 9.602-7.785 17.387-17.387 17.387z" fill="url(#SVGID_4_)"/><path d="m207.698 505.3h-25.525c-9.603 0-17.387-7.784-17.387-17.387v-109.696c0-9.603 7.784-17.387 17.387-17.387h25.525c9.603 0 17.387 7.784 17.387 17.387v109.696c0 9.602-7.784 17.387-17.387 17.387z" fill="url(#SVGID_5_)"/><path d="m267.997 505.3h-25.525c-9.603 0-17.387-7.784-17.387-17.387v-109.696c0-9.603 7.784-17.387 17.387-17.387h25.525c9.603 0 17.387 7.784 17.387 17.387v109.696c0 9.602-7.784 17.387-17.387 17.387z" fill="url(#SVGID_6_)"/><path d="m328.297 505.3h-25.525c-9.603 0-17.387-7.784-17.387-17.387v-109.696c0-9.603 7.784-17.387 17.387-17.387h25.525c9.603 0 17.387 7.784 17.387 17.387v109.696c0 9.602-7.785 17.387-17.387 17.387z" fill="url(#SVGID_7_)"/><path d="m388.596 505.3h-25.525c-9.603 0-17.387-7.784-17.387-17.387v-109.696c0-9.603 7.784-17.387 17.387-17.387h25.525c9.603 0 17.387 7.784 17.387 17.387v109.696c0 9.602-7.785 17.387-17.387 17.387z" fill="url(#SVGID_8_)"/><path d="m448.895 505.3h-25.525c-9.603 0-17.387-7.784-17.387-17.387v-109.696c0-9.603 7.784-17.387 17.387-17.387h25.525c9.603 0 17.387 7.784 17.387 17.387v109.696c0 9.602-7.784 17.387-17.387 17.387z" fill="url(#SVGID_9_)"/><path d="m466.28 378.212v109.7c0 1.36-.16 2.69-.46 3.96-1.78 7.69-8.68 13.43-16.92 13.43h-25.53c-2.59 0-5.04-.57-7.25-1.59 5.99-2.74 10.14-8.78 10.14-15.8v-78.02h-20.28v-31.68c0-7.01 4.16-13.05 10.14-15.79 2.21-1.02 4.66-1.59 7.25-1.59h25.53c9.6 0 17.38 7.78 17.38 17.38z" fill="url(#SVGID_10_)"/></g><g><path d="m104.49 378.212v31.68h-41.97c-9.96 0-18.08 7.96-18.33 17.87v-49.55c0-9.6 7.78-17.38 17.38-17.38h25.53c9.6 0 17.39 7.78 17.39 17.38z" fill="url(#SVGID_11_)"/><path d="m164.79 378.212v31.68h-60.3v-31.68c0-9.6 7.78-17.38 17.38-17.38h25.53c9.6 0 17.39 7.78 17.39 17.38z" fill="url(#SVGID_12_)"/><path d="m225.09 378.212v31.68h-60.3v-31.68c0-9.6 7.78-17.38 17.38-17.38h25.53c9.6 0 17.39 7.78 17.39 17.38z" fill="url(#SVGID_13_)"/><path d="m285.38 378.212v31.68h-60.29v-31.68c0-9.6 7.78-17.38 17.38-17.38h25.53c9.6 0 17.38 7.78 17.38 17.38z" fill="url(#SVGID_14_)"/><path d="m345.68 378.212v31.68h-60.3v-31.68c0-9.6 7.79-17.38 17.39-17.38h25.53c9.6 0 17.38 7.78 17.38 17.38z" fill="url(#SVGID_15_)"/><path d="m405.98 378.212v31.68h-60.3v-31.68c0-9.6 7.79-17.38 17.39-17.38h25.53c9.6 0 17.38 7.78 17.38 17.38z" fill="url(#SVGID_16_)"/><path d="m464.31 495.962c.33-.64.62-1.3.88-1.98-.25.68-.54 1.34-.88 1.98z" fill="url(#SVGID_17_)"/></g><path d="m111.868 459.035h-14.763c-6.228 0-11.277-5.049-11.277-11.277v-75.651c0-6.228 5.049-11.277 11.277-11.277h14.763c6.228 0 11.277 5.049 11.277 11.277v75.651c.001 6.228-5.048 11.277-11.277 11.277z" fill="url(#SVGID_18_)"/><path d="m172.168 459.035h-14.763c-6.228 0-11.277-5.049-11.277-11.277v-75.651c0-6.228 5.049-11.277 11.277-11.277h14.763c6.228 0 11.277 5.049 11.277 11.277v75.651c0 6.228-5.049 11.277-11.277 11.277z" fill="url(#SVGID_19_)"/><path d="m292.766 459.035h-14.763c-6.228 0-11.277-5.049-11.277-11.277v-75.651c0-6.228 5.049-11.277 11.277-11.277h14.763c6.228 0 11.277 5.049 11.277 11.277v75.651c0 6.228-5.049 11.277-11.277 11.277z" fill="url(#SVGID_20_)"/><path d="m353.065 459.035h-14.763c-6.228 0-11.277-5.049-11.277-11.277v-75.651c0-6.228 5.049-11.277 11.277-11.277h14.763c6.228 0 11.277 5.049 11.277 11.277v75.651c.001 6.228-5.048 11.277-11.277 11.277z" fill="url(#SVGID_21_)"/><path d="m413.365 459.035h-14.763c-6.228 0-11.277-5.049-11.277-11.277v-75.651c0-6.228 5.049-11.277 11.277-11.277h14.763c6.228 0 11.277 5.049 11.277 11.277v75.651c0 6.228-5.049 11.277-11.277 11.277z" fill="url(#SVGID_22_)"/><path d="m111.907 360.832h-14.841c-6.21.021-11.239 5.06-11.239 11.275v37.785h37.318v-37.785c.001-6.215-5.028-11.254-11.238-11.275z" fill="url(#SVGID_23_)"/><path d="m413.403 360.832h-14.841c-6.21.021-11.239 5.06-11.239 11.275v37.785h37.318v-37.785c.001-6.215-5.028-11.254-11.238-11.275z" fill="url(#SVGID_24_)"/><path d="m353.104 360.832h-14.841c-6.21.021-11.239 5.06-11.239 11.275v37.785h37.318v-37.785c.001-6.215-5.028-11.254-11.238-11.275z" fill="url(#SVGID_25_)"/><path d="m292.805 360.832h-14.841c-6.21.021-11.239 5.06-11.239 11.275v37.785h37.318v-37.785c0-6.215-5.028-11.254-11.238-11.275z" fill="url(#SVGID_26_)"/><path d="m172.206 360.832h-14.841c-6.21.021-11.239 5.06-11.239 11.275v37.785h37.318v-37.785c.001-6.215-5.028-11.254-11.238-11.275z" fill="url(#SVGID_27_)"/><path d="m501.141 492.185-.934 4.199c-.888 3.977-3.099 7.381-6.105 9.786-3.006 2.414-6.808 3.829-10.887 3.829-9.61 0-17.398-7.797-17.398-17.408v-89.37c0-10.128-8.214-18.342-18.342-18.342h-384.95c-10.128 0-18.342 8.214-18.342 18.342v89.37c0 4.81-1.942 9.157-5.097 12.311-3.144 3.146-7.501 5.098-12.301 5.098-8.149 0-15.216-5.661-16.992-13.615l-.934-4.199c-11.812-52.899-11.812-91.477 0-144.375l.934-4.199c1.776-7.955 8.843-13.615 16.992-13.615h456.431c8.149 0 15.216 5.661 16.992 13.615l.934 4.199c11.811 52.898 11.811 91.476-.001 144.374z" fill="url(#SVGID_28_)"/><path d="m38.514 384.881c-10.128 0-18.342 8.214-18.342 18.342v89.37c0 4.81-1.943 9.157-5.097 12.311-.098.098-.207.184-.308.28 3.155 3.007 7.413 4.816 12.018 4.816 4.801 0 9.157-1.952 12.302-5.096 3.154-3.154 5.097-7.502 5.097-12.311v-89.37c0-10.128 8.214-18.342 18.342-18.342z" fill="url(#SVGID_29_)"/></g><path d="m434.894 232.234-352.384-106.467c-28.104-8.491-44.003-38.158-35.512-66.262l6.558-21.707c8.492-28.104 38.158-44.003 66.262-35.512l352.384 106.468c28.104 8.491 44.003 38.158 35.512 66.262l-6.558 21.707c-8.492 28.103-38.158 44.003-66.262 35.511z" fill="url(#SVGID_30_)"/><path d="m472.202 108.754-352.384-106.468c-11.982-3.62-24.242-2.794-35.029 1.508l347.393 104.96c28.104 8.491 44.003 38.158 35.512 66.262l-6.558 21.707c-4.871 16.123-16.717 28.216-31.233 34.004l4.991 1.508c28.104 8.491 57.771-7.408 66.262-35.512l6.558-21.707c8.491-28.105-7.408-57.771-35.512-66.262z" fill="url(#SVGID_31_)"/><g><g><circle cx="134.444" cy="105.576" fill="url(#SVGID_32_)" r="20.571"/><circle cx="266.916" cy="146.241" fill="url(#SVGID_33_)" r="20.571"/><circle cx="399.388" cy="186.906" fill="url(#SVGID_34_)" r="20.571"/></g><g><circle cx="218.304" cy="68.494" fill="url(#SVGID_35_)" r="20.571"/><circle cx="350.776" cy="109.16" fill="url(#SVGID_36_)" r="20.571"/></g></g><path d="m501.141 347.81-.934-4.199c-1.776-7.955-8.843-13.615-16.992-13.615h-40.02c8.149 0 15.216 5.661 16.992 13.615l.934 4.199c9.954 44.578 11.518 78.988 4.696 120.366v24.416c0 9.61 7.788 17.408 17.399 17.408 4.079 0 7.881-1.415 10.887-3.829 3.006-2.405 5.217-5.809 6.105-9.786l.934-4.199c11.811-52.899 11.811-91.477-.001-144.376z" fill="url(#SVGID_37_)"/></g></svg>