<svg id="Capa_1" enable-background="new 0 0 510 510" height="512" viewBox="0 0 510 510" width="512" xmlns="http://www.w3.org/2000/svg" xmlns:xlink="http://www.w3.org/1999/xlink"><linearGradient id="lg1"><stop offset="0" stop-color="#fef056"/><stop offset=".5213" stop-color="#fbc56d"/><stop offset="1" stop-color="#c86d36"/></linearGradient><linearGradient id="SVGID_1_" gradientTransform="matrix(.707 .707 -.707 .707 270.47 -99.217)" gradientUnits="userSpaceOnUse" x1="76.129" x2="503.613" xlink:href="#lg1" y1="416.176" y2="416.176"/><linearGradient id="SVGID_2_" gradientTransform="matrix(.707 .707 -.707 .707 270.47 -99.217)" gradientUnits="userSpaceOnUse" x1="128.53" x2="244.829" xlink:href="#lg1" y1="295.855" y2="295.855"/><linearGradient id="SVGID_3_" gradientTransform="matrix(.707 .707 -.707 .707 270.47 -99.217)" gradientUnits="userSpaceOnUse" x1="101.375" x2="392.531" xlink:href="#lg1" y1="416.176" y2="416.176"/><linearGradient id="SVGID_4_" gradientTransform="matrix(.707 .707 -.707 .707 270.47 -99.217)" gradientUnits="userSpaceOnUse" x1="121.126" x2="412.668" y1="416.176" y2="416.176"><stop offset="0" stop-color="#f8f6f7"/><stop offset=".1788" stop-color="#f8f6f7"/><stop offset="1" stop-color="#e7e6f5"/></linearGradient><linearGradient id="lg2"><stop offset="0" stop-color="#f8f6f7"/><stop offset="1" stop-color="#d1ceeb"/></linearGradient><linearGradient id="SVGID_5_" gradientTransform="matrix(.707 .707 -.707 .707 270.47 -99.217)" gradientUnits="userSpaceOnUse" x1="194.53" x2="353.91" xlink:href="#lg2" y1="416.176" y2="416.176"/><linearGradient id="SVGID_6_" gradientTransform="matrix(.707 .707 -.707 .707 270.47 -99.217)" gradientUnits="userSpaceOnUse" x1="137.863" x2="236.581" xlink:href="#lg2" y1="311.567" y2="311.567"/><linearGradient id="lg3"><stop offset="0" stop-color="#537983"/><stop offset=".593" stop-color="#554e56"/><stop offset="1" stop-color="#433f43"/></linearGradient><linearGradient id="SVGID_7_" gradientTransform="matrix(.707 .707 -.707 .707 -1922.65 -125.406)" gradientUnits="userSpaceOnUse" x1="1751.219" x2="1876.856" xlink:href="#lg3" y1="-1068.498" y2="-1068.498"/><linearGradient id="SVGID_8_" gradientTransform="matrix(.707 .707 -.707 .707 -1922.65 -125.406)" gradientUnits="userSpaceOnUse" x1="1749.385" x2="1830.368" xlink:href="#lg3" y1="-1389.991" y2="-1389.991"/><linearGradient id="SVGID_9_" gradientUnits="userSpaceOnUse" x1="284" x2="306.946" xlink:href="#lg1" y1="115.5" y2="138.446"/><linearGradient id="SVGID_10_" gradientTransform="matrix(.707 .707 -.707 .707 -1922.65 -125.406)" gradientUnits="userSpaceOnUse" x1="1749.384" x2="1870.148" xlink:href="#lg3" y1="-1546.789" y2="-1546.789"/><linearGradient id="SVGID_11_" gradientUnits="userSpaceOnUse" x1="394.873" x2="417.819" xlink:href="#lg1" y1="4.627" y2="27.572"/><linearGradient id="SVGID_12_" gradientUnits="userSpaceOnUse" x1="486.373" x2="513.246" xlink:href="#lg1" y1="96.127" y2="122.999"/><linearGradient id="SVGID_13_" gradientTransform="matrix(.707 .707 -.707 .707 -1922.65 -125.406)" gradientUnits="userSpaceOnUse" x1="1749.384" x2="1870.148" xlink:href="#lg3" y1="-1491.957" y2="-1491.957"/><linearGradient id="SVGID_14_" gradientUnits="userSpaceOnUse" x1="356.101" x2="379.046" xlink:href="#lg1" y1="43.399" y2="66.345"/><linearGradient id="SVGID_15_" gradientUnits="userSpaceOnUse" x1="447.601" x2="474.473" xlink:href="#lg1" y1="134.899" y2="161.772"/><linearGradient id="SVGID_16_" gradientTransform="matrix(.707 .707 -.707 .707 -1955.039 -139.606)" gradientUnits="userSpaceOnUse" x1="1780.412" x2="1899.716" xlink:href="#lg3" y1="-1356.552" y2="-1356.552"/><linearGradient id="SVGID_17_" gradientTransform="matrix(.707 .707 -.707 .707 -1923.042 -126.353)" gradientUnits="userSpaceOnUse" x1="1719.415" x2="1838.719" xlink:href="#lg3" y1="-1343.295" y2="-1343.295"/><linearGradient id="lg4"><stop offset="0" stop-color="#fbc56d"/><stop offset=".593" stop-color="#dc8758"/><stop offset="1" stop-color="#9e5528"/></linearGradient><linearGradient id="SVGID_18_" gradientTransform="matrix(.707 .707 -.707 .707 -1955.039 -139.606)" gradientUnits="userSpaceOnUse" x1="1754.804" x2="1923.906" xlink:href="#lg4" y1="-1532.235" y2="-1532.235"/><linearGradient id="SVGID_19_" gradientTransform="matrix(.707 .707 -.707 .707 -1923.042 -126.353)" gradientUnits="userSpaceOnUse" x1="1703.766" x2="1869.793" xlink:href="#lg4" y1="-1518.981" y2="-1518.981"/><linearGradient id="SVGID_20_" gradientTransform="matrix(.707 .707 .707 -.707 -281.849 -1824.99)" gradientUnits="userSpaceOnUse" x1="1768.062" x2="1928.149" xlink:href="#lg4" y1="-1381.48" y2="-1381.48"/><linearGradient id="SVGID_21_" gradientTransform="matrix(.707 .707 .707 -.707 -643.972 -1635.234)" gradientUnits="userSpaceOnUse" x1="1880.891" x2="2008.06" xlink:href="#lg4" y1="-991.242" y2="-991.242"/><g><circle cx="145.563" cy="364.437" fill="url(#SVGID_1_)" r="145.563"/><path d="m201.113 229.86-20.091 20.091c-3.857 3.857-3.857 10.11 0 13.967l20.038 20.038 34.181-34.181c-10.343-8.1-21.812-14.825-34.128-19.915z" fill="url(#SVGID_2_)"/><path d="m291.126 364.437c0-47.412-22.672-89.523-57.761-116.101 18.488 24.408 29.462 54.822 29.462 87.802 0 80.392-65.171 145.563-145.563 145.563-32.98 0-63.394-10.974-87.802-29.462 26.578 35.089 68.689 57.761 116.101 57.761 80.392 0 145.562-65.171 145.563-145.563z" fill="url(#SVGID_3_)"/><circle cx="145.563" cy="364.437" fill="url(#SVGID_4_)" r="114.437"/><path d="m259.995 364.82c-11.467 57.382-56.668 102.582-114.049 114.05 62.897-.207 113.843-51.152 114.049-114.05z" fill="url(#SVGID_5_)"/><path d="m178.375 254.783c-.709 3.187.167 6.655 2.647 9.135l20.038 20.038 11.96-11.96c-10.364-7.576-22.048-13.449-34.645-17.213z" fill="url(#SVGID_6_)"/><path d="m132.444 436.296-57.4-57.4c-3.252-3.252-3.252-8.525 0-11.777l5.915-5.915c3.252-3.252 8.525-3.252 11.777 0l57.4 57.4c3.252 3.252 3.252 8.525 0 11.777l-5.915 5.915c-3.253 3.252-8.525 3.252-11.777 0z" fill="url(#SVGID_7_)"/><g><path d="m349.184 191.291-57.264-57.264 10.607-10.607 57.264 57.264z" fill="url(#SVGID_8_)"/><path d="m305.917 114.473c-4.8-4.8-12.582-4.8-17.382 0l-5.562 5.562c-4.8 4.8-4.8 12.582 0 17.382 4.8 4.8 12.582 4.8 17.382 0l5.562-5.562c4.8-4.8 4.8-12.582 0-17.382z" fill="url(#SVGID_9_)"/></g><g><g><g><path d="m488.186 108.547-85.393-85.394 10.607-10.607 85.393 85.393z" fill="url(#SVGID_10_)"/><path d="m416.791 3.6c-4.8-4.8-12.582-4.8-17.382 0l-5.562 5.562c-4.8 4.8-4.8 12.582 0 17.382 4.8 4.8 12.582 4.8 17.382 0l5.562-5.562c4.799-4.8 4.799-12.582 0-17.382z" fill="url(#SVGID_11_)"/><path d="m489.018 93.209-5.562 5.562c-4.8 4.8-4.8 12.582 0 17.382s12.582 4.8 17.382 0l5.562-5.562c4.8-4.8 4.8-12.582 0-17.382-4.8-4.799-12.582-4.799-17.382 0z" fill="url(#SVGID_12_)"/></g><g><path d="m449.413 147.319-85.392-85.393 10.607-10.608 85.393 85.394z" fill="url(#SVGID_13_)"/><path d="m378.018 42.372c-4.8-4.8-12.582-4.8-17.382 0l-5.562 5.562c-4.8 4.8-4.8 12.582 0 17.382 4.8 4.8 12.582 4.8 17.382 0l5.562-5.562c4.8-4.8 4.8-12.582 0-17.382z" fill="url(#SVGID_14_)"/><path d="m450.246 131.982-5.562 5.562c-4.8 4.8-4.8 12.582 0 17.382s12.582 4.8 17.382 0l5.562-5.562c4.8-4.8 4.8-12.582 0-17.382s-12.582-4.8-17.382 0z" fill="url(#SVGID_15_)"/></g></g><g><path d="m229.6 312.496-32.096-32.096c-3.192-3.192-3.192-8.368 0-11.56l174.357-174.357c3.192-3.192 8.368-3.192 11.56 0l32.097 32.097c3.192 3.192 3.192 8.368 0 11.56l-174.358 174.356c-3.192 3.192-8.367 3.192-11.56 0z" fill="url(#SVGID_16_)"/><path d="m415.519 138.138-174.357 174.357c-3.196 3.196-8.372 3.196-11.561.007l-17.692-17.692c3.196 3.196 8.372 3.196 11.568 0l152.868-152.868-19.947-19.947c-2.143-2.143-3.734-4.624-4.773-7.276l20.237-20.237c3.189-3.189 8.365-3.189 11.554 0l32.103 32.103c3.189 3.188 3.189 8.364 0 11.553z" fill="url(#SVGID_17_)"/><path d="m405.692 135.912-31.604-31.604c-8.36-8.36-8.36-21.915 0-30.275l51.42-51.42c8.36-8.36 21.915-8.36 30.275 0l31.604 31.604c8.36 8.36 8.36 21.915 0 30.275l-51.42 51.42c-8.36 8.36-21.915 8.36-30.275 0z" fill="url(#SVGID_18_)"/><path d="m487.387 54.218-17.685-17.685c8.36 8.36 8.36 21.915 0 30.275l-51.42 51.42c-8.36 8.36-21.915 8.36-30.275 0l17.685 17.685c8.36 8.36 21.915 8.36 30.275 0l51.42-51.42c8.36-8.361 8.36-21.915 0-30.275z" fill="url(#SVGID_19_)"/></g></g><g><path d="m109.203 435.284-34.487-34.487c-7.62-7.62-20.312-6.336-26.252 2.655l-44.236 66.96c-6.683 10.117-5.326 23.539 3.248 32.112 8.574 8.574 21.996 9.931 32.112 3.248l66.96-44.236c8.991-5.939 10.274-18.632 2.655-26.252z" fill="url(#SVGID_20_)"/><path d="m106.548 461.537-66.96 44.236c-10.116 6.683-23.539 5.326-32.112-3.248-3.189-3.189-5.375-7.049-6.525-11.16 6.942 1.942 14.598.92 20.952-3.278l66.96-44.236c8.991-5.94 10.275-18.632 2.655-26.252l-16.802-16.802s.001.001.001.001l34.487 34.487c7.619 7.619 6.335 20.312-2.656 26.252z" fill="url(#SVGID_21_)"/></g></g></svg>