<svg id="Capa_1" enable-background="new 0 0 510 510" height="512" viewBox="0 0 510 510" width="512" xmlns="http://www.w3.org/2000/svg" xmlns:xlink="http://www.w3.org/1999/xlink"><linearGradient id="lg1"><stop offset="0" stop-color="#60b7ff"/><stop offset=".5857" stop-color="#0182fc"/><stop offset="1" stop-color="#2740b0"/></linearGradient><linearGradient id="SVGID_1_" gradientUnits="userSpaceOnUse" x1="44.628" x2="652.068" xlink:href="#lg1" y1="255.004" y2="255.004"/><linearGradient id="SVGID_2_" gradientUnits="userSpaceOnUse" x1="-5" x2="431.716" xlink:href="#lg1" y1="255.004" y2="255.004"/><linearGradient id="lg2"><stop offset="0" stop-color="#537983"/><stop offset=".593" stop-color="#554e56"/><stop offset="1" stop-color="#433f43"/></linearGradient><linearGradient id="SVGID_3_" gradientUnits="userSpaceOnUse" x1="0" x2="242.857" xlink:href="#lg2" y1="338.257" y2="338.257"/><linearGradient id="SVGID_4_" gradientUnits="userSpaceOnUse" x1="-105" x2="194.107" xlink:href="#lg2" y1="338.259" y2="338.259"/><linearGradient id="SVGID_5_" gradientUnits="userSpaceOnUse" x1="340.667" x2="654.375" xlink:href="#lg2" y1="338.257" y2="338.257"/><linearGradient id="SVGID_6_" gradientUnits="userSpaceOnUse" x1="330" x2="543.588" xlink:href="#lg2" y1="349.999" y2="349.999"/><linearGradient id="SVGID_7_" gradientUnits="userSpaceOnUse" x1="183.59" x2="404.334" xlink:href="#lg2" y1="62.833" y2="62.833"/><linearGradient id="SVGID_8_" gradientUnits="userSpaceOnUse" x1="181.8" x2="340.931" xlink:href="#lg2" y1="62.833" y2="62.833"/><linearGradient id="SVGID_9_" gradientUnits="userSpaceOnUse" x1="26" x2="174.071" xlink:href="#lg2" y1="481.856" y2="481.856"/><linearGradient id="SVGID_10_" gradientUnits="userSpaceOnUse" x1="425.573" x2="573.644" xlink:href="#lg2" y1="481.856" y2="481.856"/><linearGradient id="SVGID_11_" gradientUnits="userSpaceOnUse" x1="399.5" x2="541.508" xlink:href="#lg2" y1="481.856" y2="481.856"/><linearGradient id="SVGID_12_" gradientUnits="userSpaceOnUse" x1="-.073" x2="141.935" xlink:href="#lg2" y1="481.856" y2="481.856"/><linearGradient id="SVGID_13_" gradientUnits="userSpaceOnUse" x1="294" x2="560.266" xlink:href="#lg2" y1="315.254" y2="315.254"/><linearGradient id="SVGID_14_" gradientUnits="userSpaceOnUse" x1="-2.333" x2="120.136" xlink:href="#lg2" y1="324.184" y2="324.184"/><g><path d="m462.826 467.063-187.108-441.679c-3.525-8.32-11.683-13.724-20.718-13.724s-17.193 5.404-20.718 13.724l-187.108 441.679c-4.847 11.441.499 24.646 11.941 29.494 11.443 4.851 24.647-.5 29.494-11.941l49.172-116.074c11.445-10.852 24.359-20.144 38.296-27.443 24.158-12.652 51.449-19.34 78.922-19.34s54.764 6.688 78.922 19.34c13.937 7.299 26.851 16.591 38.296 27.443l49.172 116.074c3.634 8.578 11.963 13.729 20.728 13.729 2.926 0 5.902-.575 8.766-1.788 11.444-4.847 16.79-18.052 11.943-29.494zm-117.305-148.11c-27.723-14.52-59.024-22.193-90.521-22.193s-62.798 7.674-90.521 22.193c-2.513 1.316-4.987 2.707-7.441 4.133l97.962-231.244 97.962 231.244c-2.454-1.426-4.928-2.817-7.441-4.133z" fill="url(#SVGID_1_)"/><path d="m462.826 467.063-143.862-339.595-.005.002c.001-.001.003-.002.004-.004l-43.245-102.082c-3.525-8.32-11.683-13.724-20.718-13.724s-17.193 5.404-20.718 13.724l-43.245 102.083c1.147 1.135 2.317 2.234 3.508 3.295 8.273 7.37 10.792 19.271 6.47 29.474l-68.988 162.851-19.256 45.456-49.172 116.073c-1.778 4.198-4.684 7.571-8.212 9.926 1.158.772 2.4 1.452 3.729 2.015 11.443 4.851 24.647-.5 29.494-11.941l49.172-116.074 19.256-45.456 97.962-231.244 24.778 58.489.002.001c12.052-3.543 24.842 2.32 29.733 13.866l128.302 302.865c4.284 10.112.602 21.596-8.209 27.477 3.681 2.456 8.038 3.806 12.512 3.806 2.926 0 5.902-.575 8.766-1.788 11.443-4.848 16.789-18.053 11.942-29.495z" fill="url(#SVGID_2_)"/><path d="m66.451 433.065c-5.299 0-10.697-.618-16.108-1.894-30.112-7.1-50.343-32.152-50.343-62.338v-72.4c0-16.293 13.556-29.5 30.278-29.5s30.278 13.207 30.278 29.5v72.4c0 1.412 0 4.041 4.03 4.991 4.036.951 5.264-1.387 5.927-2.643l58.943-111.714c7.645-14.49 25.9-20.198 40.771-12.749 14.872 7.449 20.73 25.234 13.085 39.725l-58.943 111.714c-11.621 22.022-33.728 34.906-57.918 34.908z" fill="url(#SVGID_3_)"/><path d="m170.226 246.719c-8.55-4.283-18.214-4.209-26.342-.625.446.198.89.405 1.331.625 14.872 7.449 20.73 25.234 13.085 39.725l-58.943 111.713c-9.594 18.183-26.341 30.128-45.505 33.744 4.233.778 8.446 1.164 12.599 1.164 24.19-.001 46.297-12.886 57.917-34.908l58.943-111.714c7.645-14.49 1.787-32.275-13.085-39.724z" fill="url(#SVGID_4_)"/><path d="m443.549 433.065c5.299 0 10.697-.618 16.108-1.894 30.112-7.1 50.343-32.152 50.343-62.338v-72.4c0-16.293-13.556-29.5-30.278-29.5s-30.278 13.207-30.278 29.5v72.4c0 1.412 0 4.041-4.03 4.991-4.036.951-5.264-1.387-5.927-2.643l-58.943-111.714c-7.645-14.49-25.9-20.198-40.771-12.749-14.872 7.449-20.73 25.234-13.085 39.725l58.943 111.714c11.621 22.022 33.728 34.906 57.918 34.908z" fill="url(#SVGID_5_)"/><path d="m479.722 266.932c-4.461 0-8.692.948-12.505 2.635 10.48 4.639 17.772 14.919 17.772 26.865v72.4c0 30.185-20.231 55.238-50.343 62.338-1.171.276-2.341.515-3.509.73 4.045.763 8.196 1.164 12.412 1.164 5.299 0 10.697-.619 16.108-1.894 30.112-7.1 50.343-32.152 50.343-62.338v-72.4c0-16.292-13.556-29.5-30.278-29.5z" fill="url(#SVGID_6_)"/><g><circle cx="255" cy="62.833" fill="url(#SVGID_7_)" r="62.833"/><path d="m299.429 18.403c-16.436-16.436-39.709-21.845-60.662-16.262 10.328 2.752 20.095 8.161 28.196 16.262 24.538 24.538 24.538 64.321 0 88.859-8.101 8.101-17.868 13.51-28.196 16.262 20.953 5.583 44.226.174 60.663-16.262 24.537-24.538 24.537-64.321-.001-88.859z" fill="url(#SVGID_8_)"/></g><path d="m28.144 510h54.139c15.543 0 28.144-12.6 28.144-28.144 0-15.543-12.6-28.144-28.144-28.144h-54.139c-15.544 0-28.144 12.601-28.144 28.144 0 15.544 12.6 28.144 28.144 28.144z" fill="url(#SVGID_9_)"/><path d="m427.717 510h54.139c15.544 0 28.144-12.6 28.144-28.144 0-15.543-12.6-28.144-28.144-28.144h-54.139c-15.543 0-28.144 12.6-28.144 28.144 0 15.544 12.6 28.144 28.144 28.144z" fill="url(#SVGID_10_)"/><path d="m481.856 453.712h-25.011c15.543 0 28.144 12.6 28.144 28.144 0 15.543-12.6 28.144-28.144 28.144h25.011c15.544 0 28.144-12.601 28.144-28.144 0-15.543-12.6-28.144-28.144-28.144z" fill="url(#SVGID_11_)"/><path d="m82.283 453.712h-25.011c15.543 0 28.144 12.6 28.144 28.144 0 15.543-12.6 28.144-28.144 28.144h25.011c15.543 0 28.144-12.601 28.144-28.144 0-15.543-12.6-28.144-28.144-28.144z" fill="url(#SVGID_12_)"/><path d="m449 371.37c0 16.268-21.731 21.752-29.444 7.429-27.399-50.879-64.026-119.329-64.026-119.329-3.25-6.16-8.42-10.73-14.43-13.38 14.62-6.47 32.03-.68 39.45 13.38l58.94 111.71c.66 1.26 1.89 3.6 5.92 2.64 2.11-.5 3.11-1.45 3.59-2.45z" fill="url(#SVGID_13_)"/><path d="m70.28 371.6c-9.001 16.991-34.74 10.594-34.74-8.633v-66.537c0-11.94-7.28-22.23-17.76-26.86 3.81-1.7 8.04-2.64 12.5-2.64 16.72 0 30.28 13.21 30.28 29.5v72.4c0 1.42 0 4.04 4.03 4.99 3.61.86 4.97-.93 5.69-2.22z" fill="url(#SVGID_14_)"/></g></svg>