<svg id="Capa_1" enable-background="new 0 0 510 510" height="512" viewBox="0 0 510 510" width="512" xmlns="http://www.w3.org/2000/svg" xmlns:xlink="http://www.w3.org/1999/xlink"><linearGradient id="lg1"><stop offset="0" stop-color="#537983"/><stop offset=".593" stop-color="#554e56"/><stop offset="1" stop-color="#433f43"/></linearGradient><linearGradient id="SVGID_1_" gradientTransform="matrix(.707 -.707 .707 .707 -105.176 254.814)" gradientUnits="userSpaceOnUse" x1="-165.989" x2="540.918" xlink:href="#lg1" y1="268.716" y2="268.716"/><linearGradient id="SVGID_2_" gradientTransform="matrix(.707 -.707 .707 .707 -106.869 258.005)" gradientUnits="userSpaceOnUse" x1="203" x2="432.264" xlink:href="#lg1" y1="267.657" y2="267.657"/><linearGradient id="SVGID_3_" gradientTransform="matrix(.707 -.707 .707 .707 -105.176 254.814)" gradientUnits="userSpaceOnUse" x1="-32.26" x2="674.646" xlink:href="#lg1" y1="246.774" y2="246.774"/><linearGradient id="SVGID_4_" gradientTransform="matrix(.707 -.707 .707 .707 -106.869 258.005)" gradientUnits="userSpaceOnUse" x1="-133.333" x2="493.573" xlink:href="#lg1" y1="217.353" y2="217.353"/><linearGradient id="SVGID_5_" gradientTransform="matrix(.707 -.707 .707 .707 -106.869 258.005)" gradientUnits="userSpaceOnUse" x1="215.333" x2="527.351" xlink:href="#lg1" y1="245.715" y2="245.715"/><linearGradient id="lg2"><stop offset="0" stop-color="#fef056"/><stop offset=".5213" stop-color="#fbc56d"/><stop offset="1" stop-color="#c86d36"/></linearGradient><linearGradient id="SVGID_6_" gradientTransform="matrix(.707 -.707 .707 .707 -105.176 254.814)" gradientUnits="userSpaceOnUse" x1="53.473" x2="549.073" xlink:href="#lg2" y1="199.108" y2="199.108"/><linearGradient id="SVGID_7_" gradientTransform="matrix(.707 -.707 .707 .707 -106.869 258.005)" gradientUnits="userSpaceOnUse" x1="123" x2="472.967" xlink:href="#lg2" y1="198.049" y2="198.049"/><linearGradient id="SVGID_8_" gradientTransform="matrix(.707 -.707 .707 .707 -106.869 258.005)" gradientUnits="userSpaceOnUse" x1="4.098" x2="53.464" xlink:href="#lg2" y1="224.933" y2="224.933"/><linearGradient id="SVGID_9_" gradientTransform="matrix(.707 -.707 .707 .707 -106.869 258.005)" gradientUnits="userSpaceOnUse" x1="474.692" x2="524.058" xlink:href="#lg2" y1="224.933" y2="224.933"/><linearGradient id="SVGID_10_" gradientTransform="matrix(.707 -.707 .707 .707 -106.869 258.005)" gradientUnits="userSpaceOnUse" x1="442" x2="529.425" xlink:href="#lg2" y1="225.11" y2="225.11"/><g><path d="m338.479 15.247-323.232 323.232c-.5.5-.99 1.008-1.47 1.522-17.163 18.391-18.295 45.409-3.368 61.875l9.18 10.127c31.934 35.228 71.502 62.444 115.526 82.11.11.049.221.099.33.15l26.739 12.403c14.963 6.941 33.931 2.813 46.965-10.221l287.296-287.296c13.034-13.034 17.162-32.002 10.221-46.965l-12.403-26.739c-.051-.11-.101-.22-.15-.33-19.666-44.024-46.883-83.592-82.11-115.526l-10.127-9.18c-16.467-14.927-43.485-13.795-61.876 3.368-.514.48-1.021.97-1.521 1.47z" fill="url(#SVGID_1_)"/><path d="m412.003 19.589-10.127-9.18c-16.467-14.927-43.485-13.795-61.876 3.368-.514.48-1.022.97-1.522 1.47l-28.298 28.299c.5-.5 1.008-.99 1.522-1.47 18.391-17.163 45.409-18.295 61.875-3.368l10.127 9.18c35.228 31.934 62.444 71.502 82.11 115.526.049.11.099.221.151.33l12.403 26.739c6.941 14.963 2.813 33.931-10.221 46.965l28.298-28.298c13.034-13.034 17.162-32.002 10.221-46.965l-12.403-26.739c-.051-.11-.101-.22-.151-.33-19.665-44.025-46.882-83.593-82.109-115.527z" fill="url(#SVGID_2_)"/><path d="m401.876 10.409c-16.466-14.927-43.484-13.794-61.875 3.368-.514.48-1.022.97-1.522 1.47l-323.232 323.232c-.5.5-.99 1.008-1.47 1.522-17.162 18.391-18.295 45.409-3.368 61.875l9.179 10.125c31.935 35.228 71.503 62.446 115.528 82.112.11.049.221.099.33.15 5.629 2.611 12.765 1.058 17.669-3.845l337.304-337.304c4.903-4.903 6.457-12.039 3.845-17.669-.051-.11-.101-.22-.15-.33-19.666-44.025-46.884-83.593-82.112-115.528z" fill="url(#SVGID_3_)"/><path d="m385.65 177.662-243.36 243.36c-8.87 8.87-23.252 8.87-32.123 0l-72.671-72.671c-8.87-8.87-8.87-23.252 0-32.123l243.36-243.36c8.87-8.87 23.252-8.87 32.123 0l72.671 72.671c8.871 8.871 8.871 23.252 0 32.123z" fill="url(#SVGID_4_)"/><path d="m412.001 19.587-10.125-9.179c-16.466-14.927-43.484-13.794-61.875 3.368-.514.48-1.022.97-1.522 1.47l-28.299 28.299c.506-.503 46.932-19.764 63.397-4.838l10.127 9.18c35.228 31.934 62.444 71.502 82.11 115.526.049.11.099.221.151.33l4.38 9.443 20.073-20.073c4.903-4.903 6.456-12.039 3.845-17.669-.051-.11-.101-.22-.15-.331-19.666-44.023-46.884-83.591-82.112-115.526z" fill="url(#SVGID_5_)"/><path d="m389.686 146.326-243.359 243.36c-8.87 8.87-23.252 8.87-32.123 0l-72.671-72.671c-8.87-8.87-8.87-23.252 0-32.123l243.359-243.36c8.87-8.87 23.252-8.87 32.123 0l72.671 72.671c8.87 8.871 8.87 23.253 0 32.123z" fill="url(#SVGID_6_)"/><path d="m284.893 41.533-28.298 28.298c8.87-8.87 23.252-8.87 32.123 0l72.671 72.671c8.87 8.87 8.87 23.252 0 32.123l28.298-28.298c8.87-8.87 8.87-23.252 0-32.123l-72.671-72.671c-8.871-8.87-23.253-8.87-32.123 0z" fill="url(#SVGID_7_)"/><g fill="#433f43"><path d="m224.92 435.451-10.111 10.111c-3.452 3.452-3.452 9.048 0 12.5l16.361 16.361 22.611-22.611-16.361-16.361c-3.452-3.452-9.048-3.452-12.5 0z"/><path d="m261.694 398.677-10.111 10.111c-3.452 3.452-3.452 9.048 0 12.5l16.361 16.361 22.611-22.611-16.361-16.361c-3.452-3.452-9.049-3.452-12.5 0z"/><path d="m298.467 361.903-10.111 10.111c-3.452 3.452-3.452 9.048 0 12.5l16.361 16.361 22.611-22.611-16.361-16.361c-3.451-3.451-9.048-3.451-12.5 0z"/><path d="m335.241 325.13-10.111 10.111c-3.452 3.452-3.452 9.048 0 12.5l16.361 16.361 22.611-22.611-16.361-16.361c-3.452-3.452-9.048-3.452-12.5 0z"/><path d="m372.015 288.356-10.111 10.111c-3.452 3.452-3.452 9.048 0 12.5l16.361 16.361 22.611-22.611-16.361-16.361c-3.452-3.452-9.049-3.452-12.5 0z"/><path d="m408.788 251.582-10.111 10.111c-3.452 3.452-3.452 9.048 0 12.5l16.361 16.361 22.611-22.611-16.361-16.361c-3.451-3.451-9.048-3.451-12.5 0z"/><path d="m445.562 214.809-10.111 10.111c-3.452 3.452-3.452 9.048 0 12.5l16.361 16.361 22.611-22.611-16.361-16.361c-3.452-3.452-9.048-3.452-12.5 0z"/></g><circle cx="66.114" cy="403.124" fill="url(#SVGID_8_)" r="17.5"/><circle cx="398.875" cy="70.364" fill="url(#SVGID_9_)" r="17.5"/><path d="m391.016 54.743c8.063 7.801 15.681 16.014 22.858 24.601 1.577-2.628 2.5-5.693 2.5-8.981 0-9.665-7.835-17.5-17.5-17.5-2.829.001-5.493.688-7.858 1.88z" fill="url(#SVGID_10_)"/></g></svg>