<svg id="Capa_1" enable-background="new 0 0 510 510" height="512" viewBox="0 0 510 510" width="512" xmlns="http://www.w3.org/2000/svg" xmlns:xlink="http://www.w3.org/1999/xlink"><linearGradient id="lg1"><stop offset="0" stop-color="#fbc56d"/><stop offset=".593" stop-color="#dc8758"/><stop offset="1" stop-color="#9e5528"/></linearGradient><linearGradient id="SVGID_1_" gradientTransform="matrix(.707 .707 -.707 .707 -2249.759 620.548)" gradientUnits="userSpaceOnUse" x1="1380.894" x2="1644.407" xlink:href="#lg1" y1="-1907.74" y2="-1907.74"/><linearGradient id="SVGID_2_" gradientTransform="matrix(.707 .707 -.707 .707 -2250.151 619.601)" gradientUnits="userSpaceOnUse" x1="1309.931" x2="1621.272" xlink:href="#lg1" y1="-1907.348" y2="-1907.348"/><linearGradient id="lg2"><stop offset="0" stop-color="#537983"/><stop offset=".593" stop-color="#554e56"/><stop offset="1" stop-color="#433f43"/></linearGradient><linearGradient id="SVGID_3_" gradientTransform="matrix(.707 .707 -.707 .707 -2234.289 626.955)" gradientUnits="userSpaceOnUse" x1="1437.746" x2="1558.51" xlink:href="#lg2" y1="-2299.151" y2="-2299.151"/><linearGradient id="lg3"><stop offset="0" stop-color="#fef056"/><stop offset=".5213" stop-color="#fbc56d"/><stop offset="1" stop-color="#c86d36"/></linearGradient><linearGradient id="SVGID_4_" gradientUnits="userSpaceOnUse" x1="394.873" x2="417.819" xlink:href="#lg3" y1="4.627" y2="27.572"/><linearGradient id="SVGID_5_" gradientUnits="userSpaceOnUse" x1="486.373" x2="513.246" xlink:href="#lg3" y1="96.127" y2="122.999"/><linearGradient id="SVGID_6_" gradientTransform="matrix(.707 .707 -.707 .707 -2234.289 626.955)" gradientUnits="userSpaceOnUse" x1="1437.746" x2="1558.51" xlink:href="#lg2" y1="-2244.319" y2="-2244.319"/><linearGradient id="SVGID_7_" gradientUnits="userSpaceOnUse" x1="356.101" x2="379.046" xlink:href="#lg3" y1="43.399" y2="66.345"/><linearGradient id="SVGID_8_" gradientUnits="userSpaceOnUse" x1="447.601" x2="474.473" xlink:href="#lg3" y1="134.899" y2="161.772"/><linearGradient id="SVGID_9_" gradientTransform="matrix(.707 .707 -.707 .707 -2282.148 606.348)" gradientUnits="userSpaceOnUse" x1="1484.244" x2="1603.547" xlink:href="#lg2" y1="-2133.095" y2="-2133.095"/><linearGradient id="SVGID_10_" gradientTransform="matrix(.707 .707 -.707 .707 -2250.151 619.601)" gradientUnits="userSpaceOnUse" x1="1423.247" x2="1542.551" xlink:href="#lg2" y1="-2119.838" y2="-2119.838"/><linearGradient id="SVGID_11_" gradientTransform="matrix(.707 .707 -.707 .707 -2282.148 606.348)" gradientUnits="userSpaceOnUse" x1="1458.636" x2="1627.737" xlink:href="#lg1" y1="-2292.981" y2="-2292.981"/><linearGradient id="SVGID_12_" gradientTransform="matrix(.707 .707 -.707 .707 -2250.151 619.601)" gradientUnits="userSpaceOnUse" x1="1407.597" x2="1573.624" xlink:href="#lg1" y1="-2279.727" y2="-2279.727"/><linearGradient id="SVGID_13_" gradientTransform="matrix(.707 .707 -.707 .707 -2249.759 620.548)" gradientUnits="userSpaceOnUse" x1="1474.1" x2="1553.097" xlink:href="#lg2" y1="-1942.686" y2="-1942.686"/><linearGradient id="SVGID_14_" gradientTransform="matrix(.707 .707 -.707 .707 -2250.151 619.601)" gradientUnits="userSpaceOnUse" x1="1411.597" x2="1537.601" xlink:href="#lg2" y1="-1942.294" y2="-1942.294"/><linearGradient id="SVGID_15_" gradientTransform="matrix(.707 .707 -.707 .707 -2249.759 620.548)" gradientUnits="userSpaceOnUse" x1="1455.051" x2="1580.688" xlink:href="#lg3" y1="-1827.267" y2="-1827.267"/><g><path d="m233.043 430.325c.847-20.266 14.891-37.589 34.374-43.23 13.425-3.886 25.743-10.877 35.924-21.058 37.264-37.264 31.795-103.151-12.216-147.162s-109.898-49.48-147.162-12.216c-10.181 10.181-17.172 22.499-21.058 35.924-5.64 19.483-22.964 33.527-43.23 34.374-21.694.907-41.493 8.528-56.273 23.308-38.686 38.687-28.336 111.761 23.118 163.215s124.528 61.804 163.214 23.117c14.78-14.779 22.402-34.578 23.309-56.272z" fill="url(#SVGID_1_)"/><path d="m233.043 430.324c.847-20.266 14.891-37.589 34.374-43.229 13.425-3.886 25.743-10.877 35.924-21.058 37.264-37.264 31.795-103.151-12.216-147.162-4.829-4.829-9.921-9.193-15.21-13.088v-.001c-10.581-7.792-21.949-13.705-33.57-17.696l-39.058 39.058c-3.192 3.192-3.192 8.368 0 11.56l32.097 32.097c3.192 3.192 8.368 3.192 11.56 0l42.328-42.328c17.516 38.454 13.341 81.691-14.229 109.261-10.181 10.181-22.499 17.172-35.924 21.058-19.483 5.64-33.527 22.964-34.374 43.229-.907 21.694-8.528 41.493-23.308 56.273-35.07 35.07-98.398 29.843-148.262-9.771 4.085 5.142 8.536 10.142 13.346 14.952 51.454 51.454 124.528 61.804 163.214 23.117 14.779-14.778 22.401-34.577 23.308-56.272z" fill="url(#SVGID_2_)"/><g><g><path d="m488.186 108.547-85.393-85.394 10.607-10.607 85.393 85.393z" fill="url(#SVGID_3_)"/><path d="m416.791 3.6c-4.8-4.8-12.582-4.8-17.382 0l-5.562 5.562c-4.8 4.8-4.8 12.582 0 17.382 4.8 4.8 12.582 4.8 17.382 0l5.562-5.562c4.799-4.8 4.799-12.582 0-17.382z" fill="url(#SVGID_4_)"/><path d="m489.018 93.209-5.562 5.562c-4.8 4.8-4.8 12.582 0 17.382s12.582 4.8 17.382 0l5.562-5.562c4.8-4.8 4.8-12.582 0-17.382-4.8-4.799-12.582-4.799-17.382 0z" fill="url(#SVGID_5_)"/></g><g><path d="m449.413 147.319-85.392-85.393 10.607-10.608 85.393 85.394z" fill="url(#SVGID_6_)"/><path d="m378.018 42.372c-4.8-4.8-12.582-4.8-17.382 0l-5.562 5.562c-4.8 4.8-4.8 12.582 0 17.382 4.8 4.8 12.582 4.8 17.382 0l5.562-5.562c4.8-4.8 4.8-12.582 0-17.382z" fill="url(#SVGID_7_)"/><path d="m450.246 131.982-5.562 5.562c-4.8 4.8-4.8 12.582 0 17.382s12.582 4.8 17.382 0l5.562-5.562c4.8-4.8 4.8-12.582 0-17.382s-12.582-4.8-17.382 0z" fill="url(#SVGID_8_)"/></g></g><g><path d="m253.338 288.758-32.097-32.097c-3.192-3.192-3.192-8.368 0-11.56l152.018-152.016c3.192-3.192 8.368-3.192 11.56 0l32.097 32.097c3.192 3.192 3.192 8.368 0 11.56l-152.018 152.016c-3.192 3.193-8.368 3.193-11.56 0z" fill="url(#SVGID_9_)"/><path d="m416.917 136.74-152.017 152.017c-3.196 3.196-8.372 3.196-11.561.007l-17.692-17.692c3.196 3.196 8.372 3.196 11.568 0l130.528-130.528-19.947-19.947c-2.143-2.143-3.734-4.624-4.773-7.276l20.237-20.237c3.189-3.189 8.365-3.189 11.554 0l32.103 32.103c3.189 3.188 3.189 8.364 0 11.553z" fill="url(#SVGID_10_)"/><path d="m407.09 134.515-31.604-31.604c-8.36-8.36-8.36-21.915 0-30.275l51.42-51.42c8.36-8.36 21.915-8.36 30.275 0l31.604 31.604c8.36 8.36 8.36 21.915 0 30.275l-51.42 51.42c-8.361 8.36-21.915 8.36-30.275 0z" fill="url(#SVGID_11_)"/><path d="m488.784 52.82-17.685-17.685c8.36 8.36 8.36 21.915 0 30.275l-51.42 51.42c-8.36 8.36-21.915 8.36-30.275 0l17.685 17.685c8.36 8.36 21.915 8.36 30.275 0l51.42-51.42c8.36-8.36 8.36-21.915 0-30.275z" fill="url(#SVGID_12_)"/></g><circle cx="194.203" cy="317.137" fill="url(#SVGID_13_)" r="39.499"/><path d="m222.133 289.207c-3.092-3.092-6.573-5.553-10.28-7.405 7.389 14.79 4.928 33.246-7.405 45.579s-30.79 14.794-45.579 7.405c1.852 3.708 4.313 7.188 7.405 10.28 15.425 15.425 40.434 15.425 55.859 0s15.425-40.434 0-55.859z" fill="url(#SVGID_14_)"/><path d="m132.444 436.296-57.4-57.4c-3.252-3.252-3.252-8.525 0-11.777l5.915-5.915c3.252-3.252 8.525-3.252 11.777 0l57.4 57.4c3.252 3.252 3.252 8.525 0 11.777l-5.915 5.915c-3.253 3.252-8.525 3.252-11.777 0z" fill="url(#SVGID_15_)"/></g></svg>