<svg id="Capa_1" enable-background="new 0 0 510 510" height="512" viewBox="0 0 510 510" width="512" xmlns="http://www.w3.org/2000/svg" xmlns:xlink="http://www.w3.org/1999/xlink"><linearGradient id="lg1"><stop offset="0" stop-color="#537983"/><stop offset=".593" stop-color="#554e56"/><stop offset="1" stop-color="#433f43"/></linearGradient><linearGradient id="SVGID_1_" gradientUnits="userSpaceOnUse" x1="0" x2="510" xlink:href="#lg1" y1="78.748" y2="78.748"/><linearGradient id="SVGID_2_" gradientTransform="matrix(1 0 0 -1 0 339.862)" gradientUnits="userSpaceOnUse" x1="0" x2="510" xlink:href="#lg1" y1="85.876" y2="85.876"/><linearGradient id="lg2"><stop offset="0" stop-color="#fef056"/><stop offset=".5213" stop-color="#fbc56d"/><stop offset="1" stop-color="#c86d36"/></linearGradient><linearGradient id="SVGID_3_" gradientUnits="userSpaceOnUse" x1="14.691" x2="160.193" xlink:href="#lg2" y1="166.367" y2="166.367"/><linearGradient id="SVGID_4_" gradientUnits="userSpaceOnUse" x1="-44" x2="165.239" xlink:href="#lg2" y1="166.367" y2="166.367"/><linearGradient id="SVGID_5_" gradientUnits="userSpaceOnUse" x1="141.724" x2="286.242" xlink:href="#lg2" y1="166.367" y2="166.367"/><linearGradient id="SVGID_6_" gradientUnits="userSpaceOnUse" x1="108" x2="271.884" xlink:href="#lg2" y1="166.367" y2="166.367"/><linearGradient id="SVGID_7_" gradientUnits="userSpaceOnUse" x1="268.758" x2="410.618" xlink:href="#lg2" y1="166.367" y2="166.367"/><linearGradient id="SVGID_8_" gradientUnits="userSpaceOnUse" x1="244" x2="396.329" xlink:href="#lg2" y1="166.367" y2="166.367"/><linearGradient id="SVGID_9_" gradientUnits="userSpaceOnUse" x1="395.791" x2="524.613" xlink:href="#lg2" y1="166.367" y2="166.367"/><linearGradient id="SVGID_10_" gradientUnits="userSpaceOnUse" x1="363" x2="521.316" xlink:href="#lg2" y1="166.367" y2="166.367"/><linearGradient id="lg3"><stop offset="0" stop-color="#f8f6f7"/><stop offset=".1788" stop-color="#f8f6f7"/><stop offset="1" stop-color="#e7e6f5"/></linearGradient><linearGradient id="SVGID_11_" gradientUnits="userSpaceOnUse" x1="364.112" x2="540.243" xlink:href="#lg3" y1="365.881" y2="365.881"/><linearGradient id="lg4"><stop offset="0" stop-color="#f8f6f7"/><stop offset="1" stop-color="#d1ceeb"/></linearGradient><linearGradient id="SVGID_12_" gradientUnits="userSpaceOnUse" x1="310.667" x2="512.134" xlink:href="#lg4" y1="365.882" y2="365.882"/><linearGradient id="lg5"><stop offset="0" stop-color="#bbec6c"/><stop offset=".5857" stop-color="#78a91f"/><stop offset="1" stop-color="#02905d"/></linearGradient><linearGradient id="SVGID_13_" gradientUnits="userSpaceOnUse" x1="299.615" x2="423.52" xlink:href="#lg5" y1="275.889" y2="275.889"/><linearGradient id="SVGID_14_" gradientUnits="userSpaceOnUse" x1="281.333" x2="403.922" xlink:href="#lg5" y1="275.889" y2="275.889"/><linearGradient id="SVGID_15_" gradientUnits="userSpaceOnUse" x1="28.128" x2="218.766" xlink:href="#lg3" y1="427.717" y2="427.717"/><linearGradient id="SVGID_16_" gradientUnits="userSpaceOnUse" x1="-.667" x2="199.735" xlink:href="#lg4" y1="427.721" y2="427.721"/><linearGradient id="SVGID_17_" gradientUnits="userSpaceOnUse" x1="152.623" x2="322.675" xlink:href="#lg5" y1="337.724" y2="337.724"/><linearGradient id="SVGID_18_" gradientUnits="userSpaceOnUse" x1="151.243" x2="273.832" xlink:href="#lg5" y1="337.724" y2="337.724"/><g><g><g><path d="m497.406 129.351c-.65 0-1.307-.05-1.968-.154l-484.78-75.986c-6.88-1.078-11.583-7.529-10.504-14.408 1.078-6.879 7.532-11.581 14.408-10.504l484.78 75.986c6.879 1.079 11.582 7.529 10.504 14.409-.975 6.217-6.339 10.657-12.44 10.657z" fill="url(#SVGID_1_)"/><path d="m497.406 203.382c-.65 0-1.307.05-1.968.154l-484.78 75.986c-6.879 1.079-11.582 7.529-10.504 14.409 1.078 6.879 7.532 11.581 14.408 10.504l484.78-75.986c6.879-1.079 11.582-7.529 10.504-14.409-.975-6.217-6.339-10.658-12.44-10.658z" fill="url(#SVGID_2_)"/></g><g><path d="m86.902 332.734h-44.904c-15.081 0-27.307-12.226-27.307-27.307v-278.12c0-15.081 12.226-27.307 27.307-27.307h44.904c15.081 0 27.307 12.226 27.307 27.307v278.12c0 15.081-12.226 27.307-27.307 27.307z" fill="url(#SVGID_3_)"/><path d="m86.902 0h-40.02c15.081 0 27.307 12.226 27.307 27.307v278.12c0 15.081-12.226 27.307-27.307 27.307h40.02c15.081 0 27.307-12.226 27.307-27.307v-278.12c0-15.081-12.226-27.307-27.307-27.307z" fill="url(#SVGID_4_)"/></g><g><path d="m213.935 312.726h-44.904c-15.081 0-27.307-12.226-27.307-27.307v-238.104c0-15.081 12.226-27.307 27.307-27.307h44.904c15.081 0 27.307 12.226 27.307 27.307v238.104c0 15.081-12.225 27.307-27.307 27.307z" fill="url(#SVGID_5_)"/><path d="m213.935 20.008h-40.02c15.081 0 27.307 12.226 27.307 27.307v238.104c0 15.081-12.226 27.307-27.307 27.307h40.02c15.081 0 27.307-12.226 27.307-27.307v-238.104c0-15.081-12.225-27.307-27.307-27.307z" fill="url(#SVGID_6_)"/></g><g><path d="m340.969 289.103h-44.904c-15.081 0-27.307-12.226-27.307-27.307v-190.858c0-15.081 12.226-27.307 27.307-27.307h44.904c15.081 0 27.307 12.226 27.307 27.307v190.858c0 15.081-12.226 27.307-27.307 27.307z" fill="url(#SVGID_7_)"/><path d="m340.969 43.631h-40.02c15.081 0 27.307 12.226 27.307 27.307v190.858c0 15.081-12.226 27.307-27.307 27.307h40.02c15.081 0 27.307-12.226 27.307-27.307v-190.858c0-15.081-12.226-27.307-27.307-27.307z" fill="url(#SVGID_8_)"/></g><g><path d="m468.002 256.639h-44.904c-15.081 0-27.307-12.226-27.307-27.307v-125.93c0-15.081 12.226-27.307 27.307-27.307h44.904c15.081 0 27.307 12.226 27.307 27.307v125.93c0 15.081-12.226 27.307-27.307 27.307z" fill="url(#SVGID_9_)"/><path d="m468.002 76.095h-40.02c15.081 0 27.307 12.226 27.307 27.307v125.93c0 15.081-12.226 27.307-27.307 27.307h40.02c15.081 0 27.307-12.226 27.307-27.307v-125.93c0-15.081-12.226-27.307-27.307-27.307z" fill="url(#SVGID_10_)"/></g></g><g><g><path d="m501.749 439.913c11.268-11.268 10.955-29.632-.691-40.509l-117.457-109.7c-8.936-8.345-22.877-8.107-31.523.538-8.646 8.645-8.883 22.587-.538 31.523l109.7 117.457c10.877 11.646 29.24 11.959 40.509.691z" fill="url(#SVGID_11_)"/><path d="m501.057 399.404-117.457-109.7c-7.805-7.29-19.43-8.028-28.008-2.336 1.044.69 2.053 1.455 2.997 2.336l117.457 109.7c11.646 10.877 11.96 29.241.691 40.509-2.233 2.233-4.747 4.003-7.423 5.329 10.509 5.207 23.635 3.471 32.435-5.329 11.268-11.268 10.954-29.632-.692-40.509z" fill="url(#SVGID_12_)"/><circle cx="337.724" cy="275.889" fill="url(#SVGID_13_)" r="48.404"/></g><path d="m371.951 241.662c-12.662-12.662-30.591-16.829-46.732-12.528 7.956 2.12 15.48 6.287 21.721 12.528 18.903 18.903 18.903 49.55 0 68.453-6.241 6.241-13.765 10.408-21.721 12.528 16.142 4.301 34.07.134 46.732-12.528 18.903-18.902 18.903-49.55 0-68.453z" fill="url(#SVGID_14_)"/></g><g><g><path d="m43.61 501.749c-11.268-11.268-10.955-29.632.691-40.509l117.457-109.7c8.936-8.345 22.877-8.107 31.523.538 8.645 8.646 8.883 22.587.538 31.523l-109.7 117.457c-10.878 11.645-29.241 11.959-40.509.691z" fill="url(#SVGID_15_)"/><path d="m193.281 352.078c-7.732-7.732-19.691-8.718-28.526-2.874 1.242.824 2.421 1.781 3.515 2.874 8.645 8.646 8.883 22.587.538 31.523l-109.7 117.457c-2.383 2.552-5.126 4.559-8.074 6.02 10.831 5.363 24.364 3.319 33.085-6.02l109.7-117.457c8.345-8.936 8.107-22.878-.538-31.523z" fill="url(#SVGID_16_)"/><circle cx="207.634" cy="337.724" fill="url(#SVGID_17_)" r="48.404"/></g><path d="m241.861 303.498c-12.662-12.662-30.591-16.829-46.732-12.528 7.956 2.12 15.48 6.287 21.721 12.528 18.903 18.903 18.903 49.55 0 68.453-6.241 6.241-13.765 10.408-21.721 12.528 16.142 4.301 34.07.134 46.732-12.528 18.903-18.903 18.903-49.55 0-68.453z" fill="url(#SVGID_18_)"/></g></g></svg>