<svg id="Capa_1" enable-background="new 0 0 510 510" height="512" viewBox="0 0 510 510" width="512" xmlns="http://www.w3.org/2000/svg" xmlns:xlink="http://www.w3.org/1999/xlink"><linearGradient id="lg1"><stop offset="0" stop-color="#f8f6f7"/><stop offset=".1788" stop-color="#f8f6f7"/><stop offset="1" stop-color="#e7e6f5"/></linearGradient><linearGradient id="SVGID_1_" gradientTransform="matrix(.013 1 -1 .013 -375.008 -1579.864)" gradientUnits="userSpaceOnUse" x1="1785.001" x2="1854.429" xlink:href="#lg1" y1="-695.421" y2="-695.421"/><linearGradient id="lg2"><stop offset="0" stop-color="#f8f6f7"/><stop offset="1" stop-color="#d1ceeb"/></linearGradient><linearGradient id="SVGID_2_" gradientTransform="matrix(.013 1 -1 .013 -374.628 -1580.816)" gradientUnits="userSpaceOnUse" x1="1730.185" x2="1840.925" xlink:href="#lg2" y1="-695.029" y2="-695.029"/><linearGradient id="SVGID_3_" gradientTransform="matrix(.013 1 -1 .013 -375.008 -1579.864)" gradientUnits="userSpaceOnUse" x1="1720.526" x2="1789.954" xlink:href="#lg1" y1="-632.576" y2="-632.576"/><linearGradient id="SVGID_4_" gradientTransform="matrix(.013 1 -1 .013 -374.628 -1580.816)" gradientUnits="userSpaceOnUse" x1="1665.71" x2="1776.45" xlink:href="#lg2" y1="-632.184" y2="-632.184"/><linearGradient id="SVGID_5_" gradientTransform="matrix(.013 1 -1 .013 -375.008 -1579.864)" gradientUnits="userSpaceOnUse" x1="1918.627" x2="1988.055" xlink:href="#lg1" y1="-558.328" y2="-558.328"/><linearGradient id="SVGID_6_" gradientTransform="matrix(.013 1 -1 .013 -374.628 -1580.816)" gradientUnits="userSpaceOnUse" x1="1863.811" x2="1974.551" xlink:href="#lg2" y1="-557.935" y2="-557.935"/><linearGradient id="SVGID_7_" gradientTransform="matrix(.707 .707 -.707 .707 1065.917 230.269)" gradientUnits="userSpaceOnUse" x1="-629.561" x2="-592.189" xlink:href="#lg2" y1="589.344" y2="589.344"/><linearGradient id="SVGID_8_" gradientTransform="matrix(.707 .707 -.707 .707 1065.917 230.269)" gradientUnits="userSpaceOnUse" x1="-629.561" x2="-592.189" xlink:href="#lg2" y1="666.55" y2="666.55"/><linearGradient id="SVGID_9_" gradientTransform="matrix(.707 .707 -.707 .707 1065.917 230.269)" gradientUnits="userSpaceOnUse" x1="-629.561" x2="-592.189" xlink:href="#lg2" y1="743.755" y2="743.755"/><linearGradient id="lg3"><stop offset="0" stop-color="#537983"/><stop offset=".593" stop-color="#554e56"/><stop offset="1" stop-color="#433f43"/></linearGradient><linearGradient id="SVGID_10_" gradientTransform="matrix(.707 .707 -.707 .707 1065.917 230.269)" gradientUnits="userSpaceOnUse" x1="-649.672" x2="-462.163" xlink:href="#lg3" y1="562.12" y2="562.12"/><linearGradient id="SVGID_11_" gradientTransform="matrix(.707 .707 -.707 .707 1028.167 214.632)" gradientUnits="userSpaceOnUse" x1="-743.065" x2="-474.072" xlink:href="#lg3" y1="546.484" y2="546.484"/><linearGradient id="SVGID_12_" gradientTransform="matrix(.707 .707 .707 -.707 -2188.73 -1229.001)" gradientUnits="userSpaceOnUse" x1="2713.965" x2="2845.294" xlink:href="#lg3" y1="403.215" y2="403.215"/><linearGradient id="SVGID_13_" gradientTransform="matrix(.707 .707 -.707 .707 1028.167 214.632)" gradientUnits="userSpaceOnUse" x1="-584.5" x2="-502.368" xlink:href="#lg3" y1="850.672" y2="850.672"/><linearGradient id="SVGID_14_" gradientTransform="matrix(.707 .707 -.707 .707 1065.917 230.269)" gradientUnits="userSpaceOnUse" x1="-622.729" x2="-467.465" xlink:href="#lg1" y1="433.421" y2="433.421"/><linearGradient id="SVGID_15_" gradientTransform="matrix(.707 .707 -.707 .707 1065.917 230.269)" gradientUnits="userSpaceOnUse" x1="-622.729" x2="-467.465" xlink:href="#lg1" y1="816.608" y2="816.608"/><linearGradient id="SVGID_16_" gradientTransform="matrix(.707 .707 -.707 .707 1065.917 230.269)" gradientUnits="userSpaceOnUse" x1="-670.803" x2="-561.791" xlink:href="#lg1" y1="666.55" y2="666.55"/><linearGradient id="SVGID_17_" gradientTransform="matrix(.013 1 -1 .013 -375.008 -1579.864)" gradientUnits="userSpaceOnUse" x1="1791.052" x2="1860.479" xlink:href="#lg1" y1="-623.917" y2="-623.917"/><linearGradient id="SVGID_18_" gradientTransform="matrix(.013 1 -1 .013 -374.628 -1580.816)" gradientUnits="userSpaceOnUse" x1="1736.235" x2="1846.976" xlink:href="#lg2" y1="-623.525" y2="-623.525"/><linearGradient id="SVGID_19_" gradientTransform="matrix(.013 1 -1 .013 -375.008 -1579.864)" gradientUnits="userSpaceOnUse" x1="1854.487" x2="1923.914" xlink:href="#lg1" y1="-558.836" y2="-558.836"/><linearGradient id="SVGID_20_" gradientTransform="matrix(.013 1 -1 .013 -374.628 -1580.816)" gradientUnits="userSpaceOnUse" x1="1799.67" x2="1910.411" xlink:href="#lg2" y1="-558.444" y2="-558.444"/><linearGradient id="SVGID_21_" gradientTransform="matrix(.013 1 -1 .013 -375.008 -1579.864)" gradientUnits="userSpaceOnUse" x1="1917.921" x2="1987.349" xlink:href="#lg1" y1="-493.755" y2="-493.755"/><linearGradient id="SVGID_22_" gradientTransform="matrix(.013 1 -1 .013 -374.628 -1580.816)" gradientUnits="userSpaceOnUse" x1="1863.105" x2="1973.846" xlink:href="#lg2" y1="-493.363" y2="-493.363"/><g><g><circle cx="343.659" cy="230.796" fill="url(#SVGID_1_)" r="34.714"/><path d="m378.37 230.351c-.049-3.842-.73-7.527-1.927-10.967-4.422 13.841-17.293 23.947-32.621 24.143s-28.453-9.577-33.228-23.3c-1.109 3.47-1.695 7.17-1.646 11.013.246 19.17 15.985 34.512 35.156 34.266s34.511-15.984 34.266-35.155z" fill="url(#SVGID_2_)"/></g><g><circle cx="279.994" cy="167.131" fill="url(#SVGID_3_)" r="34.714"/><path d="m314.705 166.687c-.049-3.842-.73-7.527-1.927-10.967-4.422 13.841-17.293 23.947-32.621 24.143s-28.453-9.577-33.228-23.3c-1.109 3.47-1.695 7.17-1.646 11.013.246 19.17 15.985 34.512 35.156 34.266s34.512-15.985 34.266-35.155z" fill="url(#SVGID_4_)"/></g><g><circle cx="208.288" cy="366.167" fill="url(#SVGID_5_)" r="34.714"/><path d="m242.999 365.722c-.049-3.842-.73-7.527-1.927-10.967-4.422 13.841-17.293 23.947-32.621 24.143s-28.453-9.577-33.228-23.3c-1.109 3.47-1.695 7.17-1.646 11.013.246 19.17 15.985 34.512 35.156 34.267s34.512-15.986 34.266-35.156z" fill="url(#SVGID_6_)"/></g><g><path d="m237.787 235.596c4.749-4.75 7.935-9.264 7.116-10.083l-26.926-26.925c-.819-.819-5.334 2.367-10.084 7.117-4.749 4.75-7.935 9.264-7.116 10.083l26.926 26.925c.82.819 5.335-2.367 10.084-7.117z" fill="url(#SVGID_7_)"/><path d="m183.195 290.189c4.749-4.75 7.935-9.264 7.116-10.083l-26.926-26.925c-.819-.819-5.334 2.367-10.084 7.117-4.749 4.75-7.935 9.264-7.116 10.083l26.926 26.925c.82.819 5.334-2.368 10.084-7.117z" fill="url(#SVGID_8_)"/><path d="m128.602 344.781c4.749-4.75 7.935-9.264 7.116-10.083l-26.926-26.925c-.819-.819-5.334 2.367-10.084 7.117-4.749 4.75-7.935 9.264-7.116 10.083l26.926 26.925c.82.819 5.335-2.367 10.084-7.117z" fill="url(#SVGID_9_)"/></g><path d="m503.905 109.273-103.178-103.178c-11.303-11.303-30.604-6.132-34.741 9.309l-6.438 24.025c-10.987 41.001-32.572 78.389-62.588 108.404l-231.19 231.19 65.208 65.208 231.19-231.19c30.015-30.015 67.402-51.601 108.404-62.587l24.025-6.438c15.44-4.139 20.611-23.44 9.308-34.743z" fill="url(#SVGID_10_)"/><path d="m503.905 109.273-28.298-28.298c11.303 11.303 6.132 30.604-9.309 34.741l-24.025 6.438c-26.911 7.211-52.265 18.988-75 34.718l-42.443-42.443c-4.778 6.905-9.926 13.564-15.415 19.956l24.685 24.685c7.065 7.065 6.97 18.482-.101 25.542-.043.043-.087.087-.13.13l-48.899 48.899c-4.185-14.708-17.805-25.395-33.828-25.19-19.17.245-34.512 15.985-34.266 35.156.201 15.712 10.814 28.845 25.189 32.94l-21.358 21.358c-4.185-14.708-17.805-25.395-33.828-25.19-19.17.245-34.512 15.985-34.266 35.156.201 15.712 10.814 28.845 25.189 32.94l-21.358 21.358c-4.185-14.708-17.805-25.395-33.828-25.19-19.17.246-34.512 15.985-34.266 35.156.201 15.712 10.813 28.845 25.189 32.94l-10.859 10.859 28.298 28.298 231.19-231.19c30.015-30.015 67.403-51.601 108.405-62.588l24.023-6.437c15.441-4.14 20.612-23.44 9.309-34.744z" fill="url(#SVGID_11_)"/><path d="m65.798 485.616-21.108 21.108c-4.368 4.368-11.451 4.368-15.819 0l-25.595-25.595c-4.368-4.368-4.368-11.451 0-15.819l21.108-21.108c5.663-5.663 9.209-13.209 9.476-21.213.286-8.571 3.697-17.055 10.239-23.598l2.289-2.289c13.689-13.689 35.884-13.689 49.574 0l16.935 16.935c13.689 13.689 13.689 35.884 0 49.574l-2.289 2.289c-6.543 6.543-15.027 9.953-23.598 10.239-8.003.268-15.549 3.814-21.212 9.477z" fill="url(#SVGID_12_)"/><path d="m112.897 414.038-16.935-16.935c-.126-.126-.257-.242-.384-.366 13.314 13.717 13.198 35.626-.366 49.19l-2.289 2.289c-5.315 5.315-11.913 8.564-18.796 9.749l5.041-5.041c2.928-2.928 2.927-7.674 0-10.601l-11.489-11.489c-2.927-2.927-7.674-2.928-10.601 0l-18.972 18.972c-2.928 2.928-2.928 7.674 0 10.601l8.766 8.766-19.867 19.867c-4.368 4.368-11.451 4.368-15.819 0l17.685 17.685c4.368 4.368 11.451 4.368 15.819 0l21.108-21.108c5.663-5.663 13.209-9.209 21.213-9.476 8.571-.286 17.055-3.697 23.598-10.239l2.289-2.289c13.689-13.69 13.689-35.885-.001-49.575z" fill="url(#SVGID_13_)"/><path d="m406.798 184.098c4.749-4.75 4.749-12.45 0-17.2l-63.696-63.695c-4.75-4.75-12.45-4.749-17.2 0-4.749 4.75-4.749 12.45 0 17.2l63.696 63.695c4.749 4.75 12.45 4.749 17.2 0z" fill="url(#SVGID_14_)"/><path d="m135.844 455.052c4.749-4.75 4.749-12.45 0-17.2l-63.696-63.695c-4.75-4.75-12.45-4.749-17.2 0-4.749 4.75-4.749 12.45 0 17.2l63.696 63.695c4.749 4.75 12.45 4.75 17.2 0z" fill="url(#SVGID_15_)"/><path d="m65.819 346.087c4.75 4.749 12.45 4.749 17.2 0l156.074-156.074c4.75-4.75 4.749-12.45 0-17.2-4.75-4.749-12.45-4.749-17.2 0l-156.075 156.074c-4.749 4.75-4.749 12.451.001 17.2z" fill="url(#SVGID_16_)"/><g><circle cx="272.238" cy="237.762" fill="url(#SVGID_17_)" r="34.714"/><path d="m306.949 237.317c-.049-3.842-.73-7.527-1.927-10.967-4.422 13.841-17.293 23.947-32.621 24.143s-28.453-9.577-33.228-23.3c-1.109 3.47-1.695 7.17-1.646 11.013.246 19.17 15.985 34.512 35.156 34.266s34.512-15.985 34.266-35.155z" fill="url(#SVGID_18_)"/></g><g><circle cx="207.975" cy="302.025" fill="url(#SVGID_19_)" r="34.714"/><path d="m242.686 301.58c-.049-3.842-.73-7.527-1.927-10.967-4.422 13.841-17.293 23.947-32.621 24.143s-28.453-9.577-33.228-23.3c-1.109 3.47-1.695 7.17-1.646 11.013.246 19.17 15.985 34.512 35.156 34.266s34.512-15.984 34.266-35.155z" fill="url(#SVGID_20_)"/></g><g><circle cx="143.712" cy="366.288" fill="url(#SVGID_21_)" r="34.714"/><path d="m178.423 365.843c-.049-3.842-.73-7.527-1.927-10.967-4.422 13.841-17.293 23.947-32.621 24.143s-28.453-9.577-33.228-23.3c-1.109 3.47-1.695 7.17-1.646 11.013.246 19.17 15.985 34.512 35.156 34.266s34.512-15.984 34.266-35.155z" fill="url(#SVGID_22_)"/></g></g></svg>