<svg id="Capa_1" enable-background="new 0 0 510 510" height="512" viewBox="0 0 510 510" width="512" xmlns="http://www.w3.org/2000/svg" xmlns:xlink="http://www.w3.org/1999/xlink"><linearGradient id="lg1"><stop offset="0" stop-color="#f8f6f7"/><stop offset="1" stop-color="#d1ceeb"/></linearGradient><linearGradient id="SVGID_1_" gradientUnits="userSpaceOnUse" x1="30.722" x2="110.275" xlink:href="#lg1" y1="52.369" y2="52.369"/><linearGradient id="SVGID_2_" gradientUnits="userSpaceOnUse" x1="157.755" x2="237.308" xlink:href="#lg1" y1="52.369" y2="52.369"/><linearGradient id="SVGID_3_" gradientUnits="userSpaceOnUse" x1="284.789" x2="364.341" xlink:href="#lg1" y1="52.369" y2="52.369"/><linearGradient id="SVGID_4_" gradientUnits="userSpaceOnUse" x1="411.822" x2="491.375" xlink:href="#lg1" y1="52.369" y2="52.369"/><linearGradient id="lg2"><stop offset="0" stop-color="#fef056"/><stop offset=".5213" stop-color="#fbc56d"/><stop offset="1" stop-color="#c86d36"/></linearGradient><linearGradient id="SVGID_5_" gradientUnits="userSpaceOnUse" x1="14.691" x2="160.193" xlink:href="#lg2" y1="233.554" y2="233.554"/><linearGradient id="SVGID_6_" gradientUnits="userSpaceOnUse" x1="-44" x2="165.239" xlink:href="#lg2" y1="233.554" y2="233.554"/><linearGradient id="SVGID_7_" gradientUnits="userSpaceOnUse" x1="141.724" x2="286.242" xlink:href="#lg2" y1="223.55" y2="223.55"/><linearGradient id="SVGID_8_" gradientUnits="userSpaceOnUse" x1="108" x2="271.884" xlink:href="#lg2" y1="223.55" y2="223.55"/><linearGradient id="SVGID_9_" gradientUnits="userSpaceOnUse" x1="268.758" x2="410.618" xlink:href="#lg2" y1="207.061" y2="207.061"/><linearGradient id="SVGID_10_" gradientUnits="userSpaceOnUse" x1="244" x2="396.329" xlink:href="#lg2" y1="207.061" y2="207.061"/><linearGradient id="SVGID_11_" gradientUnits="userSpaceOnUse" x1="395.791" x2="524.613" xlink:href="#lg2" y1="186.27" y2="186.27"/><linearGradient id="SVGID_12_" gradientUnits="userSpaceOnUse" x1="363" x2="521.316" xlink:href="#lg2" y1="186.27" y2="186.27"/><linearGradient id="lg3"><stop offset="0" stop-color="#537983"/><stop offset=".593" stop-color="#554e56"/><stop offset="1" stop-color="#433f43"/></linearGradient><linearGradient id="SVGID_13_" gradientUnits="userSpaceOnUse" x1="34.498" x2="674.1" xlink:href="#lg3" y1="22.5" y2="22.5"/><linearGradient id="SVGID_14_" gradientUnits="userSpaceOnUse" x1="189.567" x2="440.126" xlink:href="#lg3" y1="22.5" y2="22.5"/><linearGradient id="SVGID_15_" gradientUnits="userSpaceOnUse" x1="364.112" x2="540.243" y1="427.717" y2="427.717"><stop offset="0" stop-color="#f8f6f7"/><stop offset=".1788" stop-color="#f8f6f7"/><stop offset="1" stop-color="#e7e6f5"/></linearGradient><linearGradient id="SVGID_16_" gradientUnits="userSpaceOnUse" x1="310.667" x2="512.134" xlink:href="#lg1" y1="427.717" y2="427.717"/><linearGradient id="lg4"><stop offset="0" stop-color="#fe646f"/><stop offset=".593" stop-color="#fb2b3a"/><stop offset="1" stop-color="#c41926"/></linearGradient><linearGradient id="SVGID_17_" gradientUnits="userSpaceOnUse" x1="299.615" x2="423.52" xlink:href="#lg4" y1="337.724" y2="337.724"/><linearGradient id="SVGID_18_" gradientUnits="userSpaceOnUse" x1="261.333" x2="383.922" xlink:href="#lg4" y1="337.724" y2="337.724"/><g><g><path d="m54.45 23.009v48.719c0 5.523 4.477 10 10 10s10-4.477 10-10v-48.719z" fill="url(#SVGID_1_)"/><path d="m181.483 23.009v48.719c0 5.523 4.477 10 10 10s10-4.477 10-10v-48.719z" fill="url(#SVGID_2_)"/><path d="m308.517 23.009v48.719c0 5.523 4.477 10 10 10s10-4.477 10-10v-48.719z" fill="url(#SVGID_3_)"/><path d="m435.55 23.009v48.719c0 5.523 4.477 10 10 10s10-4.477 10-10v-48.719z" fill="url(#SVGID_4_)"/></g><g><g><path d="m86.902 399.921h-44.904c-15.081 0-27.307-12.226-27.307-27.307v-278.12c0-15.081 12.226-27.307 27.307-27.307h44.904c15.081 0 27.307 12.226 27.307 27.307v278.12c0 15.082-12.226 27.307-27.307 27.307z" fill="url(#SVGID_5_)"/><path d="m86.902 67.187h-40.02c15.081 0 27.307 12.226 27.307 27.307v278.12c0 15.081-12.226 27.307-27.307 27.307h40.02c15.081 0 27.307-12.226 27.307-27.307v-278.12c0-15.081-12.226-27.307-27.307-27.307z" fill="url(#SVGID_6_)"/></g><g><path d="m213.935 379.913h-44.904c-15.081 0-27.307-12.226-27.307-27.307v-258.112c0-15.081 12.226-27.307 27.307-27.307h44.904c15.081 0 27.307 12.226 27.307 27.307v258.112c0 15.082-12.225 27.307-27.307 27.307z" fill="url(#SVGID_7_)"/><path d="m213.935 67.187h-40.02c15.081 0 27.307 12.226 27.307 27.307v258.112c0 15.081-12.226 27.307-27.307 27.307h40.02c15.081 0 27.307-12.226 27.307-27.307v-258.112c0-15.081-12.225-27.307-27.307-27.307z" fill="url(#SVGID_8_)"/></g><g><path d="m340.969 346.935h-44.904c-15.081 0-27.307-12.226-27.307-27.307v-225.134c0-15.081 12.226-27.307 27.307-27.307h44.904c15.081 0 27.307 12.226 27.307 27.307v225.134c0 15.081-12.226 27.307-27.307 27.307z" fill="url(#SVGID_9_)"/><path d="m340.969 67.187h-40.02c15.081 0 27.307 12.226 27.307 27.307v225.134c0 15.081-12.226 27.307-27.307 27.307h40.02c15.081 0 27.307-12.226 27.307-27.307v-225.134c0-15.081-12.226-27.307-27.307-27.307z" fill="url(#SVGID_10_)"/></g><g><path d="m468.002 305.353h-44.904c-15.081 0-27.307-12.226-27.307-27.307v-183.552c0-15.081 12.226-27.307 27.307-27.307h44.904c15.081 0 27.307 12.226 27.307 27.307v183.552c0 15.081-12.226 27.307-27.307 27.307z" fill="url(#SVGID_11_)"/><path d="m468.002 67.187h-40.02c15.081 0 27.307 12.226 27.307 27.307v183.552c0 15.081-12.226 27.307-27.307 27.307h40.02c15.081 0 27.307-12.226 27.307-27.307v-183.552c0-15.081-12.226-27.307-27.307-27.307z" fill="url(#SVGID_12_)"/></g></g><g><path d="m487.5 45h-465c-12.426 0-22.5-10.074-22.5-22.5 0-12.426 10.074-22.5 22.5-22.5h465c12.426 0 22.5 10.074 22.5 22.5 0 12.426-10.074 22.5-22.5 22.5z" fill="url(#SVGID_13_)"/><path d="m487.5 0h-40.02c12.426 0 22.5 10.073 22.5 22.5 0 12.426-10.074 22.5-22.5 22.5h40.02c12.426 0 22.5-10.074 22.5-22.5 0-12.427-10.074-22.5-22.5-22.5z" fill="url(#SVGID_14_)"/></g><g><g><path d="m501.749 501.749c11.268-11.268 10.955-29.632-.691-40.509l-117.457-109.7c-8.935-8.345-22.877-8.107-31.523.538-8.646 8.646-8.883 22.587-.538 31.523l109.7 117.457c10.877 11.645 29.24 11.959 40.509.691z" fill="url(#SVGID_15_)"/><path d="m501.057 461.24-117.457-109.7c-7.805-7.29-19.43-8.028-28.008-2.336 1.044.69 2.053 1.455 2.997 2.336l117.457 109.7c11.646 10.877 11.96 29.241.691 40.509-2.233 2.233-4.747 4.003-7.423 5.329 10.509 5.207 23.635 3.471 32.435-5.329 11.268-11.269 10.954-29.632-.692-40.509z" fill="url(#SVGID_16_)"/><circle cx="337.724" cy="337.724" fill="url(#SVGID_17_)" r="48.404"/></g><path d="m371.951 303.498c-12.662-12.662-30.591-16.829-46.732-12.528 7.956 2.12 15.48 6.287 21.721 12.528 18.903 18.903 18.903 49.55 0 68.453-6.241 6.241-13.765 10.408-21.721 12.528 16.142 4.301 34.07.134 46.732-12.528 18.903-18.903 18.903-49.551 0-68.453z" fill="url(#SVGID_18_)"/></g></g></svg>