<svg id="Capa_1" enable-background="new 0 0 510 510" height="512" viewBox="0 0 510 510" width="512" xmlns="http://www.w3.org/2000/svg" xmlns:xlink="http://www.w3.org/1999/xlink"><linearGradient id="lg1"><stop offset="0" stop-color="#fe646f"/><stop offset=".593" stop-color="#fb2b3a"/><stop offset="1" stop-color="#c41926"/></linearGradient><linearGradient id="SVGID_1_" gradientUnits="userSpaceOnUse" x1="32.548" x2="669.089" xlink:href="#lg1" y1="255" y2="255"/><linearGradient id="SVGID_2_" gradientUnits="userSpaceOnUse" x1="-261.469" x2="475.944" xlink:href="#lg1" y1="261.06" y2="261.06"/><linearGradient id="SVGID_3_" gradientUnits="userSpaceOnUse" x1="167.542" x2="487.029" xlink:href="#lg1" y1="255" y2="255"/><linearGradient id="lg2"><stop offset="0" stop-color="#537983"/><stop offset=".593" stop-color="#554e56"/><stop offset="1" stop-color="#433f43"/></linearGradient><linearGradient id="SVGID_4_" gradientUnits="userSpaceOnUse" x1="40.667" x2="76.821" xlink:href="#lg2" y1="427.314" y2="427.314"/><linearGradient id="SVGID_5_" gradientUnits="userSpaceOnUse" x1="106.974" x2="143.128" xlink:href="#lg2" y1="427.314" y2="427.314"/><linearGradient id="SVGID_6_" gradientUnits="userSpaceOnUse" x1="173.281" x2="209.435" xlink:href="#lg2" y1="427.314" y2="427.314"/><linearGradient id="lg3"><stop offset="0" stop-color="#f8f6f7"/><stop offset=".1788" stop-color="#f8f6f7"/><stop offset="1" stop-color="#e7e6f5"/></linearGradient><linearGradient id="SVGID_7_" gradientUnits="userSpaceOnUse" x1="13.773" x2="75.397" xlink:href="#lg3" y1="430.531" y2="430.531"/><linearGradient id="SVGID_8_" gradientUnits="userSpaceOnUse" x1="80.08" x2="141.704" xlink:href="#lg3" y1="469.843" y2="469.843"/><linearGradient id="SVGID_9_" gradientUnits="userSpaceOnUse" x1="146.387" x2="208.011" xlink:href="#lg3" y1="448.51" y2="448.51"/><linearGradient id="SVGID_10_" gradientUnits="userSpaceOnUse" x1="73.38" x2="657.379" xlink:href="#lg2" y1="255" y2="255"/><linearGradient id="SVGID_11_" gradientUnits="userSpaceOnUse" x1="83" x2="197.438" xlink:href="#lg2" y1="336.912" y2="336.912"/><linearGradient id="lg4"><stop offset="0" stop-color="#fef056"/><stop offset=".5213" stop-color="#fbc56d"/><stop offset="1" stop-color="#c86d36"/></linearGradient><linearGradient id="SVGID_12_" gradientUnits="userSpaceOnUse" x1="191.826" x2="465.16" xlink:href="#lg4" y1="255" y2="255"/><linearGradient id="SVGID_13_" gradientUnits="userSpaceOnUse" x1="75.407" x2="463.633" xlink:href="#lg2" y1="251.608" y2="251.608"/><linearGradient id="SVGID_14_" gradientUnits="userSpaceOnUse" x1="75.407" x2="463.633" xlink:href="#lg2" y1="251.204" y2="251.204"/><linearGradient id="SVGID_15_" gradientUnits="userSpaceOnUse" x1="64.277" x2="202.889" xlink:href="#lg3" y1="228.306" y2="228.306"/><linearGradient id="SVGID_16_" gradientUnits="userSpaceOnUse" x1="-7.517" x2="161.584" xlink:href="#lg4" y1="89.904" y2="89.904"/><linearGradient id="SVGID_17_" gradientUnits="userSpaceOnUse" x1="-26.559" x2="139.468" xlink:href="#lg4" y1="89.905" y2="89.905"/><linearGradient id="SVGID_18_" gradientUnits="userSpaceOnUse" x1="166" x2="416.314" xlink:href="#lg4" y1="255" y2="255"/><g><path d="m460.166 510h-410.332c-27.523 0-49.834-22.311-49.834-49.834v-410.332c0-27.523 22.311-49.834 49.834-49.834h410.333c27.522 0 49.833 22.311 49.833 49.834v410.333c0 27.522-22.311 49.833-49.834 49.833z" fill="url(#SVGID_1_)"/><path d="m401.819 149.221c-33.475-33.464-79.708-54.17-130.785-54.17s-97.32 20.706-130.795 54.17c-30.332 30.342-50.182 71.166-53.632 116.577l-7.403-7.402c-6.691-6.693-10.377-15.591-10.377-25.055v-60.658h7.95c11.823 0 21.407-9.584 21.407-21.407v-72.72c0-11.823-9.584-21.407-21.407-21.407h-44.695c-11.823 0-21.407 9.584-21.407 21.407v72.719c0 11.823 9.584 21.407 21.407 21.407h11.745v60.658c0 16.141 6.285 31.316 17.699 42.731l25.84 25.839c10.837 91.826 88.929 163.06 183.668 163.06 51.076 0 97.31-20.706 130.785-54.17 33.464-33.475 54.17-79.719 54.17-130.796 0-51.075-20.706-97.308-54.17-130.783zm-102.819 158.761c-7.15 7.161-17.044 11.588-27.965 11.588-21.854 0-39.564-17.71-39.564-39.564 0-10.921 4.428-20.815 11.589-27.965 7.161-7.161 17.044-11.588 27.976-11.588 10.922 0 20.815 4.427 27.965 11.588 7.161 7.15 11.588 17.044 11.588 27.965-.001 10.932-4.429 20.815-11.589 27.976z" fill="url(#SVGID_2_)"/><path d="m460.167 0h-40.02c27.522 0 49.833 22.311 49.833 49.833v410.333c0 27.522-22.311 49.833-49.833 49.833h40.02c27.522.001 49.833-22.31 49.833-49.832v-410.334c0-27.522-22.311-49.833-49.833-49.833z" fill="url(#SVGID_3_)"/><path d="m53.827 372.772c-5.523 0-10 4.477-10 10v89.084c0 5.523 4.477 10 10 10 5.523 0 10-4.477 10-10v-89.084c0-5.523-4.477-10-10-10z" fill="url(#SVGID_4_)"/><path d="m120.134 372.772c-5.523 0-10 4.477-10 10v89.084c0 5.523 4.477 10 10 10 5.523 0 10-4.477 10-10v-89.084c0-5.523-4.477-10-10-10z" fill="url(#SVGID_5_)"/><path d="m186.442 372.772c-5.523 0-10 4.477-10 10v89.084c0 5.523 4.477 10 10 10 5.523 0 10-4.477 10-10v-89.084c0-5.523-4.478-10-10-10z" fill="url(#SVGID_6_)"/><g><path d="m35.686 429.497v2.068c0 6.063 4.915 10.979 10.979 10.979h14.325c6.063 0 10.979-4.915 10.979-10.979v-2.068c0-6.063-4.915-10.979-10.979-10.979h-14.325c-6.064 0-10.979 4.916-10.979 10.979z" fill="url(#SVGID_7_)"/><path d="m101.993 468.81v2.068c0 6.063 4.915 10.979 10.979 10.979h14.325c6.063 0 10.979-4.915 10.979-10.979v-2.068c0-6.063-4.915-10.979-10.979-10.979h-14.325c-6.063 0-10.979 4.915-10.979 10.979z" fill="url(#SVGID_8_)"/><path d="m168.3 447.476v2.068c0 6.063 4.915 10.979 10.979 10.979h14.325c6.063 0 10.979-4.915 10.979-10.979v-2.068c0-6.063-4.915-10.979-10.979-10.979h-14.325c-6.063 0-10.979 4.916-10.979 10.979z" fill="url(#SVGID_9_)"/></g><g><g><path d="m426.83 124.21c-33.475-33.464-79.708-54.17-130.785-54.17s-97.32 20.706-130.796 54.17c-33.464 33.475-54.17 79.708-54.17 130.784 0 102.153 82.813 184.966 184.966 184.966 51.076 0 97.31-20.706 130.785-54.17 33.464-33.475 54.17-79.719 54.17-130.796s-20.706-97.309-54.17-130.784zm-101.82 158.761c-7.15 7.161-18.044 13.588-28.965 13.588-21.854 0-41.564-19.711-41.564-41.564 0-10.921 6.428-22.815 13.588-29.965 7.161-7.161 17.044-11.588 27.976-11.588 10.921 0 20.815 4.428 27.965 11.588 7.161 7.15 13.588 19.044 13.588 29.965.001 10.932-5.427 20.815-12.588 27.976z" fill="url(#SVGID_10_)"/><path d="m178.777 375.645c4.882-4.882 4.882-12.796 0-17.678l-63.451-63.449c4.75 21.817 13.338 42.2 25.04 60.395l20.733 20.732c2.44 2.44 5.64 3.661 8.839 3.661s6.399-1.221 8.839-3.661z" fill="url(#SVGID_11_)"/><path d="m357.256 193.784c-15.666-15.666-37.312-25.352-61.211-25.352-23.898 0-45.544 9.686-61.211 25.352-15.666 15.666-25.363 37.313-25.363 61.211 0 47.807 38.766 86.574 86.574 86.574 23.898 0 45.544-9.697 61.211-25.363 15.666-15.666 25.352-37.312 25.352-61.211s-9.686-45.545-25.352-61.211zm-33.246 89.187c-7.15 7.161-17.044 11.588-27.965 11.588-21.854 0-39.564-17.711-39.564-39.564 0-10.921 4.428-20.815 11.588-27.965 7.161-7.161 17.044-11.588 27.976-11.588 10.921 0 20.815 4.428 27.965 11.588 7.161 7.15 11.588 17.044 11.588 27.965.001 10.932-4.427 20.815-11.588 27.976z" fill="url(#SVGID_12_)"/></g><g><path d="m420.597 254.996c0-33.263-12.955-64.541-36.479-88.073l-.002-.002c-23.531-23.523-54.809-36.477-88.072-36.477-30.351 0-59.049 10.783-81.718 30.538-3.562 3.104-3.703 8.602-.362 11.943 3.064 3.065 7.957 3.183 11.229.34 19.667-17.094 44.544-26.423 70.852-26.423 28.884 0 56.044 11.249 76.477 31.675 20.428 20.434 31.678 47.596 31.678 76.479 0 28.888-11.25 56.052-31.676 76.484-11.377 11.373-24.84 19.895-39.523 25.219-3.017 1.094-5.053 3.921-5.053 7.13v1.354c0 5.203 5.147 8.897 10.048 7.149 17.146-6.113 32.865-16.002 46.124-29.256 23.522-23.531 36.477-54.813 36.477-88.08z" fill="url(#SVGID_13_)"/><path d="m426.83 124.21c-33.475-33.464-79.708-54.17-130.785-54.17-7.403 0-14.7.448-21.876 1.294 28.865 3.402 55.691 13.45 78.916 28.568-18.027-6.619-37.267-10.081-57.04-10.081-44.118 0-85.601 17.18-116.808 48.377-15.693 15.698-27.833 33.998-36.027 53.923-2.215 5.386 1.79 11.294 7.614 11.294 3.341 0 6.328-2.034 7.6-5.124 7.378-17.919 18.294-34.378 32.408-48.498 28.108-28.099 65.474-43.574 105.213-43.574 39.733 0 77.095 15.475 105.202 43.573l.117.117c6.937 6.945 12.756 14.942 17.079 23.755 12.04 24.545 18.807 52.145 18.807 81.33 0 28.298-6.362 55.109-17.723 79.09-4.558 9.619-10.643 18.468-18.16 26.005-.039.039-.078.078-.117.117-17.225 17.22-37.928 29.693-60.52 36.773-7.58 2.375-12.782 9.334-12.782 17.277 0 12.173 11.803 20.915 23.421 17.279 28.827-9.023 54.619-24.908 75.463-45.745 33.462-33.475 54.168-79.719 54.168-130.796s-20.706-97.309-54.17-130.784z" fill="url(#SVGID_14_)"/></g></g><path d="m190.389 370.111c-3.199 0-6.398-1.221-8.839-3.661l-99.573-99.572c-11.414-11.415-17.699-26.591-17.699-42.731v-125.147c0-6.903 5.597-12.5 12.5-12.5s12.5 5.597 12.5 12.5v125.146c0 9.464 3.686 18.361 10.377 25.055l99.573 99.571c4.882 4.882 4.882 12.796 0 17.678-2.441 2.441-5.64 3.661-8.839 3.661z" fill="url(#SVGID_15_)"/><g><path d="m101.788 147.671h-44.695c-11.823 0-21.407-9.584-21.407-21.407v-72.719c0-11.823 9.584-21.407 21.407-21.407h44.695c11.823 0 21.407 9.584 21.407 21.407v72.719c.001 11.823-9.584 21.407-21.407 21.407z" fill="url(#SVGID_16_)"/><path d="m101.788 32.138h-25.011c11.823 0 21.407 9.584 21.407 21.407v72.719c0 11.823-9.584 21.407-21.407 21.407h25.011c11.823 0 21.407-9.584 21.407-21.407v-72.719c.001-11.823-9.584-21.407-21.407-21.407z" fill="url(#SVGID_17_)"/></g><path d="m357.256 193.784c-15.666-15.666-37.312-25.352-61.21-25.352-4.248 0-8.421.32-12.506.911 18.895 2.735 35.824 11.559 48.705 24.441 15.666 15.667 25.352 37.313 25.352 61.211s-9.686 45.545-25.352 61.211c-12.883 12.883-29.811 21.723-48.708 24.46 4.085.591 8.26.903 12.508.903 23.898 0 45.544-9.697 61.21-25.363s25.352-37.312 25.352-61.211c.001-23.899-9.685-45.545-25.351-61.211z" fill="url(#SVGID_18_)"/></g></svg>