<svg id="Capa_1" enable-background="new 0 0 510 510" height="512" viewBox="0 0 510 510" width="512" xmlns="http://www.w3.org/2000/svg" xmlns:xlink="http://www.w3.org/1999/xlink"><linearGradient id="lg1"><stop offset="0" stop-color="#537983"/><stop offset=".593" stop-color="#554e56"/><stop offset="1" stop-color="#433f43"/></linearGradient><linearGradient id="SVGID_1_" gradientUnits="userSpaceOnUse" x1="137.146" x2="671.335" xlink:href="#lg1" y1="169.185" y2="169.185"/><linearGradient id="SVGID_2_" gradientUnits="userSpaceOnUse" x1="65" x2="579.315" xlink:href="#lg1" y1="169.185" y2="169.185"/><linearGradient id="lg2"><stop offset="0" stop-color="#fef056"/><stop offset=".5213" stop-color="#fbc56d"/><stop offset="1" stop-color="#c86d36"/></linearGradient><linearGradient id="SVGID_3_" gradientUnits="userSpaceOnUse" x1="245.49" x2="495.511" xlink:href="#lg2" y1="169.185" y2="169.185"/><linearGradient id="SVGID_4_" gradientUnits="userSpaceOnUse" x1="188" x2="418.803" xlink:href="#lg2" y1="197.496" y2="197.496"/><linearGradient id="lg3"><stop offset="0" stop-color="#bbec6c"/><stop offset=".5857" stop-color="#78a91f"/><stop offset="1" stop-color="#02905d"/></linearGradient><linearGradient id="SVGID_5_" gradientUnits="userSpaceOnUse" x1="-33" x2="536.285" xlink:href="#lg3" y1="340.817" y2="340.817"/><linearGradient id="SVGID_6_" gradientUnits="userSpaceOnUse" x1="-59.333" x2="332.966" xlink:href="#lg3" y1="359.817" y2="359.817"/><linearGradient id="SVGID_7_" gradientUnits="userSpaceOnUse" x1="56" x2="399.023" xlink:href="#lg3" y1="340.817" y2="340.817"/><linearGradient id="SVGID_8_" gradientUnits="userSpaceOnUse" x1="49.838" x2="353.409" xlink:href="#lg2" y1="340.817" y2="340.817"/><g><path d="m460.45 49.55c-30.62-30.61-72.91-49.55-119.63-49.55s-89.02 18.94-119.64 49.55c-30.61 30.62-49.55 72.91-49.55 119.63 0 93.44 75.75 169.19 169.19 169.19 46.72 0 89.01-18.94 119.63-49.55 30.61-30.62 49.55-72.92 49.55-119.64s-18.94-89.01-49.55-119.63zm-94.05 145.22c-6.54 6.55-15.59 10.6-25.58 10.6-19.99 0-36.19-16.2-36.19-36.19 0-9.99 4.05-19.04 10.6-25.58 6.55-6.55 15.59-10.6 25.59-10.6 9.99 0 19.04 4.05 25.58 10.6 6.55 6.54 10.6 15.59 10.6 25.58 0 10-4.05 19.04-10.6 25.59z" fill="url(#SVGID_1_)"/><path d="m460.45 49.55c-30.62-30.61-72.91-49.55-119.63-49.55-6.772 0-13.447.41-20.01 1.184 26.403 3.112 50.941 12.303 72.185 26.132-16.49-6.054-34.089-9.221-52.175-9.221-40.355 0-78.3 15.715-106.846 44.251-23.145 23.153-37.855 52.49-42.586 84.278h-18.257c-.984 7.38-1.501 14.908-1.501 22.557 0 86.683 65.196 158.12 149.224 168.001-.015.002-.03.004-.044.006.233.027.469.046.703.073 1.04.118 2.084.224 3.129.324.546.052 1.09.107 1.637.154.945.08 1.894.146 2.843.211.654.045 1.305.098 1.961.136.108.006.216.009.324.014 3.117.174 6.254.272 9.414.272 46.72 0 89.01-18.94 119.63-49.55 30.609-30.622 49.549-72.922 49.549-119.642s-18.94-89.01-49.55-119.63zm-215.87 23.401c25.711-25.702 59.89-39.857 96.239-39.857 36.344 0 70.52 14.155 96.229 39.856.036.036.071.071.107.107 6.88 6.898 12.45 14.997 16.621 23.802 10.387 21.928 16.203 46.443 16.203 72.32 0 25.885-5.819 50.409-16.212 72.344-4.169 8.799-9.735 16.893-16.611 23.787-.036.036-.071.071-.107.107-25.711 25.703-59.887 39.858-96.231 39.858-3.614 0-7.195-.145-10.739-.423 2.462-8.853 7.836-16.491 15.025-21.823 28.818-1.06 55.763-12.776 76.275-33.281 21.518-21.525 33.368-50.139 33.368-80.568 0-30.426-11.85-59.036-33.368-80.562l-.002-.002c-21.524-21.517-50.135-33.366-80.561-33.366-30.43 0-59.043 11.85-80.569 33.368-16.098 16.104-26.783 36.174-31.145 58.002h-22.523c4.609-27.767 17.699-53.359 38.001-73.669zm96.24 132.419c-19.99 0-36.19-16.2-36.19-36.19 0-8.533 2.962-16.374 7.906-22.557h-68.078c4.133-17.803 13.154-34.146 26.398-47.395 18.691-18.686 43.538-28.976 69.963-28.976 26.42 0 51.264 10.29 69.954 28.974 18.686 18.691 28.976 43.536 28.976 69.956 0 26.424-10.291 51.271-28.974 69.961-13.281 13.276-29.669 22.309-47.52 26.429.075-.626.123-1.258.123-1.897v-66.21c-6.184 4.943-14.025 7.905-22.558 7.905z" fill="url(#SVGID_2_)"/><path d="m396.81 113.19c-14.33-14.33-34.13-23.19-55.99-23.19s-41.66 8.86-55.99 23.19-23.2 34.13-23.2 55.99c0 43.73 35.46 79.19 79.19 79.19 21.86 0 41.66-8.87 55.99-23.2s23.19-34.13 23.19-55.99-8.86-41.66-23.19-55.99zm-30.41 81.58c-6.54 6.55-15.59 10.6-25.58 10.6-19.99 0-36.19-16.2-36.19-36.19 0-9.99 4.05-19.04 10.6-25.58 6.55-6.55 15.59-10.6 25.59-10.6 9.99 0 19.04 4.05 25.58 10.6 6.55 6.54 10.6 15.59 10.6 25.58 0 10-4.05 19.04-10.6 25.59z" fill="url(#SVGID_3_)"/><path d="m363.377 245.088v-47.624c-6.183 4.944-14.024 7.906-22.557 7.906-19.99 0-36.19-16.2-36.19-36.19 0-8.533 2.962-16.374 7.906-22.557h-47.624c-2.124 7.152-3.282 14.719-3.282 22.557 0 43.73 35.46 79.19 79.19 79.19 7.839 0 15.406-1.158 22.557-3.282z" fill="url(#SVGID_4_)"/><g><path d="m303.579 340.817c0-17.057 10.471-31.666 25.335-37.756 5.782-2.369 9.453-8.126 9.453-14.375v-89.916c0-14.987-12.149-27.136-27.136-27.136h-284.095c-14.987 0-27.136 12.149-27.136 27.135v284.095c0 14.987 12.149 27.136 27.136 27.136h284.095c14.987 0 27.136-12.149 27.136-27.136v-89.916c0-6.249-3.67-12.006-9.453-14.375-14.865-6.09-25.335-20.699-25.335-37.756z" fill="url(#SVGID_5_)"/><path d="m110.658 262.448c-11.239 0-20.349 9.111-20.349 20.349v67.025c-10.614-1.715-23.216 1.072-34.425 8.564-19.714 13.177-27.647 35.9-17.719 50.753s33.958 16.212 53.672 3.034c14.253-9.527 22.343-24.043 21.982-36.967h.017v-69.779c0-3.475 3.383-5.944 6.692-4.885l78.554 25.14c2.124.68 3.566 2.655 3.566 4.885v55.207c-10.614-1.715-23.216 1.072-34.425 8.564-19.714 13.177-27.647 35.9-17.719 50.753s33.958 16.212 53.672 3.034c14.253-9.527 22.343-24.043 21.982-36.967h.017v-97.905c0-8.849-5.719-16.684-14.147-19.381l-95.165-30.457c-2.007-.64-4.099-.967-6.205-.967z" fill="url(#SVGID_6_)"/><path d="m328.914 303.061c5.782-2.369 9.453-8.126 9.453-14.375v-89.917c0-14.987-12.149-27.136-27.136-27.136h-40.02c14.987 0 27.136 12.149 27.136 27.136v89.917c0 6.249-3.67 12.006-9.453 14.375-14.864 6.09-25.335 20.699-25.335 37.756s10.471 31.666 25.335 37.756c5.782 2.369 9.453 8.126 9.453 14.375v89.916c0 14.987-12.149 27.136-27.136 27.136h40.02c14.987 0 27.136-12.149 27.136-27.136v-89.916c0-6.249-3.67-12.006-9.453-14.375-14.864-6.09-25.335-20.699-25.335-37.756s10.47-31.666 25.335-37.756z" fill="url(#SVGID_7_)"/><path d="m133.669 243.448c-11.239 0-20.349 9.111-20.349 20.349v67.025c-10.614-1.715-23.216 1.072-34.425 8.564-19.714 13.177-27.647 35.9-17.719 50.753s33.958 16.212 53.672 3.034c14.253-9.527 22.343-24.043 21.982-36.967h.017v-69.779c0-3.475 3.383-5.944 6.692-4.885l78.554 25.14c2.124.68 3.566 2.655 3.566 4.885v55.207c-10.614-1.715-23.216 1.072-34.425 8.564-19.714 13.177-27.647 35.9-17.719 50.753s33.958 16.212 53.672 3.034c14.253-9.527 22.343-24.043 21.982-36.967h.017v-97.905c0-8.849-5.719-16.684-14.147-19.381l-95.165-30.457c-2.007-.64-4.099-.967-6.205-.967z" fill="url(#SVGID_8_)"/></g></g></svg>