<svg id="Capa_1" enable-background="new 0 0 510 510" height="512" viewBox="0 0 510 510" width="512" xmlns="http://www.w3.org/2000/svg" xmlns:xlink="http://www.w3.org/1999/xlink"><linearGradient id="lg1"><stop offset="0" stop-color="#537983"/><stop offset=".593" stop-color="#554e56"/><stop offset="1" stop-color="#433f43"/></linearGradient><linearGradient id="SVGID_1_" gradientTransform="matrix(.707 .707 -.707 .707 -305.725 -1538.275)" gradientUnits="userSpaceOnUse" x1="1593.529" x2="1764.529" xlink:href="#lg1" y1="1144.44" y2="1144.44"/><linearGradient id="SVGID_2_" gradientTransform="matrix(.707 .707 -.707 .707 -305.725 -1538.275)" gradientUnits="userSpaceOnUse" x1="1586.788" x2="1729.281" xlink:href="#lg1" y1="1144.44" y2="1144.44"/><linearGradient id="lg2"><stop offset="0" stop-color="#fef056"/><stop offset=".5213" stop-color="#fbc56d"/><stop offset="1" stop-color="#c86d36"/></linearGradient><linearGradient id="SVGID_3_" gradientTransform="matrix(.707 .707 -.707 .707 -391.414 -1695.548)" gradientUnits="userSpaceOnUse" x1="1793.329" x2="1912.434" xlink:href="#lg2" y1="1134.795" y2="1134.795"/><linearGradient id="SVGID_4_" gradientTransform="matrix(.707 .707 -.707 .707 -391.414 -1695.548)" gradientUnits="userSpaceOnUse" x1="1752.662" x2="1893.33" xlink:href="#lg2" y1="1134.795" y2="1134.795"/><linearGradient id="SVGID_5_" gradientTransform="matrix(.707 .707 -.707 .707 -391.414 -1695.548)" gradientUnits="userSpaceOnUse" x1="1741.329" x2="1969.123" xlink:href="#lg1" y1="948.17" y2="948.17"/><linearGradient id="SVGID_6_" gradientTransform="matrix(.707 .707 -.707 .707 -391.414 -1695.548)" gradientUnits="userSpaceOnUse" x1="1663.329" x2="1922.103" xlink:href="#lg1" y1="948.167" y2="948.167"/><linearGradient id="SVGID_7_" gradientTransform="matrix(.707 .707 -.707 .707 -382.696 -1691.937)" gradientUnits="userSpaceOnUse" x1="1699.655" x2="2035.039" xlink:href="#lg1" y1="746.627" y2="746.627"/><linearGradient id="SVGID_8_" gradientTransform="matrix(.707 .707 -.707 .707 -382.696 -1691.937)" gradientUnits="userSpaceOnUse" x1="1624.891" x2="1960.948" xlink:href="#lg1" y1="746.673" y2="746.673"/><linearGradient id="SVGID_9_" gradientTransform="matrix(.707 .707 -.707 .707 -382.696 -1691.937)" gradientUnits="userSpaceOnUse" x1="1669.612" x2="2108.641" xlink:href="#lg2" y1="746.673" y2="746.673"/><linearGradient id="SVGID_10_" gradientTransform="matrix(.707 .707 -.707 .707 -382.696 -1691.937)" gradientUnits="userSpaceOnUse" x1="1722.481" x2="2003.067" xlink:href="#lg2" y1="746.673" y2="746.673"/><linearGradient id="SVGID_11_" gradientTransform="matrix(.707 .707 -.707 .707 -391.414 -1695.548)" gradientUnits="userSpaceOnUse" x1="1794.201" x2="1857.216" y1="984.322" y2="984.322"><stop offset="0" stop-color="#f8f6f7"/><stop offset=".1788" stop-color="#f8f6f7"/><stop offset="1" stop-color="#e7e6f5"/></linearGradient><g><g><path d="m48.045 501.757 67.781-67.781c10.991-10.991 10.991-28.811 0-39.801-10.991-10.991-28.811-10.991-39.801 0l-67.782 67.78c-10.991 10.991-10.991 28.811 0 39.801 10.991 10.992 28.811 10.992 39.802.001z" fill="url(#SVGID_1_)"/><path d="m115.825 394.175c-3.177-3.177-6.927-5.43-10.915-6.77 3.296 9.809 1.043 21.073-6.77 28.886l-67.781 67.781c-7.814 7.814-19.077 10.066-28.886 6.77 1.34 3.989 3.593 7.738 6.77 10.915 10.991 10.991 28.811 10.991 39.801 0l67.781-67.781c10.991-10.99 10.991-28.81 0-39.801z" fill="url(#SVGID_2_)"/></g><path d="m104.291 447.838-42.86-42.86c-6.333-6.333-6.333-16.602 0-22.935l31.371-31.371 65.795 65.795-31.371 31.371c-6.333 6.334-16.601 6.334-22.935 0z" fill="url(#SVGID_3_)"/><path d="m140.912 398.782-31.371 31.371c-6.333 6.333-16.602 6.333-22.935 0l17.685 17.685c6.333 6.333 16.602 6.333 22.935 0l31.371-31.371z" fill="url(#SVGID_4_)"/><g><path d="m143.544 421.894-55.437-55.437c-7.46-7.46-8.231-19.294-1.803-27.659l198.709-258.573 144.762 144.762-258.572 198.709c-8.365 6.429-20.2 5.657-27.659-1.802z" fill="url(#SVGID_5_)"/><path d="m429.775 224.983-64.205 49.342-194.37 149.369c-8.365 6.428-20.195 5.657-27.655-1.803l-28.298-28.298c7.46 7.46 19.29 8.231 27.655 1.803l127.088-97.67c19.39-14.902 20.979-43.393 3.62-60.617-.12-.119-.24-.239-.36-.359-25.456-25.456-37.986-58.959-37.576-92.32l49.342-64.205z" fill="url(#SVGID_6_)"/><g><circle cx="381.675" cy="128.325" fill="url(#SVGID_7_)" r="128.325"/><path d="m447.977 232.358c-6.603 0-11.955-5.353-11.955-11.955v-26.103c0-6.603 5.352-11.955 11.955-11.955h26.103c6.603 0 11.955 5.352 11.955 11.955v8.716c31.941-44.516 31.941-104.866 0-149.382v8.389c0 6.602-5.353 11.955-11.955 11.955h-26.103c-6.603 0-11.955-5.352-11.955-11.955v-26.103c0-6.603 5.352-11.955 11.955-11.955h8.388c-44.516-31.941-104.866-31.941-149.382 0h8.716c6.603 0 11.955 5.352 11.955 11.955v26.103c0 6.603-5.352 11.955-11.955 11.955h-26.103c-6.603 0-11.955-5.353-11.955-11.955v-8.846c-32.379 44.711-32.379 105.586 0 150.297v-9.174c0-6.603 5.352-11.955 11.955-11.955h26.103c6.603 0 11.955 5.352 11.955 11.955v26.103c0 6.602-5.353 11.955-11.955 11.955h-9.173c44.711 32.379 105.585 32.379 150.296 0zm0-129.203h26.103c6.603 0 11.955 5.352 11.955 11.955v26.103c0 6.603-5.352 11.955-11.955 11.955h-26.103c-6.603 0-11.955-5.352-11.955-11.955v-26.103c0-6.603 5.353-11.955 11.955-11.955zm-91.145-67.235c0-6.603 5.352-11.955 11.955-11.955h26.103c6.603 0 11.955 5.353 11.955 11.955v26.103c0 6.602-5.352 11.955-11.955 11.955h-26.103c-6.603 0-11.955-5.353-11.955-11.955zm-41.132 117.248h-26.103c-6.603 0-11.955-5.352-11.955-11.955v-26.103c0-6.603 5.352-11.955 11.955-11.955h26.103c6.603 0 11.955 5.353 11.955 11.955v26.103c0 6.603-5.353 11.955-11.955 11.955zm41.132-11.955v-26.103c0-6.603 5.352-11.955 11.955-11.955h26.103c6.603 0 11.955 5.352 11.955 11.955v26.103c0 6.602-5.353 11.955-11.955 11.955h-26.103c-6.602 0-11.955-5.352-11.955-11.955zm38.058 91.145h-26.103c-6.603 0-11.955-5.352-11.955-11.955v-26.103c0-6.603 5.352-11.955 11.955-11.955h26.103c6.603 0 11.955 5.352 11.955 11.955v26.103c0 6.603-5.353 11.955-11.955 11.955z" fill="url(#SVGID_8_)"/><g><path d="m491.525 198.439-179.964-179.964c-10.991-10.991-28.811-10.991-39.801 0-10.991 10.991-10.991 28.811 0 39.801l179.964 179.964c10.991 10.991 28.811 10.991 39.801 0 10.991-10.99 10.991-28.81 0-39.801z" fill="url(#SVGID_9_)"/><path d="m491.525 198.439-28.298-28.298c10.991 10.991 10.991 28.811 0 39.801-10.991 10.991-28.811 10.991-39.801 0l28.298 28.298c10.991 10.991 28.811 10.991 39.801 0 10.991-10.99 10.991-28.81 0-39.801z" fill="url(#SVGID_10_)"/></g></g></g><path d="m186.488 334.483-10.972-10.972c-6.705-6.705-6.705-17.575 0-24.279l35.808-35.808c6.705-6.705 17.575-6.705 24.279 0l10.972 10.972c6.705 6.705 6.705 17.575 0 24.279l-35.808 35.808c-6.704 6.705-17.574 6.705-24.279 0z" fill="url(#SVGID_11_)"/></g></svg>