<svg id="Capa_1" enable-background="new 0 0 510 510" height="512" viewBox="0 0 510 510" width="512" xmlns="http://www.w3.org/2000/svg" xmlns:xlink="http://www.w3.org/1999/xlink"><linearGradient id="lg1"><stop offset="0" stop-color="#537983"/><stop offset=".593" stop-color="#554e56"/><stop offset="1" stop-color="#433f43"/></linearGradient><linearGradient id="SVGID_1_" gradientUnits="userSpaceOnUse" x1="199.5" x2="333.56" xlink:href="#lg1" y1="424.981" y2="424.981"/><linearGradient id="SVGID_2_" gradientUnits="userSpaceOnUse" x1="180" x2="291.113" xlink:href="#lg1" y1="424.981" y2="424.981"/><linearGradient id="SVGID_3_" gradientUnits="userSpaceOnUse" x1="181.281" x2="387.956" xlink:href="#lg1" y1="405.401" y2="405.401"/><linearGradient id="SVGID_4_" gradientUnits="userSpaceOnUse" x1="187.389" x2="328.057" xlink:href="#lg1" y1="405.401" y2="405.401"/><linearGradient id="lg2"><stop offset="0" stop-color="#f8f6f7"/><stop offset=".1788" stop-color="#f8f6f7"/><stop offset="1" stop-color="#e7e6f5"/></linearGradient><linearGradient id="SVGID_5_" gradientUnits="userSpaceOnUse" x1="47.886" x2="462.115" xlink:href="#lg2" y1="331.521" y2="331.521"/><linearGradient id="lg3"><stop offset="0" stop-color="#f8f6f7"/><stop offset="1" stop-color="#d1ceeb"/></linearGradient><linearGradient id="SVGID_6_" gradientUnits="userSpaceOnUse" x1="201" x2="448.149" xlink:href="#lg3" y1="331.521" y2="331.521"/><linearGradient id="SVGID_7_" gradientUnits="userSpaceOnUse" x1="25" x2="442.749" xlink:href="#lg3" y1="192.006" y2="192.006"/><linearGradient id="SVGID_8_" gradientUnits="userSpaceOnUse" x1="129.033" x2="407.986" xlink:href="#lg2" y1="192.006" y2="192.006"/><linearGradient id="SVGID_9_" gradientUnits="userSpaceOnUse" x1="146" x2="388.682" xlink:href="#lg3" y1="331.434" y2="331.434"/><linearGradient id="SVGID_10_" gradientUnits="userSpaceOnUse" x1="146" x2="388.682" xlink:href="#lg3" y1="226.101" y2="226.101"/><linearGradient id="SVGID_11_" gradientUnits="userSpaceOnUse" x1="146" x2="388.682" xlink:href="#lg3" y1="52.579" y2="52.579"/><linearGradient id="SVGID_12_" gradientUnits="userSpaceOnUse" x1="146" x2="388.682" xlink:href="#lg3" y1="157.911" y2="157.911"/><linearGradient id="SVGID_13_" gradientUnits="userSpaceOnUse" x1="249.5" x2="388.13" xlink:href="#lg3" y1="192.006" y2="192.006"/><linearGradient id="SVGID_14_" gradientUnits="userSpaceOnUse" x1="249.5" x2="388.13" xlink:href="#lg3" y1="123.816" y2="123.816"/><linearGradient id="SVGID_15_" gradientUnits="userSpaceOnUse" x1="249.5" x2="388.13" xlink:href="#lg3" y1="260.196" y2="260.196"/><linearGradient id="SVGID_16_" gradientUnits="userSpaceOnUse" x1="146" x2="302.029" xlink:href="#lg3" y1="192.006" y2="192.006"/><g><g><path d="m283.144 481.856v-113.75c0-15.543-12.6-28.144-28.144-28.144-15.543 0-28.144 12.6-28.144 28.144v113.75c0 15.544 12.601 28.144 28.144 28.144 15.544 0 28.144-12.6 28.144-28.144z" fill="url(#SVGID_1_)"/><path d="m283.14 368.671v113.189c0 7.77-3.15 14.8-8.24 19.9-5.1 5.09-12.13 8.24-19.9 8.24-4.49 0-8.73-1.05-12.5-2.93 2.75-1.36 5.24-3.16 7.39-5.31 5.09-5.1 8.24-12.13 8.24-19.9v-2.039c0-13.367-10.443-24.388-23.788-25.15-2.857-.163-5.469-.349-7.482-.559v-86.01c0-7.77 3.15-14.81 8.24-19.9 2.15-2.15 4.65-3.95 7.4-5.31 3.897-1.943 8.296-3 12.954-2.926 15.458.243 27.686 13.245 27.686 28.705z" fill="url(#SVGID_2_)"/></g><g><path d="m319.513 435.692h-129.026c-8.957 0-16.217-7.261-16.217-16.218v-44.366h161.461v44.366c0 8.957-7.261 16.218-16.218 16.218z" fill="url(#SVGID_3_)"/><path d="m310.72 375.109v44.366c0 8.957-7.261 16.217-16.218 16.217h25.011c8.957 0 16.218-7.261 16.218-16.217v-44.366z" fill="url(#SVGID_4_)"/></g><path d="m321.616 453.528h-133.232c-77.471 0-140.498-63.027-140.498-140.498v-81.016c0-12.427 10.074-22.5 22.5-22.5s22.5 10.073 22.5 22.5v81.016c0 52.658 42.84 95.498 95.498 95.498h133.233c52.658 0 95.498-42.84 95.498-95.498v-81.016c0-12.427 10.073-22.5 22.5-22.5s22.5 10.073 22.5 22.5v81.016c0 77.47-63.028 140.498-140.499 140.498z" fill="url(#SVGID_5_)"/><path d="m439.615 209.514c-12.427 0-22.5 10.073-22.5 22.5v81.016c0 5.141-.414 10.188-1.2 15.111-7.562 70.391-67.318 125.387-139.683 125.387h45.385c77.471 0 140.498-63.027 140.498-140.498v-81.016c0-12.427-10.074-22.5-22.5-22.5z" fill="url(#SVGID_6_)"/><g><g><path d="m119.334 79.34h271.333v225.333h-271.333z" fill="url(#SVGID_7_)"/><path d="m347.29 278.855c-10.531 0-19.024-8.724-18.647-19.339.359-10.111 8.977-17.979 19.094-17.979h41.17c6.171 0 11.174-5.003 11.174-11.174v-8.525c0-6.171-5.003-11.174-11.174-11.174h-41.617c-10.305 0-18.659-8.354-18.659-18.659 0-10.305 8.354-18.659 18.659-18.659h41.617c6.171 0 11.174-5.003 11.174-11.174v-8.525c0-6.171-5.003-11.174-11.174-11.174h-41.617c-10.305 0-18.659-8.354-18.659-18.659 0-10.305 8.354-18.659 18.659-18.659h41.617c6.171 0 11.174-5.003 11.174-11.174 0-51.903-42.078-93.981-93.984-93.981h-102.194c-51.906 0-93.983 42.078-93.983 93.983 0 6.171 5.003 11.174 11.174 11.174h41.617c10.305 0 18.659 8.354 18.659 18.659 0 10.305-8.354 18.659-18.659 18.659h-41.617c-6.171 0-11.174 5.003-11.174 11.174v8.525c0 6.171 5.003 11.174 11.174 11.174h41.617c10.305 0 18.659 8.354 18.659 18.659 0 10.305-8.354 18.659-18.659 18.659h-41.617c-6.171 0-11.174 5.003-11.174 11.174v8.525c0 6.171 5.003 11.174 11.174 11.174h41.17c10.118 0 18.735 7.867 19.094 17.979.377 10.615-8.116 19.339-18.647 19.339h-41.617c-6.171 0-11.174 5.003-11.174 11.174 0 51.906 42.078 93.983 93.983 93.983h102.194c51.906 0 93.983-42.078 93.983-93.983 0-6.171-5.003-11.174-11.174-11.174h-41.616z" fill="url(#SVGID_8_)"/></g><g><path d="m388.907 278.855h-40.02c6.171 0 11.174 5.003 11.174 11.174 0 51.906-42.078 93.983-93.983 93.983h40.02c51.906 0 93.983-42.078 93.983-93.983 0-6.171-5.003-11.174-11.174-11.174z" fill="url(#SVGID_9_)"/><path d="m388.907 210.665h-40.02c6.171 0 11.174 5.003 11.174 11.174v8.525c0 6.171-5.003 11.174-11.174 11.174h40.02c6.171 0 11.174-5.003 11.174-11.174v-8.525c0-6.171-5.003-11.174-11.174-11.174z" fill="url(#SVGID_10_)"/><path d="m306.097 0h-40.02c51.906 0 93.983 42.078 93.983 93.983 0 6.171-5.003 11.174-11.174 11.174h40.02c6.171 0 11.174-5.003 11.174-11.174.001-51.905-42.077-93.983-93.983-93.983z" fill="url(#SVGID_11_)"/><path d="m388.907 142.475h-40.02c6.171 0 11.174 5.003 11.174 11.174v8.525c0 6.171-5.003 11.174-11.174 11.174h40.02c6.171 0 11.174-5.003 11.174-11.174v-8.525c0-6.171-5.003-11.174-11.174-11.174z" fill="url(#SVGID_12_)"/></g></g><g><path d="m307.27 210.665h40.02c-10.305 0-18.659-8.354-18.659-18.659s8.354-18.659 18.659-18.659h-40.02c-10.305 0-18.659 8.354-18.659 18.659s8.354 18.659 18.659 18.659z" fill="url(#SVGID_13_)"/><path d="m307.27 142.475h40.02c-10.305 0-18.659-8.354-18.659-18.659s8.354-18.659 18.659-18.659h-40.02c-10.305 0-18.659 8.354-18.659 18.659s8.354 18.659 18.659 18.659z" fill="url(#SVGID_14_)"/><path d="m328.643 259.516c.359-10.111 8.976-17.979 19.094-17.979h-40.02c-10.118 0-18.735 7.867-19.094 17.979-.377 10.615 8.116 19.339 18.647 19.339h40.02c-10.531 0-19.024-8.724-18.647-19.339z" fill="url(#SVGID_15_)"/></g><path d="m236.341 276.723v-169.433c0-10.305 8.354-18.659 18.659-18.659 10.305 0 18.659 8.354 18.659 18.659v169.433c0 10.305-8.354 18.659-18.659 18.659-10.305 0-18.659-8.354-18.659-18.659z" fill="url(#SVGID_16_)"/></g></svg>