<svg id="Capa_1" enable-background="new 0 0 510 510" height="512" viewBox="0 0 510 510" width="512" xmlns="http://www.w3.org/2000/svg" xmlns:xlink="http://www.w3.org/1999/xlink"><linearGradient id="lg1"><stop offset="0" stop-color="#fe646f"/><stop offset=".593" stop-color="#fb2b3a"/><stop offset="1" stop-color="#c41926"/></linearGradient><linearGradient id="SVGID_1_" gradientTransform="matrix(.999 -.037 .037 .999 35.071 -27.929)" gradientUnits="userSpaceOnUse" x1="148.227" x2="516.077" xlink:href="#lg1" y1="134.773" y2="134.773"/><linearGradient id="SVGID_2_" gradientUnits="userSpaceOnUse" x1="86" x2="412.81" xlink:href="#lg1" y1="181.187" y2="181.187"/><linearGradient id="lg2"><stop offset="0" stop-color="#537983"/><stop offset=".593" stop-color="#554e56"/><stop offset="1" stop-color="#433f43"/></linearGradient><linearGradient id="SVGID_3_" gradientUnits="userSpaceOnUse" x1="-60" x2="822.274" xlink:href="#lg2" y1="255" y2="255"/><linearGradient id="SVGID_4_" gradientUnits="userSpaceOnUse" x1="41.628" x2="518.795" xlink:href="#lg2" y1="61.189" y2="61.189"/><linearGradient id="SVGID_5_" gradientUnits="userSpaceOnUse" x1="-106.053" x2="372.798" xlink:href="#lg2" y1="271.848" y2="271.848"/><linearGradient id="SVGID_6_" gradientUnits="userSpaceOnUse" x1="57.36" x2="512.609" xlink:href="#lg2" y1="297.365" y2="297.365"/><linearGradient id="SVGID_7_" gradientUnits="userSpaceOnUse" x1="57.36" x2="313.037" xlink:href="#lg2" y1="163.171" y2="163.171"/><linearGradient id="SVGID_8_" gradientUnits="userSpaceOnUse" x1="34" x2="196.364" xlink:href="#lg2" y1="90.167" y2="90.167"/><linearGradient id="SVGID_9_" gradientUnits="userSpaceOnUse" x1="86" x2="377.67" xlink:href="#lg2" y1="361.316" y2="361.316"/><linearGradient id="SVGID_10_" gradientTransform="matrix(.716 .698 -.698 .716 -2821.21 -40.77)" gradientUnits="userSpaceOnUse" x1="2128.379" x2="2224.379" y1="-1938.494" y2="-1938.494"><stop offset="0" stop-color="#f8f6f7"/><stop offset=".1788" stop-color="#f8f6f7"/><stop offset="1" stop-color="#e7e6f5"/></linearGradient><linearGradient id="SVGID_11_" gradientTransform="matrix(.716 .698 -.698 .716 -2821.615 -41.711)" gradientUnits="userSpaceOnUse" x1="2052.221" x2="2205.345" y1="-1938.102" y2="-1938.102"><stop offset="0" stop-color="#f8f6f7"/><stop offset="1" stop-color="#d1ceeb"/></linearGradient><g><path d="m447.058 63.936c-85.095-19.588-171.873-24.383-257.455-14.492l2.446 65.901c.347 9.348 8.472 16.48 17.787 15.618 77.226-7.144 155.267-2.371 232.019 14.411 10.24 2.242 19.85-5.75 19.462-16.223l-1.863-50.195c-.268-7.224-5.351-13.39-12.396-15.02z" fill="url(#SVGID_1_)"/><path d="m225.822 246.52c14.138 14.138 34.619 19.894 54.052 15.189l105.724-25.595-7.105-29.348c-2.065-8.53-10.654-13.771-19.185-11.706l-77.693 18.809c-11.566 2.8-23.755-.625-32.17-9.04l-95.562-95.562c-13.617-13.617-35.695-13.617-49.312 0-.028.028-.056.056-.084.084-4.386 4.416-4.23 11.605.171 16.006z" fill="url(#SVGID_2_)"/><path d="m496.925 30.571c-136.923-36.915-279.181-38.71-416.623-5.387-14.722 3.569-26.256 14.18-31.318 27.738-36.605 59.706-55.332 141.905-47.042 230.472 7.116 76.02 41.968 165.192 78.888 215.654 16.074 21.97 50.337 2.146 39.201-22.695-17.582-39.219-38.641-105.496-43.149-153.653-7.501-80.132 7.122-155.042 37.083-212.808 123.859-24.747 250.922-21.28 373.879 10.422 11.219 2.892 22.156-5.538 22.156-17.124 0-18.508 0-37.015 0-55.523 0-7.994-5.356-15.015-13.075-17.096z" fill="url(#SVGID_3_)"/><path d="m496.925 30.571c-78.484-21.16-158.721-30.757-238.799-28.839 66.739 1.605 133.368 11.204 198.779 28.839 7.719 2.081 13.075 9.102 13.075 17.097v55.523c0 4.555-1.695 8.617-4.429 11.7 7.445 1.707 14.877 3.511 22.293 5.423 11.219 2.892 22.156-5.538 22.156-17.124 0-18.508 0-37.015 0-55.523 0-7.994-5.356-15.015-13.075-17.096z" fill="url(#SVGID_4_)"/><path d="m76.882 322.7c-7.501-80.132 7.122-155.042 37.083-212.808 47.731-9.537 95.939-14.865 144.203-16.02-37.802-.91-75.639.758-113.312 4.986-4.087-35.841-34.484-63.691-71.419-63.691-4.668 0-9.226.46-13.646 1.31-4.757 4.594-8.476 10.201-10.807 16.446-16.195 26.415-28.881 57.238-37.286 91.061 5.108 8.53 11.934 15.91 19.998 21.668 9.716 6.936 14.399 18.97 11.93 30.65-8.281 39.176-10.922 81.985-6.765 126.399 4.508 48.157 25.568 114.434 43.149 153.653 3.431 7.653 2.549 14.828-.78 20.454.533.746 1.065 1.511 1.599 2.241 16.074 21.97 50.337 2.146 39.201-22.695-17.581-39.22-38.64-105.497-43.148-153.654z" fill="url(#SVGID_5_)"/><path d="m394.56 274.724-1.96.47c-44.95 10.88-74.33 54.06-67.95 99.87l3.06 21.94 11.99 86.11c.15 1.04.22 2.08.22 3.11 0 3.06-.63 6.01-1.78 8.71-2.97 6.97-9.42 12.26-17.47 13.38-12.2 1.7-23.46-6.79-25.19-18.98l-21.01-147.86c-2.56-18.03-16.29-32.24-34.11-36-12.25-2.58-23.7-8.65-32.84-17.79l-137.92-137.92c-8.16-8.16-12.24-18.86-12.24-29.55s4.08-21.39 12.24-29.55l.112-.112c5.881-5.837 15.414-5.756 21.418-.046l142.77 135.768c11.66 11.67 28.56 16.42 44.59 12.54l99.62-24.12c11.223-2.717 22.523 4.177 25.241 15.4l5.239 21.63c2.47 10.23-3.81 20.52-14.03 23z" fill="url(#SVGID_6_)"/><path d="m233.9 226.274-142.769-135.768c-6.005-5.71-15.537-5.792-21.418.046-.038.037-.075.075-.112.112-.542.542-1.063 1.096-1.568 1.66-7.112 7.923-10.671 17.91-10.671 27.89 0 10.69 4.08 21.39 12.24 29.55l35.318 35.318c9.559-1.454 18.652-4.322 27.063-8.379 9.969-4.809 21.905-2.735 29.926 4.893l46.983 44.679c11.66 11.67 28.56 16.42 44.59 12.54l1.441-.349c-7.827-2.134-15.102-6.266-21.023-12.192z" fill="url(#SVGID_7_)"/><circle cx="90.359" cy="90.166" fill="url(#SVGID_8_)" r="71.922"/><path d="m408.59 251.724-5.239-21.63c-2.718-11.222-14.019-18.117-25.241-15.4l-9.511 2.303c4.716 2.769 8.353 7.362 9.742 13.097l5.239 21.63c2.47 10.23-3.81 20.52-14.03 23l-1.96.47c-44.95 10.88-74.33 54.06-67.95 99.87l3.06 21.94 11.99 86.11c.15 1.04.22 2.08.22 3.11 0 3.06-.63 6.01-1.78 8.71-1.681 3.944-4.477 7.348-8.045 9.765 4.41 2.983 9.895 4.408 15.586 3.615 8.05-1.12 14.5-6.41 17.47-13.38 1.15-2.7 1.78-5.65 1.78-8.71 0-1.03-.07-2.07-.22-3.11l-11.99-86.11-3.06-21.94c-6.38-45.81 23-88.99 67.95-99.87l1.96-.47c10.219-2.48 16.499-12.77 14.029-23z" fill="url(#SVGID_9_)"/><g><circle cx="90.359" cy="90.166" fill="url(#SVGID_10_)" r="48"/><path d="m123.863 55.794c-3.805-3.709-8.073-6.645-12.607-8.839 9.209 17.856 6.506 40.321-8.289 55.5s-37.183 18.456-55.269 9.708c2.309 4.476 5.353 8.668 9.158 12.377 18.984 18.504 49.373 18.114 67.877-.869s18.114-49.374-.87-67.877z" fill="url(#SVGID_11_)"/></g></g></svg>