<svg id="Capa_1" enable-background="new 0 0 510 510" height="512" viewBox="0 0 510 510" width="512" xmlns="http://www.w3.org/2000/svg" xmlns:xlink="http://www.w3.org/1999/xlink"><linearGradient id="lg1"><stop offset="0" stop-color="#537983"/><stop offset=".593" stop-color="#554e56"/><stop offset="1" stop-color="#433f43"/></linearGradient><linearGradient id="SVGID_1_" gradientUnits="userSpaceOnUse" x1="181.281" x2="387.956" xlink:href="#lg1" y1="435.855" y2="435.855"/><linearGradient id="SVGID_2_" gradientUnits="userSpaceOnUse" x1="187.389" x2="328.057" xlink:href="#lg1" y1="435.855" y2="435.855"/><linearGradient id="SVGID_3_" gradientUnits="userSpaceOnUse" x1="17.642" x2="730.591" xlink:href="#lg1" y1="231.82" y2="231.82"/><linearGradient id="SVGID_4_" gradientUnits="userSpaceOnUse" x1="-7" x2="136.503" xlink:href="#lg1" y1="231.82" y2="231.82"/><linearGradient id="SVGID_5_" gradientUnits="userSpaceOnUse" x1="108" x2="518.005" xlink:href="#lg1" y1="231.82" y2="231.82"/><linearGradient id="lg2"><stop offset="0" stop-color="#bbec6c"/><stop offset=".5857" stop-color="#78a91f"/><stop offset="1" stop-color="#02905d"/></linearGradient><linearGradient id="SVGID_6_" gradientUnits="userSpaceOnUse" x1="71.431" x2="622.814" xlink:href="#lg2" y1="231.82" y2="231.82"/><linearGradient id="SVGID_7_" gradientUnits="userSpaceOnUse" x1="-120.444" x2="613.853" xlink:href="#lg2" y1="231.82" y2="231.82"/><linearGradient id="lg3"><stop offset="0" stop-color="#fef056"/><stop offset=".5213" stop-color="#fbc56d"/><stop offset="1" stop-color="#c86d36"/></linearGradient><linearGradient id="SVGID_8_" gradientUnits="userSpaceOnUse" x1="197.54" x2="400.23" xlink:href="#lg3" y1="231.82" y2="231.82"/><linearGradient id="SVGID_9_" gradientUnits="userSpaceOnUse" x1="21.333" x2="194.7" xlink:href="#lg2" y1="293.1" y2="293.1"/><linearGradient id="SVGID_10_" gradientUnits="userSpaceOnUse" x1="234" x2="419.084" xlink:href="#lg2" y1="293.1" y2="293.1"/><linearGradient id="SVGID_11_" gradientUnits="userSpaceOnUse" x1="231.167" x2="392.233" xlink:href="#lg2" y1="158.099" y2="158.099"/><linearGradient id="SVGID_12_" gradientUnits="userSpaceOnUse" x1="49.606" x2="235.687" xlink:href="#lg2" y1="158.099" y2="158.099"/><linearGradient id="lg4"><stop offset="0" stop-color="#fe646f"/><stop offset=".593" stop-color="#fb2b3a"/><stop offset="1" stop-color="#c41926"/></linearGradient><linearGradient id="SVGID_13_" gradientUnits="userSpaceOnUse" x1="128.018" x2="169.515" xlink:href="#lg4" y1="73.509" y2="73.509"/><linearGradient id="SVGID_14_" gradientUnits="userSpaceOnUse" x1="183.051" x2="224.549" xlink:href="#lg3" y1="73.509" y2="73.509"/><linearGradient id="SVGID_15_" gradientUnits="userSpaceOnUse" x1="238.085" x2="279.582" xlink:href="#lg2" y1="73.509" y2="73.509"/><linearGradient id="SVGID_16_" gradientUnits="userSpaceOnUse" x1="293.118" x2="334.615" xlink:href="#lg3" y1="73.509" y2="73.509"/><linearGradient id="SVGID_17_" gradientUnits="userSpaceOnUse" x1="348.151" x2="389.649" xlink:href="#lg4" y1="73.509" y2="73.509"/><g><g><path d="m319.513 466.146h-129.026c-8.957 0-16.217-7.261-16.217-16.217v-44.366h161.46v44.366c0 8.956-7.26 16.217-16.217 16.217z" fill="url(#SVGID_1_)"/><path d="m310.719 405.563v44.366c0 8.957-7.261 16.217-16.218 16.217h25.011c8.957 0 16.218-7.261 16.218-16.217v-44.366z" fill="url(#SVGID_2_)"/></g><g><path d="m464.754 419.785h-419.508c-24.989 0-45.246-20.257-45.246-45.246v-285.439c0-24.989 20.257-45.246 45.246-45.246h419.509c24.988 0 45.245 20.257 45.245 45.246v285.439c0 24.989-20.257 45.246-45.246 45.246z" fill="url(#SVGID_3_)"/><path d="m57.787 349.421v-235.203c0-6.48 5.253-11.733 11.733-11.733h-25.011c-6.48 0-11.733 5.253-11.733 11.733v235.204c0 6.48 5.253 11.733 11.733 11.733h25.011c-6.48-.001-11.733-5.254-11.733-11.734z" fill="url(#SVGID_4_)"/><path d="m464.754 43.854h-40.02c24.988 0 45.246 20.257 45.246 45.246v285.439c0 24.989-20.257 45.246-45.246 45.246h40.02c24.988 0 45.246-20.257 45.246-45.246v-285.439c0-24.989-20.257-45.246-45.246-45.246z" fill="url(#SVGID_5_)"/><g><path d="m440.48 361.154h-370.96c-6.48 0-11.733-5.253-11.733-11.733v-235.203c0-6.48 5.253-11.733 11.733-11.733h370.96c6.48 0 11.733 5.253 11.733 11.733v235.204c0 6.479-5.253 11.732-11.733 11.732z" fill="url(#SVGID_6_)"/><path d="m440.48 102.485-374.291.487c-4.856 1.436-8.402 5.924-8.402 11.246v13.765h304.926c27.327 0 49.48 22.153 49.48 49.48v171.959c0 6.48-5.253 11.733-11.733 11.733h40.02c6.48 0 11.733-5.253 11.733-11.733v-235.204c0-6.48-5.253-11.733-11.733-11.733z" fill="url(#SVGID_7_)"/><g><path d="m237.711 218.662h32.62c6.524 0 10.222 6.307 10.222 13.266 0 5.872-3.045 12.831-10.222 12.831h-32.62v36.97h58.281c6.524 0 10.222 6.959 10.222 15.005 0 6.959-3.045 14.57-10.222 14.57h-77.418c-7.395 0-14.788-3.479-14.788-10.438v-138.092c0-6.959 7.394-10.438 14.788-10.438h77.418c7.177 0 10.222 7.611 10.222 14.57 0 8.046-3.697 15.005-10.222 15.005h-58.281z" fill="url(#SVGID_8_)"/></g><path d="m113.057 254.566c14.549 0 25.935 6.747 25.935 24.881v27.306c0 18.133-11.386 24.881-25.935 24.881h-18.66c-4.323 0-7.169-2.319-7.169-4.955v-67.157c0-2.636 2.846-4.955 7.169-4.955h18.66zm-9.383 14.338v48.391h9.383c5.904 0 9.489-3.374 9.489-10.542v-27.306c0-7.169-3.584-10.543-9.489-10.543z" fill="url(#SVGID_9_)"/><path d="m374.065 259.626c0-3.374 3.585-5.06 7.169-5.06h36.584c3.479 0 4.955 3.69 4.955 7.064 0 3.901-1.792 7.274-4.955 7.274h-27.306v17.817h15.919c3.163 0 4.955 3.057 4.955 6.431 0 2.847-1.476 6.22-4.955 6.22h-15.919v27.2c0 3.374-4.112 5.061-8.224 5.061s-8.224-1.687-8.224-5.061v-66.946z" fill="url(#SVGID_10_)"/><path d="m417.818 254.566h-5.625v14.338h5.625c3.163 0 4.955-3.374 4.955-7.274 0-3.374-1.476-7.064-4.955-7.064z" fill="#017b4e"/><g><path d="m386.189 148.956-27.424-15.833c-7.038-4.063-15.835 1.016-15.835 9.142v31.666c0 8.127 8.797 13.206 15.835 9.142l27.424-15.833c7.038-4.062 7.038-14.221 0-18.284z" fill="url(#SVGID_11_)"/><path d="m123.811 167.241 27.424 15.833c7.038 4.063 15.835-1.016 15.835-9.142v-31.666c0-8.127-8.797-13.206-15.835-9.142l-27.424 15.833c-7.038 4.062-7.038 14.221 0 18.284z" fill="url(#SVGID_12_)"/></g></g><g><circle cx="144.933" cy="73.509" fill="url(#SVGID_13_)" r="15.77"/><circle cx="199.967" cy="73.509" fill="url(#SVGID_14_)" r="15.77"/><circle cx="255" cy="73.509" fill="url(#SVGID_15_)" r="15.77"/><circle cx="310.033" cy="73.509" fill="url(#SVGID_16_)" r="15.77"/><circle cx="365.067" cy="73.509" fill="url(#SVGID_17_)" r="15.77"/></g></g></g></svg>