<svg id="Capa_1" enable-background="new 0 0 510 510" height="512" viewBox="0 0 510 510" width="512" xmlns="http://www.w3.org/2000/svg" xmlns:xlink="http://www.w3.org/1999/xlink"><linearGradient id="lg1"><stop offset="0" stop-color="#fef056"/><stop offset=".5213" stop-color="#fbc56d"/><stop offset="1" stop-color="#c86d36"/></linearGradient><linearGradient id="SVGID_1_" gradientUnits="userSpaceOnUse" x1="105.241" x2="388.257" xlink:href="#lg1" y1="177.759" y2="460.775"/><linearGradient id="SVGID_2_" gradientUnits="userSpaceOnUse" x1="59.488" x2="342.504" xlink:href="#lg1" y1="223.511" y2="506.527"/><linearGradient id="SVGID_3_" gradientUnits="userSpaceOnUse" x1="13.736" x2="296.752" xlink:href="#lg1" y1="269.264" y2="552.28"/><linearGradient id="lg2"><stop offset="0" stop-color="#fbc56d"/><stop offset=".593" stop-color="#dc8758"/><stop offset="1" stop-color="#9e5528"/></linearGradient><linearGradient id="SVGID_4_" gradientTransform="matrix(.707 .707 -.707 .707 830.749 -309.231)" gradientUnits="userSpaceOnUse" x1="-121.795" x2="-69.369" xlink:href="#lg2" y1="922.069" y2="922.069"/><linearGradient id="SVGID_5_" gradientTransform="matrix(.707 .707 -.707 .707 830.749 -309.231)" gradientUnits="userSpaceOnUse" x1="-138.462" x2="-86.036" xlink:href="#lg2" y1="857.365" y2="857.365"/><linearGradient id="SVGID_6_" gradientTransform="matrix(.707 .707 -.707 .707 830.749 -309.231)" gradientUnits="userSpaceOnUse" x1="-138.462" x2="-86.036" xlink:href="#lg2" y1="986.773" y2="986.773"/><linearGradient id="SVGID_7_" gradientTransform="matrix(.707 .707 -.707 .707 234.207 -997.05)" gradientUnits="userSpaceOnUse" x1="843.536" x2="1027.191" xlink:href="#lg1" y1="921.91" y2="921.91"/><linearGradient id="SVGID_8_" gradientTransform="matrix(.707 .707 -.707 .707 234.207 -997.05)" gradientUnits="userSpaceOnUse" x1="843.536" x2="1027.191" xlink:href="#lg1" y1="986.61" y2="986.61"/><linearGradient id="SVGID_9_" gradientTransform="matrix(.707 .707 -.707 .707 234.207 -997.05)" gradientUnits="userSpaceOnUse" x1="843.536" x2="1027.191" xlink:href="#lg1" y1="1051.32" y2="1051.32"/><linearGradient id="SVGID_10_" gradientUnits="userSpaceOnUse" x1="111.739" x2="316.239" xlink:href="#lg2" y1="273.261" y2="477.761"/><linearGradient id="SVGID_11_" gradientTransform="matrix(.707 .707 -.707 .707 234.207 -997.05)" gradientUnits="userSpaceOnUse" x1="806.802" x2="1043.014" xlink:href="#lg2" y1="984.844" y2="984.844"/><linearGradient id="SVGID_12_" gradientUnits="userSpaceOnUse" x1="116.17" x2="323.533" xlink:href="#lg1" y1="208.497" y2="415.86"/><linearGradient id="SVGID_13_" gradientTransform="matrix(.707 .707 -.707 .707 234.207 -997.05)" gradientUnits="userSpaceOnUse" x1="627.036" x2="1099.914" xlink:href="#lg1" y1="935.915" y2="935.915"/><linearGradient id="SVGID_14_" gradientTransform="matrix(.707 .707 -.707 .707 916.778 -374.4)" gradientUnits="userSpaceOnUse" x1="-72.282" x2="36.744" xlink:href="#lg2" y1="1214.922" y2="1214.922"/><linearGradient id="SVGID_15_" gradientTransform="matrix(.707 .707 -.707 .707 916.778 -374.4)" gradientUnits="userSpaceOnUse" x1="-157.664" x2="44.662" xlink:href="#lg2" y1="1214.922" y2="1214.922"/><linearGradient id="SVGID_16_" gradientTransform="matrix(.707 .707 -.707 .707 916.778 -374.4)" gradientUnits="userSpaceOnUse" x1="-195.405" x2="233.374" xlink:href="#lg1" y1="733.454" y2="733.454"/><linearGradient id="SVGID_17_" gradientTransform="matrix(.707 .707 -.707 .707 916.778 -374.4)" gradientUnits="userSpaceOnUse" x1="-93.062" x2="156.997" xlink:href="#lg1" y1="733.454" y2="733.454"/><g><g><g><path d="m342.316 397.156-176.367-176.367c-4.882-4.882-12.796-4.881-17.678 0-4.881 4.881-4.882 12.796 0 17.678l176.367 176.367c4.882 4.882 12.796 4.881 17.678 0s4.882-12.796 0-17.678z" fill="url(#SVGID_1_)"/><path d="m130.05 276.395c-4.882-4.882-12.796-4.881-17.678 0-4.881 4.881-4.882 12.796 0 17.678l166.513 166.514c4.882 4.882 12.796 4.881 17.678 0 4.881-4.882 4.882-12.796 0-17.678z" fill="url(#SVGID_2_)"/><path d="m74.444 312.294c-4.882-4.882-12.796-4.881-17.678 0-4.881 4.881-4.882 12.796 0 17.678l176.367 176.367c4.882 4.882 12.796 4.881 17.678 0 4.881-4.881 4.882-12.796 0-17.678z" fill="url(#SVGID_3_)"/></g><path d="m97.695 299.912c-6.509-6.509-6.509-17.061 0-23.57l14.624-14.624c6.509-6.509 17.061-6.509 23.57 0 6.509 6.509 6.509 17.061 0 23.57l-14.624 14.624c-6.508 6.508-17.061 6.508-23.57 0z" fill="url(#SVGID_4_)"/><path d="m131.663 242.374c-6.509-6.509-6.509-17.061 0-23.57l14.624-14.624c6.509-6.509 17.061-6.509 23.57 0 6.509 6.509 6.509 17.061 0 23.57l-14.624 14.624c-6.509 6.509-17.062 6.509-23.57 0z" fill="url(#SVGID_5_)"/><path d="m40.158 333.879c-6.509-6.509-6.509-17.061 0-23.57l14.624-14.624c6.509-6.509 17.061-6.509 23.57 0 6.509 6.509 6.509 17.061 0 23.57l-14.624 14.624c-6.509 6.509-17.062 6.509-23.57 0z" fill="url(#SVGID_6_)"/></g><g><path d="m300.099 354.943-17.677 17.677 21.573 21.574 17.678-17.678z" fill="url(#SVGID_7_)"/><path d="m236.672 418.37 21.574 21.574 17.677-17.678-21.573-21.574z" fill="url(#SVGID_8_)"/><path d="m190.915 464.127 21.574 21.574 17.678-17.678-21.574-21.574z" fill="url(#SVGID_9_)"/></g><path d="m187.982 510c-17.757 0-34.452-6.915-47.008-19.472s-19.472-29.251-19.472-47.008 6.916-34.451 19.472-47.008l94.015-94.016c25.921-25.921 68.096-25.919 94.017 0 12.557 12.557 19.471 29.251 19.471 47.008 0 17.758-6.914 34.452-19.471 47.009l-94.016 94.015c-12.555 12.557-29.25 19.472-47.008 19.472zm94.016-201.955c-10.622 0-21.244 4.044-29.33 12.13l-94.015 94.016c-7.834 7.834-12.149 18.251-12.149 29.33s4.315 21.496 12.149 29.33c7.834 7.835 18.251 12.149 29.33 12.149 11.08 0 21.496-4.314 29.331-12.149l94.016-94.015c16.173-16.173 16.173-42.488 0-58.661-8.088-8.086-18.71-12.13-29.332-12.13z" fill="url(#SVGID_10_)"/><path d="m348.477 349.505c0-17.757-6.914-34.451-19.471-47.008-3.011-3.011-6.249-5.656-9.647-7.968 7.429 10.918 11.433 23.794 11.433 37.29 0 16.988-6.342 32.993-17.884 45.343-.509.568-1.033 1.128-1.579 1.673l-94.016 94.015c-.543.543-1.101 1.065-1.669 1.574-12.35 11.545-28.357 17.889-45.347 17.889-13.513 0-26.404-4.014-37.331-11.462 2.339 3.432 5.008 6.675 8.008 9.676 12.557 12.558 29.251 19.473 47.008 19.473 17.758 0 34.452-6.915 47.008-19.472l94.016-94.015c12.557-12.556 19.471-29.25 19.471-47.008z" fill="url(#SVGID_11_)"/><path d="m484.409 242.081-216.49-216.49-.497 87.477c-.324 57.054-23.133 111.678-63.476 152.022l-182.919 182.919 40.964 40.964 182.919-182.919c40.344-40.344 94.968-63.152 152.022-63.476z" fill="url(#SVGID_12_)"/><path d="m484.407 242.081-56.286.325-31.19.177c-57.056.318-111.673 23.129-152.021 63.477l-182.915 182.914-28.298-28.298 182.914-182.914c40.348-40.348 94.964-63.159 152.021-63.477 11.567-.066 17.314-14.053 9.135-22.232l-110.173-110.174.325-56.286z" fill="url(#SVGID_13_)"/><g><path d="m76.219 503.201c-9.065 9.065-23.763 9.065-32.828 0l-36.592-36.592c-9.065-9.065-9.065-23.763 0-32.828 9.065-9.065 23.763-9.065 32.828 0l36.592 36.592c9.065 9.065 9.065 23.763 0 32.828z" fill="url(#SVGID_14_)"/><path d="m76.219 470.373-28.559-28.56c9.065 9.065 9.065 23.763 0 32.828-9.065 9.065-23.763 9.065-32.828 0l28.559 28.559c9.065 9.065 23.763 9.065 32.828 0 9.065-9.064 9.065-23.762 0-32.827z" fill="url(#SVGID_15_)"/></g><g><path d="m503.201 249.284c-9.065 9.065-23.763 9.065-32.828 0l-209.657-209.657c-9.065-9.065-9.065-23.763 0-32.828 9.065-9.065 23.763-9.065 32.828 0l209.657 209.657c9.065 9.065 9.065 23.763 0 32.828z" fill="url(#SVGID_16_)"/><path d="m503.201 216.455-28.559-28.559c9.065 9.065 9.065 23.763 0 32.828-9.065 9.065-23.763 9.065-32.828 0l28.559 28.559c9.065 9.065 23.763 9.065 32.828 0 9.065-9.064 9.065-23.762 0-32.828z" fill="url(#SVGID_17_)"/></g></g></svg>