<svg id="Capa_1" enable-background="new 0 0 510 510" height="512" viewBox="0 0 510 510" width="512" xmlns="http://www.w3.org/2000/svg" xmlns:xlink="http://www.w3.org/1999/xlink"><linearGradient id="lg1"><stop offset="0" stop-color="#bbec6c"/><stop offset=".5857" stop-color="#78a91f"/><stop offset="1" stop-color="#02905d"/></linearGradient><linearGradient id="SVGID_1_" gradientUnits="userSpaceOnUse" x1="180.957" x2="695.055" xlink:href="#lg1" y1="282.172" y2="282.172"/><linearGradient id="SVGID_2_" gradientUnits="userSpaceOnUse" x1="192" x2="532.376" xlink:href="#lg1" y1="282.165" y2="282.165"/><linearGradient id="lg2"><stop offset="0" stop-color="#fe646f"/><stop offset=".593" stop-color="#fb2b3a"/><stop offset="1" stop-color="#c41926"/></linearGradient><linearGradient id="SVGID_3_" gradientUnits="userSpaceOnUse" x1="65.691" x2="385.817" xlink:href="#lg2" y1="291.815" y2="291.815"/><linearGradient id="SVGID_4_" gradientUnits="userSpaceOnUse" x1="-9" x2="316.014" xlink:href="#lg2" y1="291.82" y2="291.82"/><linearGradient id="lg3"><stop offset="0" stop-color="#fef056"/><stop offset=".5213" stop-color="#fbc56d"/><stop offset="1" stop-color="#c86d36"/></linearGradient><linearGradient id="SVGID_5_" gradientUnits="userSpaceOnUse" x1="75.161" x2="273.005" xlink:href="#lg3" y1="80.335" y2="80.335"/><linearGradient id="SVGID_6_" gradientUnits="userSpaceOnUse" x1="-53" x2="267.306" xlink:href="#lg3" y1="80.335" y2="80.335"/><linearGradient id="SVGID_7_" gradientUnits="userSpaceOnUse" x1="14" x2="206.296" xlink:href="#lg2" y1="362.149" y2="362.149"/><linearGradient id="SVGID_8_" gradientUnits="userSpaceOnUse" x1="86" x2="204.004" y1="349.649" y2="349.649"><stop offset="0" stop-color="#f8f6f7"/><stop offset=".1788" stop-color="#f8f6f7"/><stop offset="1" stop-color="#e7e6f5"/></linearGradient><g><path d="m293.923 87.479c-6.673-6.673-15.721-10.424-25.158-10.43l-121.151-.082-62.969 62.969.082 121.151c.006 9.437 3.758 18.485 10.43 25.158l189.847 189.847c15.05 15.05 39.451 15.05 54.501 0l144.265-144.266c15.05-15.05 15.05-39.451 0-54.501zm-116.119 82.646c-12.365 12.365-32.413 12.365-44.778 0s-12.365-32.413 0-44.778 32.413-12.365 44.778 0 12.365 32.413 0 44.778z" fill="url(#SVGID_1_)"/><path d="m483.769 277.325-189.846-189.846c-6.673-6.673-15.721-10.424-25.158-10.43l-67.924-.046-29.872-.02-23.354-.016-.027.027 12.588.009c-8.842 3.01-17.152 8.031-24.199 15.087l-51.329 51.398.079 117.599c.006 9.437 3.758 18.485 10.43 25.158l189.847 189.847c8.634 8.634 20.345 12.3 31.604 11.027.005.002 1.183-.143 1.184-.147 7.944-1.145 15.6-4.767 21.712-10.88l144.266-144.266c15.05-15.05 15.049-39.451-.001-54.501zm-305.965-107.2c-12.365 12.365-32.413 12.365-44.778 0s-12.365-32.413 0-44.778 32.413-12.365 44.778 0 12.365 32.413 0 44.778zm265.946 161.701-122.699 122.699v-251.546c0-9.437-3.745-18.487-10.414-25.165l-85.609-85.724c-7.025-7.034-15.304-12.046-24.114-15.06l27.831.019c9.437.006 18.485 3.758 25.158 10.43l189.847 189.846c15.049 15.05 15.049 39.451 0 54.501z" fill="url(#SVGID_2_)"/><path d="m296.04 202.979c0-9.437-3.745-18.487-10.414-25.165l-85.609-85.724c-24.581-24.614-64.47-24.614-89.052 0l-85.609 85.724c-6.668 6.677-10.414 15.728-10.414 25.165v268.484c0 21.284 17.254 38.538 38.538 38.538h204.021c21.284 0 38.538-17.254 38.538-38.538zm-140.549-23.669c-17.487 0-31.663-14.176-31.663-31.663s14.176-31.663 31.663-31.663 31.663 14.176 31.663 31.663-14.176 31.663-31.663 31.663z" fill="url(#SVGID_3_)"/><path d="m296.04 202.979c0-9.437-3.745-18.487-10.414-25.164l-85.609-85.725c-17.45-17.473-42.61-22.528-64.536-15.193 8.961 2.998 17.384 8.052 24.516 15.193l42.306 42.363c-3.001 2.393-6.303 4.421-9.856 5.993-1.841.819-3.752 1.504-5.712 2.073.272 1.67.419 3.381.419 5.128 0 15.021-10.463 27.59-24.497 30.839 3.751.539 7.582.83 11.479.83 10.95 0 21.4-2.2 30.92-6.19 1.321-.553 2.624-1.14 3.908-1.76 12.281-5.933 27.004-3.202 36.641 6.448 6.668 6.677 10.414 15.728 10.414 25.165v268.483c0 21.284-17.254 38.538-38.538 38.538h40.02c21.284 0 38.538-17.254 38.538-38.538z" fill="url(#SVGID_4_)"/><path d="m155.491 0c-44.3 0-80.33 36.04-80.33 80.33 0 13.75 3.47 26.7 9.58 38.02l26.22-26.26c.2-.2.39-.39.59-.58-.91-3.58-1.39-7.32-1.39-11.18 0-24.99 20.33-45.33 45.33-45.33s45.33 20.34 45.33 45.33c0 3.86-.48 7.6-1.39 11.18-3.46 13.57-13.04 24.72-25.63 30.29-5.6 2.49-11.8 3.87-18.31 3.87s-12.71-1.38-18.31-3.87c-8.08 5.75-13.35 15.18-13.35 25.85 0 2.34.25 4.63.74 6.83 9.52 3.99 19.97 6.19 30.92 6.19s21.4-2.2 30.92-6.19c17.04-7.13 31.12-19.98 39.83-36.13 6.11-11.32 9.58-24.27 9.58-38.02 0-44.29-36.03-80.33-80.33-80.33z" fill="url(#SVGID_5_)"/><path d="m155.491 0c-4.254 0-8.429.339-12.505.979 38.379 6.025 67.825 39.314 67.825 79.351 0 13.75-3.47 26.7-9.58 38.02-8.71 16.15-22.79 29-39.83 36.13-5.822 2.44-11.995 4.202-18.414 5.209 4.077.64 8.252.981 12.505.981 10.95 0 21.4-2.2 30.92-6.19 17.04-7.13 31.12-19.98 39.83-36.13 6.11-11.32 9.58-24.27 9.58-38.02-.001-44.29-36.031-80.33-80.331-80.33z" fill="url(#SVGID_6_)"/><path d="m114.774 504.913c-14.743 0-26.738-11.995-26.738-26.738 0-6.903 5.596-12.5 12.5-12.5 6.903 0 12.5 5.597 12.5 12.5 0 .959.78 1.738 1.738 1.738s1.738-.779 1.738-1.738v-34.542c-12.022-2.877-23.416-8.996-32.779-18.359-23.397-23.397-28.29-55.02-13.088-84.591 6.936-13.49 17.667-25.031 31.034-33.374l14.833-9.26v-47.135c0-17.386 14.144-31.529 31.53-31.529s31.53 14.144 31.53 31.529c0 23.321-11.811 44.616-31.594 56.964l-6.466 4.036v17.426c14.341-1.68 29.289 2.979 40.27 13.959 10.948 10.948 16.977 25.504 16.977 40.987s-6.029 30.039-16.977 40.987c-11.291 11.29-25.535 17.864-40.27 19.724v33.178c0 14.743-11.994 26.738-26.738 26.738zm26.738-92.499v7.279c8.286-1.656 16.182-5.688 22.592-12.098 12.853-12.853 12.853-33.767 0-46.619-6.115-6.116-14.749-8.213-22.592-6.293v32.32c1.49-.516 2.887-1.367 4.075-2.555 4.882-4.881 12.797-4.881 17.678.001s4.881 12.796-.001 17.677c-6.073 6.074-13.806 9.503-21.752 10.288zm-25-84.895-1.596.996c-9.543 5.957-17.163 14.116-22.038 23.597-10.28 19.997-7.25 39.702 8.532 55.483 4.44 4.44 9.598 7.74 15.102 9.899v-12.031c-1.341-1.006-2.626-2.117-3.845-3.337-16.219-16.219-16.219-42.609 0-58.828 1.234-1.234 2.518-2.388 3.846-3.462v-12.317zm31.53-83.134c-3.601 0-6.53 2.929-6.53 6.529v30.523c8.292-7.863 13.06-18.785 13.06-30.523 0-3.601-2.929-6.529-6.53-6.529z" fill="url(#SVGID_7_)"/><path d="m132.774 492.413c-14.743 0-26.738-11.995-26.738-26.738 0-6.903 5.596-12.5 12.5-12.5 6.903 0 12.5 5.597 12.5 12.5 0 .959.78 1.738 1.738 1.738s1.738-.779 1.738-1.738v-34.542c-12.022-2.877-23.416-8.996-32.779-18.359-23.397-23.397-28.29-55.02-13.088-84.591 6.936-13.49 17.667-25.031 31.034-33.374l14.834-9.26v-47.135c0-17.386 14.144-31.529 31.53-31.529s31.53 14.144 31.53 31.529c0 23.321-11.811 44.616-31.594 56.964l-6.466 4.036v17.426c14.341-1.68 29.289 2.979 40.27 13.959 10.948 10.948 16.977 25.504 16.977 40.987s-6.029 30.039-16.977 40.987c-11.291 11.29-25.535 17.864-40.27 19.724v33.178c-.001 14.743-11.995 26.738-26.739 26.738zm26.738-92.499v7.279c8.286-1.656 16.182-5.688 22.592-12.098 12.853-12.853 12.853-33.767 0-46.619-6.115-6.116-14.749-8.213-22.592-6.293v32.32c1.49-.516 2.887-1.367 4.075-2.555 4.882-4.881 12.797-4.881 17.678.001s4.881 12.796-.001 17.677c-6.073 6.074-13.806 9.503-21.752 10.288zm-25-84.894-1.596.996c-9.543 5.957-17.163 14.116-22.038 23.597-10.28 19.997-7.25 39.702 8.532 55.483 4.44 4.44 9.598 7.74 15.102 9.899v-12.031c-1.341-1.006-2.626-2.117-3.845-3.337-16.219-16.219-16.219-42.609 0-58.828 1.234-1.234 2.518-2.388 3.846-3.462v-12.317zm31.53-83.135c-3.601 0-6.53 2.929-6.53 6.529v30.523c8.292-7.863 13.06-18.785 13.06-30.523 0-3.601-2.929-6.529-6.53-6.529z" fill="url(#SVGID_8_)"/></g></svg>