<svg id="Capa_1" enable-background="new 0 0 510 510" height="512" viewBox="0 0 510 510" width="512" xmlns="http://www.w3.org/2000/svg" xmlns:xlink="http://www.w3.org/1999/xlink"><linearGradient id="lg1"><stop offset="0" stop-color="#fef056"/><stop offset=".5213" stop-color="#fbc56d"/><stop offset="1" stop-color="#c86d36"/></linearGradient><linearGradient id="SVGID_1_" gradientUnits="userSpaceOnUse" x1="54.217" x2="570.751" xlink:href="#lg1" y1="272.734" y2="272.734"/><linearGradient id="SVGID_2_" gradientUnits="userSpaceOnUse" x1="-53" x2="551.744" xlink:href="#lg1" y1="272.735" y2="272.735"/><linearGradient id="lg2"><stop offset="0" stop-color="#fbc56d"/><stop offset=".593" stop-color="#dc8758"/><stop offset="1" stop-color="#9e5528"/></linearGradient><linearGradient id="SVGID_3_" gradientUnits="userSpaceOnUse" x1="200.648" x2="340.473" xlink:href="#lg2" y1="166.074" y2="166.074"/><linearGradient id="SVGID_4_" gradientUnits="userSpaceOnUse" x1="136" x2="367.034" xlink:href="#lg2" y1="166.075" y2="166.075"/><linearGradient id="SVGID_5_" gradientUnits="userSpaceOnUse" x1="44.825" x2="240.952" xlink:href="#lg2" y1="154.981" y2="154.981"/><linearGradient id="SVGID_6_" gradientUnits="userSpaceOnUse" x1="3" x2="189.078" xlink:href="#lg2" y1="154.98" y2="154.98"/><linearGradient id="SVGID_7_" gradientUnits="userSpaceOnUse" x1="302.701" x2="498.828" xlink:href="#lg2" y1="154.981" y2="154.981"/><linearGradient id="SVGID_8_" gradientUnits="userSpaceOnUse" x1="277.7" x2="473.829" xlink:href="#lg2" y1="154.983" y2="154.983"/><linearGradient id="lg3"><stop offset="0" stop-color="#f8f6f7"/><stop offset=".1788" stop-color="#f8f6f7"/><stop offset="1" stop-color="#e7e6f5"/></linearGradient><linearGradient id="SVGID_9_" gradientUnits="userSpaceOnUse" x1="60" x2="449.051" xlink:href="#lg3" y1="71.422" y2="71.422"/><linearGradient id="lg4"><stop offset="0" stop-color="#f8f6f7"/><stop offset="1" stop-color="#d1ceeb"/></linearGradient><linearGradient id="SVGID_10_" gradientUnits="userSpaceOnUse" x1="-48.812" x2="433.012" xlink:href="#lg4" y1="71.424" y2="71.424"/><linearGradient id="SVGID_11_" gradientUnits="userSpaceOnUse" x1="72.838" x2="448.388" xlink:href="#lg3" y1="28.144" y2="28.144"/><linearGradient id="SVGID_12_" gradientUnits="userSpaceOnUse" x1="206.831" x2="487.417" xlink:href="#lg4" y1="28.144" y2="28.144"/><linearGradient id="SVGID_13_" gradientUnits="userSpaceOnUse" x1="149.391" x2="411.885" xlink:href="#lg2" y1="486.787" y2="486.787"/><linearGradient id="SVGID_14_" gradientUnits="userSpaceOnUse" x1="118.337" x2="368.396" xlink:href="#lg2" y1="486.787" y2="486.787"/><g><path d="m416.397 53.749h-322.795l-11.293 25.757c-43.365 98.901-34.295 212.951 24.157 303.756l57.877 89.911c7.441 11.56 20.247 18.547 33.996 18.547h113.323c13.748 0 26.554-6.986 33.996-18.547l57.877-89.911c58.452-90.804 67.522-204.854 24.157-303.756z" fill="url(#SVGID_1_)"/><path d="m444.48 127.94c-4.26-16.43-9.86-32.62-16.79-48.43l-11.29-25.76h-322.8l-11.29 25.76c-6.93 15.81-12.53 32-16.79 48.43 3.9 7.66 10 14.35 18.13 19.02 4.22 2.43 8.88 3.61 13.5 3.61 7.02 0 13.96-2.72 19.18-7.94l4.49-4.49c10.58-10.59 27.75-10.59 38.34 0 3.876 3.883 8.638 6.332 13.633 7.367.079 35.377 4.737 70.543 13.857 101.183l.66 2.22c5.21 17.49 21.29 29.49 39.55 29.49 18.25 0 34.34-12 39.54-29.49l.66-2.22c10.172-34.171 14.812-73.964 13.715-113.413 3.923-2.052 8.244-3.077 12.565-3.077 6.94 0 13.88 2.64 19.17 7.94s12.23 7.94 19.17 7.94c6.384 0 12.772-2.246 17.875-6.742l12.489 22.869c13.435 24.601 23.795 50.907 31.028 78.156 2.617 9.858 10.224 14.962 18.233 15.732-6.612 44.654-22.623 88.063-47.795 127.164l-57.87 89.91c-7.44 11.56-20.25 18.55-34 18.55h40.02c13.75 0 26.56-6.99 34-18.55l57.87-89.91c49.12-76.289 63.37-168.989 40.95-255.319z" fill="url(#SVGID_2_)"/><path d="m255 278.398c18.255 0 34.341-11.996 39.548-29.492l.66-2.218c15.823-53.168 18.278-119.948 6.539-177.858l-3.057-15.081h-87.38l-3.057 15.081c-11.739 57.91-9.284 124.689 6.539 177.858l.66 2.218c5.207 17.497 21.292 29.492 39.548 29.492z" fill="url(#SVGID_3_)"/><path d="m295.21 246.69-.66 2.22c-5.21 17.49-21.29 29.49-39.55 29.49-4.33 0-8.54-.67-12.5-1.94 12.76-4.06 23.07-14.21 27.04-27.55l.66-2.22c10.29-34.57 14.92-74.89 13.68-114.79-3.55 1.31-6.87 3.39-9.71 6.24-5.29 5.3-12.23 7.94-19.17 7.94s-13.88-2.64-19.17-7.94-12.23-7.94-19.17-7.94c-5.49 0-10.97 1.65-15.64 4.97.52-22.57 2.92-45.05 7.23-66.34l3.06-15.08h87.38l3.06 15.08c4.31 21.29 6.71 43.77 7.23 66.34.9 38.83-3.77 77.9-13.77 111.52z" fill="url(#SVGID_4_)"/><path d="m118.985 162.207 49.102-89.911c6.313-11.56 17.178-18.547 28.841-18.547h-113.326l-11.293 25.757c-22.014 50.207-30.513 104.317-25.898 157.308 2.068 23.745 35.432 26.587 41.547 3.55 7.233-27.25 17.593-53.556 31.027-78.157z" fill="url(#SVGID_5_)"/><path d="m196.93 53.75c-11.66 0-22.53 6.99-28.84 18.55l-31.76 58.15-17.34 31.76c-13.44 24.6-23.8 50.9-31.03 78.15-4.3 16.2-22.07 19.6-32.96 11.94 3.63-2.62 6.53-6.58 7.95-11.94 7.23-27.25 17.59-53.55 31.02-78.15l6.47-11.85c-1.09.14-2.19.21-3.29.21-4.62 0-9.28-1.18-13.5-3.61-13.95-8.02-21.93-21.97-23.04-36.56 3.35-10.43 7.25-20.74 11.7-30.89l3.07-7 8.22-18.76z" fill="url(#SVGID_6_)"/><path d="m341.912 72.296 49.102 89.911c13.435 24.6 23.795 50.907 31.028 78.157 6.115 23.037 39.479 20.194 41.547-3.55 4.614-52.991-3.884-107.101-25.898-157.308l-11.293-25.756h-113.328c11.664-.001 22.528 6.986 28.842 18.546z" fill="url(#SVGID_7_)"/><path d="m463.59 236.81c-1.59 18.23-21.61 24.14-33.6 15.49 4.6-3.23 7.97-8.44 8.59-15.49 2.73-31.41.86-63.22-5.71-94.37-2 1.66-4.18 3.17-6.52 4.52-10.62 6.11-24.02 4.33-32.68-4.33l-4.49-4.49c-4.36-4.37-9.83-6.93-15.51-7.69l-31.76-58.15c-6.31-11.56-17.18-18.55-28.84-18.55h113.33l8.22 18.76 3.07 7c4.45 10.15 8.35 20.46 11.7 30.89 13.22 41.15 17.88 84.13 14.2 126.41z" fill="url(#SVGID_8_)"/><path d="m438.183 51.591-29.832-34.306h-306.703l-29.832 34.306c-19.085 21.948-13.382 55.86 11.832 70.358 10.621 6.107 24.018 4.331 32.682-4.332l4.487-4.487c10.587-10.587 27.751-10.587 38.338 0 10.587 10.587 27.751 10.587 38.338 0 10.587-10.587 27.751-10.587 38.338 0 10.587 10.587 27.751 10.587 38.338 0 10.587-10.587 27.751-10.587 38.338 0 10.587 10.587 27.751 10.587 38.338 0 10.587-10.587 27.751-10.587 38.338 0l4.487 4.487c8.663 8.663 22.061 10.439 32.682 4.332 25.214-14.498 30.917-48.41 11.831-70.358z" fill="url(#SVGID_9_)"/><path d="m449.53 81.84c0 15.84-8.1 31.44-23.18 40.11-8.17 4.7-17.99 4.73-26.03.55.34-.17.68-.36 1.02-.55 15.08-8.67 23.18-24.27 23.18-40.11 0-.031 0-.062 0-.093-.007-3.732-4.114-5.995-7.354-4.142-4.11 2.351-8.872 3.696-13.946 3.696h-296.44c-7.77 0-14.8-3.15-19.9-8.24-5.09-5.1-8.24-12.14-8.24-19.91 0-4.75 1.18-9.22 3.26-13.15l19.75-22.71h306.7l29.83 34.3c7.68 8.829 11.35 19.589 11.35 30.249z" fill="url(#SVGID_10_)"/><g><path d="m403.219 0h-296.439c-15.543 0-28.143 12.6-28.143 28.144 0 15.543 12.6 28.144 28.144 28.144h296.438c15.543 0 28.144-12.6 28.144-28.144 0-15.544-12.601-28.144-28.144-28.144z" fill="url(#SVGID_11_)"/><path d="m403.219 0h-40.02c15.543 0 28.144 12.6 28.144 28.144 0 15.543-12.6 28.144-28.144 28.144h40.02c15.543 0 28.144-12.6 28.144-28.144 0-15.544-12.601-28.144-28.144-28.144z" fill="url(#SVGID_12_)"/></g><g><path d="m359.967 486.787c0 12.82-10.393 23.213-23.213 23.213h-163.509c-12.82 0-23.213-10.393-23.213-23.213 0-12.82 10.393-23.213 23.213-23.213h163.509c12.82 0 23.213 10.392 23.213 23.213z" fill="url(#SVGID_13_)"/><path d="m336.754 463.574h-40.389c12.82 0 23.213 10.393 23.213 23.213 0 12.82-10.393 23.213-23.213 23.213h40.389c12.82 0 23.213-10.393 23.213-23.213 0-12.82-10.393-23.213-23.213-23.213z" fill="url(#SVGID_14_)"/></g></g></svg>