<svg id="Capa_1" enable-background="new 0 0 510 510" height="512" viewBox="0 0 510 510" width="512" xmlns="http://www.w3.org/2000/svg" xmlns:xlink="http://www.w3.org/1999/xlink"><linearGradient id="lg1"><stop offset="0" stop-color="#537983"/><stop offset=".593" stop-color="#554e56"/><stop offset="1" stop-color="#433f43"/></linearGradient><linearGradient id="SVGID_1_" gradientUnits="userSpaceOnUse" x1="324.667" x2="480.013" xlink:href="#lg1" y1="294.87" y2="294.87"/><linearGradient id="SVGID_2_" gradientUnits="userSpaceOnUse" x1="-30.726" x2="124.62" xlink:href="#lg1" y1="326.75" y2="326.75"/><linearGradient id="lg2"><stop offset="0" stop-color="#bbec6c"/><stop offset=".5857" stop-color="#78a91f"/><stop offset="1" stop-color="#02905d"/></linearGradient><linearGradient id="SVGID_3_" gradientUnits="userSpaceOnUse" x1="112.372" x2="305.707" xlink:href="#lg2" y1="165.761" y2="165.761"/><linearGradient id="SVGID_4_" gradientUnits="userSpaceOnUse" x1="25.654" x2="312.805" xlink:href="#lg2" y1="165.76" y2="165.76"/><linearGradient id="lg3"><stop offset="0" stop-color="#fef056"/><stop offset=".5213" stop-color="#fbc56d"/><stop offset="1" stop-color="#c86d36"/></linearGradient><linearGradient id="SVGID_5_" gradientUnits="userSpaceOnUse" x1="89.844" x2="294.312" xlink:href="#lg3" y1="123.924" y2="123.924"/><linearGradient id="SVGID_6_" gradientUnits="userSpaceOnUse" x1="109.154" x2="286.961" xlink:href="#lg3" y1="207.598" y2="207.598"/><linearGradient id="SVGID_7_" gradientUnits="userSpaceOnUse" x1="266.714" x2="460.05" xlink:href="#lg2" y1="165.761" y2="165.761"/><linearGradient id="SVGID_8_" gradientUnits="userSpaceOnUse" x1="180" x2="467.151" xlink:href="#lg2" y1="165.76" y2="165.76"/><linearGradient id="SVGID_9_" gradientUnits="userSpaceOnUse" x1="244.186" x2="448.654" xlink:href="#lg3" y1="123.924" y2="123.924"/><linearGradient id="SVGID_10_" gradientUnits="userSpaceOnUse" x1="263.496" x2="441.304" xlink:href="#lg3" y1="207.598" y2="207.598"/><linearGradient id="SVGID_11_" gradientUnits="userSpaceOnUse" x1="-45.106" x2="207.66" xlink:href="#lg1" y1="480.89" y2="480.89"/><linearGradient id="SVGID_12_" gradientTransform="matrix(-1 0 0 1 -256.879 0)" gradientUnits="userSpaceOnUse" x1="-811.985" x2="-559.219" xlink:href="#lg1" y1="480.89" y2="480.89"/><linearGradient id="SVGID_13_" gradientUnits="userSpaceOnUse" x1="91.368" x2="497.005" xlink:href="#lg2" y1="346.368" y2="346.368"/><linearGradient id="SVGID_14_" gradientUnits="userSpaceOnUse" x1="-13.396" x2="431.151" xlink:href="#lg2" y1="346.368" y2="346.368"/><linearGradient id="SVGID_15_" gradientUnits="userSpaceOnUse" x1="132.267" x2="436.518" y1="346.368" y2="346.368"><stop offset="0" stop-color="#f8f6f7"/><stop offset=".1788" stop-color="#f8f6f7"/><stop offset="1" stop-color="#e7e6f5"/></linearGradient><linearGradient id="SVGID_16_" gradientUnits="userSpaceOnUse" x1="156.994" x2="424.592" y1="346.368" y2="346.368"><stop offset="0" stop-color="#f8f6f7"/><stop offset="1" stop-color="#d1ceeb"/></linearGradient><linearGradient id="SVGID_17_" gradientUnits="userSpaceOnUse" x1="180.96" x2="579.849" xlink:href="#lg3" y1="67.464" y2="67.464"/><linearGradient id="SVGID_18_" gradientUnits="userSpaceOnUse" x1="152.5" x2="517.697" xlink:href="#lg3" y1="67.464" y2="67.464"/><linearGradient id="SVGID_19_" gradientUnits="userSpaceOnUse" x1="289.929" x2="515.511" xlink:href="#lg3" y1="41.716" y2="41.716"/><linearGradient id="SVGID_20_" gradientUnits="userSpaceOnUse" x1="321.778" x2="488.485" xlink:href="#lg1" y1="18.009" y2="18.009"/><linearGradient id="SVGID_21_" gradientTransform="matrix(.707 -.707 .707 .707 552.142 -588.345)" gradientUnits="userSpaceOnUse" x1="-960.26" x2="-706.861" xlink:href="#lg1" y1="167.876" y2="167.876"/><linearGradient id="SVGID_22_" gradientUnits="userSpaceOnUse" x1="-90.385" x2="308.504" xlink:href="#lg3" y1="67.464" y2="67.464"/><linearGradient id="SVGID_23_" gradientUnits="userSpaceOnUse" x1="-118.845" x2="246.352" xlink:href="#lg3" y1="67.464" y2="67.464"/><linearGradient id="SVGID_24_" gradientUnits="userSpaceOnUse" x1="18.584" x2="222.251" xlink:href="#lg3" y1="41.716" y2="41.716"/><linearGradient id="SVGID_25_" gradientUnits="userSpaceOnUse" x1="50.433" x2="217.14" xlink:href="#lg1" y1="18.009" y2="18.009"/><g><path d="m448.902 492.929-35.29-35.29v-367.899c0-5.523-4.478-10-10-10-5.523 0-10 4.477-10 10v367.899l-35.29 35.29c-3.905 3.905-3.905 10.237 0 14.142 3.905 3.905 10.237 3.905 14.142 0l31.148-31.148 31.148 31.148c3.905 3.905 10.237 3.905 14.142 0 3.905-3.905 3.905-10.237 0-14.142z" fill="url(#SVGID_1_)"/><path d="m93.509 492.929-35.29-35.29v-304.139c0-5.523-10-10-10-10-5.523 0-10 4.477-10 10v304.139l-35.29 35.29c-3.905 3.905-3.905 10.237 0 14.142 3.905 3.905 10.237 3.905 14.142 0l31.148-31.148 31.148 31.148c3.905 3.905 10.237 3.905 14.142 0 3.905-3.905 3.905-10.237 0-14.142z" fill="url(#SVGID_2_)"/><g><g><path d="m115.234 123.924h125.19v83.674h-125.19z" fill="url(#SVGID_3_)"/><path d="m240.424 123.92v83.68h-25.01v-13.795c0-18.117-14.687-32.804-32.804-32.804h-67.376v-37.08h125.19z" fill="url(#SVGID_4_)"/><path d="m253.158 123.924c0-6.665-5.403-12.068-12.068-12.068h-126.521c-6.665 0-12.068 5.403-12.068 12.069 0 6.665 5.403 12.068 12.068 12.068h126.521c6.665-.001 12.068-5.404 12.068-12.069z" fill="url(#SVGID_5_)"/><path d="m253.158 207.597c0-6.665-5.403-12.068-12.068-12.068h-126.521c-6.665 0-12.068 5.403-12.068 12.069 0 6.665 5.403 12.068 12.068 12.068h126.521c6.665 0 12.068-5.404 12.068-12.069z" fill="url(#SVGID_6_)"/></g><g><path d="m269.576 123.924h125.19v83.674h-125.19z" fill="url(#SVGID_7_)"/><path d="m394.77 123.92v83.68h-25.01v-13.795c0-18.117-14.687-32.804-32.804-32.804h-67.376v-37.08h125.19z" fill="url(#SVGID_8_)"/><path d="m407.5 123.924c0-6.665-5.403-12.068-12.068-12.068h-126.521c-6.665 0-12.068 5.403-12.068 12.069 0 6.665 5.403 12.068 12.068 12.068h126.521c6.665-.001 12.068-5.404 12.068-12.069z" fill="url(#SVGID_9_)"/><path d="m407.5 207.597c0-6.665-5.403-12.068-12.068-12.068h-126.521c-6.665 0-12.068 5.403-12.068 12.069 0 6.665 5.403 12.068 12.068 12.068h126.521c6.665 0 12.068-5.404 12.068-12.069z" fill="url(#SVGID_10_)"/></g></g><g><g><path d="m169.645 454.71c-3.905-3.905-10.237-3.905-14.142 0l-38.219 38.219c-3.905 3.905-3.905 10.237 0 14.142 3.905 3.905 10.237 3.905 14.142 0l38.219-38.219c3.905-3.905 3.905-10.237 0-14.142z" fill="url(#SVGID_11_)"/><path d="m340.355 454.71c3.905-3.905 10.237-3.905 14.142 0l38.219 38.219c3.905 3.905 3.905 10.237 0 14.142-3.905 3.905-10.237 3.905-14.142 0l-38.219-38.219c-3.905-3.905-3.905-10.237 0-14.142z" fill="url(#SVGID_12_)"/></g><circle cx="255" cy="346.368" fill="url(#SVGID_13_)" r="163.632"/><path d="m255 182.736c-6.775 0-13.451.42-20.01 1.22 80.931 9.869 143.622 78.816 143.622 162.412s-62.69 152.543-143.622 162.412c6.559.8 13.235 1.22 20.01 1.22 90.371 0 163.632-73.26 163.632-163.632 0-90.371-73.261-163.632-163.632-163.632z" fill="url(#SVGID_14_)"/><circle cx="255" cy="346.368" fill="url(#SVGID_15_)" r="122.733"/><path d="m255 223.635c-6.815 0-13.497.565-20.01 1.633 58.265 9.556 102.723 60.132 102.723 121.101s-44.458 111.544-102.723 121.1c6.513 1.068 13.195 1.633 20.01 1.633 67.784 0 122.733-54.95 122.733-122.733 0-67.785-54.949-122.734-122.733-122.734z" fill="url(#SVGID_16_)"/></g><g><ellipse cx="403.612" cy="67.464" fill="url(#SVGID_17_)" rx="106.388" ry="26.456"/><path d="m403.612 41.009c-6.831 0-13.508.162-19.981.468-.012 0-.029 0-.029 0-12.008.569-23.299 1.64-33.511 3.121-4.929 4.183-7.758 9.017-7.758 14.174 0 14.315 96.929 15.711 115.828 4.187 3.741-2.281 8.735-1.273 11.09 2.421.453.71.729 1.418.729 2.086 0 12.91-37.189 23.658-86.378 25.986 6.482.307 13.169.469 20.01.469 58.756-.001 106.388-11.846 106.388-26.457s-47.632-26.455-106.388-26.455z" fill="url(#SVGID_18_)"/><path d="m457.932 49.464c0 14.611-108.641 14.611-108.641 0s24.32-26.456 54.321-26.456c30 .001 54.32 11.845 54.32 26.456z" fill="url(#SVGID_19_)"/><path d="m403.611 0c-5.523 0-10 4.477-10 10v16.018c0 5.523 4.477 10 10 10s10-4.477 10-10v-16.018c0-5.523-4.477-10-10-10z" fill="url(#SVGID_20_)"/></g><path d="m134.957 66.251c-3.905-3.905-10.237-3.905-14.142 0l-117.883 117.884c-3.905 3.905-3.905 10.237 0 14.142s10.237 3.905 14.142 0l117.884-117.883c3.905-3.906 3.905-10.238-.001-14.143z" fill="url(#SVGID_21_)"/><g><ellipse cx="132.267" cy="67.464" fill="url(#SVGID_22_)" rx="106.388" ry="26.456"/><path d="m132.267 41.009c-6.831 0-13.508.162-19.981.468-.012 0-.029 0-.029 0-12.008.569-23.299 1.64-33.511 3.121-4.929 4.183-7.758 9.017-7.758 14.174 0 14.315 96.929 15.711 115.828 4.187 3.741-2.281 8.735-1.273 11.09 2.421.453.71.729 1.418.729 2.086 0 12.91-37.189 23.658-86.378 25.986 6.482.307 13.169.469 20.01.469 58.757 0 106.388-11.845 106.388-26.456 0-14.612-47.632-26.456-106.388-26.456z" fill="url(#SVGID_23_)"/><path d="m186.587 49.464c0 14.611-108.641 14.611-108.641 0s24.32-26.456 54.321-26.456 54.32 11.845 54.32 26.456z" fill="url(#SVGID_24_)"/><path d="m132.266 0c-5.523 0-10 4.477-10 10v16.018c0 5.523 4.477 10 10 10s10-4.477 10-10v-16.018c0-5.523-4.477-10-10-10z" fill="url(#SVGID_25_)"/></g></g></svg>