<svg id="Capa_1" enable-background="new 0 0 510.001 510.001" height="512" viewBox="0 0 510.001 510.001" width="512" xmlns="http://www.w3.org/2000/svg" xmlns:xlink="http://www.w3.org/1999/xlink"><linearGradient id="lg1"><stop offset="0" stop-color="#fef056"/><stop offset=".5213" stop-color="#fbc56d"/><stop offset="1" stop-color="#c86d36"/></linearGradient><linearGradient id="SVGID_1_" gradientTransform="matrix(.707 .707 -.707 .707 111.075 275.483)" gradientUnits="userSpaceOnUse" x1="27.287" x2="166.721" xlink:href="#lg1" y1="-343.093" y2="-343.093"/><linearGradient id="SVGID_2_" gradientTransform="matrix(.707 .707 -.707 .707 90.27 266.865)" gradientUnits="userSpaceOnUse" x1="34.894" x2="163.309" xlink:href="#lg1" y1="-351.71" y2="-351.71"/><linearGradient id="SVGID_3_" gradientTransform="matrix(.707 .707 -.707 .707 111.075 275.483)" gradientUnits="userSpaceOnUse" x1="26.03" x2="183.583" xlink:href="#lg1" y1="-55.353" y2="-55.353"/><linearGradient id="SVGID_4_" gradientTransform="matrix(.707 .707 -.707 .707 90.27 266.865)" gradientUnits="userSpaceOnUse" x1="-8.908" x2="201.582" xlink:href="#lg1" y1="-63.97" y2="-63.97"/><linearGradient id="SVGID_5_" gradientTransform="matrix(.707 .707 .707 -.707 -542.259 928.817)" gradientUnits="userSpaceOnUse" x1="29.678" x2="164.821" xlink:href="#lg1" y1="764.749" y2="764.749"/><linearGradient id="SVGID_6_" gradientTransform="matrix(.707 .707 -.707 .707 90.27 266.865)" gradientUnits="userSpaceOnUse" x1="18.426" x2="167.022" xlink:href="#lg1" y1="150.588" y2="150.588"/><linearGradient id="lg2"><stop offset="0" stop-color="#fbc56d"/><stop offset=".593" stop-color="#dc8758"/><stop offset="1" stop-color="#9e5528"/></linearGradient><linearGradient id="SVGID_7_" gradientTransform="matrix(.707 .707 -.707 .707 111.075 275.483)" gradientUnits="userSpaceOnUse" x1="11.442" x2="206.517" xlink:href="#lg2" y1="97.028" y2="97.028"/><linearGradient id="SVGID_8_" gradientTransform="matrix(.707 .707 -.707 .707 90.27 266.865)" gradientUnits="userSpaceOnUse" x1="22.092" x2="156.107" xlink:href="#lg2" y1="88.41" y2="88.41"/><linearGradient id="SVGID_9_" gradientTransform="matrix(.707 .707 -.707 .707 34.77 625.321)" gradientUnits="userSpaceOnUse" x1="-159.159" x2="-35.925" xlink:href="#lg2" y1="-540.838" y2="-540.838"/><linearGradient id="SVGID_10_" gradientTransform="matrix(.707 .707 -.707 .707 90.27 266.865)" gradientUnits="userSpaceOnUse" x1="72.599" x2="150.636" xlink:href="#lg2" y1="-248.127" y2="-248.127"/><linearGradient id="SVGID_11_" gradientTransform="matrix(.707 .707 -.707 .707 34.77 625.321)" gradientUnits="userSpaceOnUse" x1="-159.159" x2="-35.925" xlink:href="#lg2" y1="-630.546" y2="-630.546"/><linearGradient id="SVGID_12_" gradientTransform="matrix(.707 .707 -.707 .707 90.27 266.865)" gradientUnits="userSpaceOnUse" x1="74.932" x2="152.969" xlink:href="#lg2" y1="-337.834" y2="-337.834"/><linearGradient id="lg3"><stop offset="0" stop-color="#537983"/><stop offset=".593" stop-color="#554e56"/><stop offset="1" stop-color="#433f43"/></linearGradient><linearGradient id="SVGID_13_" gradientTransform="matrix(.707 .707 -.707 .707 90.27 266.865)" gradientUnits="userSpaceOnUse" x1="89.092" x2="148.28" xlink:href="#lg3" y1="-418.872" y2="-418.872"/><linearGradient id="SVGID_14_" gradientTransform="matrix(.707 .707 -.707 .707 90.27 266.865)" gradientUnits="userSpaceOnUse" x1="66.092" x2="121.774" xlink:href="#lg3" y1="-418.872" y2="-418.872"/><linearGradient id="SVGID_15_" gradientTransform="matrix(.707 .707 -.707 .707 90.27 266.865)" gradientUnits="userSpaceOnUse" x1="86.092" x2="128.071" xlink:href="#lg3" y1="-198.407" y2="-198.407"/><linearGradient id="SVGID_16_" gradientTransform="matrix(.707 .707 -.707 .707 90.27 266.865)" gradientUnits="userSpaceOnUse" x1="86.092" x2="128.071" xlink:href="#lg3" y1="-145.094" y2="-145.094"/><linearGradient id="SVGID_17_" gradientTransform="matrix(.707 .707 -.707 .707 90.27 266.865)" gradientUnits="userSpaceOnUse" x1="86.092" x2="128.071" xlink:href="#lg3" y1="-91.781" y2="-91.781"/><linearGradient id="SVGID_18_" gradientTransform="matrix(.707 .707 -.707 .707 90.27 266.865)" gradientUnits="userSpaceOnUse" x1="86.092" x2="128.071" xlink:href="#lg3" y1="-38.467" y2="-38.467"/><linearGradient id="SVGID_19_" gradientTransform="matrix(.707 .707 -.707 .707 90.27 266.865)" gradientUnits="userSpaceOnUse" x1="86.092" x2="128.071" xlink:href="#lg3" y1="14.846" y2="14.846"/><g><path d="m414.657 150.13c4.32-18.005 18.339-32.195 36.549-35.545 1.074-.198 2.154-.378 3.237-.541 10.477-1.577 20.559-6.398 28.626-14.465 7.815-7.815 12.582-17.521 14.307-27.645.768-4.51 2.915-8.669 6.15-11.903 8.633-8.633 8.633-22.63 0-31.263l-22.293-22.293c-8.633-8.633-22.63-8.633-31.263 0-3.235 3.235-7.394 5.381-11.903 6.15-10.124 1.725-19.831 6.492-27.645 14.307-8.067 8.067-12.888 18.149-14.465 28.626-.154 1.025-.324 2.046-.509 3.063-3.279 18.003-17.019 32.573-34.878 36.561-8.632 1.928-16.808 6.4-23.333 13.422-16.045 17.267-16.065 44.413-.044 61.701 17.605 18.997 47.289 19.422 65.435 1.276 6.134-6.136 10.143-13.59 12.029-21.451z" fill="url(#SVGID_1_)"/><path d="m410.889 160.276c-2.093 4.073-4.851 7.891-8.266 11.307-18.144 18.144-47.829 17.72-65.429-1.28-4.419-4.773-7.616-10.288-9.595-16.143 15.846 5.395 34.082 1.768 46.726-10.875.034-.034.068-.068.102-.103 5.363-5.396 5.188-14.18-.192-19.56l-24.511-24.511c3.465-1.782 7.114-3.097 10.847-3.932 5.247-1.174 10.147-3.26 14.51-6.081l17.685 17.685c6.746-10.536 17.423-18.158 30.144-20.499 1.075-.198 2.157-.375 3.239-.537 10.472-1.577 20.556-6.399 28.624-14.467 7.814-7.814 12.579-17.515 14.305-27.641.764-4.511 2.913-8.669 6.152-11.908 4.313-4.313 6.477-9.97 6.47-15.634 0-4.313-1.259-8.613-3.762-12.332 1.16.778 2.263 1.683 3.295 2.715l22.288 22.288c4.313 4.313 6.477 9.97 6.477 15.627.007 5.664-2.157 11.321-6.47 15.634-3.239 3.239-5.388 7.396-6.152 11.908-1.725 10.126-6.491 19.827-14.305 27.641-8.068 8.068-18.151 12.891-28.624 14.467-1.082.163-2.164.339-3.239.537-12.721 2.341-23.398 9.963-30.144 20.499-2.92 4.533-5.105 9.617-6.406 15.047-.841 3.487-2.086 6.895-3.769 10.148z" fill="url(#SVGID_2_)"/><path d="m107.74 454.303-52.042-52.042 260.436-260.436 52.042 52.042z" fill="url(#SVGID_3_)"/><path d="m316.134 141.825-24.956 24.956 4.171 4.171c10.809 10.809 10.809 28.335 0 39.144l-215.908 215.908 28.298 28.298 260.436-260.436z" fill="url(#SVGID_4_)"/><path d="m67.145 506.255-63.399-63.399c-6.945-6.945-3.768-18.805 5.72-21.347l14.762-3.956c13.223-3.543 25.833-8.883 37.498-15.822l46.544 46.544c-6.939 11.666-12.279 24.275-15.822 37.498l-3.956 14.762c-2.542 9.488-14.402 12.665-21.347 5.72z" fill="url(#SVGID_5_)"/><path d="m67.143 506.256-28.298-28.298c6.944 6.944 18.802 3.769 21.348-5.721 0 0 0-.002.001-.005 2.796-10.424-.18-21.557-7.812-29.188l-26.074-26.074c8.832-2.496 17.381-5.798 25.527-9.857 3.373-1.662 6.668-3.458 9.893-5.381l46.542 46.542c-1.923 3.225-3.719 6.52-5.381 9.892-4.059 8.146-7.361 16.695-9.857 25.527-.205.686-.396 1.386-.58 2.079l-3.96 14.764c-2.547 9.489-14.405 12.664-21.349 5.72z" fill="url(#SVGID_6_)"/><path d="m98.313 453.597-41.909-41.909c-6.221-6.221-6.221-16.307 0-22.528l31.13-31.13c6.221-6.221 16.307-6.221 22.528 0l41.909 41.909c6.221 6.221 6.221 16.307 0 22.528l-31.13 31.13c-6.222 6.22-16.308 6.22-22.528 0z" fill="url(#SVGID_7_)"/><path d="m151.97 399.939-17.685-17.685c6.221 6.221 6.221 16.307 0 22.528l-31.13 31.13c-6.221 6.221-16.307 6.221-22.528 0l17.685 17.685c6.221 6.221 16.307 6.221 22.528 0l31.13-31.13c6.221-6.222 6.221-16.308 0-22.528z" fill="url(#SVGID_8_)"/><path d="m374.258 199.949c4.975-4.975 4.974-13.041 0-18.015l-46.191-46.191c-4.975-4.975-13.041-4.975-18.016 0s-4.974 13.041 0 18.015l46.191 46.191c4.976 4.975 13.042 4.975 18.016 0z" fill="url(#SVGID_9_)"/><path d="m374.258 181.933-17.684-17.684c4.974 4.975 4.973 13.039-.001 18.014-4.975 4.975-13.041 4.975-18.016 0l17.686 17.686c4.975 4.975 13.041 4.975 18.016 0 4.974-4.975 4.974-13.041-.001-18.016z" fill="url(#SVGID_10_)"/><path d="m437.691 136.516c4.975-4.975 4.974-13.041 0-18.015l-46.191-46.192c-4.975-4.975-13.041-4.975-18.016 0s-4.974 13.041 0 18.015l46.191 46.191c4.976 4.976 13.042 4.976 18.016.001z" fill="url(#SVGID_11_)"/><path d="m437.691 118.5-17.684-17.684c4.973 4.975 4.973 13.039-.001 18.014-4.975 4.975-13.041 4.975-18.016 0l17.686 17.686c4.975 4.975 13.041 4.975 18.016 0 4.974-4.975 4.974-13.041-.001-18.016z" fill="url(#SVGID_12_)"/><path d="m467.221 64.877-22.097-22.097c-2.685-2.685-2.685-7.038 0-9.723l3.712-3.712c2.685-2.685 7.038-2.685 9.723 0l22.097 22.097c2.685 2.685 2.685 7.038 0 9.723l-3.712 3.712c-2.685 2.685-7.038 2.685-9.723 0z" fill="url(#SVGID_13_)"/><path d="m469.823 40.609c-.316.988-.572 1.998-.746 3.029-1.005 5.899-3.05 11.651-6.121 16.973l4.265 4.265c2.685 2.685 7.038 2.685 9.723 0l3.712-3.712c2.685-2.685 2.685-7.038 0-9.723z" fill="url(#SVGID_14_)"/><g><circle cx="306.998" cy="203.003" fill="url(#SVGID_15_)" r="15.333"/><circle cx="269.3" cy="240.701" fill="url(#SVGID_16_)" r="15.333"/><circle cx="231.601" cy="278.399" fill="url(#SVGID_17_)" r="15.333"/><circle cx="193.903" cy="316.097" fill="url(#SVGID_18_)" r="15.333"/><circle cx="156.205" cy="353.796" fill="url(#SVGID_19_)" r="15.333"/></g></g></svg>