<svg id="Capa_1" enable-background="new 0 0 510 510" height="512" viewBox="0 0 510 510" width="512" xmlns="http://www.w3.org/2000/svg" xmlns:xlink="http://www.w3.org/1999/xlink"><linearGradient id="lg1"><stop offset="0" stop-color="#60b7ff"/><stop offset=".5857" stop-color="#0182fc"/><stop offset="1" stop-color="#2740b0"/></linearGradient><linearGradient id="SVGID_1_" gradientUnits="userSpaceOnUse" x1="32.981" x2="612.006" xlink:href="#lg1" y1="255" y2="255"/><linearGradient id="SVGID_2_" gradientUnits="userSpaceOnUse" x1="-43.244" x2="517.866" xlink:href="#lg1" y1="255.003" y2="255.003"/><linearGradient id="SVGID_3_" gradientUnits="userSpaceOnUse" x1="-185.407" x2="508.603" xlink:href="#lg1" y1="275.588" y2="275.588"/><linearGradient id="SVGID_4_" gradientUnits="userSpaceOnUse" x1="181.351" x2="299.356" y1="328.977" y2="328.977"><stop offset="0" stop-color="#f8f6f7"/><stop offset=".1788" stop-color="#f8f6f7"/><stop offset="1" stop-color="#e7e6f5"/></linearGradient><linearGradient id="SVGID_5_" gradientUnits="userSpaceOnUse" x1="183" x2="284.272" y1="207.545" y2="207.545"><stop offset="0" stop-color="#f8f6f7"/><stop offset="1" stop-color="#d1ceeb"/></linearGradient><linearGradient id="SVGID_6_" gradientUnits="userSpaceOnUse" x1="161" x2="432.149" y1="132.082" y2="132.082"><stop offset="0" stop-color="#fef056"/><stop offset=".5213" stop-color="#fbc56d"/><stop offset="1" stop-color="#c86d36"/></linearGradient><g><path d="m475.821 453.511-29.489-93.684c-1.357-4.311-2.048-8.804-2.048-13.324v-306.058c0-9.196-3.897-17.855-10.425-24.332-.031-.031-.062-.062-.093-.093l-5.784-5.785c-13.648-13.648-35.776-13.648-49.423 0-13.648 13.648-35.775 13.648-49.424 0-13.648-13.648-35.775-13.648-49.423 0s-35.775 13.648-49.423 0-35.776-13.648-49.423 0c-13.648 13.648-35.775 13.648-49.423 0-13.648-13.648-35.775-13.648-49.423 0l-5.785 5.785c-.031.031-.063.063-.095.094-6.527 6.477-10.423 15.136-10.423 24.331v306.057c0 4.52-.691 9.013-2.048 13.324l-29.489 93.684c-8.812 27.994 12.093 56.49 41.44 56.49h358.76c29.348 0 50.252-28.496 41.441-56.489zm-313.196-359.642c-14.875 0-26.934-12.059-26.934-26.934 0-14.876 12.059-26.935 26.934-26.935s26.934 12.059 26.934 26.934c0 14.876-12.058 26.935-26.934 26.935zm184.75 0c-14.875 0-26.934-12.059-26.934-26.934 0-14.876 12.059-26.935 26.934-26.935s26.934 12.059 26.934 26.934c0 14.876-12.058 26.935-26.934 26.935z" fill="url(#SVGID_1_)"/><path d="m475.821 453.51-29.489-93.684c-1.357-4.311-2.048-8.804-2.048-13.324v-306.546c0-9.006-3.909-17.432-10.329-23.748-.063-.062-.125-.125-.188-.187l-5.784-5.785c-12.174-12.174-31.091-13.479-44.722-3.934 1.65 1.156 3.228 2.46 4.702 3.934l5.784 5.785c.063.062.125.125.188.187 6.42 6.316 10.329 14.742 10.329 23.748v302.539h-52.036c-6.907 0-12.505 5.599-12.505 12.505 0 6.907 5.599 12.505 12.505 12.505h20.375c21.501 0 40.517 13.95 46.973 34.459l16.225 51.546c8.812 27.993-12.093 56.49-41.441 56.49h40.02c29.347 0 50.252-28.496 41.441-56.49z" fill="url(#SVGID_2_)"/><path d="m320.441 66.934v57.066c0 38.235-27.011 70.266-62.949 78.053-4.246-2.132-9.032-3.34-14.098-3.34-5.663 0-10.977 1.508-15.576 4.133-38.004-6.123-67.127-39.142-67.127-78.845v-30.209c-13.972-.993-25-12.633-25-26.858v57.066c0 48.041 32.471 88.636 76.616 101.003-.286 1.705-.443 3.454-.443 5.239v47.135l-14.833 9.26c-13.367 8.343-24.098 19.884-31.034 33.374-3.814 7.42-6.362 14.968-7.671 22.484h-53.363c-6.907 0-12.505 5.599-12.505 12.505 0 6.907 5.599 12.505 12.505 12.505h53.619c2.696 13.46 9.582 26.175 20.503 37.096 9.363 9.363 20.757 15.482 32.779 18.359v34.444c0 .866-.589 1.671-1.444 1.812-1.087.18-2.032-.658-2.032-1.714 0-7.093-5.909-12.807-13.073-12.487-6.746.301-12.097 6.459-11.917 13.209.394 14.785 12.849 26.617 27.864 25.993 14.42-.6 25.603-12.895 25.603-27.327v-32.566c14.734-1.859 28.979-8.434 40.27-19.724 10.948-10.948 16.977-25.504 16.977-40.987s-6.029-30.039-16.977-40.987c-10.98-10.98-25.929-15.639-40.27-13.959v-17.426l6.466-4.036c19.783-12.348 31.594-33.643 31.594-56.964 0-2.365-.27-4.667-.766-6.884 41.404-14.035 71.283-53.273 71.283-99.358v-30.207c-13.973-.993-25.001-12.633-25.001-26.858zm-108.577 252.231c-1.328 1.074-2.612 2.228-3.846 3.462-16.219 16.219-16.219 42.609 0 58.828 1.219 1.22 2.504 2.331 3.845 3.337v12.031c-5.503-2.159-10.661-5.459-15.102-9.899-15.782-15.781-18.812-35.486-8.532-55.483 4.875-9.48 12.495-17.64 22.038-23.597l1.596-.996v12.317zm47.591 21.14c12.853 12.853 12.853 33.767 0 46.619-6.41 6.41-14.306 10.441-22.592 12.098v-7.279c7.946-.785 15.678-4.214 21.751-10.287 4.882-4.881 4.882-12.795.001-17.677s-12.796-4.882-17.678-.001c-1.188 1.188-2.585 2.039-4.075 2.555v-32.32c7.845-1.921 16.478.176 22.593 6.292zm-22.591-79.539v-30.523c0-.493.06-.971.164-1.433 1.175.039 2.354.066 3.538.066 3.069 0 6.105-.14 9.108-.4.159.563.25 1.154.25 1.767-.001 11.738-4.769 22.659-13.06 30.523z" fill="url(#SVGID_3_)"/><path d="m228.125 471.742c-14.743 0-26.738-11.995-26.738-26.738 0-6.903 5.596-12.5 12.5-12.5 6.903 0 12.5 5.597 12.5 12.5 0 .959.78 1.738 1.738 1.738s1.738-.779 1.738-1.738v-34.542c-12.022-2.877-23.416-8.996-32.779-18.359-23.397-23.397-28.29-55.02-13.088-84.591 6.936-13.49 17.667-25.031 31.034-33.374l14.833-9.26v-47.135c0-17.386 14.144-31.529 31.53-31.529s31.53 14.144 31.53 31.529c0 23.321-11.811 44.616-31.594 56.964l-6.466 4.036v17.426c14.341-1.68 29.289 2.979 40.27 13.959 10.948 10.948 16.977 25.504 16.977 40.987s-6.029 30.039-16.977 40.987c-11.291 11.29-25.535 17.864-40.27 19.724v33.178c.001 14.742-11.994 26.738-26.738 26.738zm26.739-92.499v7.279c8.286-1.656 16.182-5.688 22.592-12.098 12.853-12.853 12.853-33.767 0-46.619-6.115-6.116-14.749-8.213-22.592-6.293v32.32c1.49-.516 2.887-1.367 4.075-2.555 4.882-4.881 12.797-4.881 17.678.001s4.881 12.796-.001 17.677c-6.074 6.074-13.806 9.502-21.752 10.288zm-25-84.895-1.596.996c-9.543 5.957-17.163 14.116-22.038 23.597-10.28 19.997-7.25 39.702 8.532 55.483 4.44 4.44 9.598 7.74 15.102 9.899v-12.031c-1.341-1.006-2.626-2.117-3.845-3.337-16.219-16.219-16.219-42.609 0-58.828 1.234-1.234 2.518-2.388 3.846-3.462v-12.317zm31.529-83.135c-3.601 0-6.53 2.929-6.53 6.529v30.523c8.291-7.863 13.06-18.785 13.06-30.523 0-3.6-2.929-6.529-6.53-6.529z" fill="url(#SVGID_4_)"/><path d="m292.8 214.93c-.79-8.9-5.3-16.75-11.95-21.98-5.37-4.22-12.13-6.74-19.46-6.74-12.28 0-22.94 7.06-28.14 17.33-2.17 4.27-3.39 9.1-3.39 14.2v10.6c3.52.36 7.1.54 10.71.54 4.85 0 9.62-.33 14.29-.97v-10.17c0-3.6 2.93-6.53 6.53-6.53s6.53 2.93 6.53 6.53c0 2.61-.24 5.19-.7 7.7 9.06-2.37 17.64-5.94 25.58-10.51z" fill="url(#SVGID_5_)"/><path d="m255 209.729c-57.828 0-104.875-47.047-104.875-104.875v-37.919c0-6.903 5.597-12.5 12.5-12.5s12.5 5.597 12.5 12.5v37.919c0 44.043 35.832 79.875 79.875 79.875s79.875-35.832 79.875-79.875v-37.919c0-6.903 5.597-12.5 12.5-12.5s12.5 5.597 12.5 12.5v37.919c0 57.828-47.047 104.875-104.875 104.875z" fill="url(#SVGID_6_)"/></g></svg>