<svg id="Capa_1" enable-background="new 0 0 510 510" height="512" viewBox="0 0 510 510" width="512" xmlns="http://www.w3.org/2000/svg" xmlns:xlink="http://www.w3.org/1999/xlink"><linearGradient id="lg1"><stop offset="0" stop-color="#fef056"/><stop offset=".5213" stop-color="#fbc56d"/><stop offset="1" stop-color="#c86d36"/></linearGradient><linearGradient id="SVGID_1_" gradientUnits="userSpaceOnUse" x1="-8.874" x2="312.746" xlink:href="#lg1" y1="255" y2="255"/><linearGradient id="SVGID_2_" gradientUnits="userSpaceOnUse" x1="-112" x2="301.001" xlink:href="#lg1" y1="255" y2="255"/><linearGradient id="lg2"><stop offset="0" stop-color="#fe646f"/><stop offset=".593" stop-color="#fb2b3a"/><stop offset="1" stop-color="#c41926"/></linearGradient><linearGradient id="SVGID_3_" gradientTransform="matrix(1 0 0 -1 0 -4783.691)" gradientUnits="userSpaceOnUse" x1="11.667" x2="282.895" xlink:href="#lg2" y1="-4824.968" y2="-4824.968"/><linearGradient id="lg3"><stop offset="0" stop-color="#bbec6c"/><stop offset=".5857" stop-color="#78a91f"/><stop offset="1" stop-color="#02905d"/></linearGradient><linearGradient id="SVGID_4_" gradientUnits="userSpaceOnUse" x1="-57.019" x2="427.223" xlink:href="#lg3" y1="113.275" y2="113.275"/><linearGradient id="SVGID_5_" gradientUnits="userSpaceOnUse" x1="-65.585" x2="441.916" xlink:href="#lg3" y1="163.567" y2="163.567"/><linearGradient id="SVGID_6_" gradientUnits="userSpaceOnUse" x1="172.365" x2="226.494" xlink:href="#lg2" y1="226.5" y2="226.5"/><linearGradient id="SVGID_7_" gradientUnits="userSpaceOnUse" x1="100.162" x2="154.291" xlink:href="#lg2" y1="215.629" y2="215.629"/><linearGradient id="SVGID_8_" gradientUnits="userSpaceOnUse" x1="27.959" x2="82.087" xlink:href="#lg2" y1="226.5" y2="226.5"/><linearGradient id="SVGID_9_" gradientUnits="userSpaceOnUse" x1="-92" x2="215.026" xlink:href="#lg2" y1="38.696" y2="38.696"/><linearGradient id="SVGID_10_" gradientUnits="userSpaceOnUse" x1="103" x2="231.064" xlink:href="#lg2" y1="226.547" y2="226.547"/><linearGradient id="SVGID_11_" gradientUnits="userSpaceOnUse" x1="41" x2="245.62" xlink:href="#lg3" y1="112.099" y2="112.099"/><linearGradient id="SVGID_12_" gradientUnits="userSpaceOnUse" x1="41" x2="245.62" xlink:href="#lg3" y1="162.684" y2="162.684"/><linearGradient id="SVGID_13_" gradientUnits="userSpaceOnUse" x1="256.673" x2="578.294" xlink:href="#lg1" y1="255" y2="255"/><linearGradient id="SVGID_14_" gradientUnits="userSpaceOnUse" x1="153.548" x2="566.549" xlink:href="#lg1" y1="255" y2="255"/><linearGradient id="SVGID_15_" gradientTransform="matrix(1 0 0 -1 0 -4783.691)" gradientUnits="userSpaceOnUse" x1="277.214" x2="548.443" xlink:href="#lg2" y1="-4824.968" y2="-4824.968"/><linearGradient id="SVGID_16_" gradientUnits="userSpaceOnUse" x1="208.528" x2="692.77" xlink:href="#lg3" y1="113.275" y2="113.275"/><linearGradient id="SVGID_17_" gradientUnits="userSpaceOnUse" x1="199.963" x2="707.463" xlink:href="#lg3" y1="163.567" y2="163.567"/><linearGradient id="SVGID_18_" gradientUnits="userSpaceOnUse" x1="437.913" x2="492.041" xlink:href="#lg2" y1="226.5" y2="226.5"/><linearGradient id="SVGID_19_" gradientUnits="userSpaceOnUse" x1="365.71" x2="419.838" xlink:href="#lg2" y1="215.629" y2="215.629"/><linearGradient id="SVGID_20_" gradientUnits="userSpaceOnUse" x1="293.507" x2="347.635" xlink:href="#lg2" y1="226.5" y2="226.5"/><linearGradient id="SVGID_21_" gradientUnits="userSpaceOnUse" x1="173.548" x2="480.574" xlink:href="#lg2" y1="38.696" y2="38.696"/><linearGradient id="SVGID_22_" gradientUnits="userSpaceOnUse" x1="368.548" x2="496.611" xlink:href="#lg2" y1="226.547" y2="226.547"/><linearGradient id="SVGID_23_" gradientUnits="userSpaceOnUse" x1="306.548" x2="511.167" xlink:href="#lg3" y1="112.099" y2="112.099"/><linearGradient id="SVGID_24_" gradientUnits="userSpaceOnUse" x1="306.548" x2="511.167" xlink:href="#lg3" y1="162.684" y2="162.684"/><g><g><path d="m244.452 151.602c0-83.727-54.722-151.602-122.226-151.602-67.503 0-122.226 67.875-122.226 151.602 0 56.745 25.138 106.201 62.353 132.186 15.107 10.548 21.678 29.659 16.581 47.365-11.057 38.405-17.894 82.015-17.894 102.954 0 41.914 27.394 75.893 61.187 75.893s61.187-33.978 61.187-75.893c0-20.939-6.838-64.549-17.894-102.954-5.097-17.706 1.474-36.816 16.581-47.365 37.214-25.985 62.351-75.441 62.351-132.186z" fill="url(#SVGID_1_)"/><path d="m182.1 283.788c37.215-25.985 62.353-75.441 62.353-132.186-.001-83.727-54.723-151.602-122.227-151.602-6.816 0-13.498.703-20.01 2.034 57.983 11.846 102.216 74.295 102.216 149.568 0 56.745-25.138 106.201-62.353 132.186-15.107 10.548-21.678 29.659-16.581 47.365 11.057 38.405 17.894 82.015 17.894 102.954 0 33.219-17.215 61.434-41.177 71.719 6.272 2.692 13 4.174 20.01 4.174 33.793 0 61.187-33.978 61.187-75.893 0-20.94-6.838-64.549-17.894-102.954-5.097-17.706 1.475-36.817 16.582-47.365z" fill="url(#SVGID_2_)"/><path d="m19.15 70.1c21.709-42.151 59.76-70.1 103.076-70.1s81.367 27.949 103.076 70.1c-67.714 16.607-138.438 16.607-206.152 0z" fill="url(#SVGID_3_)"/><path d="m238.062 103.109c2.509 9.213-1.463 19.06-9.811 23.693-19.504 10.826-43 13.222-64.621 5.988l-23.03-7.71c-11.24-3.74-23.56-3.65-34.69.27l-22.84 8.03c-22.427 7.884-47.034 5.338-67.195-6.385-.043-.025-.087-.051-.131-.077-8.081-4.764-11.896-14.4-9.453-23.457 1.348-4.996 2.901-9.878 4.649-14.631l10.32 8.99c14.49 12.6 34.75 16.48 52.86 10.1l22.83-8.02c16.75-5.9 35.29-6.05 52.2-.41l23.04 7.71c18.17 6.09 38.32 1.93 52.6-10.85l8.64-7.72c1.738 4.703 3.286 9.534 4.632 14.479z" fill="url(#SVGID_4_)"/><path d="m244.45 151.6c0 3.259-.084 6.496-.249 9.706-.312 6.057-3.396 11.625-8.262 15.247-2.195 1.634-4.445 3.225-6.102 4.195-19.805 11.597-43.993 14.334-66.207 6.892l-23.03-7.7c-11.24-3.75-23.56-3.65-34.69.27l-22.84 8.02c-25.291 8.901-53.355 4.519-74.688-11.315-.069-.051-.145-.109-.227-.172-4.68-3.593-7.568-9.07-7.883-14.962-.18-3.364-.272-6.759-.272-10.181 0-5.65.25-11.22.74-16.71.77.61 1.52 1.24 2.26 1.89l18.26 15.89c14.49 12.61 34.75 16.48 52.86 10.11l22.83-8.02c16.75-5.9 35.29-6.05 52.2-.41l23.04 7.71c18.17 6.08 38.32 1.93 52.6-10.85l18.12-16.19c.25-.23.51-.45.76-.66.51 5.66.78 11.41.78 17.24z" fill="url(#SVGID_5_)"/><g><circle cx="194.429" cy="226.5" fill="url(#SVGID_6_)" r="20.571"/><circle cx="122.226" cy="215.628" fill="url(#SVGID_7_)" r="20.571"/><circle cx="50.023" cy="226.5" fill="url(#SVGID_8_)" r="20.571"/></g><path d="m122.226 0c-6.789 0-13.448.688-19.935 2.008-.025.007-.051.021-.075.026 37.215 7.603 68.764 36.053 86.591 75.358 12.237-1.906 24.414-4.33 36.494-7.292-21.708-42.151-59.759-70.1-103.075-70.1z" fill="url(#SVGID_9_)"/><path d="m215 226.5c0-10.726-8.213-19.525-18.691-20.476-3.972 12.8-9.295 24.767-15.766 35.62 3.661 3.359 8.527 5.426 13.887 5.426 11.36.001 20.57-9.209 20.57-20.57z" fill="url(#SVGID_10_)"/><path d="m233.43 88.63-8.64 7.72c-7.253 6.491-16.021 10.753-25.274 12.583 2.027 8.587 3.457 17.489 4.233 26.634 8.545-1.577 16.834-4.509 24.502-8.765 8.348-4.634 12.32-14.481 9.811-23.693-1.346-4.945-2.894-9.776-4.632-14.479z" fill="url(#SVGID_11_)"/><path d="m242.91 135.02-18.12 16.19c-6.042 5.407-13.136 9.263-20.685 11.459-.566 9.731-1.881 19.203-3.858 28.339 10.38-1.449 20.452-4.909 29.59-10.26 1.658-.971 3.908-2.562 6.102-4.195 4.865-3.622 7.949-9.19 8.262-15.247.165-3.21.249-6.446.249-9.706 0-5.83-.27-11.58-.78-17.24-.25.21-.51.43-.76.66z" fill="url(#SVGID_12_)"/></g><g><path d="m510 151.602c0-83.727-54.723-151.602-122.226-151.602s-122.226 67.875-122.226 151.602c0 56.745 25.138 106.201 62.353 132.186 15.107 10.548 21.678 29.659 16.581 47.365-11.057 38.405-17.894 82.015-17.894 102.954 0 41.914 27.394 75.893 61.187 75.893s61.187-33.978 61.187-75.893c0-20.939-6.838-64.549-17.894-102.954-5.097-17.706 1.474-36.816 16.581-47.365 37.213-25.985 62.351-75.441 62.351-132.186z" fill="url(#SVGID_13_)"/><path d="m447.647 283.788c37.215-25.985 62.353-75.441 62.353-132.186 0-83.727-54.723-151.602-122.226-151.602-6.816 0-13.498.703-20.01 2.034 57.983 11.845 102.216 74.294 102.216 149.568 0 56.745-25.138 106.201-62.353 132.186-15.107 10.548-21.678 29.659-16.581 47.365 11.057 38.405 17.894 82.015 17.894 102.954 0 33.219-17.215 61.434-41.177 71.719 6.272 2.692 13 4.174 20.01 4.174 33.793 0 61.187-33.978 61.187-75.893 0-20.94-6.838-64.549-17.894-102.954-5.097-17.706 1.474-36.817 16.581-47.365z" fill="url(#SVGID_14_)"/><path d="m284.698 70.1c21.709-42.151 59.76-70.1 103.076-70.1s81.367 27.949 103.076 70.1c-67.714 16.607-138.438 16.607-206.152 0z" fill="url(#SVGID_15_)"/><path d="m503.61 103.109c2.509 9.213-1.463 19.06-9.811 23.693-19.504 10.826-43 13.222-64.621 5.988l-23.03-7.71c-11.24-3.74-23.56-3.65-34.69.27l-22.84 8.03c-22.427 7.884-47.034 5.338-67.195-6.385-.043-.025-.087-.051-.131-.077-8.081-4.764-11.896-14.4-9.453-23.457 1.348-4.996 2.901-9.878 4.649-14.631l10.32 8.99c14.49 12.6 34.75 16.48 52.86 10.1l22.83-8.02c16.75-5.9 35.29-6.05 52.2-.41l23.04 7.71c18.17 6.09 38.32 1.93 52.6-10.85l8.64-7.72c1.737 4.703 3.285 9.534 4.632 14.479z" fill="url(#SVGID_16_)"/><path d="m509.998 151.6c0 3.259-.084 6.496-.249 9.706-.312 6.057-3.396 11.625-8.262 15.247-2.195 1.634-4.445 3.225-6.102 4.195-19.805 11.597-43.993 14.334-66.207 6.892l-23.03-7.7c-11.24-3.75-23.56-3.65-34.69.27l-22.84 8.02c-25.291 8.901-53.355 4.519-74.688-11.315-.069-.051-.145-.109-.227-.172-4.68-3.593-7.568-9.07-7.883-14.962-.18-3.364-.272-6.759-.272-10.181 0-5.65.25-11.22.74-16.71.77.61 1.52 1.24 2.26 1.89l18.26 15.89c14.49 12.61 34.75 16.48 52.86 10.11l22.83-8.02c16.75-5.9 35.29-6.05 52.2-.41l23.04 7.71c18.17 6.08 38.32 1.93 52.6-10.85l18.12-16.19c.25-.23.51-.45.76-.66.51 5.66.78 11.41.78 17.24z" fill="url(#SVGID_17_)"/><g><circle cx="459.977" cy="226.5" fill="url(#SVGID_18_)" r="20.571"/><circle cx="387.774" cy="215.628" fill="url(#SVGID_19_)" r="20.571"/><circle cx="315.571" cy="226.5" fill="url(#SVGID_20_)" r="20.571"/></g><path d="m387.774 0c-6.789 0-13.448.688-19.935 2.008-.025.007-.051.021-.075.026 37.215 7.603 68.764 36.053 86.591 75.358 12.237-1.906 24.414-4.33 36.494-7.292-21.708-42.151-59.759-70.1-103.075-70.1z" fill="url(#SVGID_21_)"/><path d="m480.548 226.5c0-10.726-8.213-19.525-18.691-20.476-3.972 12.8-9.295 24.767-15.766 35.62 3.661 3.359 8.527 5.426 13.887 5.426 11.36.001 20.57-9.209 20.57-20.57z" fill="url(#SVGID_22_)"/><path d="m498.978 88.63-8.64 7.72c-7.253 6.491-16.021 10.753-25.274 12.583 2.027 8.587 3.457 17.489 4.233 26.634 8.545-1.577 16.834-4.509 24.502-8.765 8.348-4.634 12.32-14.481 9.811-23.693-1.347-4.945-2.895-9.776-4.632-14.479z" fill="url(#SVGID_23_)"/><path d="m508.458 135.02-18.12 16.19c-6.042 5.407-13.136 9.263-20.685 11.459-.566 9.731-1.881 19.203-3.858 28.339 10.38-1.449 20.452-4.909 29.59-10.26 1.658-.971 3.908-2.562 6.102-4.195 4.865-3.622 7.949-9.19 8.262-15.247.165-3.21.249-6.446.249-9.706 0-5.83-.27-11.58-.78-17.24-.25.21-.51.43-.76.66z" fill="url(#SVGID_24_)"/></g></g></svg>