<svg id="Capa_1" enable-background="new 0 0 510 510" height="512" viewBox="0 0 510 510" width="512" xmlns="http://www.w3.org/2000/svg" xmlns:xlink="http://www.w3.org/1999/xlink"><linearGradient id="lg1"><stop offset="0" stop-color="#60b7ff"/><stop offset=".5857" stop-color="#0182fc"/><stop offset="1" stop-color="#2740b0"/></linearGradient><linearGradient id="SVGID_1_" gradientUnits="userSpaceOnUse" x1="18.897" x2="654.388" xlink:href="#lg1" y1="180.537" y2="180.537"/><linearGradient id="SVGID_2_" gradientUnits="userSpaceOnUse" x1="-22" x2="557.086" xlink:href="#lg1" y1="200.528" y2="200.528"/><linearGradient id="SVGID_3_" gradientUnits="userSpaceOnUse" x1="-21.333" x2="395.116" xlink:href="#lg1" y1="229.862" y2="229.862"/><linearGradient id="lg2"><stop offset="0" stop-color="#bbec6c"/><stop offset=".5857" stop-color="#78a91f"/><stop offset="1" stop-color="#02905d"/></linearGradient><linearGradient id="SVGID_4_" gradientUnits="userSpaceOnUse" x1="148.985" x2="410.592" xlink:href="#lg2" y1="378.829" y2="378.829"/><linearGradient id="SVGID_5_" gradientUnits="userSpaceOnUse" x1="89.421" x2="352.195" xlink:href="#lg2" y1="378.824" y2="378.824"/><linearGradient id="SVGID_6_" gradientUnits="userSpaceOnUse" x1="190.594" x2="414.404" y1="177.013" y2="177.013"><stop offset="0" stop-color="#fef056"/><stop offset=".5213" stop-color="#fbc56d"/><stop offset="1" stop-color="#c86d36"/></linearGradient><g><path d="m412.581 142.223c-23.335-59.84-81.526-102.243-149.625-102.243-14.108 0-27.788 1.827-40.824 5.244-19.272-27.352-51.099-45.224-87.103-45.224-58.808 0-106.482 47.674-106.482 106.482 0 22.766 7.148 43.859 19.317 61.168-22.746 20.282-37.074 49.805-37.074 82.678 0 61.164 49.583 110.746 110.746 110.746h266.926c61.163 0 110.746-49.583 110.746-110.746.001-52.879-37.062-97.095-86.627-108.105z" fill="url(#SVGID_1_)"/><path d="m412.581 142.223c-23.335-59.84-81.526-102.242-149.625-102.242-6.767 0-13.433.431-19.98 1.246 59.31 7.387 108.575 47.121 129.585 100.997 49.564 11.01 86.628 55.225 86.628 108.104 0 61.164-49.583 110.746-110.746 110.746h40.02c61.163 0 110.746-49.583 110.746-110.746 0-52.879-37.063-97.095-86.628-108.105z" fill="url(#SVGID_2_)"/><path d="m297.171 334.44h-30.67v-42.208c11.207 2.893 25.244.342 37.589-7.909 14.253-9.527 22.343-24.043 21.982-36.967h.017v-97.906c0-8.849-5.719-16.684-14.147-19.381l-95.165-30.457c-2.005-.642-4.097-.968-6.203-.968-11.239 0-20.349 9.111-20.349 20.349v67.024c-10.614-1.715-23.216 1.072-34.425 8.564-19.714 13.177-27.647 35.901-17.719 50.753 9.928 14.853 33.958 16.212 53.672 3.034 14.253-9.527 22.343-24.042 21.982-36.967h.017v-69.779c0-3.475 3.383-5.944 6.692-4.885l78.554 25.14c2.124.68 3.566 2.655 3.566 4.885v55.207c-10.614-1.715-23.216 1.072-34.425 8.564-7.771 5.194-13.701 11.873-17.438 18.966-2.925-1.184-6.119-1.841-9.468-1.841h-21.7c-13.95 0-25.27 11.31-25.27 25.27v61.51h-30.67c-16.22 0-28.16 12.36-29.79 26.64h165.81c9.25 0 18.2-1.24 26.71-3.58-3.052-12.698-14.312-23.058-29.152-23.058z" fill="url(#SVGID_3_)"/><g><path d="m347.96 379.35-66.787 115.68c-11.523 19.96-40.332 19.96-51.856 0l-66.787-115.68c-11.523-19.959 2.881-44.908 25.928-44.908h30.668v-61.515c0-13.956 11.314-25.27 25.27-25.27h21.697c13.956 0 25.27 11.314 25.27 25.27v61.515h30.669c23.047 0 37.451 24.949 25.928 44.908z" fill="url(#SVGID_4_)"/><path d="m322.032 334.442h-30.669v-61.515c0-13.956-11.314-25.27-25.27-25.27h-21.697c-3.311 0-6.47.643-9.368 1.801 9.317 3.722 15.902 12.824 15.902 23.469v40.042c0 11.859 9.614 21.473 21.473 21.473h9.195c23.047 0 37.451 24.949 25.928 44.908l-66.787 115.68c-1.599 2.77-3.54 5.14-5.712 7.141 13.483 12.419 36.219 10.049 46.144-7.141l66.787-115.68c11.526-19.959-2.879-44.908-25.926-44.908z" fill="url(#SVGID_5_)"/></g><g><path d="m233.586 79.644c-11.239 0-20.349 9.111-20.349 20.349v67.025c-10.614-1.715-23.216 1.072-34.425 8.564-19.714 13.177-27.647 35.9-17.719 50.753s33.958 16.212 53.672 3.034c14.253-9.527 22.343-24.043 21.982-36.967h.017v-69.779c0-3.475 3.383-5.944 6.692-4.885l78.554 25.14c2.124.68 3.566 2.655 3.566 4.885v55.207c-10.614-1.715-23.216 1.072-34.425 8.564-19.714 13.177-27.647 35.9-17.719 50.753s33.958 16.212 53.672 3.034c14.253-9.527 22.343-24.043 21.982-36.967h.017v-97.904c0-8.849-5.719-16.684-14.147-19.381l-95.165-30.457c-2.008-.641-4.1-.968-6.205-.968z" fill="url(#SVGID_6_)"/></g></g></svg>