<svg id="Capa_1" enable-background="new 0 0 510 510" height="512" viewBox="0 0 510 510" width="512" xmlns="http://www.w3.org/2000/svg" xmlns:xlink="http://www.w3.org/1999/xlink"><linearGradient id="lg1"><stop offset="0" stop-color="#fef056"/><stop offset=".5213" stop-color="#fbc56d"/><stop offset="1" stop-color="#c86d36"/></linearGradient><linearGradient id="SVGID_1_" gradientUnits="userSpaceOnUse" x1="52.964" x2="436.646" xlink:href="#lg1" y1="255" y2="255"/><linearGradient id="SVGID_2_" gradientUnits="userSpaceOnUse" x1="69.805" x2="283.564" xlink:href="#lg1" y1="450.696" y2="450.696"/><linearGradient id="SVGID_3_" gradientUnits="userSpaceOnUse" x1="9.138" x2="286.902" xlink:href="#lg1" y1="194.614" y2="194.614"/><linearGradient id="SVGID_4_" gradientUnits="userSpaceOnUse" x1="-13.195" x2="404.81" xlink:href="#lg1" y1="255" y2="255"/><linearGradient id="lg2"><stop offset="0" stop-color="#fbc56d"/><stop offset=".593" stop-color="#dc8758"/><stop offset="1" stop-color="#9e5528"/></linearGradient><linearGradient id="SVGID_5_" gradientUnits="userSpaceOnUse" x1="115.805" x2="385.807" xlink:href="#lg2" y1="194.614" y2="194.614"/><linearGradient id="SVGID_6_" gradientUnits="userSpaceOnUse" x1="-14.69" x2="372.864" xlink:href="#lg2" y1="194.614" y2="194.614"/><linearGradient id="SVGID_7_" gradientTransform="matrix(.851 .525 -.525 .851 -1134.336 -466.001)" gradientUnits="userSpaceOnUse" x1="1606.911" x2="1716.076" y1="-154.815" y2="-154.815"><stop offset="0" stop-color="#537983"/><stop offset=".593" stop-color="#554e56"/><stop offset="1" stop-color="#433f43"/></linearGradient><linearGradient id="lg3"><stop offset="0" stop-color="#fe646f"/><stop offset=".593" stop-color="#fb2b3a"/><stop offset="1" stop-color="#c41926"/></linearGradient><linearGradient id="SVGID_8_" gradientTransform="matrix(.851 .525 -.525 .851 -1134.336 -466.001)" gradientUnits="userSpaceOnUse" x1="1588.911" x2="1705.431" xlink:href="#lg3" y1="-241.986" y2="-241.986"/><linearGradient id="SVGID_9_" gradientUnits="userSpaceOnUse" x1="234.472" x2="455.926" xlink:href="#lg3" y1="183.659" y2="183.659"/><linearGradient id="lg4"><stop offset="0" stop-color="#f8f6f7"/><stop offset=".1788" stop-color="#f8f6f7"/><stop offset="1" stop-color="#e7e6f5"/></linearGradient><linearGradient id="SVGID_10_" gradientTransform="matrix(.716 .698 -.698 .716 -3563.876 -342.835)" gradientUnits="userSpaceOnUse" x1="3215.833" x2="3311.833" xlink:href="#lg4" y1="-2108.095" y2="-2108.095"/><linearGradient id="SVGID_11_" gradientTransform="matrix(.716 .698 -.698 .716 -3564.28 -343.776)" gradientUnits="userSpaceOnUse" x1="3139.675" x2="3292.799" y1="-2107.703" y2="-2107.703"><stop offset="0" stop-color="#f8f6f7"/><stop offset="1" stop-color="#d1ceeb"/></linearGradient><linearGradient id="SVGID_12_" gradientUnits="userSpaceOnUse" x1="-14.294" x2="513.528" xlink:href="#lg4" y1="186.513" y2="186.513"/><g><path d="m405.762 510h-321.914c-18.982 0-33.469-16.966-30.496-35.714l71.096-448.246c2.379-14.998 15.311-26.04 30.496-26.04h179.722c15.186 0 28.117 11.042 30.496 26.04l71.096 448.246c2.973 18.748-11.514 35.714-30.496 35.714z" fill="url(#SVGID_1_)"/><circle cx="219.794" cy="450.696" fill="url(#SVGID_2_)" r="48"/><path d="m153.108 36.872c-8.836 0-16.361 6.425-17.745 15.152l-44.337 279.539c-2.177 13.728 11.376 24.589 24.32 19.527 4.637-1.814 9.34-3.496 14.091-5.072-3.223-3.757-4.942-8.868-4.056-14.455l44.338-279.539c1.384-8.727 8.909-15.152 17.745-15.152z" fill="url(#SVGID_3_)"/><path d="m436.258 474.286-41.251-260.079-7.163-45.162-22.683-143.005c-2.378-14.998-15.31-26.04-30.495-26.04h-40.02c15.186 0 28.117 11.042 30.496 26.04l32.399 204.266-9.055 24.754c-2.62 7.15-1.84 14.84 1.65 21.14l-94.108 152.715c-5.131 8.327.859 19.055 10.64 19.055 4.337 0 8.364-2.248 10.64-5.941l90.52-146.87 28.411 179.127c2.972 18.748-11.515 35.714-30.497 35.714h40.02c18.982 0 33.469-16.966 30.496-35.714z" fill="url(#SVGID_4_)"/><path d="m244.805 331.474c36.854 0 72.079 6.956 104.448 19.616 12.945 5.063 26.498-5.799 24.32-19.527l-44.337-279.539c-1.384-8.727-8.909-15.152-17.745-15.152h-133.372c-8.836 0-16.361 6.425-17.745 15.152l-44.338 279.539c-2.177 13.728 11.376 24.589 24.32 19.527 32.37-12.66 67.595-19.616 104.449-19.616z" fill="url(#SVGID_5_)"/><path d="m373.573 331.563-44.337-279.539c-1.384-8.727-8.909-15.152-17.745-15.152h-40.02c8.836 0 16.361 6.425 17.745 15.152l40.748 256.909-18.669 30.296c8.47 2.011 16.793 4.4 24.953 7.144 4.382 1.473 8.72 3.042 13.005 4.717 12.944 5.062 26.497-5.799 24.32-19.527z" fill="url(#SVGID_6_)"/><g><g><path d="m238.247 436.326c-5.877-3.622-7.705-11.323-4.083-17.2l199.729-324.081c3.622-5.877 11.323-7.705 17.2-4.083s7.705 11.323 4.083 17.2l-199.73 324.081c-3.622 5.877-11.322 7.705-17.199 4.083z" fill="url(#SVGID_7_)"/><path d="m442.507 151.372-41.52-25.589c-9.174-5.654-21.226-1.473-24.929 8.647l-27.573 75.367c-4.166 11.387.255 24.132 10.577 30.494 10.322 6.361 23.695 4.582 31.994-4.257l54.932-58.506c7.376-7.856 5.693-20.502-3.481-26.156z" fill="url(#SVGID_8_)"/><path d="m442.507 151.372-41.52-25.589c-6.984-4.304-15.633-2.904-20.999 2.473l37.508 23.116c9.174 5.654 10.857 18.299 3.48 26.155l-54.932 58.506c-1.814 1.932-3.881 3.506-6.095 4.752 10.192 5.737 23.041 3.838 31.106-4.752l54.932-58.506c7.376-7.855 5.694-20.501-3.48-26.155z" fill="url(#SVGID_9_)"/></g><circle cx="244.805" cy="425.685" fill="url(#SVGID_10_)" r="48"/><path d="m278.309 391.312c-3.805-3.709-8.073-6.645-12.607-8.839 9.209 17.856 6.506 40.321-8.289 55.5s-37.183 18.456-55.269 9.708c2.309 4.476 5.353 8.668 9.158 12.377 18.984 18.504 49.373 18.114 67.877-.869 18.502-18.984 18.113-49.373-.87-67.877z" fill="url(#SVGID_11_)"/></g><path d="m266.467 118.79c5.523 0 10-4.477 10-10 0-5.523-4.477-10-10-10h-11.662v-30.732c0-5.523-4.477-10-10-10-5.523 0-10 4.477-10 10v30.732h-11.662c-5.523 0-10 4.477-10 10s4.477 10 10 10h11.662v31.815h-11.662c-5.523 0-10 4.477-10 10s4.477 10 10 10h11.662v31.815h-11.662c-5.523 0-10 4.477-10 10s4.477 10 10 10h11.662v31.815h-11.662c-5.523 0-10 4.477-10 10s4.477 10 10 10h11.662v30.732c0 5.523 4.477 10 10 10s10-4.477 10-10v-30.732h11.662c5.523 0 10-4.477 10-10 0-5.523-4.477-10-10-10h-11.662v-31.815h11.662c5.523 0 10-4.477 10-10 0-5.523-4.477-10-10-10h-11.662v-31.815h11.662c5.523 0 10-4.477 10-10 0-5.523-4.477-10-10-10h-11.662v-31.815z" fill="url(#SVGID_12_)"/></g></svg>