<svg id="Capa_1" enable-background="new 0 0 510.001 510.001" height="512" viewBox="0 0 510.001 510.001" width="512" xmlns="http://www.w3.org/2000/svg" xmlns:xlink="http://www.w3.org/1999/xlink"><linearGradient id="lg1"><stop offset="0" stop-color="#537983"/><stop offset=".593" stop-color="#554e56"/><stop offset="1" stop-color="#433f43"/></linearGradient><linearGradient id="SVGID_1_" gradientTransform="matrix(.707 .707 -.707 .707 43.198 709.344)" gradientUnits="userSpaceOnUse" x1="-205.995" x2="-134.5" xlink:href="#lg1" y1="-785.274" y2="-785.274"/><linearGradient id="lg2"><stop offset="0" stop-color="#60b7ff"/><stop offset=".5857" stop-color="#0182fc"/><stop offset="1" stop-color="#2740b0"/></linearGradient><linearGradient id="SVGID_2_" gradientUnits="userSpaceOnUse" x1="416.668" x2="481.677" xlink:href="#lg2" y1="93.334" y2="28.325"/><linearGradient id="lg3"><stop offset="0" stop-color="#f8f6f7"/><stop offset=".1788" stop-color="#f8f6f7"/><stop offset="1" stop-color="#e7e6f5"/></linearGradient><linearGradient id="SVGID_3_" gradientTransform="matrix(.707 -.707 .707 .707 -431.469 -461.421)" gradientUnits="userSpaceOnUse" x1="-253.751" x2="-185.297" xlink:href="#lg3" y1="1014.917" y2="1014.917"/><linearGradient id="SVGID_4_" gradientTransform="matrix(.707 -.707 .707 .707 -431.469 -461.421)" gradientUnits="userSpaceOnUse" x1="-188.56" x2="-120.106" xlink:href="#lg3" y1="1014.917" y2="1014.917"/><linearGradient id="SVGID_5_" gradientTransform="matrix(.707 -.707 .707 .707 -431.469 -461.421)" gradientUnits="userSpaceOnUse" x1="-123.368" x2="-54.914" xlink:href="#lg3" y1="1014.917" y2="1014.917"/><linearGradient id="SVGID_6_" gradientTransform="matrix(.707 -.707 .707 .707 -431.469 -461.421)" gradientUnits="userSpaceOnUse" x1="-58.177" x2="10.277" xlink:href="#lg3" y1="1014.917" y2="1014.917"/><linearGradient id="SVGID_7_" gradientTransform="matrix(.707 -.707 .707 .707 -431.469 -461.421)" gradientUnits="userSpaceOnUse" x1="7.014" x2="75.468" xlink:href="#lg3" y1="1014.917" y2="1014.917"/><linearGradient id="SVGID_8_" gradientTransform="matrix(.707 -.707 .707 .707 -431.469 -461.421)" gradientUnits="userSpaceOnUse" x1="72.205" x2="140.659" xlink:href="#lg3" y1="1014.917" y2="1014.917"/><linearGradient id="SVGID_9_" gradientTransform="matrix(.707 -.707 .707 .707 -431.469 -461.421)" gradientUnits="userSpaceOnUse" x1="137.396" x2="205.85" xlink:href="#lg3" y1="1014.917" y2="1014.917"/><linearGradient id="lg4"><stop offset="0" stop-color="#f8f6f7"/><stop offset="1" stop-color="#d1ceeb"/></linearGradient><linearGradient id="SVGID_10_" gradientTransform="matrix(.707 -.707 .707 .707 -406.637 -471.707)" gradientUnits="userSpaceOnUse" x1="44.416" x2="181.998" xlink:href="#lg4" y1="1004.631" y2="1004.631"/><linearGradient id="SVGID_11_" gradientTransform="matrix(.707 -.707 .707 .707 -406.637 -471.707)" gradientUnits="userSpaceOnUse" x1="-290.244" x2="-221.78" xlink:href="#lg4" y1="961.958" y2="961.958"/><linearGradient id="SVGID_12_" gradientTransform="matrix(.707 -.707 .707 .707 -406.637 -471.707)" gradientUnits="userSpaceOnUse" x1="-228.514" x2="-160.062" xlink:href="#lg4" y1="952.043" y2="952.043"/><linearGradient id="SVGID_13_" gradientTransform="matrix(.707 -.707 .707 .707 -406.637 -471.707)" gradientUnits="userSpaceOnUse" x1="-149.511" x2="-81.058" xlink:href="#lg4" y1="952.043" y2="952.043"/><linearGradient id="SVGID_14_" gradientTransform="matrix(.707 -.707 .707 .707 -406.637 -471.707)" gradientUnits="userSpaceOnUse" x1="-94.678" x2="-26.225" xlink:href="#lg4" y1="952.043" y2="952.043"/><linearGradient id="SVGID_15_" gradientTransform="matrix(.707 -.707 .707 .707 -406.637 -471.707)" gradientUnits="userSpaceOnUse" x1="-30.145" x2="38.308" xlink:href="#lg4" y1="952.043" y2="952.043"/><linearGradient id="SVGID_16_" gradientTransform="matrix(.707 -.707 .707 .707 -406.637 -471.707)" gradientUnits="userSpaceOnUse" x1="42.345" x2="110.798" xlink:href="#lg4" y1="952.043" y2="952.043"/><linearGradient id="SVGID_17_" gradientTransform="matrix(.707 -.707 .707 .707 -431.469 -461.421)" gradientUnits="userSpaceOnUse" x1="-206.958" x2="-164.593" xlink:href="#lg1" y1="989.907" y2="989.907"/><linearGradient id="SVGID_18_" gradientTransform="matrix(.707 -.707 .707 .707 -431.469 -461.421)" gradientUnits="userSpaceOnUse" x1="-141.766" x2="-99.402" xlink:href="#lg1" y1="989.907" y2="989.907"/><linearGradient id="SVGID_19_" gradientTransform="matrix(.707 -.707 .707 .707 -431.469 -461.421)" gradientUnits="userSpaceOnUse" x1="-11.384" x2="30.981" xlink:href="#lg1" y1="989.907" y2="989.907"/><linearGradient id="SVGID_20_" gradientTransform="matrix(.707 -.707 .707 .707 -431.469 -461.421)" gradientUnits="userSpaceOnUse" x1="53.807" x2="96.172" xlink:href="#lg1" y1="989.907" y2="989.907"/><linearGradient id="SVGID_21_" gradientTransform="matrix(.707 -.707 .707 .707 -431.469 -461.421)" gradientUnits="userSpaceOnUse" x1="118.998" x2="161.363" xlink:href="#lg1" y1="989.907" y2="989.907"/><linearGradient id="SVGID_22_" gradientTransform="matrix(.707 -.707 .707 .707 -406.637 -471.707)" gradientUnits="userSpaceOnUse" x1="52.322" x2="126.992" xlink:href="#lg1" y1="952.038" y2="952.038"/><linearGradient id="SVGID_23_" gradientTransform="matrix(.707 -.707 .707 .707 -406.637 -471.707)" gradientUnits="userSpaceOnUse" x1="-12.868" x2="61.802" xlink:href="#lg1" y1="952.038" y2="952.038"/><linearGradient id="SVGID_24_" gradientTransform="matrix(.707 -.707 .707 .707 -406.637 -471.707)" gradientUnits="userSpaceOnUse" x1="-78.059" x2="-3.389" xlink:href="#lg1" y1="952.038" y2="952.038"/><linearGradient id="SVGID_25_" gradientTransform="matrix(.707 -.707 .707 .707 -406.637 -471.707)" gradientUnits="userSpaceOnUse" x1="-208.441" x2="-133.771" xlink:href="#lg1" y1="952.038" y2="952.038"/><linearGradient id="SVGID_26_" gradientTransform="matrix(.707 -.707 .707 .707 -406.637 -471.707)" gradientUnits="userSpaceOnUse" x1="-273.632" x2="-198.963" xlink:href="#lg1" y1="952.038" y2="952.038"/><linearGradient id="SVGID_27_" gradientTransform="matrix(.707 -.707 .707 .707 -406.637 -471.707)" gradientUnits="userSpaceOnUse" x1="-346.994" x2="391.773" xlink:href="#lg2" y1="981.708" y2="981.708"/><linearGradient id="SVGID_28_" gradientTransform="matrix(.707 -.707 .707 .707 -406.637 -471.707)" gradientUnits="userSpaceOnUse" x1="-348.011" x2="-219.248" xlink:href="#lg2" y1="1020.172" y2="1020.172"/><linearGradient id="SVGID_29_" gradientTransform="matrix(.707 -.707 .707 .707 -406.637 -471.707)" gradientUnits="userSpaceOnUse" x1="-22.011" x2="225.444" xlink:href="#lg2" y1="981.708" y2="981.708"/><linearGradient id="SVGID_30_" gradientUnits="userSpaceOnUse" x1="51.001" x2="104.853" xlink:href="#lg2" y1="459.001" y2="405.149"/><linearGradient id="SVGID_31_" gradientTransform="matrix(.707 -.707 .707 .707 -406.637 -471.707)" gradientUnits="userSpaceOnUse" x1="-341.011" x2="-271.366" xlink:href="#lg2" y1="981.739" y2="981.739"/><linearGradient id="SVGID_32_" gradientTransform="matrix(.707 -.707 .707 .707 72.205 -198.66)" gradientUnits="userSpaceOnUse" x1="-250.078" x2="-124.441" y1="383.133" y2="383.133"><stop offset="0" stop-color="#fef056"/><stop offset=".5213" stop-color="#fbc56d"/><stop offset="1" stop-color="#c86d36"/></linearGradient><g><path d="m496.726 35.82 11.491-11.491c2.378-2.378 2.378-6.234 0-8.612l-13.934-13.933c-2.378-2.378-6.234-2.378-8.612 0l-11.491 11.491c-3.083 3.083-7.191 5.013-11.548 5.159-4.666.156-9.285 2.013-12.846 5.574l-1.246 1.246c-7.452 7.452-7.452 19.535 0 26.988l9.22 9.22c7.452 7.452 19.535 7.452 26.988 0l1.246-1.246c3.562-3.562 5.419-8.181 5.574-12.846.145-4.359 2.075-8.467 5.158-11.55z" fill="url(#SVGID_1_)"/><path d="m464.698 97.206-51.903-51.903 13.884-13.884c4.16-4.16 10.903-4.16 15.063 0l36.84 36.84c4.16 4.16 4.16 10.903 0 15.063z" fill="url(#SVGID_2_)"/><g><path d="m198.076 454.786-19.513 19.514c-7.341 7.341-19.243 7.341-26.584 0l-83.86-83.86c-7.341-7.341-7.341-19.243 0-26.584l19.513-19.513c7.341-7.341 19.243-7.341 26.584 0l83.86 83.86c7.341 7.34 7.341 19.242 0 26.583z" fill="url(#SVGID_3_)"/><path d="m244.173 408.689-19.513 19.513c-7.341 7.341-19.243 7.341-26.584 0l-83.86-83.86c-7.341-7.341-7.341-19.243 0-26.584l19.513-19.513c7.341-7.341 19.243-7.341 26.584 0l83.86 83.86c7.341 7.341 7.341 19.243 0 26.584z" fill="url(#SVGID_4_)"/><path d="m290.27 362.592-19.513 19.513c-7.341 7.341-19.243 7.341-26.584 0l-83.86-83.86c-7.341-7.341-7.341-19.243 0-26.584l19.513-19.513c7.341-7.341 19.243-7.341 26.584 0l83.86 83.86c7.341 7.341 7.341 19.243 0 26.584z" fill="url(#SVGID_5_)"/><path d="m336.367 316.495-19.513 19.513c-7.341 7.341-19.243 7.341-26.584 0l-83.86-83.86c-7.341-7.341-7.341-19.243 0-26.584l19.513-19.513c7.341-7.341 19.243-7.341 26.584 0l83.86 83.86c7.341 7.341 7.341 19.243 0 26.584z" fill="url(#SVGID_6_)"/><path d="m382.465 270.398-19.513 19.513c-7.341 7.341-19.243 7.341-26.584 0l-83.86-83.86c-7.341-7.341-7.341-19.243 0-26.584l19.513-19.513c7.341-7.341 19.243-7.341 26.584 0l83.86 83.86c7.341 7.341 7.341 19.243 0 26.584z" fill="url(#SVGID_7_)"/><path d="m428.562 224.301-19.513 19.513c-7.341 7.341-19.243 7.341-26.584 0l-83.86-83.86c-7.341-7.341-7.341-19.243 0-26.584l19.513-19.513c7.341-7.341 19.243-7.341 26.584 0l83.86 83.86c7.341 7.341 7.341 19.243 0 26.584z" fill="url(#SVGID_8_)"/><path d="m474.659 178.204-19.513 19.513c-7.341 7.341-19.243 7.341-26.584 0l-83.86-83.86c-7.341-7.341-7.341-19.243 0-26.584l19.513-19.513c7.341-7.341 19.243-7.341 26.584 0l83.86 83.86c7.341 7.341 7.341 19.243 0 26.584z" fill="url(#SVGID_9_)"/><path d="m364.215 67.76-19.513 19.513c-1.542 1.542-2.74 3.292-3.634 5.151 0 0-.332.67-.494 1.068-2.754 6.788-1.381 14.86 4.13 20.37l22.776 22.776 1.985-1.985c8.734-8.734 22.895-8.734 31.629 0l45.266 45.266c5.799 5.799 6.997 14.438 3.634 21.433 1.86-.894 3.609-2.092 5.151-3.634l19.513-19.513c7.341-7.341 7.341-19.243 0-26.584l-83.86-83.86c-7.34-7.342-19.242-7.342-26.583-.001z" fill="url(#SVGID_10_)"/></g><path d="m114.223 344.343 22.776 22.776-32.081 32.081c-7.743 7.743-7.743 20.301 0 28.044l-36.798-36.798c-7.347-7.347-7.34-19.247 0-26.587l19.516-19.516c7.339-7.339 19.24-7.347 26.587 0z" fill="url(#SVGID_11_)"/><path d="m160.319 298.247 22.776 22.776-46.096 46.096-22.776-22.776c-7.347-7.347-7.347-19.24-.007-26.58l19.516-19.516c7.34-7.34 19.24-7.347 26.587 0z" fill="url(#SVGID_12_)"/><path d="m206.415 252.151 22.776 22.776-46.096 46.096-22.776-22.776c-7.347-7.347-7.347-19.24-.007-26.58l19.516-19.516c7.34-7.34 19.24-7.347 26.587 0z" fill="url(#SVGID_13_)"/><path d="m252.512 206.054 22.776 22.776-46.096 46.096-22.776-22.776c-7.347-7.347-7.347-19.24 0-26.587l19.509-19.509c7.339-7.339 19.24-7.346 26.587 0z" fill="url(#SVGID_14_)"/><path d="m298.608 159.958 22.776 22.776-46.096 46.096-22.776-22.776c-7.347-7.347-7.34-19.247 0-26.587l19.509-19.509c7.339-7.34 19.24-7.347 26.587 0z" fill="url(#SVGID_15_)"/><path d="m344.704 113.862 22.776 22.776-46.096 46.096-22.776-22.776c-7.347-7.347-7.34-19.247 0-26.587l19.509-19.509c7.347-7.347 19.24-7.347 26.587 0z" fill="url(#SVGID_16_)"/><path d="m181.643 400.483-11.286 11.286c-4.761 4.761-12.481 4.761-17.242 0l-57.833-57.833c-4.761-4.761-4.761-12.481 0-17.242l11.286-11.286c4.761-4.761 12.481-4.761 17.242 0l57.833 57.833c4.761 4.761 4.761 12.481 0 17.242z" fill="url(#SVGID_17_)"/><path d="m227.74 354.386-11.286 11.286c-4.761 4.761-12.481 4.761-17.242 0l-57.833-57.833c-4.761-4.761-4.761-12.481 0-17.242l11.286-11.286c4.761-4.761 12.481-4.761 17.242 0l57.833 57.833c4.761 4.761 4.761 12.481 0 17.242z" fill="url(#SVGID_18_)"/><path d="m319.934 262.192-11.286 11.286c-4.761 4.761-12.481 4.761-17.242 0l-57.833-57.833c-4.761-4.761-4.761-12.481 0-17.242l11.286-11.286c4.761-4.761 12.481-4.761 17.242 0l57.833 57.833c4.761 4.761 4.761 12.48 0 17.242z" fill="url(#SVGID_19_)"/><path d="m366.031 216.095-11.286 11.286c-4.761 4.761-12.481 4.761-17.242 0l-57.833-57.833c-4.761-4.761-4.761-12.481 0-17.242l11.286-11.286c4.761-4.761 12.481-4.761 17.242 0l57.833 57.833c4.762 4.761 4.762 12.48 0 17.242z" fill="url(#SVGID_20_)"/><path d="m412.128 169.997-11.286 11.286c-4.761 4.761-12.481 4.761-17.242 0l-57.833-57.833c-4.761-4.761-4.761-12.481 0-17.242l11.286-11.286c4.761-4.761 12.481-4.761 17.242 0l57.833 57.833c4.762 4.761 4.762 12.481 0 17.242z" fill="url(#SVGID_21_)"/><path d="m354.293 94.926 27.443 27.443-28.525 28.525-27.443-27.443c-4.759-4.759-4.759-12.48 0-17.239l11.285-11.285c4.766-4.767 12.481-4.76 17.24-.001z" fill="url(#SVGID_22_)"/><path d="m308.197 141.021 27.443 27.443-28.525 28.525-27.443-27.443c-4.759-4.759-4.759-12.48 0-17.239l11.285-11.285c4.766-4.766 12.481-4.759 17.24-.001z" fill="url(#SVGID_23_)"/><path d="m262.099 187.119 27.443 27.443-28.525 28.525-27.443-27.443c-4.759-4.759-4.759-12.48 0-17.239l11.285-11.285c4.767-4.767 12.482-4.76 17.24-.001z" fill="url(#SVGID_24_)"/><path d="m169.905 279.313 27.443 27.443-28.525 28.525-27.443-27.443c-4.759-4.759-4.759-12.48 0-17.239l11.285-11.285c4.767-4.767 12.481-4.76 17.24-.001z" fill="url(#SVGID_25_)"/><path d="m123.808 325.41 27.443 27.443-28.525 28.525-27.443-27.443c-4.759-4.759-4.759-12.48 0-17.239l11.285-11.285c4.767-4.767 12.481-4.76 17.24-.001z" fill="url(#SVGID_26_)"/><path d="m504.574 128.237 2.496 3.924c2.362 3.719 3.274 8.011 2.814 12.148-.452 4.144-2.277 8.132-5.395 11.25-7.347 7.347-19.262 7.34-26.608-.007l-68.321-68.32c-7.743-7.743-20.301-7.743-28.044 0l-294.284 294.284c-7.743 7.743-7.743 20.301 0 28.044l68.321 68.321c3.677 3.677 5.515 8.485 5.515 13.308 0 4.808-1.839 9.631-5.508 13.301-6.23 6.23-15.959 7.304-23.398 2.581l-3.924-2.496c-49.469-31.41-91.401-73.341-122.81-122.81l-2.496-3.924c-4.723-7.439-3.649-17.169 2.581-23.398l348.928-348.931c6.23-6.23 15.959-7.304 23.398-2.581l3.924 2.496c49.47 31.41 91.401 73.341 122.811 122.81z" fill="url(#SVGID_27_)"/><path d="m69.548 399.203c-7.742 7.742-7.742 20.295 0 28.037l68.323 68.323c3.951 3.951 5.757 9.22 5.459 14.391 4.487-.259 8.865-2.104 12.226-5.465 7.348-7.348 7.348-19.262 0-26.611l-68.324-68.323c-7.742-7.742-7.742-20.295 0-28.037z" fill="url(#SVGID_28_)"/><path d="m381.76 5.424-3.924-2.492c-7.439-4.723-17.16-3.651-23.392 2.58l-28.298 28.298c6.231-6.231 15.952-7.303 23.391-2.58l3.924 2.492c46.976 29.827 87.15 69.149 117.978 115.396l6.439 6.439c7.348 7.348 19.262 7.348 26.611 0 6.231-6.231 7.303-15.952 2.58-23.391l-2.492-3.924c-31.411-49.472-73.346-91.407-122.817-122.818z" fill="url(#SVGID_29_)"/><circle cx="76.501" cy="433.5" fill="url(#SVGID_30_)" r="17.5"/><path d="m65.055 420.286c.965 2.533 2.452 4.912 4.493 6.953l18.963 18.963c.119-.113.247-.212.363-.328 6.834-6.834 6.834-17.915 0-24.749-6.535-6.535-16.944-6.803-23.819-.839z" fill="url(#SVGID_31_)"/><path d="m245.234 187.834-57.4 57.4c-3.252 3.252-8.525 3.252-11.777 0l-5.915-5.915c-3.252-3.252-3.252-8.525 0-11.777l57.4-57.4c3.252-3.252 8.525-3.252 11.777 0l5.915 5.915c3.252 3.252 3.252 8.525 0 11.777z" fill="url(#SVGID_32_)"/></g></svg>