<svg id="Capa_1" enable-background="new 0 0 510 510" height="512" viewBox="0 0 510 510" width="512" xmlns="http://www.w3.org/2000/svg" xmlns:xlink="http://www.w3.org/1999/xlink"><linearGradient id="lg1"><stop offset="0" stop-color="#537983"/><stop offset=".593" stop-color="#554e56"/><stop offset="1" stop-color="#433f43"/></linearGradient><linearGradient id="SVGID_1_" gradientUnits="userSpaceOnUse" x1="318.453" x2="488.11" xlink:href="#lg1" y1="118.579" y2="118.579"/><linearGradient id="SVGID_2_" gradientUnits="userSpaceOnUse" x1="70.298" x2="382.955" xlink:href="#lg1" y1="183.333" y2="183.333"/><linearGradient id="SVGID_3_" gradientUnits="userSpaceOnUse" x1="376.893" x2="469.855" xlink:href="#lg1" y1="436.014" y2="436.014"/><linearGradient id="lg2"><stop offset="0" stop-color="#60b7ff"/><stop offset=".5857" stop-color="#0182fc"/><stop offset="1" stop-color="#2740b0"/></linearGradient><linearGradient id="SVGID_4_" gradientUnits="userSpaceOnUse" x1="284.921" x2="459.021" xlink:href="#lg2" y1="409.125" y2="409.125"/><linearGradient id="lg3"><stop offset="0" stop-color="#f8f6f7"/><stop offset=".1788" stop-color="#f8f6f7"/><stop offset="1" stop-color="#e7e6f5"/></linearGradient><linearGradient id="SVGID_5_" gradientUnits="userSpaceOnUse" x1="291.093" x2="457.8" xlink:href="#lg3" y1="409.125" y2="409.125"/><linearGradient id="SVGID_6_" gradientUnits="userSpaceOnUse" x1="371.059" x2="469.836" xlink:href="#lg1" y1="312.579" y2="312.579"/><linearGradient id="SVGID_7_" gradientUnits="userSpaceOnUse" x1="386.393" x2="568.43" xlink:href="#lg2" y1="285.69" y2="285.69"/><linearGradient id="SVGID_8_" gradientTransform="matrix(-1 0 0 1 -230.111 0)" gradientUnits="userSpaceOnUse" x1="-785.469" x2="-618.763" xlink:href="#lg3" y1="285.69" y2="285.69"/><linearGradient id="SVGID_9_" gradientUnits="userSpaceOnUse" x1="50.893" x2="124.326" xlink:href="#lg2" y1="56.5" y2="56.5"/><linearGradient id="SVGID_10_" gradientUnits="userSpaceOnUse" x1="-123.95" x2="441.218" xlink:href="#lg2" y1="286.711" y2="286.711"/><linearGradient id="SVGID_11_" gradientUnits="userSpaceOnUse" x1="-62.219" x2="196.409" xlink:href="#lg2" y1="401.705" y2="401.705"/><linearGradient id="SVGID_12_" gradientUnits="userSpaceOnUse" x1="20.798" x2="328.878" xlink:href="#lg2" y1="286.711" y2="286.711"/><linearGradient id="SVGID_13_" gradientUnits="userSpaceOnUse" x1="-47.169" x2="368.749" xlink:href="#lg3" y1="191.416" y2="191.416"/><linearGradient id="lg4"><stop offset="0" stop-color="#f8f6f7"/><stop offset="1" stop-color="#d1ceeb"/></linearGradient><linearGradient id="SVGID_14_" gradientUnits="userSpaceOnUse" x1="127.798" x2="286.054" xlink:href="#lg4" y1="191.416" y2="191.416"/><linearGradient id="SVGID_15_" gradientUnits="userSpaceOnUse" x1="5.638" x2="318.907" xlink:href="#lg3" y1="401.705" y2="401.705"/><linearGradient id="SVGID_16_" gradientUnits="userSpaceOnUse" x1="148.529" x2="197.067" xlink:href="#lg3" y1="401.705" y2="401.705"/><linearGradient id="SVGID_17_" gradientUnits="userSpaceOnUse" x1="73.065" x2="331.135" y1="191.416" y2="191.416"><stop offset="0" stop-color="#fe646f"/><stop offset=".593" stop-color="#fb2b3a"/><stop offset="1" stop-color="#c41926"/></linearGradient><linearGradient id="SVGID_18_" gradientUnits="userSpaceOnUse" x1="97.969" x2="277.923" xlink:href="#lg4" y1="401.705" y2="401.705"/><g><path d="m487.893 237.158h-25v-165.543c0-25.704-20.911-46.615-46.615-46.615h-89.278v-25h89.277c39.488 0 71.615 32.126 71.615 71.615v165.543z" fill="url(#SVGID_1_)"/><path d="m382.955 366.667h-25v-301.711c0-22.032-17.924-39.956-39.955-39.956h-182.746c-22.032 0-39.956 17.924-39.956 39.956h-25c0-35.816 29.139-64.956 64.956-64.956h182.746c35.816 0 64.955 29.14 64.955 64.956z" fill="url(#SVGID_2_)"/><g><path d="m434.975 467.137 3.037-1.754c22.609-13.053 22.609-45.686 0-58.739l-3.037-1.754c-7.219-4.168-16.243 1.042-16.243 9.378 0 3.466-2.81 6.276-6.276 6.276h-23.973v30.938h23.973c3.466 0 6.276 2.81 6.276 6.276 0 8.337 9.024 13.547 16.243 9.379z" fill="url(#SVGID_3_)"/><path d="m390.806 398.158v-29.958c0-6.191-5.019-11.21-11.21-11.21h-16.681c-6.191 0-11.21 5.019-11.21 11.21v54.896c0 21.077 17.087 38.164 38.164 38.164h15.047c7.793 0 14.11-6.317 14.11-14.11v-20.773c0-7.793-6.317-14.11-14.11-14.11-7.793.001-14.11-6.316-14.11-14.109z" fill="url(#SVGID_4_)"/><path d="m372.926 391.116c-5.523 0-10 4.477-10 10v16.018c0 5.523 4.477 10 10 10s10-4.477 10-10v-16.018c0-5.523-4.477-10-10-10z" fill="url(#SVGID_5_)"/></g><g><path d="m411.476 343.702-3.037-1.754c-22.609-13.053-22.609-45.686 0-58.739l3.037-1.754c7.219-4.168 16.243 1.042 16.243 9.378 0 3.466 2.81 6.276 6.276 6.276h23.973v30.938h-23.973c-3.466 0-6.276 2.81-6.276 6.276 0 8.337-9.024 13.546-16.243 9.379z" fill="url(#SVGID_6_)"/><path d="m455.645 274.723v-29.958c0-6.191 5.019-11.21 11.21-11.21h16.681c6.191 0 11.21 5.019 11.21 11.21v54.896c0 21.077-17.087 38.164-38.164 38.164h-15.047c-7.793 0-14.11-6.317-14.11-14.11v-20.773c0-7.793 6.317-14.11 14.11-14.11 7.793 0 14.11-6.317 14.11-14.109z" fill="url(#SVGID_7_)"/><path d="m473.525 267.681c5.523 0 10 4.477 10 10v16.018c0 5.523-4.477 10-10 10s-10-4.477-10-10v-16.018c0-5.523 4.477-10.001 10-10z" fill="url(#SVGID_8_)"/></g><path d="m124.326 74h-73.433v-14.695c0-11.214 9.091-20.305 20.305-20.305h32.822c11.214 0 20.305 9.091 20.305 20.305v14.695z" fill="url(#SVGID_9_)"/><g><path d="m285.704 510h-237.812c-18.025 0-32.638-14.612-32.638-32.638v-381.303c0-18.025 14.612-32.638 32.638-32.638h237.813c18.025 0 32.638 14.612 32.638 32.638v381.303c-.001 18.026-14.613 32.638-32.639 32.638z" fill="url(#SVGID_10_)"/><path d="m89.798 401.705c0-40.917 29.261-74.983 67.994-82.458-5.183-1-10.53-1.542-16.005-1.542-46.392 0-84 37.608-84 84s37.608 84 84 84c5.475 0 10.822-.541 16.005-1.542-38.733-7.475-67.994-41.542-67.994-82.458z" fill="url(#SVGID_11_)"/><path d="m285.704 63.421h-40.02c18.025 0 32.638 14.612 32.638 32.638v381.303c0 18.025-14.612 32.638-32.638 32.638h40.02c18.025 0 32.638-14.612 32.638-32.638v-381.303c0-18.026-14.612-32.638-32.638-32.638z" fill="url(#SVGID_12_)"/><path d="m266.213 281.38h-198.83c-6.688 0-12.109-5.421-12.109-12.109v-155.711c0-6.688 5.421-12.109 12.109-12.109h198.831c6.688 0 12.109 5.421 12.109 12.109v155.71c-.001 6.688-5.422 12.11-12.11 12.11z" fill="url(#SVGID_13_)"/><path d="m266.213 101.452h-25.011c6.688 0 12.109 5.421 12.109 12.109v155.71c0 6.688-5.421 12.109-12.109 12.109h25.011c6.688 0 12.109-5.421 12.109-12.109v-155.711c0-6.687-5.421-12.108-12.109-12.108z" fill="url(#SVGID_14_)"/><path d="m166.798 317.705c-46.392 0-84 37.608-84 84s37.608 84 84 84 84-37.608 84-84-37.608-84-84-84zm0 127.77c-24.174 0-43.77-19.597-43.77-43.77 0-24.174 19.597-43.771 43.77-43.771s43.77 19.597 43.77 43.771c0 24.173-19.596 43.77-43.77 43.77z" fill="url(#SVGID_15_)"/><path d="m191.788 392.562-27.424-15.833c-7.038-4.063-15.835 1.016-15.835 9.142v31.666c0 8.127 8.797 13.206 15.835 9.142l27.424-15.833c7.038-4.062 7.038-14.221 0-18.284z" fill="url(#SVGID_16_)"/><path d="m144.331 108.641c-9.554 0-17.299 7.745-17.299 17.299v56.979c-9.023-1.458-19.736.911-29.266 7.281-16.759 11.202-23.503 30.52-15.063 43.146 8.44 12.627 28.868 13.782 45.627 2.579 12.117-8.099 18.994-20.439 18.687-31.427h.015v-59.32c0-2.954 2.876-5.053 5.689-4.153l66.78 21.372c1.806.578 3.031 2.257 3.031 4.153v46.932c-9.023-1.458-19.736.911-29.266 7.281-16.759 11.202-23.503 30.52-15.063 43.146 8.44 12.627 28.868 13.782 45.627 2.579 12.117-8.099 18.994-20.439 18.687-31.427h.015v-83.23c0-7.523-4.862-14.183-12.026-16.476l-80.902-25.892c-1.705-.544-3.484-.822-5.273-.822z" fill="url(#SVGID_17_)"/><path d="m166.798 317.705c-4.25 0-8.425.322-12.505.931 40.46 6.04 71.495 40.927 71.495 83.069s-31.035 77.029-71.495 83.069c4.081.609 8.255.931 12.505.931 46.392 0 84-37.608 84-84s-37.608-84-84-84z" fill="url(#SVGID_18_)"/></g></g></svg>