<svg id="Capa_1" enable-background="new 0 0 510 510" height="512" viewBox="0 0 510 510" width="512" xmlns="http://www.w3.org/2000/svg" xmlns:xlink="http://www.w3.org/1999/xlink"><linearGradient id="lg1"><stop offset="0" stop-color="#fef056"/><stop offset=".5213" stop-color="#fbc56d"/><stop offset="1" stop-color="#c86d36"/></linearGradient><linearGradient id="SVGID_1_" gradientUnits="userSpaceOnUse" x1="14.57" x2="123.95" xlink:href="#lg1" y1="262.285" y2="262.285"/><linearGradient id="SVGID_2_" gradientUnits="userSpaceOnUse" x1="25.333" x2="94.631" xlink:href="#lg1" y1="315.67" y2="315.67"/><linearGradient id="SVGID_3_" gradientUnits="userSpaceOnUse" x1="-38" x2="128.863" xlink:href="#lg1" y1="88.635" y2="88.635"/><linearGradient id="SVGID_4_" gradientUnits="userSpaceOnUse" x1="41" x2="97.593" xlink:href="#lg1" y1="211.057" y2="211.057"/><linearGradient id="SVGID_5_" gradientUnits="userSpaceOnUse" x1="21.333" x2="91.029" xlink:href="#lg1" y1="232.501" y2="232.501"/><linearGradient id="SVGID_6_" gradientUnits="userSpaceOnUse" x1="41" x2="97.593" xlink:href="#lg1" y1="253.945" y2="253.945"/><linearGradient id="SVGID_7_" gradientUnits="userSpaceOnUse" x1="21.333" x2="91.029" xlink:href="#lg1" y1="275.389" y2="275.389"/><linearGradient id="SVGID_8_" gradientUnits="userSpaceOnUse" x1="41" x2="97.593" xlink:href="#lg1" y1="296.833" y2="296.833"/><linearGradient id="SVGID_9_" gradientUnits="userSpaceOnUse" x1="197.81" x2="312.19" xlink:href="#lg1" y1="261.035" y2="261.035"/><linearGradient id="SVGID_10_" gradientUnits="userSpaceOnUse" x1="199" x2="284.739" xlink:href="#lg1" y1="329.673" y2="329.673"/><linearGradient id="SVGID_11_" gradientUnits="userSpaceOnUse" x1="155.5" x2="303.812" xlink:href="#lg1" y1="87.62" y2="87.62"/><linearGradient id="SVGID_12_" gradientUnits="userSpaceOnUse" x1="228.667" x2="289.337" xlink:href="#lg1" y1="218.194" y2="218.194"/><linearGradient id="SVGID_13_" gradientUnits="userSpaceOnUse" x1="206" x2="292.013" xlink:href="#lg1" y1="246.776" y2="246.776"/><linearGradient id="SVGID_14_" gradientUnits="userSpaceOnUse" x1="228.667" x2="289.337" xlink:href="#lg1" y1="275.357" y2="275.357"/><linearGradient id="SVGID_15_" gradientUnits="userSpaceOnUse" x1="206" x2="292.013" xlink:href="#lg1" y1="303.939" y2="303.939"/><linearGradient id="SVGID_16_" gradientUnits="userSpaceOnUse" x1="381.05" x2="500.43" xlink:href="#lg1" y1="259.785" y2="259.785"/><linearGradient id="SVGID_17_" gradientUnits="userSpaceOnUse" x1="386" x2="466.137" xlink:href="#lg1" y1="328.183" y2="328.183"/><linearGradient id="SVGID_18_" gradientUnits="userSpaceOnUse" x1="333" x2="492.133" xlink:href="#lg1" y1="86.51" y2="86.51"/><linearGradient id="SVGID_19_" gradientUnits="userSpaceOnUse" x1="413.08" x2="468.406" xlink:href="#lg1" y1="223.904" y2="223.904"/><linearGradient id="SVGID_20_" gradientUnits="userSpaceOnUse" x1="394" x2="469.581" xlink:href="#lg1" y1="259.623" y2="259.623"/><linearGradient id="SVGID_21_" gradientUnits="userSpaceOnUse" x1="413.08" x2="468.406" xlink:href="#lg1" y1="295.343" y2="295.343"/><linearGradient id="lg2"><stop offset="0" stop-color="#bbec6c"/><stop offset=".5857" stop-color="#78a91f"/><stop offset="1" stop-color="#02905d"/></linearGradient><linearGradient id="SVGID_22_" gradientUnits="userSpaceOnUse" x1="4.506" x2="181.544" xlink:href="#lg2" y1="69.257" y2="69.257"/><linearGradient id="SVGID_23_" gradientUnits="userSpaceOnUse" x1="-19.286" x2="145.838" xlink:href="#lg2" y1="69.257" y2="69.257"/><linearGradient id="SVGID_24_" gradientUnits="userSpaceOnUse" x1="-35.75" x2="160.174" xlink:href="#lg2" y1="69.257" y2="69.257"/><linearGradient id="SVGID_25_" gradientUnits="userSpaceOnUse" x1="38.25" x2="102.809" xlink:href="#lg2" y1="69.257" y2="69.257"/><linearGradient id="lg3"><stop offset="0" stop-color="#60b7ff"/><stop offset=".5857" stop-color="#0182fc"/><stop offset="1" stop-color="#2740b0"/></linearGradient><linearGradient id="SVGID_26_" gradientUnits="userSpaceOnUse" x1="190.249" x2="367.287" xlink:href="#lg3" y1="69.257" y2="69.257"/><linearGradient id="SVGID_27_" gradientUnits="userSpaceOnUse" x1="166.458" x2="331.581" xlink:href="#lg3" y1="69.257" y2="69.257"/><linearGradient id="SVGID_28_" gradientUnits="userSpaceOnUse" x1="149.993" x2="345.917" xlink:href="#lg3" y1="69.257" y2="69.257"/><linearGradient id="SVGID_29_" gradientUnits="userSpaceOnUse" x1="227.326" x2="308.748" xlink:href="#lg3" y1="69.257" y2="69.257"/><linearGradient id="lg4"><stop offset="0" stop-color="#fe646f"/><stop offset=".593" stop-color="#fb2b3a"/><stop offset="1" stop-color="#c41926"/></linearGradient><linearGradient id="SVGID_30_" gradientUnits="userSpaceOnUse" x1="375.993" x2="553.03" xlink:href="#lg4" y1="69.257" y2="69.257"/><linearGradient id="SVGID_31_" gradientUnits="userSpaceOnUse" x1="352.201" x2="517.324" xlink:href="#lg4" y1="69.257" y2="69.257"/><linearGradient id="SVGID_32_" gradientUnits="userSpaceOnUse" x1="335.736" x2="531.66" xlink:href="#lg4" y1="69.257" y2="69.257"/><linearGradient id="SVGID_33_" gradientUnits="userSpaceOnUse" x1="404.82" x2="486.241" xlink:href="#lg4" y1="69.257" y2="69.257"/><g><path d="m69.26 14.57c-30.16 0-54.69 24.53-54.69 54.69 0 15.24 6.13 43.95 14.25 66.77 6.71 18.85 14.03 32.39 21.89 40.52 7.22 7.48 11.05 17.6 11.05 27.99v297.96c0 4.142 3.358 7.5 7.5 7.5 4.142 0 7.5-3.358 7.5-7.5v-297.96c0-10.39 3.82-20.51 11.04-27.99 7.86-8.13 15.18-21.67 21.89-40.52 8.13-22.82 14.26-51.53 14.26-66.77 0-30.16-24.54-54.69-54.69-54.69zm26.3 116.43c-10.44 29.33-20.69 39.73-26.3 39.73s-15.87-10.4-26.31-39.73c-8.38-23.53-13.38-49.87-13.38-61.74 0-21.89 17.8-39.69 39.69-39.69 21.88 0 39.69 17.8 39.69 39.69 0 11.87-5.01 38.21-13.39 61.74z" fill="url(#SVGID_1_)"/><path d="m76.76 318.777v-21.213l-15 15v21.213z" fill="url(#SVGID_2_)"/><path d="m118.6 45.68c-8.82-18.39-27.63-31.11-49.34-31.11-21.72 0-40.52 12.72-49.34 31.11-3.43 7.14-5.35 15.14-5.35 23.58 0 15.24 6.13 43.95 14.25 66.77 2.6 7.29 5.28 13.77 8.04 19.46 6.66 3.54 13.97 6.02 21.69 7.21-4.73-6.2-10.14-16.36-15.6-31.7-8.38-23.53-13.38-49.87-13.38-61.74 0-21.89 17.8-39.69 39.69-39.69 21.88 0 39.69 17.8 39.69 39.69 0 11.87-5.01 38.21-13.39 61.74-5.46 15.34-10.87 25.5-15.59 31.7 7.72-1.19 15.02-3.66 21.67-7.2 2.77-5.69 5.46-12.18 8.05-19.47 8.13-22.82 14.26-51.53 14.26-66.77 0-8.44-1.92-16.44-5.35-23.58z" fill="url(#SVGID_3_)"/><g><path d="m89.724 190.591c-2.93-2.929-7.678-2.929-10.607 0l-30.325 30.325c-2.929 2.929-2.929 7.678 0 10.606 1.465 1.464 3.385 2.197 5.304 2.197s3.839-.732 5.304-2.197l30.325-30.325c2.927-2.928 2.927-7.677-.001-10.606z" fill="url(#SVGID_4_)"/><path d="m89.724 212.035c-2.929-2.929-7.677-2.929-10.607 0l-30.326 30.325c-2.929 2.929-2.929 7.678 0 10.606 1.465 1.465 3.384 2.197 5.304 2.197 1.919 0 3.839-.732 5.304-2.197l30.325-30.325c2.928-2.928 2.928-7.677 0-10.606z" fill="url(#SVGID_5_)"/><path d="m89.724 233.479c-2.93-2.929-7.678-2.929-10.607 0l-30.325 30.325c-2.929 2.929-2.929 7.678 0 10.606 1.465 1.464 3.385 2.197 5.304 2.197s3.839-.732 5.304-2.197l30.325-30.325c2.927-2.928 2.927-7.677-.001-10.606z" fill="url(#SVGID_6_)"/><path d="m89.724 254.923c-2.929-2.929-7.677-2.93-10.607 0l-30.325 30.325c-2.929 2.929-2.929 7.678 0 10.606 1.465 1.465 3.384 2.197 5.304 2.197 1.919 0 3.839-.732 5.304-2.197l30.325-30.325c2.927-2.928 2.927-7.677-.001-10.606z" fill="url(#SVGID_7_)"/><path d="m89.724 276.367c-2.93-2.929-7.678-2.929-10.607 0l-30.325 30.325c-2.929 2.929-2.929 7.678 0 10.606 1.465 1.464 3.385 2.197 5.304 2.197s3.839-.732 5.304-2.197l30.325-30.325c2.927-2.928 2.927-7.677-.001-10.606z" fill="url(#SVGID_8_)"/></g><path d="m255 12.07c-31.54 0-57.19 25.65-57.19 57.19 0 15.48 6.19 44.55 14.4 67.61 6.54 18.36 13.73 31.85 21.52 40.38 7.34 8.03 11.27 18.59 11.27 29.46v293.29c0 5.523 4.477 10 10 10 5.523 0 10-4.477 10-10v-293.29c0-10.87 3.93-21.43 11.27-29.46 7.79-8.53 14.98-22.02 21.52-40.38 8.21-23.06 14.4-52.13 14.4-67.61 0-31.54-25.65-57.19-57.19-57.19zm23.95 118.09c-11.12 31.23-21.06 38.07-23.95 38.07s-12.83-6.84-23.95-38.07c-8.29-23.28-13.24-49.25-13.24-60.9 0-20.51 16.68-37.19 37.19-37.19s37.19 16.68 37.19 37.19c0 11.65-4.95 37.62-13.24 60.9z" fill="url(#SVGID_9_)"/><path d="m246.908 351.907 18.092-18.092v-27.858c-.678.41-1.323.896-1.909 1.482l-18.091 18.091v27.858c.678-.409 1.323-.896 1.908-1.481z" fill="url(#SVGID_10_)"/><path d="m309.29 51.26c-7.56-22.74-29.04-39.19-54.29-39.19s-46.73 16.45-54.29 39.19c-1.88 5.66-2.9 11.71-2.9 18 0 15.48 6.19 44.55 14.4 67.61 2.14 6.02 4.36 11.51 6.64 16.48 8.63 5.3 18.51 8.75 29.09 9.82-4.5-5.17-10.5-15.06-16.89-33.01-8.29-23.28-13.24-49.25-13.24-60.9 0-20.51 16.68-37.19 37.19-37.19s37.19 16.68 37.19 37.19c0 11.65-4.95 37.62-13.24 60.9-6.39 17.95-12.39 27.84-16.89 33.01 10.58-1.07 20.46-4.52 29.09-9.82 2.28-4.97 4.5-10.46 6.64-16.48 8.21-23.06 14.4-52.13 14.4-67.61 0-6.29-1.02-12.34-2.9-18z" fill="url(#SVGID_11_)"/><path d="m277.233 195.96c-3.906-3.905-10.236-3.905-14.143 0l-30.325 30.325c-3.905 3.905-3.905 10.237 0 14.143 1.953 1.953 4.512 2.929 7.071 2.929s5.118-.976 7.071-2.929l30.325-30.325c3.907-3.905 3.907-10.237.001-14.143z" fill="url(#SVGID_12_)"/><path d="m277.233 224.542c-3.906-3.905-10.236-3.905-14.143 0l-30.325 30.325c-3.905 3.905-3.905 10.237 0 14.143 1.953 1.953 4.512 2.929 7.071 2.929s5.118-.976 7.071-2.929l30.325-30.325c3.907-3.906 3.907-10.238.001-14.143z" fill="url(#SVGID_13_)"/><path d="m277.233 253.124c-3.906-3.905-10.236-3.905-14.143 0l-30.325 30.325c-3.905 3.905-3.905 10.237 0 14.143 1.953 1.953 4.512 2.929 7.071 2.929s5.118-.976 7.071-2.929l30.325-30.325c3.907-3.906 3.907-10.238.001-14.143z" fill="url(#SVGID_14_)"/><path d="m277.233 281.706c-3.904-3.905-10.234-3.905-14.143 0l-30.325 30.325c-3.905 3.905-3.905 10.237 0 14.142 1.953 1.953 4.512 2.929 7.071 2.929s5.118-.977 7.071-2.929l30.325-30.325c3.907-3.905 3.907-10.237.001-14.142z" fill="url(#SVGID_15_)"/><path d="m440.74 9.57c-32.91 0-59.69 26.77-59.69 59.69 0 15.73 6.26 45.16 14.55 68.45 6.26 17.58 13.01 30.7 20.38 39.49 7.85 9.39 12.26 21.16 12.26 33.4v286.9c0 6.904 5.596 12.5 12.5 12.5 6.904 0 12.5-5.596 12.5-12.5v-286.9c0-12.24 4.42-24.01 12.27-33.4 7.36-8.79 14.12-21.91 20.38-39.49 8.29-23.29 14.54-52.72 14.54-68.45 0-32.92-26.77-59.69-59.69-59.69zm21.91 118.87c-12.08 34.4-21.83 37.28-21.9 37.29-.09-.01-9.83-2.89-21.91-37.29-8.01-22.78-12.79-47.98-12.79-59.18 0-19.13 15.57-34.69 34.69-34.69 19.13 0 34.69 15.56 34.69 34.69 0 11.2-4.78 36.4-12.78 59.18z" fill="url(#SVGID_16_)"/><path d="m434.419 352.184 18.821-18.821v-32.547c-2.262.492-4.416 1.606-6.174 3.365l-18.826 18.826v32.542c2.264-.49 4.42-1.605 6.179-3.365z" fill="url(#SVGID_17_)"/><path d="m499.19 57.1c-5.63-27.1-29.69-47.53-58.45-47.53-28.75 0-52.83 20.44-58.45 47.55-.81 3.92-1.24 7.98-1.24 12.14 0 15.73 6.26 45.16 14.55 68.45 1.66 4.67 3.36 9.03 5.1 13.07 10.46 7.44 23.08 12.03 36.73 12.67-3.86-3.59-10.73-12.63-18.59-35.01-8.01-22.78-12.79-47.98-12.79-59.18 0-19.13 15.57-34.69 34.69-34.69 19.13 0 34.69 15.56 34.69 34.69 0 11.2-4.78 36.4-12.78 59.18-7.86 22.37-14.73 31.41-18.59 35.01 13.65-.64 26.27-5.24 36.73-12.67 1.74-4.04 3.44-8.4 5.1-13.07 8.29-23.29 14.54-52.72 14.54-68.45 0-4.16-.43-8.23-1.24-12.16z" fill="url(#SVGID_18_)"/><path d="m464.744 199.903c-4.881-4.882-12.797-4.882-17.678 0l-30.325 30.325c-4.882 4.881-4.882 12.796 0 17.678 2.44 2.441 5.64 3.661 8.839 3.661s6.398-1.22 8.839-3.661l30.325-30.325c4.882-4.882 4.882-12.797 0-17.678z" fill="url(#SVGID_19_)"/><path d="m464.744 235.622c-4.881-4.882-12.797-4.882-17.678 0l-30.325 30.325c-4.882 4.881-4.882 12.796 0 17.678 2.44 2.441 5.64 3.661 8.839 3.661s6.398-1.22 8.839-3.661l30.325-30.325c4.882-4.881 4.882-12.797 0-17.678z" fill="url(#SVGID_20_)"/><path d="m464.744 271.341c-4.881-4.882-12.797-4.882-17.678 0l-30.325 30.325c-4.882 4.881-4.882 12.796 0 17.678 2.44 2.441 5.64 3.661 8.839 3.661s6.398-1.22 8.839-3.661l30.325-30.325c4.882-4.881 4.882-12.796 0-17.678z" fill="url(#SVGID_21_)"/><g><path d="m69.257 0c-38.25 0-69.257 31.007-69.257 69.257 0 38.249 31.007 69.257 69.257 69.257s69.257-31.008 69.257-69.257c0-38.25-31.007-69.257-69.257-69.257zm0 99.252c-16.566 0-29.995-13.429-29.995-29.995s13.429-29.995 29.995-29.995 29.995 13.429 29.995 29.995-13.429 29.995-29.995 29.995z" fill="url(#SVGID_22_)"/><path d="m69.257 20.285c-27.046 0-48.972 21.925-48.972 48.972 0 27.046 21.926 48.972 48.972 48.972 27.047 0 48.972-21.926 48.972-48.972 0-27.047-21.925-48.972-48.972-48.972zm0 78.967c-16.566 0-29.995-13.429-29.995-29.995s13.429-29.995 29.995-29.995 29.995 13.429 29.995 29.995-13.429 29.995-29.995 29.995z" fill="url(#SVGID_23_)"/><path d="m69.257 0c-4.272 0-8.447.407-12.505 1.148 32.277 5.89 56.751 34.132 56.751 68.109s-24.474 62.219-56.751 68.109c4.058.741 8.233 1.148 12.505 1.148 38.25 0 69.257-31.008 69.257-69.257 0-38.25-31.007-69.257-69.257-69.257z" fill="url(#SVGID_24_)"/><path d="m113.503 69.257c0 12.27-3.205 23.783-8.803 33.774 8.376-8.788 13.529-20.675 13.529-33.774s-5.153-24.987-13.529-33.774c5.598 9.991 8.803 21.504 8.803 33.774z" fill="url(#SVGID_25_)"/></g><g><path d="m255 0c-38.249 0-69.257 31.007-69.257 69.257 0 38.249 31.007 69.257 69.257 69.257s69.257-31.008 69.257-69.257c0-38.25-31.007-69.257-69.257-69.257zm0 99.252c-16.566 0-29.995-13.429-29.995-29.995s13.429-29.995 29.995-29.995 29.995 13.429 29.995 29.995-13.429 29.995-29.995 29.995z" fill="url(#SVGID_26_)"/><path d="m255 20.285c-27.046 0-48.972 21.925-48.972 48.972 0 27.046 21.926 48.972 48.972 48.972 27.047 0 48.972-21.926 48.972-48.972 0-27.047-21.925-48.972-48.972-48.972zm0 78.967c-16.566 0-29.995-13.429-29.995-29.995s13.429-29.995 29.995-29.995 29.995 13.429 29.995 29.995-13.429 29.995-29.995 29.995z" fill="url(#SVGID_27_)"/><path d="m255 0c-4.272 0-8.447.407-12.505 1.148 32.277 5.89 56.751 34.132 56.751 68.109s-24.474 62.219-56.751 68.109c4.058.741 8.233 1.148 12.505 1.148 38.25 0 69.257-31.008 69.257-69.257 0-38.25-31.007-69.257-69.257-69.257z" fill="url(#SVGID_28_)"/><path d="m299.246 69.257c0 12.27-3.205 23.783-8.803 33.774 8.376-8.788 13.529-20.675 13.529-33.774s-5.153-24.987-13.529-33.774c5.598 9.991 8.803 21.504 8.803 33.774z" fill="url(#SVGID_29_)"/></g><g><path d="m440.743 0c-38.249 0-69.257 31.007-69.257 69.257 0 38.249 31.007 69.257 69.257 69.257s69.257-31.008 69.257-69.257c0-38.25-31.007-69.257-69.257-69.257zm0 99.252c-16.566 0-29.995-13.429-29.995-29.995s13.429-29.995 29.995-29.995 29.995 13.429 29.995 29.995-13.429 29.995-29.995 29.995z" fill="url(#SVGID_30_)"/><path d="m440.743 20.285c-27.046 0-48.972 21.925-48.972 48.972 0 27.046 21.926 48.972 48.972 48.972 27.047 0 48.972-21.926 48.972-48.972 0-27.047-21.925-48.972-48.972-48.972zm0 78.967c-16.566 0-29.995-13.429-29.995-29.995s13.429-29.995 29.995-29.995 29.995 13.429 29.995 29.995-13.429 29.995-29.995 29.995z" fill="url(#SVGID_31_)"/><path d="m440.743 0c-4.272 0-8.447.407-12.505 1.148 32.277 5.89 56.751 34.132 56.751 68.109s-24.474 62.219-56.751 68.109c4.058.741 8.233 1.148 12.505 1.148 38.25 0 69.257-31.008 69.257-69.257 0-38.25-31.007-69.257-69.257-69.257z" fill="url(#SVGID_32_)"/><path d="m484.989 69.257c0 12.27-3.205 23.783-8.803 33.774 8.376-8.788 13.529-20.675 13.529-33.774s-5.153-24.987-13.529-33.774c5.598 9.991 8.803 21.504 8.803 33.774z" fill="url(#SVGID_33_)"/></g></g></svg>