<svg id="Capa_1" enable-background="new 0 0 510 510" height="512" viewBox="0 0 510 510" width="512" xmlns="http://www.w3.org/2000/svg" xmlns:xlink="http://www.w3.org/1999/xlink"><linearGradient id="lg1"><stop offset="0" stop-color="#f8f6f7"/><stop offset=".1788" stop-color="#f8f6f7"/><stop offset="1" stop-color="#e7e6f5"/></linearGradient><linearGradient id="SVGID_1_" gradientUnits="userSpaceOnUse" x1="0" x2="510" xlink:href="#lg1" y1="281.629" y2="281.629"/><linearGradient id="lg2"><stop offset="0" stop-color="#f8f6f7"/><stop offset="1" stop-color="#d1ceeb"/></linearGradient><linearGradient id="SVGID_2_" gradientUnits="userSpaceOnUse" x1="98" x2="459.05" xlink:href="#lg2" y1="245.903" y2="245.903"/><linearGradient id="SVGID_3_" gradientUnits="userSpaceOnUse" x1="28.667" x2="309.998" xlink:href="#lg2" y1="255.148" y2="255.148"/><linearGradient id="SVGID_4_" gradientUnits="userSpaceOnUse" x1="220" x2="292.173" y1="79.052" y2="79.052"><stop offset="0" stop-color="#537983"/><stop offset=".593" stop-color="#554e56"/><stop offset="1" stop-color="#433f43"/></linearGradient><linearGradient id="SVGID_5_" gradientUnits="userSpaceOnUse" x1="417" x2="493.771" xlink:href="#lg2" y1="481.856" y2="481.856"/><linearGradient id="SVGID_6_" gradientUnits="userSpaceOnUse" x1="164.208" x2="553.102" xlink:href="#lg1" y1="246.06" y2="246.06"/><linearGradient id="SVGID_7_" gradientUnits="userSpaceOnUse" x1="53" x2="537.198" xlink:href="#lg2" y1="246.061" y2="246.061"/><g><path d="m481.271 510h-429.152c-18.812 0-35.659-9.726-45.064-26.018-9.407-16.291-9.407-35.744-.001-52.036l203.611-352.67c9.406-16.292 26.253-26.018 45.065-26.018s35.659 9.726 45.065 26.018l183.05 317.056c7.772 13.461 3.159 30.674-10.302 38.445-13.463 7.772-30.674 3.159-38.445-10.302l-171.45-296.965c-3.519-6.095-12.316-6.095-15.835 0l-180.412 312.489c-3.519 6.095.88 13.714 7.918 13.714h406.538c15.806 0 28.569 13.03 28.133 28.934-.421 15.329-13.384 27.353-28.719 27.353z" fill="url(#SVGID_1_)"/><path d="m483.845 396.332-183.05-317.056c-9.406-16.292-26.253-26.018-45.065-26.018-4.42 0-8.73.544-12.862 1.577 13.454 3.363 25.007 11.978 32.203 24.442l102 176.672-24.897 24.897 9.155 15.856 2.878-2.878c11.109-11.109 29.733-8.657 37.588 4.949l56.326 97.561c7.772 13.461 3.159 30.674-10.302 38.445-.399.23-.801.448-1.206.656 8.218 4.212 18.336 4.305 26.931-.656 13.46-7.773 18.073-24.986 10.301-38.447z" fill="url(#SVGID_2_)"/><path d="m67.401 439.998 170.178-294.762c3.326-5.761 3.268-12.894-.22-18.558-.066-.108-.11-.176-.128-.199v-69.895c-.101.038-.203.077-.304.115-14.98 5.74-24.707 20.329-24.707 36.371v51.532l-170.544 295.396c-3.519 6.095.88 13.714 7.918 13.714h25.724c-7.038 0-11.436-7.618-7.917-13.714z" fill="url(#SVGID_3_)"/><path d="m254.287 158.104c9.665 0 17.5-7.835 17.5-17.5v-123.104c0-9.665-7.835-17.5-17.5-17.5-9.665.001-17.5 7.835-17.5 17.5v123.104c-.001 9.665 7.834 17.5 17.5 17.5z" fill="url(#SVGID_4_)"/><path d="m481.856 453.712h-25.724c15.806 0 28.569 13.03 28.133 28.934-.42 15.33-13.383 27.353-28.718 27.353h25.724c15.335 0 28.298-12.024 28.718-27.353.436-15.904-12.327-28.934-28.133-28.934z" fill="url(#SVGID_5_)"/><path d="m501.213 90.39c-11.716-11.716-30.711-11.716-42.426 0l-194.718 194.718c-6.681 6.681-15.787 10.218-25.235 10.195-.047 0-.094 0-.14 0-32.718 0-59.065 27.275-57.544 60.328 1.358 29.512 25.312 53.466 54.824 54.823 33.053 1.52 60.327-24.827 60.327-57.545 0-.047 0-.093 0-.14-.023-9.448 3.514-18.554 10.195-25.235l194.718-194.718c11.715-11.716 11.715-30.711-.001-42.426z" fill="url(#SVGID_6_)"/><path d="m501.213 90.39c-9.118-9.118-22.645-11.137-33.719-6.062 3.154 1.446 6.11 3.464 8.707 6.062 11.716 11.716 11.716 30.71 0 42.426l-194.717 194.718c-6.681 6.681-10.218 15.787-10.195 25.235v.14c0 27.508-19.282 50.506-45.066 56.232 3.165.704 6.419 1.16 9.75 1.313 33.052 1.52 60.327-24.827 60.327-57.545 0-.047 0-.094 0-.14-.023-9.448 3.514-18.554 10.195-25.235l194.718-194.718c11.716-11.716 11.716-30.711 0-42.426z" fill="url(#SVGID_7_)"/></g></svg>