<svg id="Capa_1" enable-background="new 0 0 510 510" height="512" viewBox="0 0 510 510" width="512" xmlns="http://www.w3.org/2000/svg" xmlns:xlink="http://www.w3.org/1999/xlink"><linearGradient id="lg1"><stop offset="0" stop-color="#f8f6f7"/><stop offset=".1788" stop-color="#f8f6f7"/><stop offset="1" stop-color="#e7e6f5"/></linearGradient><linearGradient id="SVGID_1_" gradientUnits="userSpaceOnUse" x1="170" x2="304.06" xlink:href="#lg1" y1="407.265" y2="407.265"/><linearGradient id="lg2"><stop offset="0" stop-color="#f8f6f7"/><stop offset="1" stop-color="#d1ceeb"/></linearGradient><linearGradient id="SVGID_2_" gradientUnits="userSpaceOnUse" x1="180" x2="291.113" xlink:href="#lg2" y1="407.265" y2="407.265"/><linearGradient id="lg3"><stop offset="0" stop-color="#fef056"/><stop offset=".5213" stop-color="#fbc56d"/><stop offset="1" stop-color="#c86d36"/></linearGradient><linearGradient id="SVGID_3_" gradientTransform="matrix(1 0 0 -1 0 801.967)" gradientUnits="userSpaceOnUse" x1="126.245" x2="383.756" xlink:href="#lg3" y1="449.034" y2="449.034"/><linearGradient id="SVGID_4_" gradientUnits="userSpaceOnUse" x1="55" x2="383.006" xlink:href="#lg3" y1="352.933" y2="352.933"/><linearGradient id="SVGID_5_" gradientTransform="matrix(1 0 0 -1 0 801.967)" gradientUnits="userSpaceOnUse" x1="0" x2="510" xlink:href="#lg3" y1="511.285" y2="511.285"/><linearGradient id="SVGID_6_" gradientUnits="userSpaceOnUse" x1="-100" x2="435.538" xlink:href="#lg3" y1="290.685" y2="290.685"/><linearGradient id="SVGID_7_" gradientUnits="userSpaceOnUse" x1="0" x2="510" xlink:href="#lg3" y1="219.319" y2="219.319"/><linearGradient id="SVGID_8_" gradientUnits="userSpaceOnUse" x1="-97" x2="480.25" xlink:href="#lg3" y1="219.315" y2="219.315"/><linearGradient id="SVGID_9_" gradientUnits="userSpaceOnUse" x1="126.245" x2="383.756" xlink:href="#lg3" y1="157.068" y2="157.068"/><linearGradient id="SVGID_10_" gradientTransform="matrix(1 0 0 -1 0 705.866)" gradientUnits="userSpaceOnUse" x1="55" x2="383.006" xlink:href="#lg3" y1="548.799" y2="548.799"/><linearGradient id="SVGID_11_" gradientUnits="userSpaceOnUse" x1="170" x2="304.06" xlink:href="#lg1" y1="76.072" y2="76.072"/><linearGradient id="SVGID_12_" gradientUnits="userSpaceOnUse" x1="177.259" x2="319.752" xlink:href="#lg2" y1="76.072" y2="76.072"/><g><path d="m283.144 481.856v-149.183c0-15.543-12.6-28.144-28.144-28.144-15.543 0-28.144 12.6-28.144 28.144v149.183c0 15.544 12.601 28.144 28.144 28.144 15.543 0 28.144-12.6 28.144-28.144z" fill="url(#SVGID_1_)"/><path d="m283.14 333.238v148.622c0 7.77-3.15 14.8-8.24 19.9-5.1 5.09-12.13 8.24-19.9 8.24-4.49 0-8.73-1.05-12.5-2.93 2.75-1.36 5.24-3.16 7.39-5.31 5.09-5.1 8.24-12.13 8.24-19.9v-37.471c0-13.367-10.443-24.388-23.788-25.15-2.857-.163-5.469-.349-7.482-.559v-86.01c0-7.77 3.15-14.81 8.24-19.9 2.15-2.15 4.65-3.95 7.4-5.31 3.897-1.943 8.296-3 12.954-2.926 15.457.243 27.686 13.244 27.686 28.704z" fill="url(#SVGID_2_)"/><path d="m383.755 335.468c0-32.932-257.511-32.932-257.511 0s57.646 59.628 128.756 59.628 128.755-26.697 128.755-59.628z" fill="url(#SVGID_3_)"/><path d="m234.99 311.037c57.06 1.534 108.745 9.677 108.745 24.43 0 29.779-47.14 54.458-108.745 58.91 6.521.471 13.203.718 20.01.718 71.11 0 128.755-26.696 128.755-59.628 0-18.177-78.461-26.32-148.765-24.43z" fill="url(#SVGID_4_)"/><path d="m510 264.896c0-48.621-510-48.621-510 0s114.167 88.036 255 88.036 255-39.415 255-88.036z" fill="url(#SVGID_5_)"/><path d="m510 264.9c0 .87-.04 1.74-.11 2.61-.2 2.4-.68 4.78-1.44 7.13-14.03 44.04-122.16 78.29-253.45 78.29-6.73 0-13.41-.09-20.01-.27 49.316-1.322 94.696-7.485 132.155-17.115 19.1-4.91 14.73-33.173-4.956-31.993-133.083 7.978-313.79.199-354.025-23.336-4.547-2.66-7.598-7.386-8.048-12.635-.002-.024-.004-.048-.006-.072-.07-.869-.11-1.739-.11-2.609 0-1.56.53-3.08 1.55-4.54 14.01-20.09 121.12-30.7 233.44-31.82 125.64-1.26 257.79 9.35 273.46 31.82 1.02 1.46 1.55 2.98 1.55 4.54z" fill="url(#SVGID_6_)"/><path d="m510 245.104c0 48.621-510 48.621-510 0s114.167-88.036 255-88.036 255 39.415 255 88.036z" fill="url(#SVGID_7_)"/><path d="m510 245.1c0 25.58-141.2 37.7-275.01 36.36 120.49-1.2 234.99-13.32 234.99-36.36 0-22.945-25.433-43.844-67.099-59.513-9.411-3.539-19.221 3.646-19.122 13.7.001.085.001.169.001.254 0 32.93-282.53 32.93-282.53 0 0-10.48 6.41-20.34 17.67-28.89 34.08-7.45 73.62-12.18 116.09-13.31 6.6-.18 13.28-.27 20.01-.27 36.07 0 70.38 2.58 101.48 7.25 90.34 13.539 153.52 44.609 153.52 80.779z" fill="url(#SVGID_8_)"/><path d="m383.755 174.532c0 32.932-257.511 32.932-257.511 0s57.646-59.628 128.756-59.628 128.755 26.697 128.755 59.628z" fill="url(#SVGID_9_)"/><path d="m234.99 198.963c57.06-1.534 108.745-9.677 108.745-24.43 0-29.779-47.14-54.458-108.745-58.91 6.521-.471 13.203-.718 20.01-.718 71.11 0 128.755 26.696 128.755 59.628 0 18.178-78.461 26.32-148.765 24.43z" fill="url(#SVGID_10_)"/><path d="m283.144 124v-95.856c0-15.544-12.601-28.144-28.144-28.144-15.543 0-28.144 12.6-28.144 28.144v95.856c0 15.543 12.6 28.144 28.144 28.144 15.543 0 28.144-12.601 28.144-28.144z" fill="url(#SVGID_11_)"/><path d="m255 0c-4.493 0-8.737 1.058-12.505 2.931 9.267 4.605 15.638 14.163 15.638 25.213v95.856c0 11.05-6.372 20.608-15.638 25.213 3.768 1.873 8.012 2.931 12.505 2.931 15.543 0 28.144-12.6 28.144-28.144v-95.856c0-15.544-12.601-28.144-28.144-28.144z" fill="url(#SVGID_12_)"/></g></svg>