<svg id="Capa_1" enable-background="new 0 0 510 510" height="512" viewBox="0 0 510 510" width="512" xmlns="http://www.w3.org/2000/svg" xmlns:xlink="http://www.w3.org/1999/xlink"><linearGradient id="SVGID_1_" gradientUnits="userSpaceOnUse" x1="36" x2="446.888" y1="255" y2="255"><stop offset="0" stop-color="#f8f6f7"/><stop offset=".1788" stop-color="#f8f6f7"/><stop offset="1" stop-color="#e7e6f5"/></linearGradient><linearGradient id="lg1"><stop offset="0" stop-color="#f8f6f7"/><stop offset="1" stop-color="#d1ceeb"/></linearGradient><linearGradient id="SVGID_2_" gradientUnits="userSpaceOnUse" x1="60.667" x2="458.959" xlink:href="#lg1" y1="255" y2="255"/><linearGradient id="SVGID_3_" gradientUnits="userSpaceOnUse" x1="-16.333" x2="290.864" xlink:href="#lg1" y1="167.024" y2="167.024"/><linearGradient id="lg2"><stop offset="0" stop-color="#fef056"/><stop offset=".5213" stop-color="#fbc56d"/><stop offset="1" stop-color="#c86d36"/></linearGradient><linearGradient id="SVGID_4_" gradientUnits="userSpaceOnUse" x1="348.142" x2="569.326" xlink:href="#lg2" y1="332.659" y2="332.659"/><linearGradient id="SVGID_5_" gradientUnits="userSpaceOnUse" x1="348.142" x2="569.326" xlink:href="#lg2" y1="363.2" y2="363.2"/><linearGradient id="SVGID_6_" gradientUnits="userSpaceOnUse" x1="-3.136" x2="270.393" xlink:href="#lg2" y1="332.659" y2="332.659"/><linearGradient id="SVGID_7_" gradientUnits="userSpaceOnUse" x1="-3.136" x2="270.393" xlink:href="#lg2" y1="363.2" y2="363.2"/><g><g><path d="m399.633.011c-14.99.412-26.746 13.087-26.746 28.083v186.77c0 65.052-52.148 118.809-117.199 119.182-65.318.375-118.576-52.653-118.576-117.885v-188.068c0-14.996-11.757-27.672-26.748-28.082-15.552-.426-28.294 12.054-28.294 27.51v188.64c0 81.211 56.274 149.516 131.873 167.993 7.982 1.951 13.534 9.202 13.534 17.419v80.334c0 14.995 11.757 27.671 26.746 28.083 15.552.427 28.295-12.053 28.295-27.51v-80.907c0-8.217 5.552-15.468 13.534-17.419 75.599-18.477 131.874-86.783 131.874-167.993v-188.64c.002-15.457-12.74-27.937-28.293-27.51z" fill="url(#SVGID_1_)"/><path d="m399.633.011c-4.206.115-8.158 1.197-11.667 3.025 8.877 4.566 14.95 13.816 14.95 24.485v188.64c0 81.21-56.274 149.516-131.873 167.993-7.982 1.951-13.534 9.202-13.534 17.419v80.907c0 10.67-6.073 19.919-14.95 24.485 3.509 1.827 7.46 2.909 11.667 3.025 15.552.427 28.295-12.053 28.295-27.51v-80.907c0-8.217 5.552-15.468 13.534-17.419 75.599-18.477 131.873-86.783 131.873-167.993v-188.64c0-15.457-12.742-27.937-28.295-27.51z" fill="url(#SVGID_2_)"/><path d="m137.113 216.16v-188.067c0-14.996-11.757-27.672-26.748-28.082-4.816-.132-9.361.976-13.343 3.024 8.995 4.684 15.08 14.271 15.08 25.058v188.067c0 65.232 53.258 118.26 118.576 117.885 3.993-.023 7.936-.249 11.823-.665-59.149-6.263-105.388-56.439-105.388-117.22z" fill="url(#SVGID_3_)"/></g><g><path d="m373.28 405.664c3.981-5.23 9.676-9.039 16.034-10.724l13.053-3.46c15.497-4.115 27.67-16.292 31.766-31.777l3.457-13.042c1.696-6.372 5.508-12.068 10.736-16.043l10.694-8.145c12.785-9.717 19.393-25.651 17.245-41.584l-1.801-13.341c-.775-5.739.124-11.526 2.602-16.735 1.778-3.741.188-8.215-3.553-9.994-3.74-1.777-8.216-.189-9.994 3.553-3.73 7.845-5.086 16.553-3.92 25.184l1.801 13.339c1.428 10.591-2.962 21.181-11.462 27.642l-10.695 8.146c-7.864 5.979-13.599 14.545-16.149 24.128l-3.462 13.054c-2.722 10.292-10.813 18.384-21.111 21.119l-13.049 3.46c-9.565 2.535-18.134 8.266-24.128 16.138l-8.146 10.704c-1.321 1.733-2.831 3.32-4.485 4.718-3.164 2.673-3.563 7.405-.89 10.569 1.483 1.756 3.602 2.66 5.733 2.66 1.709 0 3.428-.581 4.836-1.771 2.486-2.1 4.752-4.483 6.738-7.087z" fill="url(#SVGID_4_)"/><path d="m509.545 291.487-2.04-15.12c-.554-4.104-4.332-6.982-8.436-6.43-4.104.554-6.983 4.331-6.43 8.436l2.04 15.124c1.715 12.661-3.535 25.334-13.699 33.076l-12.386 9.427c-8.913 6.775-15.398 16.468-18.26 27.285l-4.012 15.106c-3.262 12.322-12.946 22.009-25.271 25.279l-15.104 4.001c-10.82 2.874-20.51 9.358-27.282 18.256l-9.432 12.391c-1.408 1.851-2.998 3.561-4.727 5.082-3.108 2.737-3.41 7.476-.673 10.585 1.482 1.684 3.552 2.544 5.632 2.544 1.761 0 3.528-.616 4.953-1.871 2.472-2.176 4.743-4.618 6.751-7.257l9.431-12.39c4.765-6.26 11.582-10.821 19.193-12.843l15.103-4.001c17.522-4.65 31.289-18.421 35.925-35.934l4.013-15.107c2.013-7.61 6.571-14.424 12.841-19.19l12.392-9.431c14.451-11.004 21.914-29.023 19.478-47.018z" fill="url(#SVGID_5_)"/></g><g><path d="m161.288 411.986c-1.663-1.396-3.167-2.974-4.475-4.698l-8.147-10.707c-5.984-7.871-14.553-13.603-24.124-16.139l-13.058-3.472c-10.295-2.725-18.384-10.814-21.11-21.112l-3.462-13.058c-2.549-9.576-8.285-18.143-16.143-24.117l-10.702-8.152c-8.495-6.465-12.886-17.056-11.459-27.639l1.8-13.339c1.166-8.63-.189-17.338-3.919-25.184-1.778-3.741-6.253-5.333-9.993-3.554-3.741 1.778-5.332 6.252-3.554 9.993 2.477 5.211 3.376 10.998 2.601 16.737l-1.8 13.341c-2.146 15.921 4.46 31.854 17.238 41.578l10.705 8.154c5.224 3.971 9.035 9.667 10.729 16.031l3.459 13.047c4.102 15.495 16.276 27.669 31.764 31.769l13.056 3.471c6.365 1.687 12.058 5.494 16.033 10.723l8.145 10.703c1.977 2.604 4.255 4.996 6.771 7.109 1.406 1.18 3.117 1.756 4.819 1.756 2.139 0 4.264-.91 5.748-2.677 2.662-3.169 2.249-7.9-.922-10.564z" fill="url(#SVGID_6_)"/><path d="m145.499 443.4c-1.727-1.521-3.318-3.23-4.728-5.083l-9.43-12.39c-6.772-8.898-16.461-15.382-27.287-18.258l-15.097-3.999c-12.328-3.271-22.012-12.958-25.275-25.286l-4.008-15.094c-2.861-10.814-9.346-20.506-18.258-27.289l-12.388-9.429c-10.164-7.741-15.418-20.417-13.712-33.076l2.05-15.12c.556-4.104-2.32-7.883-6.425-8.439-4.11-.556-7.883 2.32-8.439 6.425l-2.05 15.126c-2.426 18 5.042 36.016 19.49 47.019l12.39 9.431c6.27 4.771 10.831 11.587 12.844 19.196l4.008 15.094c4.637 17.519 18.404 31.29 35.93 35.941l15.095 3.999c7.616 2.023 14.433 6.584 19.198 12.844l9.43 12.389c2.01 2.641 4.282 5.083 6.753 7.258 1.425 1.254 3.192 1.87 4.952 1.87 2.08 0 4.15-.86 5.633-2.545 2.736-3.108 2.434-7.847-.676-10.584z" fill="url(#SVGID_7_)"/></g></g></svg>