<?xml version="1.0" encoding="iso-8859-1"?>
<!-- Generator: Adobe Illustrator 19.0.0, SVG Export Plug-In . SVG Version: 6.00 Build 0)  -->
<svg version="1.1" id="Capa_1" xmlns="http://www.w3.org/2000/svg" xmlns:xlink="http://www.w3.org/1999/xlink" x="0px" y="0px"
	 viewBox="0 0 512.001 512.001" style="enable-background:new 0 0 512.001 512.001;" xml:space="preserve">
<path style="fill:#A66856;" d="M90.35,94.385c6.385-8.603,13.121-17.794,19.504-26.4c-11.341-8.602-22.789-17.062-34.341-25.377
	c-6.26,8.696-12.933,17.931-19.192,26.626C67.769,77.475,79.113,85.859,90.35,94.385z"/>
<path style="fill:#75360D;" d="M463.207,484.061c-1.09,0-2.195-0.238-3.242-0.741c-3.734-1.794-5.307-6.274-3.514-10.008
	c0.902-1.878,1.358-2.83,2.243-4.688c6.384-14.27-0.322-33.22-9.268-44.807c-0.032-0.041-0.063-0.083-0.095-0.124
	C335.373,269.545,197.685,136.036,40.094,26.876c-3.405-2.358-4.254-7.03-1.895-10.436c2.357-3.406,7.03-4.254,10.436-1.895
	c158.928,110.085,297.781,244.719,412.713,400.17c11.972,15.543,20.004,40.146,10.99,60.142c-0.022,0.049-0.045,0.097-0.067,0.145
	c-0.917,1.924-1.377,2.886-2.299,4.805C468.682,482.493,466,484.061,463.207,484.061z M465.501,471.775h0.01H465.501z"/>
<path style="fill:#FFDEA9;" d="M51.791,58.591c159.605,114.502,305.501,263.24,417.746,424.444c1.269,1.822,0.804,4.333-1.027,5.59
	c-5.079,3.487-8.694,5.969-13.783,9.462c-1.812,1.244-4.284,0.793-5.54-1.01C338.575,338.247,194.718,191.577,37.463,78.74
	c-1.785-1.281-2.201-3.759-0.932-5.553c3.564-5.039,6.097-8.619,9.654-13.648C47.469,57.726,49.986,57.297,51.791,58.591z"/>
<path style="fill:#F3B573;" d="M214.638,464.379c18.755-20.827,95.197-188.308,111.561-212.498
	C366.36,192.513,455.977,88.279,455.977,88.279l-16.128-16.128L423.72,56.023c0,0-104.233,89.616-163.601,129.778
	c-24.19,16.364-191.67,92.805-212.498,111.561c-66.39,59.786-57.833,125.786-8.301,175.318S154.852,530.769,214.638,464.379z"/>
<path style="fill:#F5A257;" d="M439.849,72.151l-6.364-6.364c0,0.001-89.616,104.233-129.778,163.601
	c-16.363,24.19-92.805,191.67-111.561,212.498c-55.167,61.262-115.625,58.706-163.554,19.029c3.322,4.013,6.902,7.938,10.728,11.764
	c49.532,49.532,115.532,58.089,175.318-8.301c18.755-20.827,95.197-188.308,111.56-212.498
	C366.36,192.513,455.977,88.279,455.977,88.279L439.849,72.151z"/>
<path style="fill:#A66856;" d="M39.312,472.671L39.312,472.671c-4.599-4.599-6.145-10.752-3.573-14.228l52.466-70.931l36.286,36.281
	l-70.948,52.451C50.065,478.815,43.911,477.27,39.312,472.671z"/>
<g>
	<path style="fill:#75360D;" d="M177.84,274.66c0,4.14-3.36,7.5-7.5,7.5c-0.26,0-0.51-0.01-0.76-0.04c0.01,0,0.02,0.01,0.04,0.02
		c-1.68-0.1-14.95-0.2-31.88,22.56c-11.15,14.98-22.88,22.55-34.92,22.55c-0.66,0-1.33-0.02-1.99-0.07
		c-12.4-0.85-20.34-9.53-23.08-14.53c-1.99-3.63-0.66-8.19,2.97-10.18c3.63-1.99,8.19-0.66,10.18,2.97
		c1.12,2.04,5.28,6.39,10.96,6.78c7.22,0.5,15.45-5.2,23.84-16.47c20.98-28.2,39.53-29.08,45.34-28.54c0.04,0,0.08,0,0.13,0.01
		c0.09,0.01,0.18,0.021,0.27,0.03c0.04,0.01,0.08,0.01,0.12,0.02c0.38,0.06,0.76,0.16,1.13,0.28
		C175.68,268.53,177.84,271.34,177.84,274.66z"/>
	<path style="fill:#75360D;" d="M237.182,333.782c-4.14-0.008-7.506,3.346-7.514,7.486c0,0.26,0.009,0.51,0.039,0.76
		c0-0.01-0.01-0.02-0.02-0.04c0.097,1.68,0.172,14.951-22.619,31.838c-15.001,11.122-22.592,22.838-22.615,34.878
		c-0.001,0.66,0.018,1.33,0.066,1.99c0.827,12.402,9.492,20.358,14.487,23.107c3.626,1.997,8.189,0.675,10.186-2.951
		c1.996-3.626,0.675-8.189-2.951-10.185c-2.038-1.124-6.38-5.292-6.759-10.973c-0.487-7.221,5.228-15.44,16.514-23.809
		c28.239-20.927,29.154-39.476,28.624-45.287c0-0.04,0-0.08-0.01-0.13c-0.01-0.09-0.02-0.18-0.03-0.27
		c-0.01-0.04-0.01-0.08-0.02-0.12c-0.059-0.38-0.159-0.76-0.278-1.13C243.309,335.953,240.503,333.788,237.182,333.782z"/>
	<path style="fill:#75360D;" d="M174.645,382.321c-1.919,0-3.839-0.732-5.304-2.196l-37.466-37.466
		c-2.929-2.93-2.929-7.678,0-10.607c2.93-2.928,7.678-2.928,10.607,0l37.466,37.466c2.929,2.93,2.929,7.678,0,10.607
		C178.483,381.589,176.563,382.321,174.645,382.321z"/>
</g>
<path style="fill:#A66856;" d="M323.862,264.535l-76.397-76.397c-1.748-1.748-1.51-4.645,0.501-6.082
	C272.121,164.793,402.734,71.309,423.9,53.281l16.442,18.377L458.719,88.1c-18.029,21.167-111.512,151.779-128.776,175.934
	C328.507,266.044,325.61,266.282,323.862,264.535z"/>
<path style="fill:#8F5040;" d="M440.342,71.657l-3.766-4.209c-21.58,25.865-130.838,178.963-130.838,178.963l21.462,21.462
	c0,0,111.637-156.432,131.519-179.774L440.342,71.657z"/>
<path style="fill:#F3B573;" d="M497.421,84.431c-21.367,21.367-50.139,18.865-69.428-0.424s-21.791-48.061-0.424-69.428
	c16.773-16.773,58.23-15.187,75.283-13.729c4.422,0.378,7.921,3.877,8.299,8.299C512.608,26.201,514.194,67.658,497.421,84.431z"/>
<path style="fill:#F5A257;" d="M511.15,9.149c-0.378-4.423-3.877-7.922-8.299-8.299c-3.18-0.272-7.209-0.548-11.768-0.709
	c0.702,19.888-0.792,49.869-14.438,63.515c-17.36,17.36-39.608,18.964-57.687,8.611c2.39,4.173,5.417,8.124,9.034,11.741
	c19.289,19.289,48.061,21.791,69.428,0.424C514.194,67.658,512.608,26.201,511.15,9.149z"/>
<g>
	<circle style="fill:#A66856;" cx="440.78" cy="45.22" r="7.5"/>
	<circle style="fill:#A66856;" cx="466.78" cy="71.22" r="7.5"/>
	<circle style="fill:#A66856;" cx="474.97" cy="37.03" r="7.5"/>
</g>
<g>
</g>
<g>
</g>
<g>
</g>
<g>
</g>
<g>
</g>
<g>
</g>
<g>
</g>
<g>
</g>
<g>
</g>
<g>
</g>
<g>
</g>
<g>
</g>
<g>
</g>
<g>
</g>
<g>
</g>
</svg>
