<?xml version="1.0" encoding="iso-8859-1"?>
<!-- Generator: Adobe Illustrator 19.0.0, SVG Export Plug-In . SVG Version: 6.00 Build 0)  -->
<svg version="1.1" id="Capa_1" xmlns="http://www.w3.org/2000/svg" xmlns:xlink="http://www.w3.org/1999/xlink" x="0px" y="0px"
	 viewBox="0 0 512 512" style="enable-background:new 0 0 512 512;" xml:space="preserve">
<path style="fill:#A66856;" d="M403.762,512H108.238c-1.978,0-3.658-1.445-3.955-3.4L27.852,4.6C27.485,2.179,29.358,0,31.807,0
	h448.387c2.448,0,4.322,2.179,3.955,4.6l-76.431,504C407.421,510.555,405.74,512,403.762,512z"/>
<path style="fill:#8F5040;" d="M27.154,0l0.003,0.017l423.427,0.234L376.189,512h27.573c1.978,0,3.658-1.445,3.955-3.4l76.431-504
	c0.367-2.42-1.507-4.6-3.955-4.6C480.193,0,27.154,0,27.154,0z"/>
<path style="fill:#735458;" d="M130.912,477.643L64.821,0.251h385.763l-69.475,477.42c-0.286,1.966-1.972,3.424-3.958,3.424H134.874
	C132.877,481.095,131.186,479.621,130.912,477.643z"/>
<g>
	<path style="fill:#FFDEA9;" d="M490,53.938H22c-4.143,0-7.5-3.357-7.5-7.5s3.357-7.5,7.5-7.5h468c4.143,0,7.5,3.357,7.5,7.5
		S494.143,53.938,490,53.938z"/>
	<path style="fill:#FFDEA9;" d="M477.801,119.357H34.199c-4.143,0-7.5-3.357-7.5-7.5s3.357-7.5,7.5-7.5h443.602
		c4.143,0,7.5,3.357,7.5,7.5S481.943,119.357,477.801,119.357z"/>
	<path style="fill:#FFDEA9;" d="M467.927,184.777H44.073c-4.143,0-7.5-3.357-7.5-7.5s3.357-7.5,7.5-7.5h423.854
		c4.143,0,7.5,3.357,7.5,7.5S472.069,184.777,467.927,184.777z"/>
	<path style="fill:#FFDEA9;" d="M458.172,250.196H53.828c-4.143,0-7.5-3.357-7.5-7.5s3.357-7.5,7.5-7.5h404.344
		c4.143,0,7.5,3.357,7.5,7.5S462.314,250.196,458.172,250.196z"/>
	<path style="fill:#FFDEA9;" d="M448.205,315.518H63.795c-4.143,0-7.5-3.357-7.5-7.5s3.357-7.5,7.5-7.5h384.41
		c4.143,0,7.5,3.357,7.5,7.5S452.348,315.518,448.205,315.518z"/>
	<path style="fill:#FFDEA9;" d="M439.769,381.035H72.231c-4.143,0-7.5-3.357-7.5-7.5s3.357-7.5,7.5-7.5h367.537
		c4.143,0,7.5,3.357,7.5,7.5S443.911,381.035,439.769,381.035z"/>
	<path style="fill:#FFDEA9;" d="M428.873,446.455H83.127c-4.143,0-7.5-3.357-7.5-7.5s3.357-7.5,7.5-7.5h345.746
		c4.143,0,7.5,3.357,7.5,7.5S433.016,446.455,428.873,446.455z"/>
</g>
<g>
	<circle style="fill:#F3B573;" cx="121.53" cy="46.44" r="15"/>
	<circle style="fill:#F3B573;" cx="130.78" cy="111.86" r="15"/>
	<circle style="fill:#F3B573;" cx="140.04" cy="177.28" r="15"/>
	<circle style="fill:#F3B573;" cx="149.29" cy="242.7" r="15"/>
	<circle style="fill:#F3B573;" cx="158.55" cy="308.12" r="15"/>
	<circle style="fill:#F3B573;" cx="167.81" cy="373.54" r="15"/>
	<circle style="fill:#F3B573;" cx="177.06" cy="438.95" r="15"/>
	<circle style="fill:#F3B573;" cx="390.48" cy="46.44" r="15"/>
	<circle style="fill:#F3B573;" cx="381.22" cy="111.86" r="15"/>
	<circle style="fill:#F3B573;" cx="371.96" cy="177.28" r="15"/>
	<circle style="fill:#F3B573;" cx="362.71" cy="242.7" r="15"/>
	<circle style="fill:#F3B573;" cx="353.45" cy="308.12" r="15"/>
	<circle style="fill:#F3B573;" cx="344.19" cy="373.54" r="15"/>
	<circle style="fill:#F3B573;" cx="334.94" cy="438.95" r="15"/>
</g>
<g>
</g>
<g>
</g>
<g>
</g>
<g>
</g>
<g>
</g>
<g>
</g>
<g>
</g>
<g>
</g>
<g>
</g>
<g>
</g>
<g>
</g>
<g>
</g>
<g>
</g>
<g>
</g>
<g>
</g>
</svg>
