<?xml version="1.0" encoding="iso-8859-1"?>
<!-- Generator: Adobe Illustrator 19.0.0, SVG Export Plug-In . SVG Version: 6.00 Build 0)  -->
<svg version="1.1" id="Capa_1" xmlns="http://www.w3.org/2000/svg" xmlns:xlink="http://www.w3.org/1999/xlink" x="0px" y="0px"
	 viewBox="0 0 512 512" style="enable-background:new 0 0 512 512;" xml:space="preserve">
<path style="fill:#A66856;" d="M438,321.117C438,426.539,356.516,512,256,512S74,426.539,74,321.117S256,84.954,256,84.954
	S438,215.695,438,321.117z"/>
<path style="fill:#8F5040;" d="M256,84.954c0,0-6.208,4.46-16.323,12.39c44.678,35.025,165.677,137.813,165.677,223.773
	c0,99.65-72.81,181.45-165.677,190.11C245.055,511.729,250.497,512,256,512c100.516,0,182-85.461,182-190.883S256,84.954,256,84.954
	z"/>
<g>
	<path style="fill:#F3B573;" d="M330.632,48.736c-0.008,8.531-5.41,15.458-12.064,15.458l-62.054-7.18l-62.054,7.18
		c-6.654,0-12.056-6.926-12.064-15.458c0-8.542,5.394-15.448,12.048-15.448l62.07,7.13l62.07-7.13
		C325.238,33.288,330.632,40.194,330.632,48.736z"/>
	<path style="fill:#F3B573;" d="M330.632,99.763c-0.008,8.531-5.41,15.458-12.064,15.458l-62.054-7.18l-62.054,7.18
		c-6.654,0-12.056-6.926-12.064-15.458c0-8.542,5.394-15.448,12.048-15.448l62.07,7.13l62.07-7.13
		C325.238,84.316,330.632,91.222,330.632,99.763z"/>
</g>
<rect x="214.87" y="15.453" style="fill:#5C4346;" width="82.26" height="345.11"/>
<rect x="266.28" y="15.453" style="fill:#2B1F1A;" width="30.847" height="345.11"/>
<path style="fill:#735458;" d="M302.271,360.563h-92.542v-230.6c0-2.209,1.791-4,4-4h84.542c2.209,0,4,1.791,4,4V360.563z"/>
<path style="fill:#5C4346;" d="M302.271,360.563h-30.847v-234.6h26.847c2.209,0,4,1.791,4,4V360.563z"/>
<path style="fill:#F3B573;" d="M341.459,416.193H170.541c-2.209,0-4-1.791-4-4v-47.63c0-2.209,1.791-4,4-4h170.918
	c2.209,0,4,1.791,4,4v47.63C345.459,414.402,343.668,416.193,341.459,416.193z"/>
<path style="fill:#F5A257;" d="M341.459,416.193h-26.847v-55.63h26.847c2.209,0,4,1.791,4,4v47.63
	C345.459,414.402,343.668,416.193,341.459,416.193z"/>
<g>
	<path style="fill:#5C4346;" d="M275.639,512h-39.278c-2.209,0-4-1.791-4-4v-91.571h47.278V508
		C279.639,510.209,277.848,512,275.639,512z"/>
	<path style="fill:#5C4346;" d="M389.309,345.511c-9.707,0-22.322-3.966-31.504-12.788c-8.604-8.269-17.759-24.001-12.506-51.998
		c6.681-35.613-10.259-39.997-10.432-40.031c-4.063-0.804-6.706-4.749-5.902-8.813s4.75-6.713,8.813-5.902
		c1.302,0.258,31.762,6.887,22.264,57.512c-3.225,17.191-0.48,30.116,8.156,38.416c8.224,7.902,19.742,9.322,24.079,8.329
		c4.038-0.919,8.061,1.598,8.986,5.635s-1.598,8.061-5.635,8.986C393.741,345.289,391.605,345.511,389.309,345.511z"/>
	<path style="fill:#5C4346;" d="M122.633,345.511c9.707,0,22.322-3.966,31.504-12.788c8.604-8.269,17.759-24.001,12.506-51.998
		c-6.681-35.613,10.259-39.997,10.432-40.031c4.063-0.804,6.706-4.749,5.902-8.813s-4.75-6.713-8.813-5.902
		c-1.302,0.258-31.762,6.887-22.264,57.512c3.225,17.191,0.48,30.116-8.156,38.416c-8.224,7.902-19.742,9.322-24.079,8.329
		c-4.038-0.919-8.061,1.598-8.986,5.635s1.598,8.061,5.635,8.986C118.2,345.289,120.336,345.511,122.633,345.511z"/>
</g>
<path style="fill:#735458;" d="M308.554,30.905H203.446c-2.209,0-4-1.791-4-4V4c0-2.209,1.791-4,4-4h105.107c2.209,0,4,1.791,4,4
	v22.905C312.554,29.115,310.763,30.905,308.554,30.905z"/>
<path style="fill:#5C4346;" d="M308.554,30.905h-26.847V0h26.847c2.209,0,4,1.791,4,4v22.905
	C312.554,29.115,310.763,30.905,308.554,30.905z"/>
<g>
</g>
<g>
</g>
<g>
</g>
<g>
</g>
<g>
</g>
<g>
</g>
<g>
</g>
<g>
</g>
<g>
</g>
<g>
</g>
<g>
</g>
<g>
</g>
<g>
</g>
<g>
</g>
<g>
</g>
</svg>
