<?xml version="1.0" encoding="iso-8859-1"?>
<!-- Generator: Adobe Illustrator 19.0.0, SVG Export Plug-In . SVG Version: 6.00 Build 0)  -->
<svg version="1.1" id="Capa_1" xmlns="http://www.w3.org/2000/svg" xmlns:xlink="http://www.w3.org/1999/xlink" x="0px" y="0px"
	 viewBox="0 0 512.001 512.001" style="enable-background:new 0 0 512.001 512.001;" xml:space="preserve">
<rect x="180.86" y="419.8" style="fill:#A66856;" width="150.27" height="76.75"/>
<rect x="300.26" y="419.8" style="fill:#8F5040;" width="30.878" height="76.75"/>
<g>
	<path style="fill:#E8E6E1;" d="M194.601,402.534c-4.142,0-7.5-3.357-7.5-7.5V53.663c0-4.143,3.358-7.5,7.5-7.5s7.5,3.357,7.5,7.5
		v341.371C202.101,399.177,198.743,402.534,194.601,402.534z"/>
	<path style="fill:#E8E6E1;" d="M225.3,402.534c-4.142,0-7.5-3.357-7.5-7.5V53.663c0-4.143,3.358-7.5,7.5-7.5s7.5,3.357,7.5,7.5
		v341.371C232.8,399.177,229.442,402.534,225.3,402.534z"/>
	<path style="fill:#E8E6E1;" d="M256,402.534c-4.142,0-7.5-3.357-7.5-7.5V53.663c0-4.143,3.358-7.5,7.5-7.5s7.5,3.357,7.5,7.5
		v341.371C263.5,399.177,260.142,402.534,256,402.534z"/>
	<path style="fill:#E8E6E1;" d="M286.701,402.534c-4.142,0-7.5-3.357-7.5-7.5V53.663c0-4.143,3.358-7.5,7.5-7.5s7.5,3.357,7.5,7.5
		v341.371C294.201,399.177,290.842,402.534,286.701,402.534z"/>
	<path style="fill:#E8E6E1;" d="M317.399,402.534c-4.142,0-7.5-3.357-7.5-7.5V53.663c0-4.143,3.358-7.5,7.5-7.5s7.5,3.357,7.5,7.5
		v341.371C324.899,399.177,321.542,402.534,317.399,402.534z"/>
</g>
<rect x="169.54" y="38.21" style="fill:#FFA440;" width="172.92" height="30.905"/>
<path style="fill:#FFCE55;" d="M454.454,364.267C426.097,406.811,343.228,440.084,256,440.918
	c-87.228-0.834-170.097-34.106-198.454-76.651C21.733,310.535,71.082,219.785,99.749,171.94
	c30.066-50.212,43.453-85.707,49.407-107.659c-17.815-1.925-31.615-15.52-31.615-32.017C117.541,14.439,133.635,0,153.504,0
	c19.857,0,35.963,14.439,35.963,32.264c0,17.423-8.867,69.9-59.41,154.29c-35.045,58.517-42.054,106.733-20.27,139.429
	c21.841,32.768,72.373,50.305,146.213,50.819c73.841-0.515,124.372-18.051,146.213-50.819
	c21.784-32.696,14.775-80.912-20.27-139.429c-50.543-84.39-59.41-136.866-59.41-154.29C322.534,14.439,338.639,0,358.496,0
	c19.868,0,35.963,14.439,35.963,32.264c0,16.497-13.8,30.092-31.615,32.017c5.954,21.952,19.341,57.447,49.407,107.659
	C440.918,219.785,490.267,310.535,454.454,364.267z"/>
<g>
	<path style="fill:#FFBC38;" d="M160.053,16.038c0,16.117-7.592,62.233-48.738,135.856c-3.555,6.404-7.394,13.078-11.566,20.045
		c-0.864,1.443-1.749,2.927-2.648,4.445c-31.947,55.788-37.756,101.812-16.728,133.373c9.974,14.964,25.95,26.741,47.379,35.182
		c-7.269-5.609-13.282-11.93-17.966-18.956c-21.784-32.696-14.775-80.912,20.27-139.429c50.543-84.39,59.41-136.866,59.41-154.29
		c0-17.279-15.135-31.375-34.149-32.222C158.325,4.757,160.053,10.214,160.053,16.038z"/>
	<path style="fill:#FFBC38;" d="M412.251,171.939c-30.066-50.212-43.453-85.707-49.407-107.658
		c17.815-1.925,31.615-15.52,31.615-32.017c0-17.279-15.123-31.375-34.147-32.222c3.007,4.715,4.734,10.173,4.734,15.997
		c0,13.61-0.735,26.939-10.996,32.269c-5.092,2.645-7.977,8.25-7.518,13.974c1.851,23.106,10.704,50.677,36.306,93.433
		c28.667,47.846,78.016,138.596,42.203,192.327c-28.357,42.545-111.226,75.817-198.454,76.651
		c-49.691-0.475-97.962-11.48-135.552-28.727c39.505,26.32,101.064,44.342,164.965,44.952
		c87.228-0.833,170.097-34.106,198.454-76.651C490.267,310.535,440.918,219.785,412.251,171.939z"/>
</g>
<path style="fill:#8F5040;" d="M353.774,512H158.226c-8.531,0-15.446-6.915-15.446-15.446v-0.014
	c0-8.531,6.915-15.446,15.446-15.446h195.547c8.531,0,15.446,6.915,15.446,15.446v0.014C369.22,505.085,362.304,512,353.774,512z"/>
<path style="fill:#75360D;" d="M353.78,481.095h-30.7c8.527,0,15.439,6.919,15.439,15.453s-6.912,15.453-15.439,15.453h30.7
	c8.527,0,15.439-6.919,15.439-15.453C369.22,488.013,362.307,481.095,353.78,481.095z"/>
<g>
</g>
<g>
</g>
<g>
</g>
<g>
</g>
<g>
</g>
<g>
</g>
<g>
</g>
<g>
</g>
<g>
</g>
<g>
</g>
<g>
</g>
<g>
</g>
<g>
</g>
<g>
</g>
<g>
</g>
</svg>
