<?xml version="1.0" encoding="iso-8859-1"?>
<!-- Generator: Adobe Illustrator 19.0.0, SVG Export Plug-In . SVG Version: 6.00 Build 0)  -->
<svg version="1.1" id="Capa_1" xmlns="http://www.w3.org/2000/svg" xmlns:xlink="http://www.w3.org/1999/xlink" x="0px" y="0px"
	 viewBox="0 0 512.001 512.001" style="enable-background:new 0 0 512.001 512.001;" xml:space="preserve">
<path style="fill:#FF803C;" d="M224.356,259.446c143.23-143.23,146.234-178.45,169.54-255.96c0.919-3.055,4.709-4.544,6.703-2.635
	c9.813,9.399,101.152,100.738,110.551,110.551c1.91,1.994,0.42,5.784-2.635,6.703c-77.51,23.306-112.73,26.309-255.96,169.54
	L224.356,259.446z"/>
<path style="fill:#F76328;" d="M511.149,111.401c-5.293-5.525-36.566-36.901-64.636-64.941c21.777,21.8,41.554,41.678,45.663,45.969
	c1.91,1.994,0.421,5.784-2.635,6.703c-77.51,23.306-112.73,26.309-255.96,169.54l18.972,18.972
	c143.23-143.23,178.45-146.233,255.96-169.54C511.569,117.186,513.059,113.395,511.149,111.401z"/>
<polygon style="fill:#FF803C;" points="68.414,462.264 49.736,443.586 224.356,259.446 252.554,287.644 "/>
<path style="fill:#F76328;" d="M1.845,475.318l47.891-31.732l18.678,18.678l-31.732,47.891c-1.439,2.172-4.507,2.48-6.349,0.638
	L1.207,481.667C-0.635,479.825-0.327,476.757,1.845,475.318z"/>
<path style="fill:#A13726;" d="M248.006,304.278l-40.283-40.283c-1.112-1.112-0.75-3.279,0.81-4.838l15.534-15.534
	c1.56-1.56,3.726-1.923,4.838-0.81l40.283,40.283c1.112,1.112,0.75,3.279-0.81,4.838l-15.534,15.534
	C251.285,305.027,249.118,305.39,248.006,304.278z"/>
<g>
</g>
<g>
</g>
<g>
</g>
<g>
</g>
<g>
</g>
<g>
</g>
<g>
</g>
<g>
</g>
<g>
</g>
<g>
</g>
<g>
</g>
<g>
</g>
<g>
</g>
<g>
</g>
<g>
</g>
</svg>
