<?xml version="1.0" encoding="iso-8859-1"?>
<!-- Generator: Adobe Illustrator 19.0.0, SVG Export Plug-In . SVG Version: 6.00 Build 0)  -->
<svg version="1.1" id="Capa_1" xmlns="http://www.w3.org/2000/svg" xmlns:xlink="http://www.w3.org/1999/xlink" x="0px" y="0px"
	 viewBox="0 0 512 512" style="enable-background:new 0 0 512 512;" xml:space="preserve">
<path style="fill:#F5A257;" d="M128,314.893C1.609,314.893,7.195,154.736,7.195,154.736h241.61
	C248.805,154.736,254.391,314.893,128,314.893z"/>
<path style="fill:#A66856;" d="M128,355.544c69.533,0,66.46,60.456,66.46,60.456H61.54C61.54,416,58.467,355.544,128,355.544z"/>
<path style="fill:#F5A257;" d="M384,314.893c-126.391,0-120.805-160.157-120.805-160.157h241.61
	C504.805,154.736,510.391,314.893,384,314.893z"/>
<g>
	<path style="fill:#DB8F52;" d="M504.805,154.736h-29.231c0,0,5.142,147.529-106.189,159.397c4.665,0.497,9.532,0.76,14.616,0.76
		C510.391,314.893,504.805,154.736,504.805,154.736z"/>
	<path style="fill:#DB8F52;" d="M248.805,154.736h-29.231c0,0,5.142,147.529-106.189,159.397c4.665,0.497,9.532,0.76,14.616,0.76
		C254.391,314.893,248.805,154.736,248.805,154.736z"/>
</g>
<path style="fill:#A66856;" d="M384,355.544c69.533,0,66.46,60.456,66.46,60.456H317.54C317.54,416,314.467,355.544,384,355.544z"/>
<g>
	<path style="fill:#5C4346;" d="M128,405.78c-4.143,0-7.5-3.357-7.5-7.5V141.371c0-4.143,3.357-7.5,7.5-7.5
		c4.143,0,7.5,3.357,7.5,7.5V398.28C135.5,402.423,132.143,405.78,128,405.78z"/>
	<path style="fill:#5C4346;" d="M84.293,399.286c-3.324,0-6.362-2.227-7.248-5.593L11.044,142.952
		c-1.055-4.006,1.338-8.107,5.344-9.162c4.003-1.057,8.107,1.337,9.162,5.344l66.001,250.741c1.055,4.006-1.338,8.107-5.344,9.162
		C85.567,399.205,84.925,399.286,84.293,399.286z"/>
	<path style="fill:#5C4346;" d="M171.707,399.286c-0.632,0-1.274-0.08-1.914-0.249c-4.006-1.055-6.398-5.156-5.344-9.162
		l66.001-250.741c1.054-4.006,5.154-6.406,9.162-5.344c4.006,1.055,6.398,5.156,5.344,9.162l-66.001,250.741
		C178.069,397.059,175.031,399.286,171.707,399.286z"/>
	<path style="fill:#5C4346;" d="M384,405.78c-4.143,0-7.5-3.357-7.5-7.5V141.371c0-4.143,3.357-7.5,7.5-7.5s7.5,3.357,7.5,7.5
		V398.28C391.5,402.423,388.143,405.78,384,405.78z"/>
	<path style="fill:#5C4346;" d="M340.293,399.286c-3.324,0-6.362-2.227-7.248-5.593l-66.001-250.741
		c-1.055-4.006,1.338-8.107,5.344-9.162c4.003-1.057,8.107,1.337,9.162,5.344l66.001,250.741c1.055,4.006-1.338,8.107-5.344,9.162
		C341.567,399.205,340.925,399.286,340.293,399.286z"/>
	<path style="fill:#5C4346;" d="M427.707,399.286c-0.632,0-1.274-0.08-1.914-0.249c-4.006-1.055-6.398-5.156-5.344-9.162
		l66.001-250.741c1.054-4.006,5.154-6.406,9.162-5.344c4.006,1.055,6.398,5.156,5.344,9.162l-66.001,250.741
		C434.069,397.059,431.031,399.286,427.707,399.286z"/>
</g>
<path style="fill:#8F5040;" d="M460.746,416H307.254c-2.209,0-4-1.791-4-4v-23.617c0-2.209,1.791-4,4-4h153.492c2.209,0,4,1.791,4,4
	V412C464.746,414.209,462.955,416,460.746,416z"/>
<path style="fill:#75360D;" d="M460.746,416h-26.905v-31.617h26.905c2.209,0,4,1.791,4,4V412
	C464.746,414.209,462.955,416,460.746,416z"/>
<path style="fill:#8F5040;" d="M204.746,416H51.254c-2.209,0-4-1.791-4-4v-23.617c0-2.209,1.791-4,4-4h153.492c2.209,0,4,1.791,4,4
	V412C208.746,414.209,206.955,416,204.746,416z"/>
<path style="fill:#75360D;" d="M204.746,416h-26.905v-31.617h26.905c2.209,0,4,1.791,4,4V412
	C208.746,414.209,206.955,416,204.746,416z"/>
<path style="fill:#735458;" d="M252.147,154.74H3.853c-2.128,0-3.853-1.725-3.853-3.853v-19.688c0-2.128,1.725-3.853,3.853-3.853
	h248.293c2.128,0,3.853,1.725,3.853,3.853v19.688C256,153.015,254.275,154.74,252.147,154.74z"/>
<path style="fill:#FFDEA9;" d="M248.673,127.345H7.327v-17.186c0-7.82,6.339-14.159,14.159-14.159h213.028
	c7.82,0,14.159,6.339,14.159,14.159V127.345z"/>
<path style="fill:#735458;" d="M508.147,154.74H259.853c-2.128,0-3.853-1.725-3.853-3.853v-19.688c0-2.128,1.725-3.853,3.853-3.853
	h248.293c2.128,0,3.853,1.725,3.853,3.853v19.688C512,153.015,510.275,154.74,508.147,154.74z"/>
<g>
	<path style="fill:#5C4346;" d="M508.15,127.345h-30.905c2.126,0,3.85,1.727,3.85,3.857v19.68c0,2.131-1.723,3.857-3.85,3.857
		h30.905c2.126,0,3.85-1.727,3.85-3.857v-19.68C512,129.072,510.277,127.345,508.15,127.345z"/>
	<path style="fill:#5C4346;" d="M252.15,127.345h-30.905c2.126,0,3.85,1.727,3.85,3.857v19.68c0,2.131-1.723,3.857-3.85,3.857
		h30.905c2.126,0,3.85-1.727,3.85-3.857v-19.68C256,129.072,254.277,127.345,252.15,127.345z"/>
</g>
<path style="fill:#FFDEA9;" d="M504.673,127.345H263.327v-17.186c0-7.82,6.339-14.159,14.159-14.159h213.028
	c7.82,0,14.159,6.339,14.159,14.159L504.673,127.345L504.673,127.345z"/>
<g>
	<path style="fill:#FFBF7B;" d="M490.528,96h-30.737c7.812,0,14.145,6.346,14.145,14.173v17.172h30.737v-17.172
		C504.674,102.346,498.341,96,490.528,96z"/>
	<path style="fill:#FFBF7B;" d="M234.528,96h-30.737c7.812,0,14.145,6.346,14.145,14.173v17.172h30.737v-17.172
		C248.673,102.346,242.34,96,234.528,96z"/>
</g>
<g>
</g>
<g>
</g>
<g>
</g>
<g>
</g>
<g>
</g>
<g>
</g>
<g>
</g>
<g>
</g>
<g>
</g>
<g>
</g>
<g>
</g>
<g>
</g>
<g>
</g>
<g>
</g>
<g>
</g>
</svg>
