<?xml version="1.0" encoding="iso-8859-1"?>
<!-- Generator: Adobe Illustrator 19.0.0, SVG Export Plug-In . SVG Version: 6.00 Build 0)  -->
<svg version="1.1" id="Capa_1" xmlns="http://www.w3.org/2000/svg" xmlns:xlink="http://www.w3.org/1999/xlink" x="0px" y="0px"
	 viewBox="0 0 512 512" style="enable-background:new 0 0 512 512;" xml:space="preserve">
<path d="M504.5,92.644c-1.92,0-3.84-0.732-5.304-2.197l-77.51-77.644c-2.928-2.93-2.928-7.679,0.002-10.607
	c2.93-2.928,7.679-2.928,10.606,0.002l77.51,77.644c2.928,2.93,2.928,7.679-0.002,10.607
	C508.338,91.913,506.419,92.644,504.5,92.644z"/>
<path d="M491.814,120.257c-1.92,0-3.839-0.732-5.304-2.197l-90.537-90.567c-2.928-2.93-2.928-7.679,0.002-10.607
	c2.929-2.929,7.677-2.928,10.606,0.001l90.537,90.567c2.928,2.93,2.928,7.679-0.002,10.606
	C495.652,119.524,493.733,120.257,491.814,120.257z"/>
<path style="fill:#5C4346;" d="M502.882,52.981c1.414,1.414,1.567,3.654,0.358,5.247l-45.87,60.44l-0.01,0.01l-7,7.01l-64.4-63.971
	l7.23-7.24l60.42-45.879c1.593-1.209,3.834-1.057,5.248,0.358l24.852,24.861L502.882,52.981z"/>
<path style="fill:#F3B573;" d="M285.821,453.152c-82.779,82.806-172.861,71.256-235.543,8.553S-23.95,308.89,58.829,226.084
	s228.536-126.95,291.218-64.247S368.6,370.345,285.821,453.152z"/>
<path style="fill:#F5A257;" d="M350.047,161.837c-3.739-3.74-7.782-7.089-12.081-10.083c47.208,67.791,3.554,201.372-74.294,279.246
	c-77.837,77.863-162.128,72.293-224.028,19.222c3.359,3.919,6.903,7.751,10.634,11.483c62.682,62.703,152.764,74.253,235.543-8.553
	S412.729,224.54,350.047,161.837z"/>
<path style="fill:#735458;" d="M172.917,446.034L65.943,339.024c-1.561-1.562-1.561-4.094,0-5.656l16.87-16.876
	c1.562-1.563,4.096-1.563,5.658,0l106.974,107.009c1.561,1.562,1.561,4.094,0,5.656l-16.87,16.876
	C177.012,447.596,174.479,447.596,172.917,446.034z"/>
<g>
	<path style="fill:#5C4346;" d="M172.917,446.029l-19.678-19.718l22.526-22.533l19.685,19.724c1.559,1.562,1.558,4.093-0.002,5.654
		l-16.87,16.876C177.014,447.595,174.478,447.594,172.917,446.029z"/>
	<circle style="fill:#5C4346;" cx="221.51" cy="290.42" r="40"/>
</g>
<path style="fill:#735458;" d="M335.552,234.871l-58.517-58.536c-1.561-1.562-1.561-4.094,0-5.656L393.191,54.485l64.173,64.194
	L341.21,234.871C339.648,236.434,337.114,236.434,335.552,234.871z"/>
<g>
	<path style="fill:#5C4346;" d="M335.552,234.869l-19.254-19.275L435.282,96.571l22.082,22.107L341.211,234.87
		C339.648,236.433,337.114,236.433,335.552,234.869z"/>
	<path style="fill:#5C4346;" d="M503.236,58.229l-45.877,60.451l-21.624-21.636l47.976-63.23l19.167,19.169
		C504.292,54.396,504.444,56.636,503.236,58.229z"/>
</g>
<g>
	<path style="fill:#E8E6E1;" d="M417.48,127.882c-1.92,0-3.839-0.732-5.304-2.197l-25.992-26c-2.928-2.93-2.928-7.679,0.002-10.606
		c2.93-2.929,7.678-2.928,10.606,0.001l25.992,26c2.928,2.93,2.928,7.679-0.002,10.606
		C421.318,127.149,419.399,127.882,417.48,127.882z"/>
	<path style="fill:#E8E6E1;" d="M391.874,153.496c-1.92,0-3.839-0.732-5.304-2.197l-25.992-26c-2.928-2.93-2.928-7.679,0.002-10.606
		c2.93-2.929,7.678-2.928,10.606,0.001l25.992,26c2.928,2.93,2.928,7.679-0.002,10.607
		C395.712,152.764,393.793,153.496,391.874,153.496z"/>
	<path style="fill:#E8E6E1;" d="M366.268,179.112c-1.92,0-3.839-0.732-5.304-2.197l-25.992-26c-2.928-2.93-2.928-7.679,0.002-10.607
		c2.929-2.928,7.677-2.929,10.606,0.001l25.992,26c2.928,2.93,2.928,7.679-0.002,10.607
		C370.105,178.379,368.187,179.112,366.268,179.112z"/>
	<path style="fill:#E8E6E1;" d="M340.661,204.726c-1.92,0-3.839-0.732-5.304-2.197l-25.992-25.999
		c-2.928-2.93-2.928-7.679,0.001-10.607c2.93-2.929,7.678-2.928,10.607,0.001l25.992,25.999c2.928,2.93,2.928,7.679-0.001,10.607
		C344.5,203.993,342.58,204.726,340.661,204.726z"/>
</g>
<g>
</g>
<g>
</g>
<g>
</g>
<g>
</g>
<g>
</g>
<g>
</g>
<g>
</g>
<g>
</g>
<g>
</g>
<g>
</g>
<g>
</g>
<g>
</g>
<g>
</g>
<g>
</g>
<g>
</g>
</svg>
