<?xml version="1.0" encoding="iso-8859-1"?>
<!-- Generator: Adobe Illustrator 19.0.0, SVG Export Plug-In . SVG Version: 6.00 Build 0)  -->
<svg version="1.1" id="Capa_1" xmlns="http://www.w3.org/2000/svg" xmlns:xlink="http://www.w3.org/1999/xlink" x="0px" y="0px"
	 viewBox="0 0 512 512" style="enable-background:new 0 0 512 512;" xml:space="preserve">
<path style="fill:#F3B573;" d="M415.06,133.439l-41.908,41.908c-33.975,33.975-60.327,74.801-77.294,119.758
	c-24.59,65.169-62.604,158.215-87.905,183.506c-48.13,48.14-120.757,42.454-168.887-5.676c-0.68-0.68-1.36-1.37-2.029-2.071
	c-0.185-0.185-0.36-0.371-0.525-0.556c-0.608-0.628-1.205-1.277-1.792-1.916c-1.473-1.597-2.895-3.224-4.265-4.883
	c-0.34-0.392-0.67-0.793-0.999-1.206c-0.484-0.587-0.958-1.174-1.432-1.772c-37.664-47.552-38.797-112.33,5.356-156.483
	c25.301-25.301,118.347-63.315,183.516-87.916c44.957-16.967,85.772-43.309,119.758-77.294l41.897-41.897l13.052,13.052
	L415.06,133.439z"/>
<path style="fill:#F5A257;" d="M415.06,133.439l-41.908,41.908c-33.975,33.975-60.327,74.801-77.294,119.758
	c-24.59,65.169-62.604,158.215-87.905,183.506c-48.13,48.14-120.757,42.454-168.887-5.676c-0.68-0.68-1.36-1.37-2.029-2.071
	c-0.185-0.185-0.36-0.371-0.525-0.556c-0.608-0.628-1.205-1.277-1.792-1.916c-1.473-1.597-2.895-3.224-4.265-4.883
	c-0.34-0.392-0.67-0.793-0.999-1.206c-0.484-0.587-0.958-1.174-1.432-1.772c47.553,37.653,112.32,38.786,156.474-5.367
	c25.301-25.301,63.325-118.337,87.915-183.506c16.967-44.967,43.319-85.783,77.294-119.758l41.897-41.908L415.06,133.439z"/>
<path style="fill:#A66856;" d="M120.39,467.247L44.754,391.61c-1.562-1.562-1.562-4.095,0-5.657l17.828-17.828
	c1.562-1.562,4.095-1.562,5.657,0l75.636,75.637c1.562,1.562,1.562,4.095,0,5.657l-17.828,17.828
	C124.484,468.809,121.952,468.809,120.39,467.247z"/>
<path style="fill:#8F5040;" d="M120.39,467.247l-19.085-19.086l23.485-23.485l19.085,19.086c1.562,1.562,1.562,4.095,0,5.657
	l-17.828,17.828C124.485,468.809,121.952,468.809,120.39,467.247z"/>
<g>
	<path style="fill:#735458;" d="M461.916,118.776l-27.402-41.299l-41.312-27.386c-5.993-5.991-6.183-15.515-0.425-21.271l0,0
		c5.756-5.754,15.278-5.564,21.269,0.425l27.516,41.185l41.198,27.5c5.993,5.991,6.183,15.515,0.425,21.271l0,0
		C477.428,124.955,467.907,124.765,461.916,118.776z"/>
	<path style="fill:#735458;" d="M419.06,161.633l-28.094-40.598l-40.62-28.087c-5.993-5.991-6.183-15.515-0.425-21.271l0,0
		c5.756-5.754,15.278-5.564,21.269,0.425l28.608,40.103l40.105,28.583c5.993,5.991,6.183,15.515,0.425,21.271l0,0
		C434.573,167.812,425.051,167.621,419.06,161.633z"/>
	<path style="fill:#735458;" d="M271.05,284.577c-1.92,0-3.839-0.732-5.304-2.196l-36.13-36.131c-2.929-2.93-2.929-7.678,0-10.607
		c2.931-2.929,7.679-2.927,10.607,0l36.13,36.131c2.929,2.93,2.929,7.678,0,10.607C274.889,283.845,272.969,284.577,271.05,284.577z
		"/>
	<path style="fill:#735458;" d="M241.885,313.742c-1.92,0-3.839-0.732-5.304-2.196l-36.13-36.131c-2.929-2.93-2.929-7.678,0-10.607
		c2.93-2.928,7.678-2.928,10.607,0l36.13,36.131c2.929,2.93,2.929,7.678,0,10.607C245.724,313.01,243.804,313.742,241.885,313.742z"
		/>
	<path style="fill:#735458;" d="M212.721,342.907c-1.92,0-3.839-0.732-5.304-2.196l-36.13-36.131c-2.929-2.93-2.929-7.678,0-10.607
		c2.931-2.929,7.679-2.927,10.607,0l36.13,36.131c2.929,2.93,2.929,7.678,0,10.607C216.56,342.175,214.64,342.907,212.721,342.907z"
		/>
	<path style="fill:#735458;" d="M183.557,372.072c-1.92,0-3.839-0.732-5.304-2.196l-36.13-36.131c-2.929-2.93-2.929-7.678,0-10.607
		c2.931-2.929,7.679-2.927,10.607,0l36.13,36.131c2.929,2.93,2.929,7.678,0,10.607C187.396,371.34,185.476,372.072,183.557,372.072z
		"/>
</g>
<path style="fill:#A66856;" d="M493.92,55.908L387.07,173.493c-3.76,4.131-8.695,6.037-10.631,4.1l-21.778-21.758l-20.274-20.264
	c-1.937-1.927-0.052-6.841,4.059-10.59L455.732,17.832l16.401,16.349L493.92,55.908z"/>
<path style="fill:#8F5040;" d="M493.92,55.908L387.07,173.493c-3.76,4.131-8.695,6.037-10.631,4.1l-21.778-21.758l0.01-0.01
	c1.937,1.937,6.882,0.041,10.632-4.09L472.132,34.181L493.92,55.908z"/>
<circle style="fill:#FFDEA9;" cx="475.17" cy="36.829" r="36.829"/>
<path style="fill:#FFBF7B;" d="M488.047,2.319c1.496,4.009,2.319,8.346,2.319,12.876c0,20.34-16.489,36.829-36.829,36.829
	c-4.53,0-8.868-0.822-12.876-2.319c5.222,13.989,18.7,23.953,34.51,23.953c20.34,0,36.829-16.489,36.829-36.829
	C512,21.019,502.036,7.541,488.047,2.319z"/>
<g>
</g>
<g>
</g>
<g>
</g>
<g>
</g>
<g>
</g>
<g>
</g>
<g>
</g>
<g>
</g>
<g>
</g>
<g>
</g>
<g>
</g>
<g>
</g>
<g>
</g>
<g>
</g>
<g>
</g>
</svg>
