<?xml version="1.0" encoding="iso-8859-1"?>
<!-- Generator: Adobe Illustrator 19.0.0, SVG Export Plug-In . SVG Version: 6.00 Build 0)  -->
<svg version="1.1" id="Capa_1" xmlns="http://www.w3.org/2000/svg" xmlns:xlink="http://www.w3.org/1999/xlink" x="0px" y="0px"
	 viewBox="0 0 512.002 512.002" style="enable-background:new 0 0 512.002 512.002;" xml:space="preserve">
<path style="fill:#F3B573;" d="M209.677,506.965L12.032,309.157c-9.748-9.756-4.572-26.493,9-29.106l244.724-47.118
	c11.932-2.297,22.377,8.157,20.082,20.098l-47.08,244.927C236.148,511.542,219.425,516.721,209.677,506.965z"/>
<path style="fill:#F5A257;" d="M265.757,232.933l-16.951,3.264c4.849,3.76,7.654,10.056,6.351,16.835l-47.08,244.926
	c-0.383,1.992-1.076,3.797-1.999,5.407l3.598,3.601c9.748,9.756,26.471,4.576,29.082-9.007l47.08-244.926
	C288.134,241.089,277.689,230.636,265.757,232.933z"/>
<path style="fill:#FFDEA9;" d="M166.558,429.575l-77.204-77.268c-1.561-1.562-1.561-4.093,0-5.655l14.11-14.122
	c1.562-1.564,4.097-1.564,5.659,0l77.204,77.268c1.561,1.562,1.561,4.093,0,5.655l-14.11,14.122
	C170.655,431.139,168.121,431.139,166.558,429.575z"/>
<path style="fill:#FFBF7B;" d="M166.558,429.575l-18.556-18.571l19.764-19.781l18.561,18.576c1.561,1.562,1.561,4.093,0,5.654
	l-14.11,14.122C170.655,431.139,168.121,431.139,166.558,429.575z"/>
<g>
	<path style="fill:#735458;" d="M473.076,53.04c-1.918,0-3.836-0.732-5.299-2.196l-38.008-38.04c-2.927-2.93-2.927-7.678,0-10.608
		c2.926-2.928,7.672-2.928,10.598,0l38.008,38.04c2.927,2.93,2.927,7.678,0,10.608C476.911,52.308,474.994,53.04,473.076,53.04z"/>
	<path style="fill:#735458;" d="M492.571,109.609c-1.918,0-3.836-0.732-5.299-2.196l-38.008-38.04c-2.927-2.93-2.927-7.678,0-10.608
		c2.926-2.928,7.672-2.928,10.598,0l38.008,38.04c2.927,2.93,2.927,7.678,0,10.608C496.406,108.877,494.489,109.609,492.571,109.609
		z"/>
	<path style="fill:#735458;" d="M436.775,89.371c-1.918,0-3.836-0.732-5.299-2.196l-38.008-38.04c-2.927-2.93-2.927-7.678,0-10.608
		c2.926-2.928,7.672-2.928,10.598,0l38.008,38.04c2.927,2.93,2.927,7.678,0,10.608C440.611,88.638,438.693,89.371,436.775,89.371z"
		/>
	<polygon style="fill:#735458;" points="433.813,115.264 397.713,151.274 387.103,161.874 366.033,182.884 355.413,193.484 
		334.393,214.454 323.773,225.044 302.663,246.114 292.043,256.704 221.093,327.494 190.963,297.454 261.973,226.604 
		272.593,216.014 293.663,195.004 304.283,184.404 325.303,163.424 335.933,152.834 357.033,131.784 357.033,131.774 
		367.653,121.184 403.693,85.224 	"/>
</g>
<path style="fill:#A66856;" d="M503.41,52.043l-42.964,53.445l-27.345,20.991l-21.239-21.246l-19.676-19.682l20.955-27.337
	l53.127-43.283c2.242-1.939,5.223-2.162,6.877-0.508l9.554,9.562l21.198,21.205C505.54,46.835,505.327,49.799,503.41,52.043z"/>
<path style="fill:#8F5040;" d="M503.41,52.043l-42.964,53.445l-27.345,20.991l-21.239-21.246l27.344-21.002l42.964-53.444
	c1.907-2.223,2.12-5.146,0.527-6.801l21.198,21.205C505.54,46.835,505.327,49.799,503.41,52.043z"/>
<circle style="fill:#5C4346;" cx="191.311" cy="327.541" r="35"/>
<g>
	<polygon style="fill:#FFBF7B;" points="397.713,151.274 387.103,161.874 357.033,131.784 357.033,131.774 367.653,121.184 	"/>
	<polygon style="fill:#FFBF7B;" points="366.033,182.884 355.413,193.484 325.313,163.434 325.303,163.424 335.933,152.834 
		366.023,182.874 	"/>
	<path style="fill:#FFBF7B;" d="M334.393,214.454l-10.62,10.59l-30.11-30.04l10.62-10.6l30.09,30.03
		C334.383,214.444,334.383,214.444,334.393,214.454z"/>
	<polygon style="fill:#FFBF7B;" points="302.663,246.114 292.043,256.704 261.973,226.604 272.593,216.014 302.653,246.104 	"/>
</g>
<g>
</g>
<g>
</g>
<g>
</g>
<g>
</g>
<g>
</g>
<g>
</g>
<g>
</g>
<g>
</g>
<g>
</g>
<g>
</g>
<g>
</g>
<g>
</g>
<g>
</g>
<g>
</g>
<g>
</g>
</svg>
