<?xml version="1.0" encoding="iso-8859-1"?>
<!-- Generator: Adobe Illustrator 19.0.0, SVG Export Plug-In . SVG Version: 6.00 Build 0)  -->
<svg version="1.1" id="Capa_1" xmlns="http://www.w3.org/2000/svg" xmlns:xlink="http://www.w3.org/1999/xlink" x="0px" y="0px"
	 viewBox="0 0 512 512" style="enable-background:new 0 0 512 512;" xml:space="preserve">
<path style="fill:#FFDEA9;" d="M92.273,332.055H36.711C16.436,332.055,0,315.657,0,295.43V154.902
	c0-20.228,16.436-36.625,36.711-36.625h200.771c7.211,0,13.416,5.529,13.755,12.715c0.362,7.673-5.766,14.007-13.377,14.007H37.863
	c-6.118,0-11.078,4.948-11.078,11.053v138.228c0,6.104,4.96,11.053,11.078,11.053h54.031c7.211,0,13.416,5.529,13.755,12.715
	C106.012,325.721,99.884,332.055,92.273,332.055z"/>
<path style="fill:#F76328;" d="M139.485,369.568H83.44c-2.273,0-4.116-1.843-4.116-4.116v-94.546c0-2.273,1.843-4.116,4.116-4.116
	h56.045V369.568z"/>
<path style="fill:#735458;" d="M309.093,140.781l-71.121,5.246v-30.833l71.121,5.246c2.152,0.159,3.817,1.947,3.817,4.1v12.141
	C312.909,138.835,311.245,140.622,309.093,140.781z"/>
<path style="fill:#FF803C;" d="M134.925,404H491.42c11.366,0,20.58-9.214,20.58-20.58V252.94c0-11.366-9.214-20.58-20.58-20.58
	H134.925c-13.639,0-24.695,11.057-24.695,24.695v122.248C110.229,392.943,121.286,404,134.925,404z"/>
<path style="fill:#F76328;" d="M491.396,232.36h-30.905c11.379,0,20.604,9.203,20.604,20.556v130.528
	c0,11.352-9.225,20.556-20.604,20.556h30.905c11.379,0,20.604-9.203,20.604-20.556V252.917
	C512,241.563,502.775,232.36,491.396,232.36z"/>
<path style="fill:#FFBF7B;" d="M436.076,404h45.019V276.443c0-2.209-1.791-4-4-4h-41.019V404z"/>
<rect x="391.06" y="272.44" style="fill:#FFDEA9;" width="45.02" height="131.56"/>
<rect x="346.04" y="272.44" style="fill:#FFBF7B;" width="45.02" height="131.56"/>
<rect x="301.02" y="272.44" style="fill:#FFDEA9;" width="45.02" height="131.56"/>
<rect x="256" y="272.44" style="fill:#FFBF7B;" width="45.02" height="131.56"/>
<rect x="210.98" y="272.44" style="fill:#FFDEA9;" width="45.02" height="131.56"/>
<path style="fill:#FFBF7B;" d="M165.962,404h45.019V272.443h-41.019c-2.209,0-4,1.791-4,4V404z"/>
<g>
	<path style="fill:#595959;" d="M426.683,344.388h18.785c2.209,0,4-1.791,4-4v-67.944h-26.785v67.944
		C422.683,342.597,424.474,344.388,426.683,344.388z"/>
	<path style="fill:#595959;" d="M381.664,344.388h18.785c2.209,0,4-1.791,4-4v-67.944h-26.785v67.944
		C377.664,342.597,379.455,344.388,381.664,344.388z"/>
	<path style="fill:#595959;" d="M291.886,345.93h18.785c2.209,0,4-1.791,4-4v-69.486h-26.785v69.486
		C287.886,344.14,289.677,345.93,291.886,345.93z"/>
	<path style="fill:#595959;" d="M246.608,345.93h18.785c2.209,0,4-1.791,4-4v-69.486h-26.785v69.486
		C242.608,344.14,244.399,345.93,246.608,345.93z"/>
	<path style="fill:#595959;" d="M201.034,345.93h18.785c2.209,0,4-1.791,4-4v-69.486h-26.785v69.486
		C197.034,344.14,198.825,345.93,201.034,345.93z"/>
</g>
<path style="fill:#5C4346;" d="M240.251,153.221h-22.674c-2.273,0-4.116-1.843-4.116-4.116v-36.99c0-2.273,1.843-4.116,4.116-4.116
	h22.674c2.273,0,4.116,1.843,4.116,4.116v36.99C244.367,151.378,242.524,153.221,240.251,153.221z"/>
<g>
</g>
<g>
</g>
<g>
</g>
<g>
</g>
<g>
</g>
<g>
</g>
<g>
</g>
<g>
</g>
<g>
</g>
<g>
</g>
<g>
</g>
<g>
</g>
<g>
</g>
<g>
</g>
<g>
</g>
</svg>
