<?xml version="1.0" encoding="iso-8859-1"?>
<!-- Generator: Adobe Illustrator 19.0.0, SVG Export Plug-In . SVG Version: 6.00 Build 0)  -->
<svg version="1.1" id="Capa_1" xmlns="http://www.w3.org/2000/svg" xmlns:xlink="http://www.w3.org/1999/xlink" x="0px" y="0px"
	 viewBox="0 0 512 512" style="enable-background:new 0 0 512 512;" xml:space="preserve">
<g>
	<path style="fill:#75360D;" d="M16.379,508V17.513h30.905V508c0,2.209-1.791,4-4,4H20.379C18.169,512,16.379,510.209,16.379,508z"
		/>
	<path style="fill:#75360D;" d="M470.188,508V17.513h30.905V508c0,2.209-1.791,4-4,4h-22.905
		C471.979,512,470.188,510.209,470.188,508z"/>
</g>
<path style="fill:#FFBF7B;" d="M259.178,260.475c-0.026,0-0.052,0-0.079,0c-2.861-0.03-5.456-1.686-6.689-4.267L140.488,21.933
	c-1.785-3.738-0.203-8.215,3.535-10.001c3.738-1.785,8.215-0.202,10,3.534l105.332,220.482L370.477,15.325
	c1.863-3.7,6.373-5.188,10.072-3.324c3.7,1.863,5.188,6.373,3.325,10.072L265.876,256.349
	C264.601,258.88,262.008,260.475,259.178,260.475z"/>
<path style="fill:#FFA440;" d="M259.178,447.788c-106.224,0-192.644-86.42-192.644-192.644S152.953,62.5,259.178,62.5
	s192.644,86.42,192.644,192.644S365.402,447.788,259.178,447.788z"/>
<path style="fill:#FFCE55;" d="M259.178,416.882c-89.183,0-161.738-72.555-161.738-161.738S169.994,93.405,259.178,93.405
	s161.738,72.555,161.738,161.738S348.361,416.882,259.178,416.882z"/>
<path style="fill:#FFBC38;" d="M259.178,323.675c-37.788,0-68.53-30.743-68.53-68.53s30.743-68.53,68.53-68.53
	s68.53,30.743,68.53,68.53S296.966,323.675,259.178,323.675z"/>
<path style="fill:#FFA440;" d="M259.178,186.614c-5.315,0-10.483,0.628-15.453,1.778c30.367,7.029,53.078,34.279,53.078,66.752
	s-22.711,59.723-53.078,66.752c4.97,1.15,10.138,1.779,15.453,1.779c37.788,0,68.53-30.743,68.53-68.53
	C327.708,217.356,296.966,186.614,259.178,186.614z"/>
<path style="fill:#F3B573;" d="M97.99,466.527L97.99,466.527c5.23,5.23,13.71,5.23,18.94,0l118.244-118.244l-18.94-18.94
	L97.99,447.588C92.759,452.818,92.759,461.297,97.99,466.527z"/>
<circle style="fill:#FFDEA9;" cx="238.07" cy="326.44" r="31.22"/>
<path style="fill:#A66856;" d="M508,41.207H4c-2.209,0-4-1.791-4-4V4c0-2.209,1.791-4,4-4h504c2.209,0,4,1.791,4,4v33.207
	C512,39.416,510.209,41.207,508,41.207z"/>
<path style="fill:#8F5040;" d="M508,41.207h-26.905V0H508c2.209,0,4,1.791,4,4v33.207C512,39.416,510.209,41.207,508,41.207z"/>
<g>
</g>
<g>
</g>
<g>
</g>
<g>
</g>
<g>
</g>
<g>
</g>
<g>
</g>
<g>
</g>
<g>
</g>
<g>
</g>
<g>
</g>
<g>
</g>
<g>
</g>
<g>
</g>
<g>
</g>
</svg>
