<?xml version="1.0" encoding="iso-8859-1"?>
<!-- Generator: Adobe Illustrator 19.0.0, SVG Export Plug-In . SVG Version: 6.00 Build 0)  -->
<svg version="1.1" id="Capa_1" xmlns="http://www.w3.org/2000/svg" xmlns:xlink="http://www.w3.org/1999/xlink" x="0px" y="0px"
	 viewBox="0 0 511.998 511.998" style="enable-background:new 0 0 511.998 511.998;" xml:space="preserve">
<g>
	<path style="fill:#FFA440;" d="M100.461,435.793c-1.917,0-3.834-0.73-5.299-2.192l-52.876-52.784
		c-2.931-2.926-2.936-7.675-0.009-10.606c2.926-2.931,7.675-2.936,10.607-0.009l52.876,52.784c2.931,2.926,2.936,7.675,0.009,10.606
		C104.305,435.059,102.383,435.793,100.461,435.793z"/>
	<path style="fill:#FFA440;" d="M145.519,390.813c-1.917,0-3.834-0.73-5.299-2.192l-52.875-52.784
		c-2.931-2.926-2.936-7.675-0.009-10.606c2.926-2.931,7.675-2.937,10.607-0.009l52.875,52.784c2.931,2.926,2.936,7.675,0.009,10.606
		C149.362,390.079,147.44,390.813,145.519,390.813z"/>
</g>
<path style="fill:#FFCE55;" d="M507.402,61.22l-19.954,19.915c-0.01,0.021-0.021,0.031-0.041,0.052l-384.615,383.94
	c-16.72,16.7-44.174,16.463-61.192-0.525l-28.68-28.63c-17.018-16.989-17.255-44.393-0.525-61.083l19.511-19.482
	c6.119-6.109,16.05-6.109,22.169,0c6.119,6.12,6.119,16.031,0,22.14l-19.511,19.471c-4.492,4.492-4.265,12.033,0.525,16.824
	l28.69,28.63c4.79,4.78,12.342,5.017,16.843,0.525l384.234-383.58l20.377-20.337c6.119-6.109,16.05-6.109,22.169,0
	C513.531,45.189,513.531,55.1,507.402,61.22z"/>
<path style="fill:#FFBC38;" d="M507.402,61.22l-19.996,19.966c0.021-0.021,0.031-0.031,0.041-0.052
	c5.717-6.14,5.594-15.742-0.391-21.707c-6.119-6.109-16.05-6.109-22.169,0l-0.031-0.01l20.377-20.337
	c6.119-6.109,16.05-6.109,22.169,0C513.531,45.189,513.531,55.1,507.402,61.22z"/>
<path style="fill:#FFCE55;" d="M326.596,199.87C268,181.49,178.148,254.349,123.786,307.952l-22.169-22.14
	c0,0,0.113-0.124,0.34-0.371c0.525-0.546,1.607-1.7,3.152-3.39c0.072-0.072,0.144-0.154,0.227-0.237
	c21.345-23.242,126.536-141.833,105.232-199.012c-0.752-2.019,3.08-2.874,4.625-1.37c11.826,11.497,50.396,49.132,81.724,81.214
	c12.032,12.332,22.993,23.84,30.967,32.731C329.234,196.892,328.533,200.477,326.596,199.87z"/>
<g>
	<path style="fill:#FFBC38;" d="M326.596,199.87C268,181.49,178.148,254.349,123.786,307.952l-22.169-22.14
		c0,0,0.113-0.124,0.34-0.371c0.505-0.556,1.566-1.71,3.152-3.39c0.072-0.072,0.144-0.154,0.227-0.237
		c17.564-18.441,84.989-90.208,191.581-119.168c12.032,12.332,22.993,23.84,30.967,32.731
		C329.234,196.892,328.533,200.477,326.596,199.87z"/>
	<polygon style="fill:#FFBC38;" points="123.788,307.952 43.037,388.563 20.864,366.428 101.614,285.817 	"/>
</g>
<path style="fill:#FFA440;" d="M276.767,320.401l-10.873,10.854c-1.562,1.559-4.09,1.559-5.652,0l-45.508-45.43
	c-1.565-1.563-1.565-4.099,0-5.662l10.863-10.845c4.683-4.675,12.266-4.675,16.949,0l34.221,34.162
	C281.445,308.151,281.445,315.731,276.767,320.401z"/>
<path style="fill:#FFBC38;" d="M382.168,193.003L274.15,300.864l-28.972-28.913l108.028-107.87c1.561-1.559,4.09-1.559,5.652-0.001
	l23.309,23.262C383.733,188.904,383.733,191.441,382.168,193.003z"/>
<g>
</g>
<g>
</g>
<g>
</g>
<g>
</g>
<g>
</g>
<g>
</g>
<g>
</g>
<g>
</g>
<g>
</g>
<g>
</g>
<g>
</g>
<g>
</g>
<g>
</g>
<g>
</g>
<g>
</g>
</svg>
