<?xml version="1.0" encoding="iso-8859-1"?>
<!-- Generator: Adobe Illustrator 19.0.0, SVG Export Plug-In . SVG Version: 6.00 Build 0)  -->
<svg version="1.1" id="Capa_1" xmlns="http://www.w3.org/2000/svg" xmlns:xlink="http://www.w3.org/1999/xlink" x="0px" y="0px"
	 viewBox="0 0 512 512" style="enable-background:new 0 0 512 512;" xml:space="preserve">
<path style="fill:#F5A257;" d="M512,256c0,111.38-77.3,202-172.31,202H172.32c-24.86,0-48.5-6.21-69.87-17.36
	C42.15,409.16,0,338.24,0,256c0-82.22,42.13-153.13,102.42-184.62C123.79,60.21,147.45,54,172.32,54h167.37
	C434.7,54,512,144.62,512,256z"/>
<path style="fill:#595959;" d="M339.685,458c-95.015,0-172.315-90.616-172.315-201.998s77.3-201.998,172.315-201.998
	S512,144.619,512,256.002S434.7,458,339.685,458z"/>
<path style="fill:#464646;" d="M339.685,54.003c-5.209,0-10.36,0.288-15.453,0.821c87.802,9.192,156.863,95.901,156.863,201.177
	c0,105.277-69.061,191.985-156.863,201.177c5.092,0.533,10.244,0.821,15.453,0.821C434.7,458,512,367.384,512,256.001
	C512,144.619,434.7,54.003,339.685,54.003z"/>
<path style="fill:#FFDEA9;" d="M339.684,427.082c-36.762,0-71.664-17.183-98.28-48.383c-27.813-32.604-43.13-76.179-43.13-122.697
	s15.317-90.092,43.13-122.697c26.616-31.2,61.518-48.383,98.28-48.383s71.664,17.183,98.281,48.383
	c27.813,32.604,43.13,76.179,43.13,122.697s-15.317,90.093-43.13,122.697C411.348,409.899,376.446,427.082,339.684,427.082z"/>
<path style="fill:#A66856;" d="M186.07,386.87c-0.22-0.38-0.46-0.75-0.74-1.08c-23.7-35.25-37.97-80.5-37.97-129.79
	c0-103.84,63.32-189.76,144.79-202h-48.51c-26.4,13.27-49.64,33.96-67.97,59.93H80.62c25.55-32.31,59.71-54.2,97.84-59.93h-6.14
	c-24.87,0-48.53,6.21-69.9,17.38C52.13,110.16,18.68,178.42,18.68,256c0,52.33,15.22,100.41,40.56,138.07
	c0.25,0.48,0.55,0.92,0.9,1.33c12.04,17.62,26.33,32.92,42.31,45.24c21.37,11.15,45.01,17.36,69.87,17.36h6.14
	c-38.13-5.73-72.29-27.62-97.84-59.93h95.05c18.33,25.96,41.57,46.66,67.97,59.93h48.5C249.74,451.63,212.27,425.3,186.07,386.87z
	 M69.86,128.93h96.12c-20.03,33.93-32.26,75.08-33.5,119.57H33.8C35.13,203.37,48.42,161.96,69.86,128.93z M69.86,383.07
	C48.42,350.04,35.14,308.63,33.8,263.5h98.68c1.24,44.49,13.47,85.64,33.5,119.57H69.86z"/>
<path style="fill:#F3B573;" d="M506.289,432.59L506.289,432.59c-5.232,5.234-13.716,5.234-18.948,0l-118.24-118.289l18.94-18.948
	L506.289,413.65C511.517,418.881,511.517,427.359,506.289,432.59z"/>
<circle style="fill:#FF803C;" cx="366.2" cy="292.45" r="31"/>
<g>
</g>
<g>
</g>
<g>
</g>
<g>
</g>
<g>
</g>
<g>
</g>
<g>
</g>
<g>
</g>
<g>
</g>
<g>
</g>
<g>
</g>
<g>
</g>
<g>
</g>
<g>
</g>
<g>
</g>
</svg>
