<?xml version="1.0" encoding="iso-8859-1"?>
<!-- Generator: Adobe Illustrator 19.0.0, SVG Export Plug-In . SVG Version: 6.00 Build 0)  -->
<svg version="1.1" id="Capa_1" xmlns="http://www.w3.org/2000/svg" xmlns:xlink="http://www.w3.org/1999/xlink" x="0px" y="0px"
	 viewBox="0 0 512 512" style="enable-background:new 0 0 512 512;" xml:space="preserve">
<path style="fill:#FFCE55;" d="M192.5,420C86.355,420,0,333.869,0,228S86.355,36,192.5,36S385,122.131,385,228
	S298.645,420,192.5,420z"/>
<path style="fill:#FFBC38;" d="M192.5,339.985c-61.871,0-112.206-50.204-112.206-111.914S130.629,116.156,192.5,116.156
	s112.206,50.205,112.206,111.914S254.371,339.985,192.5,339.985z"/>
<path style="fill:#FFCE55;" d="M320,476c-105.869,0-192-86.131-192-192S214.131,92,320,92s192,86.131,192,192S425.869,476,320,476z"
	/>
<path style="fill:#FFBC38;" d="M320,395.985c-61.71,0-111.914-50.204-111.914-111.914S258.29,172.156,320,172.156
	s111.914,50.205,111.914,111.914S381.71,395.985,320,395.985z"/>
<path style="fill:#FFA440;" d="M320,172.156c-4.239,0-8.422,0.245-12.54,0.707c52.99,8.798,93.524,54.948,93.524,110.395
	c0,57.47-43.546,104.954-99.374,111.208c5.986,0.994,12.127,1.519,18.39,1.519c61.71,0,111.914-50.204,111.914-111.914
	S381.71,172.156,320,172.156z"/>
<path style="fill:#735458;" d="M324.622,355.586h-0.003c-8.505,0-15.4-6.895-15.4-15.4V237.51c0-8.505,6.895-15.4,15.4-15.4h0.003
	c8.505,0,15.4,6.895,15.4,15.4v102.677C340.021,348.692,333.127,355.586,324.622,355.586z"/>
<g>
</g>
<g>
</g>
<g>
</g>
<g>
</g>
<g>
</g>
<g>
</g>
<g>
</g>
<g>
</g>
<g>
</g>
<g>
</g>
<g>
</g>
<g>
</g>
<g>
</g>
<g>
</g>
<g>
</g>
</svg>
