<?xml version="1.0" encoding="iso-8859-1"?>
<!-- Generator: Adobe Illustrator 19.0.0, SVG Export Plug-In . SVG Version: 6.00 Build 0)  -->
<svg version="1.1" id="Capa_1" xmlns="http://www.w3.org/2000/svg" xmlns:xlink="http://www.w3.org/1999/xlink" x="0px" y="0px"
	 viewBox="0 0 512 512" style="enable-background:new 0 0 512 512;" xml:space="preserve">
<path style="fill:#FF803C;" d="M485.11,141.271v178.487H26.89V141.283C27.23,141.106,27.6,141,28,141h456.01
	C484.4,141,484.78,141.094,485.11,141.271z"/>
<path style="fill:#595959;" d="M508,371H4c-2.209,0-4-1.791-4-4v-60.84h512V367C512,369.209,510.209,371,508,371z"/>
<path style="fill:#464646;" d="M508,371h-26.905v-64.84H512V367C512,369.209,510.209,371,508,371z"/>
<polygon style="fill:#F76328;" points="26.893,292.562 485.107,292.562 512,319.759 0,319.759 "/>
<g>
	<path style="fill:#FFDEA9;" d="M80.869,352.879H41.722c-4.142,0-7.5-3.358-7.5-7.5s3.358-7.5,7.5-7.5h39.147
		c4.142,0,7.5,3.358,7.5,7.5S85.011,352.879,80.869,352.879z"/>
	<path style="fill:#FFDEA9;" d="M145.771,352.879h-39.147c-4.142,0-7.5-3.358-7.5-7.5s3.358-7.5,7.5-7.5h39.147
		c4.142,0,7.5,3.358,7.5,7.5S149.913,352.879,145.771,352.879z"/>
	<path style="fill:#FFDEA9;" d="M210.672,352.879h-39.146c-4.142,0-7.5-3.358-7.5-7.5s3.358-7.5,7.5-7.5h39.146
		c4.142,0,7.5,3.358,7.5,7.5S214.814,352.879,210.672,352.879z"/>
	<path style="fill:#FFDEA9;" d="M275.573,352.879h-39.146c-4.142,0-7.5-3.358-7.5-7.5s3.358-7.5,7.5-7.5h39.146
		c4.143,0,7.5,3.358,7.5,7.5S279.716,352.879,275.573,352.879z"/>
	<path style="fill:#FFDEA9;" d="M340.475,352.879h-39.146c-4.143,0-7.5-3.358-7.5-7.5s3.357-7.5,7.5-7.5h39.146
		c4.143,0,7.5,3.358,7.5,7.5S344.617,352.879,340.475,352.879z"/>
	<path style="fill:#FFDEA9;" d="M405.376,352.879H366.23c-4.143,0-7.5-3.358-7.5-7.5s3.357-7.5,7.5-7.5h39.146
		c4.143,0,7.5,3.358,7.5,7.5S409.519,352.879,405.376,352.879z"/>
	<path style="fill:#FFDEA9;" d="M470.277,352.879h-39.146c-4.143,0-7.5-3.358-7.5-7.5s3.357-7.5,7.5-7.5h39.146
		c4.143,0,7.5,3.358,7.5,7.5S474.42,352.879,470.277,352.879z"/>
</g>
<path style="fill:#F76328;" d="M26.89,141.24v151.32L0,319.76V169.84c0-1.05,0.42-2.06,1.16-2.81l24.77-25.05
	c0.07-0.09,0.16-0.18,0.25-0.26C26.39,141.52,26.63,141.36,26.89,141.24z"/>
<path style="fill:#A13726;" d="M512,169.84v149.92l-26.89-27.2V141.23c0.21,0.1,0.41,0.22,0.59,0.37c0.01,0,0.02,0.01,0.03,0.02
	l0.4,0.41l24.71,25C511.58,167.78,512,168.79,512,169.84z"/>
<path style="fill:#FFDEA9;" d="M313.697,230.379H198.303c-2.272,0-4.114-1.842-4.114-4.114v-28.736c0-2.272,1.842-4.114,4.114-4.114
	h115.394c2.272,0,4.114,1.842,4.114,4.114v28.736C317.811,228.537,315.969,230.379,313.697,230.379z"/>
<path style="fill:#FFBF7B;" d="M313.69,193.415h-30.905c2.276,0,4.121,1.839,4.121,4.107v28.75c0,2.268-1.845,4.107-4.121,4.107
	h30.905c2.276,0,4.121-1.839,4.121-4.107v-28.75C317.811,195.254,315.966,193.415,313.69,193.415z"/>
<g>
</g>
<g>
</g>
<g>
</g>
<g>
</g>
<g>
</g>
<g>
</g>
<g>
</g>
<g>
</g>
<g>
</g>
<g>
</g>
<g>
</g>
<g>
</g>
<g>
</g>
<g>
</g>
<g>
</g>
</svg>
