<?xml version="1.0" encoding="iso-8859-1"?>
<!-- Generator: Adobe Illustrator 19.0.0, SVG Export Plug-In . SVG Version: 6.00 Build 0)  -->
<svg version="1.1" id="Capa_1" xmlns="http://www.w3.org/2000/svg" xmlns:xlink="http://www.w3.org/1999/xlink" x="0px" y="0px"
	 viewBox="0 0 512 512" style="enable-background:new 0 0 512 512;" xml:space="preserve">
<path style="fill:#A66856;" d="M425.378,30.232v16.194c0,19.543-35.775,154.206-66.488,184.957H153.11
	C122.397,200.632,86.622,65.969,86.622,46.426V30.232H425.378z"/>
<path style="fill:#8F5040;" d="M393.996,30.232v16.194c0,19.543-11.482,77.217-50.718,184.957h15.612
	c30.713-30.751,66.488-165.414,66.488-184.957V30.232H393.996z"/>
<path style="fill:#735458;" d="M379.816,512H132.184c-2.578,0-4.521-2.444-4.045-5.086L170.999,269h170.003l42.859,237.914
	C384.337,509.556,382.394,512,379.816,512z"/>
<path style="fill:#5C4346;" d="M383.861,506.914L341.001,269h-30.867l42.859,237.914c0.476,2.643-1.467,5.086-4.045,5.086h30.867
	C382.394,512,384.337,509.556,383.861,506.914z"/>
<g>
	<path style="fill:#735458;" d="M191.362,241.502c-3.03,0-5.884-1.85-7.018-4.852c-35.861-94.961-42.549-179.143-42.612-179.982
		c-0.312-4.129,2.782-7.729,6.912-8.042c4.134-0.312,7.732,2.782,8.045,6.911c0.063,0.819,6.626,82.969,41.688,175.813
		c1.463,3.875-0.492,8.203-4.367,9.666C193.139,241.346,192.243,241.502,191.362,241.502z"/>
	<path style="fill:#735458;" d="M231.813,241.5c-3.776,0-7.025-2.843-7.446-6.683c-10.21-93.105-11.441-177.77-11.452-178.614
		c-0.056-4.142,3.258-7.543,7.399-7.599c0.033,0,0.067-0.001,0.102-0.001c4.096,0,7.442,3.292,7.497,7.4
		c0.012,0.837,1.236,84.818,11.364,177.179c0.452,4.117-2.521,7.821-6.638,8.272C232.361,241.486,232.085,241.5,231.813,241.5z"/>
	<path style="fill:#735458;" d="M322.202,241.502c-0.881,0-1.776-0.156-2.648-0.486c-3.875-1.463-5.83-5.791-4.367-9.666
		c35.063-92.844,41.626-174.994,41.688-175.813c0.313-4.13,3.903-7.227,8.045-6.911c4.13,0.313,7.224,3.913,6.912,8.042
		c-0.063,0.839-6.751,85.021-42.612,179.982C328.086,239.652,325.232,241.502,322.202,241.502z"/>
	<path style="fill:#735458;" d="M281.753,241.5c-0.272,0-0.549-0.015-0.826-0.045c-4.117-0.451-7.09-4.155-6.638-8.272
		c10.133-92.398,11.352-176.342,11.363-177.179c0.055-4.142,3.463-7.482,7.599-7.4c4.142,0.055,7.455,3.458,7.399,7.599
		c-0.011,0.844-1.241,85.509-11.451,178.614C288.778,238.657,285.528,241.5,281.753,241.5z"/>
</g>
<path style="fill:#FFDEA9;" d="M434,58.72c-17.799,0-17.799-14.423-35.599-14.423s-17.8,14.423-35.6,14.423
	c-17.797,0-17.797-14.423-35.594-14.423c-17.798,0-17.798,14.423-35.595,14.423c-17.8,0-17.8-14.423-35.599-14.423
	c-17.8,0-17.8,14.423-35.6,14.423c-17.801,0-17.801-14.423-35.602-14.423c-17.8,0-17.8,14.423-35.6,14.423
	c-17.803,0-17.803-14.423-35.605-14.423S95.803,58.72,78,58.72V10.302C78,4.612,82.607,0,88.289,0h335.422
	C429.393,0,434,4.612,434,10.302V58.72z"/>
<path style="fill:#FFBF7B;" d="M423.711,0h-30.867c5.682,0,10.289,4.612,10.289,10.302v34.385
	C416.366,46.979,417.938,58.72,434,58.72V10.302C434,4.612,429.394,0,423.711,0z"/>
<path style="fill:#FFDEA9;" d="M360.035,278.771h-208.07c-2.209,0-4-1.791-4-4v-39.388c0-2.209,1.791-4,4-4h208.069
	c2.209,0,4,1.791,4,4v39.388C364.035,276.98,362.244,278.771,360.035,278.771z"/>
<path style="fill:#FFBF7B;" d="M360.035,278.771h-26.867v-47.388h26.867c2.209,0,4,1.791,4,4v39.388
	C364.035,276.98,362.244,278.771,360.035,278.771z"/>
<g>
</g>
<g>
</g>
<g>
</g>
<g>
</g>
<g>
</g>
<g>
</g>
<g>
</g>
<g>
</g>
<g>
</g>
<g>
</g>
<g>
</g>
<g>
</g>
<g>
</g>
<g>
</g>
<g>
</g>
</svg>
