<?xml version="1.0" encoding="iso-8859-1"?>
<!-- Generator: Adobe Illustrator 19.0.0, SVG Export Plug-In . SVG Version: 6.00 Build 0)  -->
<svg version="1.1" id="Capa_1" xmlns="http://www.w3.org/2000/svg" xmlns:xlink="http://www.w3.org/1999/xlink" x="0px" y="0px"
	 viewBox="0 0 512 512" style="enable-background:new 0 0 512 512;" xml:space="preserve">
<g>
	<path style="fill:#595959;" d="M30.905,167.698c-4.142,0-7.5-3.358-7.5-7.5V98.372c0-4.142,3.358-7.5,7.5-7.5s7.5,3.358,7.5,7.5
		v61.826C38.405,164.34,35.047,167.698,30.905,167.698z"/>
	<path style="fill:#595959;" d="M141.65,167.698c-4.142,0-7.5-3.358-7.5-7.5V98.372c0-4.142,3.358-7.5,7.5-7.5s7.5,3.358,7.5,7.5
		v61.826C149.15,164.34,145.792,167.698,141.65,167.698z"/>
	<path style="fill:#595959;" d="M256,167.698c-4.142,0-7.5-3.358-7.5-7.5V98.372c0-4.142,3.358-7.5,7.5-7.5s7.5,3.358,7.5,7.5
		v61.826C263.5,164.34,260.142,167.698,256,167.698z"/>
	<path style="fill:#595959;" d="M370.35,167.698c-4.142,0-7.5-3.358-7.5-7.5V98.372c0-4.142,3.358-7.5,7.5-7.5s7.5,3.358,7.5,7.5
		v61.826C377.85,164.34,374.492,167.698,370.35,167.698z"/>
	<path style="fill:#595959;" d="M480.837,167.698c-4.142,0-7.5-3.358-7.5-7.5V98.372c0-4.142,3.358-7.5,7.5-7.5s7.5,3.358,7.5,7.5
		v61.826C488.337,164.34,484.979,167.698,480.837,167.698z"/>
	<path style="fill:#595959;" d="M331.288,99.238c-3.739,0-6.975-2.792-7.436-6.598c-0.317-2.522-8.49-62.14-67.852-62.14
		s-67.535,59.618-67.854,62.156c-0.515,4.104-4.258,7.017-8.361,6.517c-4.104-0.507-7.025-4.232-6.527-8.338
		c0.093-0.768,2.407-19.005,13.576-37.364C197.371,36.148,217.925,15.5,256,15.5s58.629,20.648,69.167,37.971
		c11.168,18.358,13.483,36.596,13.576,37.364c0.499,4.112-2.431,7.85-6.542,8.348C331.893,99.22,331.588,99.238,331.288,99.238z"/>
</g>
<path style="fill:#E8E6E1;" d="M57.811,496.5H4c-2.209,0-4-1.791-4-4V150.152c0-2.209,1.791-4,4-4h53.811c2.209,0,4,1.791,4,4V492.5
	C61.811,494.709,60.02,496.5,57.811,496.5z"/>
<path style="fill:#CFCDC8;" d="M57.811,496.5H30.905V146.152H57.81c2.209,0,4,1.791,4,4V492.5
	C61.811,494.709,60.02,496.5,57.811,496.5z"/>
<path style="fill:#E8E6E1;" d="M508,389.015h-53.811c-2.209,0-4-1.791-4-4V150.152c0-2.209,1.791-4,4-4H508c2.209,0,4,1.791,4,4
	v234.863C512,387.225,510.209,389.015,508,389.015z"/>
<path style="fill:#CFCDC8;" d="M508,389.015h-26.905V146.152H508c2.209,0,4,1.791,4,4v234.863
	C512,387.225,510.209,389.015,508,389.015z"/>
<path style="fill:#E8E6E1;" d="M282.905,437.848h-53.811c-2.209,0-4-1.791-4-4V150.152c0-2.209,1.791-4,4-4h53.811
	c2.209,0,4,1.791,4,4v283.696C286.905,436.057,285.115,437.848,282.905,437.848z"/>
<path style="fill:#CFCDC8;" d="M282.905,437.848H256V146.152h26.905c2.209,0,4,1.791,4,4v283.696
	C286.905,436.057,285.115,437.848,282.905,437.848z"/>
<path style="fill:#E8E6E1;" d="M168.555,465.832h-53.811c-2.209,0-4-1.791-4-4v-311.68c0-2.209,1.791-4,4-4h53.811
	c2.209,0,4,1.791,4,4v311.68C172.555,464.041,170.764,465.832,168.555,465.832z"/>
<path style="fill:#CFCDC8;" d="M168.555,465.832H141.65v-319.68h26.905c2.209,0,4,1.791,4,4v311.68
	C172.555,464.041,170.764,465.832,168.555,465.832z"/>
<path style="fill:#E8E6E1;" d="M397.256,412.314h-53.811c-2.209,0-4-1.791-4-4V150.152c0-2.209,1.791-4,4-4h53.811
	c2.209,0,4,1.791,4,4v258.162C401.256,410.523,399.465,412.314,397.256,412.314z"/>
<path style="fill:#CFCDC8;" d="M397.256,412.314H370.35V146.152h26.905c2.209,0,4,1.791,4,4v258.162
	C401.256,410.523,399.465,412.314,397.256,412.314z"/>
<path style="fill:#A66856;" d="M508,109.057H4c-2.209,0-4-1.791-4-4V82.144c0-2.209,1.791-4,4-4h504c2.209,0,4,1.791,4,4v22.913
	C512,107.266,510.209,109.057,508,109.057z"/>
<path style="fill:#8F5040;" d="M508,109.057h-27.936V78.144H508c2.209,0,4,1.791,4,4v22.913
	C512,107.266,510.209,109.057,508,109.057z"/>
<g>
</g>
<g>
</g>
<g>
</g>
<g>
</g>
<g>
</g>
<g>
</g>
<g>
</g>
<g>
</g>
<g>
</g>
<g>
</g>
<g>
</g>
<g>
</g>
<g>
</g>
<g>
</g>
<g>
</g>
</svg>
