<?xml version="1.0" encoding="iso-8859-1"?>
<!-- Generator: Adobe Illustrator 19.0.0, SVG Export Plug-In . SVG Version: 6.00 Build 0)  -->
<svg version="1.1" id="Capa_1" xmlns="http://www.w3.org/2000/svg" xmlns:xlink="http://www.w3.org/1999/xlink" x="0px" y="0px"
	 viewBox="0 0 511.996 511.996" style="enable-background:new 0 0 511.996 511.996;" xml:space="preserve">
<g>
	<circle style="fill:#E8E6E1;" cx="256" cy="32.966" r="32.966"/>
	<circle style="fill:#E8E6E1;" cx="256" cy="479.03" r="32.966"/>
	<circle style="fill:#E8E6E1;" cx="413.71" cy="98.29" r="32.966"/>
	<circle style="fill:#E8E6E1;" cx="98.29" cy="413.71" r="32.966"/>
	<circle style="fill:#E8E6E1;" cx="479.03" cy="256" r="32.966"/>
	<circle style="fill:#E8E6E1;" cx="32.966" cy="256" r="32.966"/>
	<circle style="fill:#E8E6E1;" cx="413.71" cy="413.71" r="32.966"/>
	<circle style="fill:#E8E6E1;" cx="98.29" cy="98.29" r="32.966"/>
</g>
<circle style="fill:#735458;" cx="256" cy="256" r="223.55"/>
<path style="fill:#5C4346;" d="M256,32.451c-5.196,0-10.346,0.192-15.453,0.541C356.8,40.931,448.644,137.733,448.644,256
	S356.8,471.069,240.547,479.008c5.107,0.349,10.257,0.541,15.453,0.541c123.463,0,223.549-100.087,223.549-223.549
	C479.549,132.537,379.463,32.451,256,32.451z"/>
<path style="fill:#FFDEA9;" d="M256,448.644c-106.224,0-192.644-86.42-192.644-192.644S149.776,63.356,256,63.356
	S448.644,149.776,448.644,256S362.224,448.644,256,448.644z"/>
<path style="fill:#FFBF7B;" d="M257.374,63.356c-5.202,0-10.354,0.214-15.453,0.621c99.026,7.897,177.191,91,177.191,192.023
	s-78.165,184.126-177.191,192.023c5.099,0.407,10.251,0.621,15.453,0.621c106.224,0,192.644-86.42,192.644-192.644
	S363.598,63.356,257.374,63.356z"/>
<g>
</g>
<g>
</g>
<g>
</g>
<g>
</g>
<g>
</g>
<g>
</g>
<g>
</g>
<g>
</g>
<g>
</g>
<g>
</g>
<g>
</g>
<g>
</g>
<g>
</g>
<g>
</g>
<g>
</g>
</svg>
