<?xml version="1.0" encoding="iso-8859-1"?>
<!-- Generator: Adobe Illustrator 19.0.0, SVG Export Plug-In . SVG Version: 6.00 Build 0)  -->
<svg version="1.1" id="Capa_1" xmlns="http://www.w3.org/2000/svg" xmlns:xlink="http://www.w3.org/1999/xlink" x="0px" y="0px"
	 viewBox="0 0 512.001 512.001" style="enable-background:new 0 0 512.001 512.001;" xml:space="preserve">
<path style="fill:#735458;" d="M287.689,462.614c-65.813,65.849-172.516,65.849-238.329,0s-65.813-172.612,0-238.461
	s172.516-65.849,238.329,0S353.502,396.765,287.689,462.614z"/>
<path style="fill:#5C4346;" d="M287.689,224.153c-36.784-36.804-86.34-53.029-134.392-48.693
	c37.922,3.422,74.907,19.648,103.936,48.693c65.813,65.849,65.813,172.612,0,238.461c-29.029,29.045-66.014,45.27-103.936,48.693
	c48.052,4.336,97.609-11.889,134.392-48.693C353.502,396.765,353.502,290.002,287.689,224.153z"/>
<path style="fill:#FFDEA9;" d="M265.856,440.769c-53.755,53.784-140.908,53.784-194.662,0s-53.754-140.986,0-194.771
	s140.908-53.784,194.662,0S319.61,386.984,265.856,440.769z"/>
<g>
	<path style="fill:#B8B6B1;" d="M312.058,351.532h-11.235c-4.142,0-7.5-3.358-7.5-7.5s3.358-7.5,7.5-7.5h11.235
		c4.142,0,7.5,3.358,7.5,7.5S316.2,351.532,312.058,351.532z"/>
	<path style="fill:#B8B6B1;" d="M34.93,351.532H23.695c-4.142,0-7.5-3.358-7.5-7.5s3.358-7.5,7.5-7.5H34.93
		c4.142,0,7.5,3.358,7.5,7.5S39.072,351.532,34.93,351.532z"/>
	<path style="fill:#B8B6B1;" d="M269.828,453.541c-1.92,0-3.84-0.733-5.305-2.198l-7.944-7.949
		c-2.928-2.93-2.927-7.678,0.003-10.606c2.93-2.928,7.679-2.927,10.606,0.003l7.944,7.949c2.928,2.93,2.927,7.678-0.003,10.606
		C273.666,452.809,271.747,453.541,269.828,453.541z"/>
	<path style="fill:#B8B6B1;" d="M73.869,257.472c-1.92,0-3.84-0.733-5.305-2.198l-7.944-7.949c-2.928-2.93-2.927-7.678,0.003-10.606
		c2.93-2.927,7.679-2.927,10.606,0.003l7.944,7.949c2.928,2.93,2.927,7.678-0.003,10.606
		C77.707,256.74,75.788,257.472,73.869,257.472z"/>
	<path style="fill:#B8B6B1;" d="M167.876,495.794c-4.142,0-7.5-3.358-7.5-7.5v-11.241c0-4.142,3.358-7.5,7.5-7.5s7.5,3.358,7.5,7.5
		v11.241C175.376,492.436,172.019,495.794,167.876,495.794z"/>
	<path style="fill:#B8B6B1;" d="M167.876,218.512c-4.142,0-7.5-3.358-7.5-7.5v-11.241c0-4.142,3.358-7.5,7.5-7.5s7.5,3.358,7.5,7.5
		v11.241C175.376,215.154,172.019,218.512,167.876,218.512z"/>
	<path style="fill:#B8B6B1;" d="M291.015,301.384c-2.959,0-5.763-1.763-6.949-4.673c-1.562-3.836,0.281-8.212,4.118-9.775
		l10.406-4.238c3.834-1.562,8.211,0.281,9.775,4.118c1.562,3.836-0.281,8.212-4.118,9.775l-10.406,4.238
		C292.916,301.206,291.957,301.384,291.015,301.384z"/>
	<path style="fill:#B8B6B1;" d="M34.336,405.922c-2.959,0-5.763-1.763-6.948-4.673c-1.563-3.836,0.281-8.212,4.117-9.775
		l10.406-4.238c3.834-1.563,8.213,0.281,9.775,4.117c1.563,3.836-0.281,8.212-4.117,9.775l-10.406,4.238
		C36.237,405.743,35.279,405.922,34.336,405.922z"/>
	<path style="fill:#B8B6B1;" d="M300.738,407.558c-0.972,0-1.959-0.19-2.911-0.591l-10.353-4.365
		c-3.816-1.609-5.606-6.008-3.997-9.825c1.609-3.816,6.008-5.605,9.825-3.997l10.353,4.365c3.816,1.609,5.606,6.008,3.997,9.825
		C306.444,405.834,303.664,407.558,300.738,407.558z"/>
	<path style="fill:#B8B6B1;" d="M45.361,299.876c-0.972,0-1.959-0.19-2.911-0.591l-10.353-4.365
		c-3.816-1.609-5.606-6.008-3.997-9.825c1.609-3.816,6.007-5.605,9.825-3.997l10.353,4.365c3.816,1.609,5.606,6.008,3.997,9.825
		C51.067,298.153,48.287,299.876,45.361,299.876z"/>
	<path style="fill:#B8B6B1;" d="M222.236,485.151c-2.96,0-5.765-1.764-6.95-4.676l-4.236-10.412
		c-1.561-3.836,0.284-8.212,4.121-9.773c3.835-1.561,8.212,0.284,9.773,4.121l4.236,10.412c1.561,3.836-0.284,8.212-4.121,9.773
		C224.135,484.973,223.178,485.151,222.236,485.151z"/>
	<path style="fill:#B8B6B1;" d="M117.757,228.329c-2.96,0-5.765-1.764-6.95-4.676l-4.236-10.412
		c-1.561-3.836,0.284-8.212,4.121-9.773c3.834-1.561,8.212,0.283,9.773,4.121l4.237,10.412c1.561,3.836-0.284,8.212-4.121,9.773
		C119.656,228.151,118.699,228.329,117.757,228.329z"/>
	<path style="fill:#B8B6B1;" d="M111.88,484.473c-0.971,0-1.957-0.189-2.908-0.59c-3.817-1.608-5.609-6.006-4.001-9.823
		l4.363-10.359c1.608-3.818,6.007-5.608,9.823-4.001c3.817,1.608,5.609,6.006,4.001,9.823l-4.363,10.359
		C117.588,482.749,114.807,484.473,111.88,484.473z"/>
	<path style="fill:#B8B6B1;" d="M219.502,228.954c-0.971,0-1.957-0.189-2.908-0.59c-3.817-1.608-5.608-6.006-4.001-9.823
		l4.363-10.359c1.608-3.817,6.007-5.607,9.823-4.001c3.817,1.608,5.608,6.006,4.001,9.823l-4.363,10.359
		C225.21,227.23,222.429,228.954,219.502,228.954z"/>
	<path style="fill:#B8B6B1;" d="M262.284,257.22c-1.919,0-3.839-0.732-5.303-2.197c-2.929-2.929-2.929-7.678,0-10.606l7.957-7.957
		c2.929-2.929,7.678-2.929,10.606,0c2.929,2.929,2.929,7.678,0,10.606l-7.957,7.957C266.123,256.488,264.204,257.22,262.284,257.22z
		"/>
	<path style="fill:#B8B6B1;" d="M66.025,453.477c-1.919,0-3.839-0.732-5.303-2.197c-2.929-2.929-2.929-7.678,0-10.606l7.957-7.957
		c2.929-2.929,7.678-2.929,10.606,0c2.929,2.929,2.929,7.678,0,10.606l-7.957,7.957C69.864,452.745,67.945,453.477,66.025,453.477z"
		/>
</g>
<g>
	<path style="fill:#5C4346;" d="M504.5,80.431c-1.919,0-3.838-0.732-5.302-2.197l-65.42-65.419c-2.93-2.93-2.931-7.682-0.003-10.614
		s7.678-2.934,10.608-0.003l65.42,65.419c2.93,2.93,2.931,7.682,0.003,10.614C508.341,79.697,506.42,80.431,504.5,80.431z"/>
	<path style="fill:#5C4346;" d="M471.369,113.562c-1.919,0-3.838-0.732-5.302-2.197l-65.42-65.419
		c-2.93-2.93-2.931-7.682-0.003-10.614s7.677-2.934,10.608-0.003l65.42,65.419c2.93,2.93,2.931,7.682,0.003,10.614
		C475.209,112.829,473.289,113.562,471.369,113.562z"/>
</g>
<path style="fill:#A66856;" d="M233.804,304.369L207.635,278.2c-1.562-1.562-1.562-4.095,0-5.657L418.754,61.426l31.826,31.825
	L239.461,304.369C237.899,305.931,235.366,305.931,233.804,304.369z"/>
<path style="fill:#735458;" d="M504.365,41.588c-0.041,0.091-0.091,0.173-0.152,0.254l-25.096,34.77
	c-0.294,0.416-0.741,0.64-1.279,0.691c-3.188,0.305-6.233,1.493-8.284,3.962l-23.827,28.736c-0.873,1.229-3.167,0.782-4.903-0.965
	l-19.807-19.807l-18.05-18.04c-1.736-1.737-2.193-4.012-0.985-4.906l28.832-23.891c2.447-2.032,3.624-5.048,3.888-8.218
	c0.051-0.528,0.264-0.985,0.67-1.28L469.869,7.52c1.056-0.792,3.046-0.213,4.579,1.31l8.741,8.746l19.705,19.706
	C504.304,38.693,504.892,40.481,504.365,41.588z"/>
<path style="fill:#5C4346;" d="M504.365,41.588c-0.041,0.091-0.091,0.173-0.142,0.254l-25.106,34.77
	c-0.294,0.416-0.741,0.64-1.279,0.691c-3.188,0.305-6.233,1.493-8.284,3.962l-23.827,28.736c-0.873,1.229-3.167,0.782-4.903-0.965
	l-19.807-19.807h0.01c1.736,1.747,4.03,2.194,4.903,0.965l23.827-28.736c2.051-2.468,5.096-3.657,8.284-3.962
	c0.538-0.051,0.985-0.274,1.279-0.691l25.106-34.77c0.751-1.046,0.203-2.956-1.239-4.459l19.705,19.706
	C504.304,38.693,504.892,40.481,504.365,41.588z"/>
<g>
	
		<rect x="369.31" y="112.694" transform="matrix(-0.7069 -0.7073 0.7073 -0.7069 583.7768 482.2925)" style="fill:#FFBF7B;" width="45.01" height="15"/>
	
		<rect x="336.988" y="145.035" transform="matrix(-0.7069 -0.7073 0.7073 -0.7069 505.7325 514.6349)" style="fill:#FFBF7B;" width="45.01" height="15"/>
	
		<rect x="304.667" y="177.376" transform="matrix(-0.7069 -0.7073 0.7073 -0.7069 427.6883 546.9775)" style="fill:#FFBF7B;" width="45.01" height="15"/>
	
		<rect x="272.339" y="209.71" transform="matrix(-0.7069 -0.7073 0.7073 -0.7069 349.637 579.3029)" style="fill:#FFBF7B;" width="45.01" height="15"/>
</g>
<g>
</g>
<g>
</g>
<g>
</g>
<g>
</g>
<g>
</g>
<g>
</g>
<g>
</g>
<g>
</g>
<g>
</g>
<g>
</g>
<g>
</g>
<g>
</g>
<g>
</g>
<g>
</g>
<g>
</g>
</svg>
