<?xml version="1.0" encoding="iso-8859-1"?>
<!-- Generator: Adobe Illustrator 19.0.0, SVG Export Plug-In . SVG Version: 6.00 Build 0)  -->
<svg version="1.1" id="Capa_1" xmlns="http://www.w3.org/2000/svg" xmlns:xlink="http://www.w3.org/1999/xlink" x="0px" y="0px"
	 viewBox="0 0 512 512" style="enable-background:new 0 0 512 512;" xml:space="preserve">
<polygon style="fill:#FFDEA9;" points="456.542,94.919 62.786,487.859 43.886,468.998 24.191,449.334 417.937,56.394 "/>
<g>
	<polygon style="fill:#FFBF7B;" points="456.523,94.937 62.786,487.859 43.886,468.998 437.623,76.076 	"/>
	<path style="fill:#FFBF7B;" d="M447.072,104.37l-38.601-38.522c0,0,34.736-45.109,45.823-48.896
		c8.296-2.833,23.225-11.633,29.301-15.311c1.584-0.959,3.614-0.711,4.924,0.597l22.301,22.255c1.311,1.308,1.559,3.334,0.597,4.915
		c-3.688,6.062-12.509,20.955-15.348,29.233C492.274,69.705,447.072,104.37,447.072,104.37z"/>
</g>
<path style="fill:#F4AB69;" d="M486.276,0L486.276,0l8.145,8.128c0,0-13.371,21.343-16.995,31.909
	c-3.794,11.064-48.99,45.724-48.996,45.729l18.642,18.604c0,0,45.202-34.664,48.997-45.729c2.839-8.278,11.661-23.171,15.348-29.233
	c0.962-1.581,0.714-3.607-0.597-4.915L486.276,0z"/>
<path style="fill:#FFBF7B;" d="M38.917,510.825L1.178,473.163c-1.57-1.567-1.57-4.108,0-5.675l31.467-31.402
	c1.57-1.567,4.117-1.567,5.687,0l37.739,37.662c1.57,1.567,1.57,4.108,0,5.675l-31.467,31.402
	C43.034,512.392,40.487,512.392,38.917,510.825z"/>
<path style="fill:#F4AB69;" d="M38.917,510.825l-18.481-18.443l37.154-37.077l18.481,18.443c1.57,1.567,1.57,4.108,0,5.675
	l-31.467,31.402C43.034,512.392,40.488,512.392,38.917,510.825z"/>
<g>
	<circle style="fill:#595959;" cx="343.66" cy="169.01" r="7.5"/>
	<circle style="fill:#595959;" cx="298.1" cy="214.57" r="7.5"/>
	<circle style="fill:#595959;" cx="252.55" cy="260.12" r="7.5"/>
	<circle style="fill:#595959;" cx="207" cy="305.67" r="7.5"/>
	<circle style="fill:#595959;" cx="161.44" cy="351.23" r="7.5"/>
</g>
<g>
</g>
<g>
</g>
<g>
</g>
<g>
</g>
<g>
</g>
<g>
</g>
<g>
</g>
<g>
</g>
<g>
</g>
<g>
</g>
<g>
</g>
<g>
</g>
<g>
</g>
<g>
</g>
<g>
</g>
</svg>
