<svg height="512" viewBox="0 0 512 512" width="512" xmlns="http://www.w3.org/2000/svg"><path d="m480 216a8 8 0 0 0 8-8v-152a48.051 48.051 0 0 0 -48-48h-368a48.051 48.051 0 0 0 -48 48v152a8 8 0 0 0 8 8h8v16a8 8 0 0 0 0 16v16a8 8 0 0 0 0 16v16h-8a8 8 0 0 0 -8 8v192a8 8 0 0 0 8 8h448a8 8 0 0 0 8-8v-192a8 8 0 0 0 -8-8h-8v-16a8 8 0 0 0 0-16v-16a8 8 0 0 0 0-16v-16zm-336-192h224v128h-224zm-24 464h-32v-80h16v40a8 8 0 0 0 8 8h8zm64 0h-48v-32h8a8 8 0 0 0 8-8v-40h16v40a8 8 0 0 0 8 8h8zm-64-48v-32h16v32zm128 48h-48v-32h8a8 8 0 0 0 8-8v-40h16v40a8 8 0 0 0 8 8h8zm-64-48v-32h16v32zm128 48h-48v-32h8a8 8 0 0 0 8-8v-40h16v40a8 8 0 0 0 8 8h8zm-64-48v-32h16v32zm128 48h-48v-32h8a8 8 0 0 0 8-8v-40h16v40a8 8 0 0 0 8 8h8zm-64-48v-32h16v32zm112 48h-32v-32h8a8 8 0 0 0 8-8v-40h16zm-48-48v-32h16v32zm96 48h-32v-88a8 8 0 0 0 -8-8h-352a8 8 0 0 0 -8 8v88h-32v-176h432zm-16-240v16h-400v-16zm-400-16v-16h400v16zm400 48v16h-400v-16zm-416-80v-144a32.036 32.036 0 0 1 32-32h56v136a8 8 0 0 0 8 8h240a8 8 0 0 0 8-8v-136h56a32.042 32.042 0 0 1 32 32v144z"/></svg>