<svg height="512" viewBox="0 0 512 512" width="512" xmlns="http://www.w3.org/2000/svg"><g><path d="m440 8h-368a48.055 48.055 0 0 0 -48 48v400a48.055 48.055 0 0 0 48 48h368a48.055 48.055 0 0 0 48-48v-400a48.055 48.055 0 0 0 -48-48zm32 448a32.036 32.036 0 0 1 -32 32h-368a32.036 32.036 0 0 1 -32-32v-400a32.036 32.036 0 0 1 32-32h368a32.036 32.036 0 0 1 32 32z"/><path d="m256 176a80 80 0 1 0 80 80 80.091 80.091 0 0 0 -80-80zm0 144a64 64 0 1 1 64-64 64.072 64.072 0 0 1 -64 64z"/><path d="m256 128a128 128 0 1 0 128 128 128.145 128.145 0 0 0 -128-128zm0 240a112 112 0 1 1 112-112 112.127 112.127 0 0 1 -112 112z"/><path d="m72 80a24 24 0 1 0 -24-24 24.027 24.027 0 0 0 24 24zm0-32a8 8 0 1 1 -8 8 8.009 8.009 0 0 1 8-8z"/><path d="m440 32a24 24 0 1 0 24 24 24.027 24.027 0 0 0 -24-24zm0 32a8 8 0 1 1 8-8 8.009 8.009 0 0 1 -8 8z"/><path d="m72 432a24 24 0 1 0 24 24 24.027 24.027 0 0 0 -24-24zm0 32a8 8 0 1 1 8-8 8.009 8.009 0 0 1 -8 8z"/><path d="m440 432a24 24 0 1 0 24 24 24.027 24.027 0 0 0 -24-24zm0 32a8 8 0 1 1 8-8 8.009 8.009 0 0 1 -8 8z"/><path d="m397.728 330.313a160.253 160.253 0 0 0 0-148.626 48 48 0 1 0 -67.416-67.414 160.241 160.241 0 0 0 -148.624 0 48 48 0 1 0 -67.416 67.414 160.253 160.253 0 0 0 0 148.626 48 48 0 1 0 67.416 67.414 160.241 160.241 0 0 0 148.624 0 48 48 0 1 0 67.416-67.414zm-29.728 69.687a32.015 32.015 0 0 1 -28.1-16.685 8 8 0 0 0 -11.073-3.063 144.16 144.16 0 0 1 -145.654 0 8 8 0 0 0 -11.073 3.063 32 32 0 1 1 -43.415-43.415 8 8 0 0 0 3.062-11.074 144.167 144.167 0 0 1 0-145.654 8 8 0 0 0 -3.062-11.074 32 32 0 1 1 43.415-43.413 8 8 0 0 0 11.073 3.063 144.16 144.16 0 0 1 145.654 0 8 8 0 0 0 11.073-3.063 32 32 0 1 1 43.415 43.415 8 8 0 0 0 -3.062 11.074 144.167 144.167 0 0 1 0 145.654 8 8 0 0 0 3.062 11.074 32 32 0 0 1 -15.315 60.098z"/><circle cx="144" cy="144" r="8"/><circle cx="368" cy="144" r="8"/><circle cx="144" cy="368" r="8"/><circle cx="368" cy="368" r="8"/></g></svg>