<svg height="512" viewBox="0 0 512 512" width="512" xmlns="http://www.w3.org/2000/svg"><path d="m496 176h-8v-4a28.031 28.031 0 0 0 -28-28h-168a28.031 28.031 0 0 0 -28 28v4h-16v-4a28.031 28.031 0 0 0 -28-28h-168a28.031 28.031 0 0 0 -28 28v4h-8a8 8 0 0 0 -8 8v48a8 8 0 0 0 8 8h8.94l15.12 120.99a8 8 0 0 0 7.94 7.01h175a8 8 0 0 0 7.93-6.95l5.46-41.05h38.55l5.12 40.99a8 8 0 0 0 7.94 7.01h175a8 8 0 0 0 7.93-6.95l16.08-121.05h8.99a8 8 0 0 0 8-8v-48a8 8 0 0 0 -8-8zm-216-4a12.01 12.01 0 0 1 12-12h168a12.01 12.01 0 0 1 12 12v4h-192zm-15.06 68 4 32h-26.18l4.25-32zm-224.94-68a12.01 12.01 0 0 1 12-12h168a12.01 12.01 0 0 1 12 12v4h-192zm-16 52v-32h224v32zm191.99 128h-160.93l-14-112h189.81l-4.25 32h-50.62a8 8 0 0 0 -8 8v32a8 8 0 0 0 8 8h44.25zm-31.99-48v-16h144v16zm271.99 48h-160.93l-4-32h44.94a8 8 0 0 0 8-8v-32a8 8 0 0 0 -8-8h-50.94l-4-32h189.81zm32.01-128h-224v-32h224z"/></svg>