<svg height="512" viewBox="0 0 512 512" width="512" xmlns="http://www.w3.org/2000/svg"><g><path d="m476 88h-440a28.031 28.031 0 0 0 -28 28v280a28.031 28.031 0 0 0 28 28h440a28.031 28.031 0 0 0 28-28v-280a28.031 28.031 0 0 0 -28-28zm-327.69 320 24.89-56h165.6l24.89 56zm339.69-12a12.01 12.01 0 0 1 -12 12h-94.8l-29.89-67.25a7.994 7.994 0 0 0 -7.31-4.75h-176a7.994 7.994 0 0 0 -7.31 4.75l-29.89 67.25h-94.8a12.01 12.01 0 0 1 -12-12v-76h464zm0-92h-464v-144h464zm0-160h-464v-28a12.01 12.01 0 0 1 12-12h440a12.01 12.01 0 0 1 12 12z"/><circle cx="40" cy="120" r="8"/><circle cx="472" cy="120" r="8"/><circle cx="40" cy="392" r="8"/><circle cx="472" cy="392" r="8"/><path d="m144 280h224a48 48 0 0 0 0-96h-224a48 48 0 0 0 0 96zm35.739-16a47.889 47.889 0 0 0 0-64h152.522a47.889 47.889 0 0 0 0 64zm220.261-32a32 32 0 1 1 -32-32 32.036 32.036 0 0 1 32 32zm-256-32a32 32 0 1 1 -32 32 32.036 32.036 0 0 1 32-32z"/><path d="m344 232a24 24 0 1 0 24-24 24.027 24.027 0 0 0 -24 24zm32 0a8 8 0 1 1 -8-8 8.009 8.009 0 0 1 8 8z"/><path d="m144 256a24 24 0 1 0 -24-24 24.027 24.027 0 0 0 24 24zm0-32a8 8 0 1 1 -8 8 8.009 8.009 0 0 1 8-8z"/></g></svg>