<?xml version="1.0" encoding="UTF-8"?>
<svg xmlns="http://www.w3.org/2000/svg" width="512" height="512" viewBox="0 0 512 512"><path d="M496,8H16a8,8,0,0,0-8,8V48a8,8,0,0,0,8,8H56V72H32a8,8,0,0,0-8,8V496a8,8,0,0,0,8,8H96a8,8,0,0,0,8-8V80a8,8,0,0,0-8-8H72V56h80V72H128a8,8,0,0,0-8,8V432a8,8,0,0,0,8,8h64a8,8,0,0,0,8-8V80a8,8,0,0,0-8-8H168V56h80V72H224a8,8,0,0,0-8,8V368a8,8,0,0,0,8,8h64a8,8,0,0,0,8-8V80a8,8,0,0,0-8-8H264V56h80V72H320a8,8,0,0,0-8,8V304a8,8,0,0,0,8,8h64a8,8,0,0,0,8-8V80a8,8,0,0,0-8-8H360V56h80V72H416a8,8,0,0,0-8,8V240a8,8,0,0,0,8,8h64a8,8,0,0,0,8-8V80a8,8,0,0,0-8-8H456V56h40a8,8,0,0,0,8-8V16A8,8,0,0,0,496,8ZM88,88V488H40V88Zm96,0V424H136V88Zm96,0V360H232V88Zm96,0V296H328V88Zm96,0V232H424V88Zm16-48H24V24H488Z"/></svg>
