<svg height="512" viewBox="0 0 512 512" width="512" xmlns="http://www.w3.org/2000/svg"><g><path d="m400 120a104.211 104.211 0 0 0 -26.54 3.42 136.073 136.073 0 0 0 -179.63-52.4 137.138 137.138 0 0 0 -43.36 35.2 48.066 48.066 0 0 0 -60.07 30.74 96 96 0 0 0 13.6 191.04h48v100a28.031 28.031 0 0 0 28 28h152a28.031 28.031 0 0 0 28-28v-100h40c2.95 0 5.88-.12 8.66-.37a104 104 0 0 0 -8.66-207.63zm-56 308a12.01 12.01 0 0 1 -12 12h-152a12.01 12.01 0 0 1 -12-12v-152a12.01 12.01 0 0 1 12-12h152a12.01 12.01 0 0 1 12 12zm120.61-144.25a87.652 87.652 0 0 1 -57.3 27.94c-2.36.21-4.82.31-7.31.31h-40v-36a28.031 28.031 0 0 0 -28-28h-152a28.031 28.031 0 0 0 -28 28v36h-48a80 80 0 0 1 -6.61-159.73 7.989 7.989 0 0 0 7.2-6.44 32.036 32.036 0 0 1 31.41-25.83 31.563 31.563 0 0 1 13.68 3.07 7.992 7.992 0 0 0 9.87-2.46 120.017 120.017 0 0 1 202.93 16.01 8 8 0 0 0 9.62 3.89 88.019 88.019 0 0 1 92.51 143.24z"/><path d="m308.44 313.34-48-32a8.009 8.009 0 0 0 -12.44 6.66v76.31a31.705 31.705 0 0 0 -16-4.31 32 32 0 1 0 32 32v-89.05l35.56 23.71a8 8 0 1 0 8.88-13.32zm-76.44 94.66a16 16 0 1 1 16-16 16.021 16.021 0 0 1 -16 16z"/></g></svg>