<svg height="512" viewBox="0 0 512 512" width="512" xmlns="http://www.w3.org/2000/svg"><g><path d="m332 8h-152a28.031 28.031 0 0 0 -28 28v152a28.031 28.031 0 0 0 28 28h152a28.031 28.031 0 0 0 28-28v-152a28.031 28.031 0 0 0 -28-28zm12 180a12.01 12.01 0 0 1 -12 12h-152a12.01 12.01 0 0 1 -12-12v-152a12.01 12.01 0 0 1 12-12h152a12.01 12.01 0 0 1 12 12z"/><path d="m308.44 73.34-48-32a8.009 8.009 0 0 0 -12.44 6.66v76.31a31.705 31.705 0 0 0 -16-4.31 32 32 0 1 0 32 32v-89.05l35.56 23.71a8 8 0 1 0 8.88-13.32zm-76.44 94.66a16 16 0 1 1 16-16 16.021 16.021 0 0 1 -16 16z"/><path d="m344 376h-48v-96a8 8 0 0 0 -8-8h-64a8 8 0 0 0 -8 8v96h-48a8 8 0 0 0 -6.291 12.942l88 112a8 8 0 0 0 12.582 0l88-112a8 8 0 0 0 -6.291-12.942zm-88 107.051-71.54-91.051h39.54a8 8 0 0 0 8-8v-96h48v96a8 8 0 0 0 8 8h39.54z"/><path d="m224 264h64a8 8 0 0 0 8-8v-24a8 8 0 0 0 -8-8h-64a8 8 0 0 0 -8 8v24a8 8 0 0 0 8 8zm8-24h48v8h-48z"/></g></svg>