<svg height="512" viewBox="0 0 512 512" width="512" xmlns="http://www.w3.org/2000/svg"><path d="m476.62 92.95c10.17-10.17 17.12-22.5 19.56-34.72 2.68-13.39-.26-25.17-8.25-33.15-7.99-8-19.77-10.93-33.16-8.26-12.22 2.44-24.55 9.39-34.71 19.56-12.76 12.75-20.24 28.6-20.52 43.13l-143.54 143.55-143.54-143.55c-.28-14.53-7.76-30.38-20.51-43.13-10.17-10.17-22.5-17.12-34.72-19.56-13.39-2.68-25.17.26-33.15 8.25-8 7.99-10.94 19.77-8.26 33.16 2.44 12.22 9.39 24.55 19.56 34.71 12.75 12.76 28.6 20.24 43.13 20.52l143.55 143.54-197.99 197.99a24 24 0 1 0 33.94 33.94l197.99-197.99 197.99 197.99a24 24 0 1 0 33.94-33.94l-197.99-197.99 143.55-143.54c14.53-.28 30.38-7.76 43.13-20.51zm-429.93 384.66a7.99 7.99 0 1 1 -11.3-11.3l197.98-198 11.32 11.32zm429.92-11.3a7.99 7.99 0 1 1 -11.3 11.3l-377.9-377.89a8.044 8.044 0 0 0 -6.22-2.32c-10.8.77-24.01-5.28-34.49-15.77-7.97-7.96-13.36-17.38-15.19-26.53-.92-4.62-1.65-13.19 3.88-18.72s14.09-4.79 18.71-3.87c9.15 1.83 18.57 7.22 26.54 15.19 10.48 10.48 16.52 23.69 15.76 34.49a8.009 8.009 0 0 0 2.32 6.22zm-45.8-368.91a8.044 8.044 0 0 0 -6.22 2.32l-145.96 145.97-11.32-11.32 145.97-145.96a8.009 8.009 0 0 0 2.32-6.22c-.76-10.8 5.28-24.01 15.77-34.49 7.96-7.97 17.38-13.36 26.53-15.19 4.62-.92 13.19-1.65 18.72 3.88s4.79 14.09 3.87 18.71c-1.83 9.15-7.22 18.57-15.19 26.53v.01c-10.48 10.48-23.69 16.53-34.49 15.76z"/></svg>