<svg height="512" viewBox="0 0 512 512" width="512" xmlns="http://www.w3.org/2000/svg"><g><path d="m192 96a56 56 0 1 0 -56 56 56.064 56.064 0 0 0 56-56zm-96 0a40 40 0 1 1 40 40 40.045 40.045 0 0 1 -40-40z"/><path d="m384 40a56 56 0 1 0 56 56 56.064 56.064 0 0 0 -56-56zm0 96a40 40 0 1 1 40-40 40.045 40.045 0 0 1 -40 40z"/><path d="m384 8a87.992 87.992 0 0 0 -40 166.37v105.63a8 8 0 0 0 8 8h8v40a8 8 0 0 0 8 8h8v48a32.03 32.03 0 0 1 -32 32h-168a32.03 32.03 0 0 1 -32-32v-48h8a8 8 0 0 0 8-8v-40h8a8 8 0 0 0 8-8v-105.63a88 88 0 1 0 -80 0v105.63a8 8 0 0 0 8 8h8v40a8 8 0 0 0 8 8h8v48a48.051 48.051 0 0 0 48 48h72v64a8 8 0 0 0 16 0v-64h80a48.051 48.051 0 0 0 48-48v-48h8a8 8 0 0 0 8-8v-40h8a8 8 0 0 0 8-8v-105.63a87.992 87.992 0 0 0 -40-166.37zm-320 88a72 72 0 1 1 72 72 72.083 72.083 0 0 1 -72-72zm48 176v-91.33a88.151 88.151 0 0 0 48 0v91.33zm16 48v-32h16v32zm264 0h-16v-32h16zm16-48h-48v-91.33a88.151 88.151 0 0 0 48 0zm-24-104a72 72 0 1 1 72-72 72.083 72.083 0 0 1 -72 72z"/></g></svg>