<?xml version="1.0" encoding="UTF-8"?>
<svg xmlns="http://www.w3.org/2000/svg" width="512" height="512" viewBox="0 0 512 512"><g><path d="M476,144H464V24a8,8,0,0,0-8-8H56a8,8,0,0,0-8,8V96H36A28.031,28.031,0,0,0,8,124V468a28.031,28.031,0,0,0,28,28H476a28.031,28.031,0,0,0,28-28V172A28.031,28.031,0,0,0,476,144ZM64,32H448V144H181.77l-14.18-42.53A8,8,0,0,0,160,96H64ZM488,468a12.01,12.01,0,0,1-12,12H36a12.01,12.01,0,0,1-12-12V124a12.01,12.01,0,0,1,12-12H154.23l14.18,42.53A8,8,0,0,0,176,160H476a12.01,12.01,0,0,1,12,12Z"/><path d="M256,200A120,120,0,1,0,376,320,120.136,120.136,0,0,0,256,200Zm0,224A104,104,0,1,1,360,320,104.118,104.118,0,0,1,256,424Z"/><path d="M308.437,273.344l-48-32A8,8,0,0,0,248,248v92.305A31.989,31.989,0,1,0,264,368V262.948l35.562,23.708a8,8,0,1,0,8.875-13.312ZM232,384a16,16,0,1,1,16-16A16.019,16.019,0,0,1,232,384Z"/></g></svg>
