<svg height="512" viewBox="0 0 512 512" width="512" xmlns="http://www.w3.org/2000/svg"><g><path d="m496 128a8 8 0 0 0 8-8v-48a8 8 0 0 0 -8-8h-24v-16a8 8 0 0 0 -8-8h-32a8 8 0 0 0 -8 8v16h-336v-16a8 8 0 0 0 -8-8h-32a8 8 0 0 0 -8 8v16h-24a8 8 0 0 0 -8 8v48a8 8 0 0 0 8 8h24v328h-24a8 8 0 0 0 0 16h480a8 8 0 0 0 0-16h-24v-328zm-56-72h16v8h-16zm-384 0h16v8h-16zm16 400h-16v-328h16zm352 0h-336v-328h96v74.28a112 112 0 1 0 144 0v-74.28h96zm-168-264a96 96 0 1 1 -96 96 96.115 96.115 0 0 1 96-96zm-56-.97v-63.03h112v63.03a111.84 111.84 0 0 0 -112 0zm256 264.97h-16v-328h16zm-432-344v-32h464v32z"/><path d="m256 368a80 80 0 1 0 -80-80 80.091 80.091 0 0 0 80 80zm0-144a64 64 0 1 1 -64 64 64.072 64.072 0 0 1 64-64z"/></g></svg>