<svg height="512" viewBox="0 0 512 512" width="512" xmlns="http://www.w3.org/2000/svg"><g><path d="m256 360a40 40 0 1 0 -40-40 40.045 40.045 0 0 0 40 40zm0-64a24 24 0 1 1 -24 24 24.028 24.028 0 0 1 24-24z"/><path d="m296 400h-80a8 8 0 0 0 -8 8v24a8 8 0 0 0 8 8h80a8 8 0 0 0 8-8v-24a8 8 0 0 0 -8-8zm-8 24h-64v-8h64z"/><path d="m332.01 329.02a80.135 80.135 0 0 0 -13.77-75.28 80.5 80.5 0 0 0 -38.24-26.07v-107.67h8a8 8 0 0 0 8-8v-24h8a8 8 0 0 0 0-16h-8v-16h8a8 8 0 0 0 0-16h-8v-24a8 8 0 0 0 -8-8h-64a8 8 0 0 0 -8 8v24h-8a8 8 0 0 0 0 16h8v16h-8a8 8 0 0 0 0 16h8v24a8 8 0 0 0 8 8h8v107.67a80.042 80.042 0 0 0 -56 76.33 79.605 79.605 0 0 0 3.99 25.02 103.011 103.011 0 0 0 -27.99 70.98 104 104 0 0 0 208 0 103.011 103.011 0 0 0 -27.99-70.98zm-100.01-305.02h48v80h-48zm16 208v-16h16v16zm16 16v8h-16v-8zm-16-48v-16h16v16zm0-32v-16h16v16zm0-32v-16h16v16zm8 352a88.1 88.1 0 0 1 -88-88 87.227 87.227 0 0 1 26.81-63.23 7.991 7.991 0 0 0 1.85-8.76 64.067 64.067 0 0 1 9.54-64.21 64.359 64.359 0 0 1 25.8-19.13v19.33a8 8 0 0 0 8 8h32a8 8 0 0 0 8-8v-19.33a64.359 64.359 0 0 1 25.8 19.13 64.067 64.067 0 0 1 9.54 64.21 7.991 7.991 0 0 0 1.85 8.76 87.227 87.227 0 0 1 26.81 63.23 88.1 88.1 0 0 1 -88 88z"/><circle cx="240" cy="48" r="8"/><circle cx="272" cy="48" r="8"/><circle cx="240" cy="80" r="8"/><circle cx="272" cy="80" r="8"/></g></svg>