<svg height="512" viewBox="0 0 512 512" width="512" xmlns="http://www.w3.org/2000/svg"><g><path d="m476 128h-440a28.031 28.031 0 0 0 -28 28v200a28.031 28.031 0 0 0 28 28h440a28.031 28.031 0 0 0 28-28v-200a28.031 28.031 0 0 0 -28-28zm-68 16h16v32h-16zm-32 0h16v32h-16zm-32 0h16v32h-16zm-32 0h16v32h-16zm-32 0h16v32h-16zm-32 0h16v32h-16zm-32 0h16v32h-16zm-32 0h16v32h-16zm-32 0h16v32h-16zm-32 0h16v32h-16zm-32 0h16v32h-16zm400 212a12.01 12.01 0 0 1 -12 12h-440a12.01 12.01 0 0 1 -12-12v-132h464zm0-148h-464v-52a12.01 12.01 0 0 1 12-12h36v40a8 8 0 0 0 8 8h352a8 8 0 0 0 8-8v-40h36a12.01 12.01 0 0 1 12 12z"/><circle cx="40" cy="160" r="8"/><circle cx="472" cy="160" r="8"/><circle cx="40" cy="352" r="8"/><circle cx="472" cy="352" r="8"/></g></svg>