<?xml version="1.0" encoding="UTF-8"?>
<svg xmlns="http://www.w3.org/2000/svg" width="512" height="512" viewBox="0 0 512 512"><path d="M496,176H280V160H496a8,8,0,0,0,0-16H483.31L437.66,98.34A8.008,8.008,0,0,0,432,96H328V80a8,8,0,0,0-8-8H296V48a8,8,0,0,0-8-8h-8V16a8,8,0,0,0-8-8H240a8,8,0,0,0-8,8V40h-8a8,8,0,0,0-8,8V72H192a8,8,0,0,0-8,8V96H80a8.008,8.008,0,0,0-5.66,2.34L28.69,144H16a8,8,0,0,0,0,16H232v16H16a8,8,0,0,0,0,16H28.69l45.65,45.66A8.008,8.008,0,0,0,80,240H184v16a8,8,0,0,0,8,8h24v24a8,8,0,0,0,8,8h8V496a8,8,0,0,0,8,8h32a8,8,0,0,0,8-8V296h8a8,8,0,0,0,8-8V264h24a8,8,0,0,0,8-8V240H432a8.008,8.008,0,0,0,5.66-2.34L483.31,192H496a8,8,0,0,0,0-16ZM248,24h16V40H248ZM232,56h48V72H232ZM200,88H312v8H200ZM51.31,144l32-32H428.69l32,32ZM264,160v16H248V160Zm0,328H248V296h16Zm16-208H232V264h48Zm32-32H200v-8H312Zm116.69-24H83.31l-32-32H460.69Z"/></svg>
