<svg height="512" viewBox="0 0 512 512" width="512" xmlns="http://www.w3.org/2000/svg"><g><path d="m496 272h-8v-176a8 8 0 0 0 -8-8h-160a8 8 0 0 0 -8 8v176h-112v-176a8 8 0 0 0 -8-8h-160a8 8 0 0 0 -8 8v176h-8a8 8 0 0 0 -8 8v112a8 8 0 0 0 8 8h8v16a8 8 0 0 0 8 8h48a8 8 0 0 0 8-8v-16h336v16a8 8 0 0 0 8 8h48a8 8 0 0 0 8-8v-16h8a8 8 0 0 0 8-8v-112a8 8 0 0 0 -8-8zm-168-168h144v168h-144zm-288 0h144v168h-144zm32 304h-32v-8h32zm400 0h-32v-8h32zm16-24h-464v-96h464z"/><path d="m432 296a40 40 0 1 0 40 40 40.045 40.045 0 0 0 -40-40zm0 64a24 24 0 1 1 24-24 24.028 24.028 0 0 1 -24 24z"/><path d="m368 296h-152a8 8 0 0 0 -8 8v64a8 8 0 0 0 8 8h152a8 8 0 0 0 8-8v-64a8 8 0 0 0 -8-8zm-8 64h-136v-48h136z"/><path d="m64 312v-8a8 8 0 0 0 -16 0v8a8 8 0 0 0 0 16v40a8 8 0 0 0 16 0v-40a8 8 0 0 0 0-16z"/><path d="m104 328v-24a8 8 0 0 0 -16 0v24a8 8 0 0 0 0 16v24a8 8 0 0 0 16 0v-24a8 8 0 0 0 0-16z"/><path d="m144 312v-8a8 8 0 0 0 -16 0v8a8 8 0 0 0 0 16v40a8 8 0 0 0 16 0v-40a8 8 0 0 0 0-16z"/><path d="m184 336v-32a8 8 0 0 0 -16 0v32a8 8 0 0 0 0 16v16a8 8 0 0 0 16 0v-16a8 8 0 0 0 0-16z"/><path d="m112 112a64 64 0 1 0 64 64 64.072 64.072 0 0 0 -64-64zm0 112a48 48 0 1 1 48-48 48.053 48.053 0 0 1 -48 48z"/><path d="m112 144a32 32 0 1 0 32 32 32.036 32.036 0 0 0 -32-32zm0 48a16 16 0 1 1 16-16 16.019 16.019 0 0 1 -16 16z"/><path d="m400 112a64 64 0 1 0 64 64 64.072 64.072 0 0 0 -64-64zm0 112a48 48 0 1 1 48-48 48.053 48.053 0 0 1 -48 48z"/><path d="m400 144a32 32 0 1 0 32 32 32.036 32.036 0 0 0 -32-32zm0 48a16 16 0 1 1 16-16 16.019 16.019 0 0 1 -16 16z"/></g></svg>