<?xml version="1.0" encoding="UTF-8"?>
<svg xmlns="http://www.w3.org/2000/svg" width="512" height="512" viewBox="0 0 512 512"><path d="M384,248V192a8,8,0,0,0-8-8V36A28.031,28.031,0,0,0,348,8H260a28.031,28.031,0,0,0-28,28V456H184V328a8,8,0,0,0,8-8V264a8,8,0,0,0,8-8V144a8,8,0,0,0-8-8h-8V32a8.008,8.008,0,0,0-2.34-5.66l-16-16a8.015,8.015,0,0,0-11.32,0l-16,16A8.008,8.008,0,0,0,136,32V136h-8a8,8,0,0,0-8,8V256a8,8,0,0,0,8,8v56a8,8,0,0,0,8,8V476a28.031,28.031,0,0,0,28,28h88a28.031,28.031,0,0,0,28-28V56h48V184a8,8,0,0,0-8,8v56a8,8,0,0,0-8,8V368a8,8,0,0,0,8,8h8V480a8.008,8.008,0,0,0,2.34,5.66l16,16a8.015,8.015,0,0,0,11.32,0l16-16A8.008,8.008,0,0,0,376,480V376h8a8,8,0,0,0,8-8V256A8,8,0,0,0,384,248Zm-16-48v48H336V200ZM152,35.31l8-8,8,8V136H152ZM136,152h48v96H136Zm8,160V264h32v48ZM272,40a8,8,0,0,0-8,8V476a12.01,12.01,0,0,1-12,12H164a12.01,12.01,0,0,1-12-12V328h16V464a8,8,0,0,0,8,8h64a8,8,0,0,0,8-8V36a12.01,12.01,0,0,1,12-12h88a12.01,12.01,0,0,1,12,12V184H344V48a8,8,0,0,0-8-8Zm88,436.69-8,8-8-8V376h16ZM376,360H328V264h48Z"/></svg>
