<svg height="512" viewBox="0 0 512 512" width="512" xmlns="http://www.w3.org/2000/svg"><g><path d="m264 168c0-82.99-57.42-150.5-128-150.5s-128 67.51-128 150.5c0 69.58 40.37 128.27 95.01 145.42l-5.8 151.12a38 38 0 0 0 37.97 39.46h1.64a38 38 0 0 0 37.97-39.46l-5.8-151.12c54.64-17.15 95.01-75.84 95.01-145.42zm-128-134.5c39.72 0 74.67 24.96 94.56 62.5h-189.12c19.89-37.54 54.84-62.5 94.56-62.5zm-101.82 78.5h203.64c1 2.62 1.94 5.29 2.8 8h-209.24c.86-2.71 1.8-5.38 2.8-8zm-10.18 56a160.332 160.332 0 0 1 3.21-32h217.58a161.107 161.107 0 0 1 0 64h-217.58a160.332 160.332 0 0 1 -3.21-32zm7.38 48h209.24c-.86 2.71-1.8 5.38-2.8 8h-203.64c-1-2.62-1.94-5.29-2.8-8zm121.3 265.25a21.82 21.82 0 0 1 -15.86 6.75h-1.64a22 22 0 0 1 -21.99-22.84l5.69-148.01a109.228 109.228 0 0 0 34.24 0l5.69 148.01a21.786 21.786 0 0 1 -6.13 16.09zm-16.68-178.75c-39.72 0-74.67-24.96-94.56-62.5h189.12c-19.89 37.54-54.84 62.5-94.56 62.5z"/><path d="m408.99 206.08 5.8-151.12a38 38 0 0 0 -37.97-39.46h-1.64a38 38 0 0 0 -37.97 39.46l5.8 151.12c-54.64 17.15-95.01 75.84-95.01 145.42 0 82.99 57.42 150.5 128 150.5s128-67.51 128-150.5c0-69.58-40.37-128.27-95.01-145.42zm-49.67-167.83a21.82 21.82 0 0 1 15.86-6.75h1.64a22 22 0 0 1 21.99 22.84l-5.69 148.01a109.228 109.228 0 0 0 -34.24 0l-5.69-148.01a21.786 21.786 0 0 1 6.13-16.09zm16.68 178.75c39.72 0 74.67 24.96 94.56 62.5h-189.12c19.89-37.54 54.84-62.5 94.56-62.5zm-101.82 78.5h203.64c1 2.62 1.94 5.29 2.8 8h-209.24c.86-2.71 1.8-5.38 2.8-8zm101.82 190.5c-39.72 0-74.67-24.96-94.56-62.5h189.12c-19.89 37.54-54.84 62.5-94.56 62.5zm101.82-78.5h-203.64c-1-2.62-1.94-5.29-2.8-8h209.24c-.86 2.71-1.8 5.38-2.8 8zm-210.61-24a161.107 161.107 0 0 1 0-64h217.58a161.107 161.107 0 0 1 0 64z"/></g></svg>