<svg height="512" viewBox="0 0 512 512" width="512" xmlns="http://www.w3.org/2000/svg"><g><path d="m256 8a103.979 103.979 0 0 0 -79.87 170.58l15.25 274.53a20.01 20.01 0 0 0 19.97 18.89h12.65v24a8 8 0 0 0 8 8h48a8 8 0 0 0 8-8v-24h12.65a20.01 20.01 0 0 0 19.97-18.89l15.25-274.53a103.979 103.979 0 0 0 -79.87-170.58zm16 480h-32v-16h32zm32.64-35.78a4 4 0 0 1 -3.99 3.78h-89.3a4 4 0 0 1 -3.99-3.78l-14.9-268.22h127.08zm19.23-284.22h-135.74a87.748 87.748 0 0 1 -16.8-32h169.34a87.748 87.748 0 0 1 -16.8 32zm-155.51-48q-.36-3.975-.36-8a88 88 0 0 1 176 0q0 4.02-.36 8z"/><path d="m232 328h48a8 8 0 0 0 8-8v-96a8 8 0 0 0 -8-8h-48a8 8 0 0 0 -8 8v96a8 8 0 0 0 8 8zm8-16v-48h32v48zm32-80v16h-32v-16z"/></g></svg>