<svg height="512" viewBox="0 0 512 512" width="512" xmlns="http://www.w3.org/2000/svg"><g><path d="m229.567 324.841a7.865 7.865 0 0 0 1 .243 112.4 112.4 0 0 0 50.874 0 7.865 7.865 0 0 0 1-.243 112.194 112.194 0 0 0 85.559-108.841v-96a112 112 0 0 0 -224 0v96a112.194 112.194 0 0 0 85.567 108.841zm10.433-14.182v-46.659h32v46.659a96.122 96.122 0 0 1 -32 0zm16-286.659a96.108 96.108 0 0 1 96 96v72h-192v-72a96.108 96.108 0 0 1 96-96zm-96 184h192v8a96.161 96.161 0 0 1 -64 90.509v-50.509a8 8 0 0 0 -8-8h-48a8 8 0 0 0 -8 8v50.509a96.161 96.161 0 0 1 -64-90.509z"/><path d="m392 152a8 8 0 0 0 -8 8v72a112.123 112.123 0 0 1 -112 112h-32a112.123 112.123 0 0 1 -112-112v-72a8 8 0 0 0 -16 0v72c0 65.16 48.94 119.1 112 127v81h-48a8 8 0 0 0 -7.59 5.47l-16 48a8 8 0 0 0 7.59 10.53h192a8 8 0 0 0 7.54-10.67l-17-48a7.989 7.989 0 0 0 -7.54-5.33h-47v-81c63.06-7.9 112-61.84 112-127v-72a8 8 0 0 0 -8-8zm-152 208h32v80h-32zm89.35 96 11.33 32h-169.58l10.67-32z"/></g></svg>