<svg height="512" viewBox="0 0 512 512" width="512" xmlns="http://www.w3.org/2000/svg"><g><path d="m476 64h-440a28.031 28.031 0 0 0 -28 28v328a28.031 28.031 0 0 0 28 28h440a28.031 28.031 0 0 0 28-28v-328a28.031 28.031 0 0 0 -28-28zm-68 368h-372a12.01 12.01 0 0 1 -12-12v-328a12.01 12.01 0 0 1 12-12h372zm80-12a12.01 12.01 0 0 1 -12 12h-52v-352h52a12.01 12.01 0 0 1 12 12z"/><path d="m456 96a24 24 0 1 0 24 24 24.028 24.028 0 0 0 -24-24zm0 32a8 8 0 1 1 8-8 8.009 8.009 0 0 1 -8 8z"/><path d="m456 152a24 24 0 1 0 24 24 24.028 24.028 0 0 0 -24-24zm0 32a8 8 0 1 1 8-8 8.009 8.009 0 0 1 -8 8z"/><path d="m472 256h-32a8 8 0 0 0 -8 8v144a8 8 0 0 0 8 8h32a8 8 0 0 0 8-8v-144a8 8 0 0 0 -8-8zm-8 144h-16v-128h16z"/><path d="m296 232h-24v-128a8 8 0 0 0 -16 0v128h-24a8 8 0 0 0 -8 8v32a8 8 0 0 0 8 8h24v128a8 8 0 0 0 16 0v-128h24a8 8 0 0 0 8-8v-32a8 8 0 0 0 -8-8zm-8 32h-48v-16h48z"/><path d="m384 184h-24v-80a8 8 0 0 0 -16 0v80h-24a8 8 0 0 0 -8 8v32a8 8 0 0 0 8 8h24v176a8 8 0 0 0 16 0v-176h24a8 8 0 0 0 8-8v-32a8 8 0 0 0 -8-8zm-8 32h-48v-16h48z"/><path d="m208 280h-24v-176a8 8 0 0 0 -16 0v176h-24a8 8 0 0 0 -8 8v32a8 8 0 0 0 8 8h24v80a8 8 0 0 0 16 0v-80h24a8 8 0 0 0 8-8v-32a8 8 0 0 0 -8-8zm-8 32h-48v-16h48z"/><path d="m120 184h-24v-80a8 8 0 0 0 -16 0v80h-24a8 8 0 0 0 -8 8v32a8 8 0 0 0 8 8h24v176a8 8 0 0 0 16 0v-176h24a8 8 0 0 0 8-8v-32a8 8 0 0 0 -8-8zm-8 32h-48v-16h48z"/></g></svg>