<svg height="512" viewBox="0 0 512 512" width="512" xmlns="http://www.w3.org/2000/svg"><g><path d="m368 8h-224a32.03 32.03 0 0 0 -32 32v432a32.03 32.03 0 0 0 32 32h224a32.03 32.03 0 0 0 32-32v-432a32.03 32.03 0 0 0 -32-32zm-66.25 16-4 16h-83.5l-4-16zm82.25 448a16.021 16.021 0 0 1 -16 16h-224a16.021 16.021 0 0 1 -16-16v-432a16.021 16.021 0 0 1 16-16h49.75l6.49 25.94a8 8 0 0 0 7.76 6.06h96a8 8 0 0 0 7.76-6.06l6.49-25.94h49.75a16.021 16.021 0 0 1 16 16z"/><path d="m232 240a32.036 32.036 0 0 0 32-32v-105.052l35.562 23.708a8 8 0 1 0 8.875-13.312l-48-32a8 8 0 0 0 -12.437 6.656v92.305a31.993 31.993 0 1 0 -16 59.695zm0-48a16 16 0 1 1 -16 16 16.019 16.019 0 0 1 16-16z"/><path d="m304 440h-96a8 8 0 0 0 -8 8v24a8 8 0 0 0 8 8h96a8 8 0 0 0 8-8v-24a8 8 0 0 0 -8-8zm-8 24h-80v-8h80z"/><path d="m368 408h-32v-120a8 8 0 0 0 -8-8h-48a8 8 0 0 0 -8 8v24h-40a8 8 0 0 0 -8 8v24h-40a8 8 0 0 0 -8 8v56h-32a8 8 0 0 0 0 16h224a8 8 0 0 0 0-16zm-144 0h-32v-48h32zm48 0h-32v-80h32zm48 0h-32v-112h32z"/></g></svg>