<?xml version="1.0" encoding="UTF-8"?>
<svg xmlns="http://www.w3.org/2000/svg" width="512" height="512" viewBox="0 0 512 512"><g><path d="M496,376H464V116a28.031,28.031,0,0,0-28-28H359.71A28.043,28.043,0,0,0,332,64H180a28.043,28.043,0,0,0-27.71,24H76a28.031,28.031,0,0,0-28,28V376H16a8,8,0,0,0-8,8v36a28.031,28.031,0,0,0,28,28H476a28.031,28.031,0,0,0,28-28V384A8,8,0,0,0,496,376ZM168,92a12.01,12.01,0,0,1,12-12H332a12.01,12.01,0,0,1,12,12V244a12.01,12.01,0,0,1-12,12H180a12.01,12.01,0,0,1-12-12Zm12,180H332a28.031,28.031,0,0,0,28-28V128h64V352H88V128h64V244A28.031,28.031,0,0,0,180,272ZM64,116a12.01,12.01,0,0,1,12-12h76v8H80a8,8,0,0,0-8,8V360a8,8,0,0,0,8,8H432a8,8,0,0,0,8-8V120a8,8,0,0,0-8-8H360v-8h76a12.01,12.01,0,0,1,12,12V376H64ZM293.75,392l-4,16h-67.5l-4-16ZM488,420a12.01,12.01,0,0,1-12,12H36a12.01,12.01,0,0,1-12-12V392H201.75l6.49,25.94A8,8,0,0,0,216,424h80a8,8,0,0,0,7.76-6.06L310.25,392H488Z"/><path d="M308.44,129.34l-48-32A8.009,8.009,0,0,0,248,104v76.3A31.992,31.992,0,1,0,264,208V118.95l35.56,23.71a8,8,0,1,0,8.88-13.32ZM232,224a16,16,0,1,1,16-16A16.021,16.021,0,0,1,232,224Z"/><path d="M136,312a8,8,0,0,0,8,8h40a8,8,0,0,0,16,0H368a8,8,0,0,0,0-16H200a8,8,0,0,0-16,0H144A8,8,0,0,0,136,312Z"/></g></svg>
