<svg height="512" viewBox="0 0 512 512" width="512" xmlns="http://www.w3.org/2000/svg"><g><path d="m308.438 217.344-48-32a8 8 0 0 0 -12.438 6.656v76.305a31.989 31.989 0 1 0 16 27.695v-89.052l35.562 23.708a8 8 0 0 0 8.876-13.312zm-76.438 94.656a16 16 0 1 1 16-16 16.019 16.019 0 0 1 -16 16z"/><path d="m332 152h-152a28.032 28.032 0 0 0 -28 28v152a28.032 28.032 0 0 0 28 28h152a28.032 28.032 0 0 0 28-28v-152a28.032 28.032 0 0 0 -28-28zm12 180a12.013 12.013 0 0 1 -12 12h-152a12.013 12.013 0 0 1 -12-12v-152a12.013 12.013 0 0 1 12-12h152a12.013 12.013 0 0 1 12 12z"/><path d="m464 108a28.031 28.031 0 0 0 -28-28h-4v-64a8 8 0 0 0 -8-8h-348a28.031 28.031 0 0 0 -28 28v440a28.031 28.031 0 0 0 28 28h348a8 8 0 0 0 8-8v-64h4a28.031 28.031 0 0 0 28-28v-72a27.9 27.9 0 0 0 -8.43-20 27.9 27.9 0 0 0 8.43-20v-72a27.9 27.9 0 0 0 -8.43-20 27.9 27.9 0 0 0 8.43-20zm-384 380h-4a12.01 12.01 0 0 1 -12-12v-440a12.01 12.01 0 0 1 12-12h4zm336 0h-320v-464h320zm32-84a12.01 12.01 0 0 1 -12 12h-4v-96h4a12.01 12.01 0 0 1 12 12zm0-112a12.01 12.01 0 0 1 -12 12h-4v-96h4a12.01 12.01 0 0 1 12 12zm0-112a12.01 12.01 0 0 1 -12 12h-4v-96h4a12.01 12.01 0 0 1 12 12z"/></g></svg>