<svg height="512" viewBox="0 0 512 512" width="512" xmlns="http://www.w3.org/2000/svg"><g><path d="m460 8h-216a28.032 28.032 0 0 0 -28 28v440a28.032 28.032 0 0 0 28 28h216a28.032 28.032 0 0 0 28-28v-440a28.032 28.032 0 0 0 -28-28zm12 468a12.013 12.013 0 0 1 -12 12h-216a12.013 12.013 0 0 1 -12-12v-440a12.013 12.013 0 0 1 12-12h216a12.013 12.013 0 0 1 12 12z"/><path d="m352 312a40 40 0 1 0 40 40 40.045 40.045 0 0 0 -40-40zm0 64a24 24 0 1 1 24-24 24.028 24.028 0 0 1 -24 24z"/><path d="m352 248a104 104 0 1 0 104 104 104.118 104.118 0 0 0 -104-104zm0 192a88 88 0 1 1 88-88 88.1 88.1 0 0 1 -88 88z"/><path d="m448 56h-192a8 8 0 0 0 -8 8v144a8 8 0 0 0 8 8h192a8 8 0 0 0 8-8v-144a8 8 0 0 0 -8-8zm-8 144h-176v-128h176z"/><path d="m160 88a39.987 39.987 0 0 0 -24 71.98v56.02a8 8 0 0 0 8 8h8v84a12.01 12.01 0 0 1 -12 12h-56a12.01 12.01 0 0 1 -12-12v-84h8a8 8 0 0 0 8-8v-56.02a40 40 0 1 0 -48 0v56.02a8 8 0 0 0 8 8h8v84a28.031 28.031 0 0 0 28 28h20v160a8 8 0 0 0 16 0v-160h20a28.031 28.031 0 0 0 28-28v-84h8a8 8 0 0 0 8-8v-56.02a39.987 39.987 0 0 0 -24-71.98zm-120 40a24 24 0 1 1 24 24 24.032 24.032 0 0 1 -24-24zm16 80v-40.81a39.911 39.911 0 0 0 16 0v40.81zm112 0h-16v-40.81a39.911 39.911 0 0 0 16 0zm-8-56a24 24 0 1 1 24-24 24.032 24.032 0 0 1 -24 24z"/></g></svg>