<svg height="512" viewBox="0 0 512 512" width="512" xmlns="http://www.w3.org/2000/svg"><g><path d="m431.36 80.64a248 248 0 1 0 -350.72 350.72 248 248 0 1 0 350.72-350.72zm-11.31 339.41a232 232 0 0 1 -328.1-328.1 232 232 0 0 1 328.1 328.1z"/><path d="m256 48c-114.69 0-208 93.31-208 208s93.31 208 208 208 208-93.31 208-208-93.31-208-208-208zm-192 208c0-105.87 86.13-192 192-192a191.278 191.278 0 0 1 129.92 50.77l-38.45 38.44-133.05 54.79h-30.42a8 8 0 0 0 -8 8v8h-16a8 8 0 0 0 -8 8v48a8 8 0 0 0 8 8h16v8a8 8 0 0 0 8 8h12.69l-81.92 81.92a191.278 191.278 0 0 1 -50.77-129.92zm280-76.69v160.74l-113.86-46.88zm-120 97.38v-55.33l94.06-38.73zm-16-52.69v64h-16v-64zm-32 16v32h-8v-32zm80 208a191.278 191.278 0 0 1 -129.92-50.77l91.81-91.8 131.06 53.97a8 8 0 0 0 11.05-7.4v-188.69l37.23-37.23a191.278 191.278 0 0 1 50.77 129.92c0 105.87-86.13 192-192 192z"/><path d="m165.96 123.72a159.134 159.134 0 0 1 90.04-27.72 8 8 0 0 0 0-16 176.046 176.046 0 0 0 -162.775 108.95 8 8 0 1 0 14.791 6.1 159.964 159.964 0 0 1 57.944-71.33z"/></g></svg>