<svg height="512" viewBox="0 0 512 512" width="512" xmlns="http://www.w3.org/2000/svg"><path d="m440 152h-144a32.042 32.042 0 0 1 -32-32 112.123 112.123 0 0 0 -112-112h-16a112.123 112.123 0 0 0 -112 112v376a8 8 0 0 0 8 8h448a8 8 0 0 0 8-8v-296a48.051 48.051 0 0 0 -48-48zm-320 336h-32v-80h16v40a8 8 0 0 0 8 8h8zm64 0h-48v-32h8a8 8 0 0 0 8-8v-40h16v40a8 8 0 0 0 8 8h8zm-64-48v-32h16v32zm128 48h-48v-32h8a8 8 0 0 0 8-8v-40h16v40a8 8 0 0 0 8 8h8zm-64-48v-32h16v32zm128 48h-48v-32h8a8 8 0 0 0 8-8v-40h16v40a8 8 0 0 0 8 8h8zm-64-48v-32h16v32zm128 48h-48v-32h8a8 8 0 0 0 8-8v-40h16v40a8 8 0 0 0 8 8h8zm-64-48v-32h16v32zm112 48h-32v-32h8a8 8 0 0 0 8-8v-40h16zm-48-48v-32h16v32zm96 48h-32v-88a8 8 0 0 0 -8-8h-352a8 8 0 0 0 -8 8v88h-32v-176h432zm0-192h-432v-24h432zm0-40h-432v-136a96.115 96.115 0 0 1 96-96h16a96.115 96.115 0 0 1 96 96 48.051 48.051 0 0 0 48 48h144a32.042 32.042 0 0 1 32 32z"/></svg>