<svg height="512" viewBox="0 0 512 512" width="512" xmlns="http://www.w3.org/2000/svg"><path d="m496 392h-8v-376a8 8 0 0 0 -8-8h-64a8 8 0 0 0 -8 8v56h-56a8 8 0 0 0 -8 8v40h-56a8 8 0 0 0 -8 8v40h-56a8 8 0 0 0 -8 8v40h-56a8 8 0 0 0 -8 8v40h-56a8 8 0 0 0 -8 8v40h-56a8 8 0 0 0 -8 8v72h-8a8 8 0 0 0 -8 8v32a8 8 0 0 0 8 8h8v56a8 8 0 0 0 8 8h448a8 8 0 0 0 8-8v-56h8a8 8 0 0 0 8-8v-32a8 8 0 0 0 -8-8zm-72-368h48v368h-48zm-64 64h48v304h-48zm-64 48h48v256h-48zm-64 48h48v208h-48zm-64 48h48v160h-48zm-64 48h48v112h-48zm-64 48h48v64h-48zm48 160h-48v-48h48zm64 0h-48v-48h48zm64 0h-48v-48h48zm64 0h-48v-48h48zm64 0h-48v-48h48zm64 0h-48v-48h48zm64 0h-48v-48h48zm16-64h-464v-16h464z"/></svg>