<?xml version="1.0" encoding="UTF-8"?>
<svg xmlns="http://www.w3.org/2000/svg" width="512" height="512" viewBox="0 0 512 512"><g><path d="M496,32H280V16a8,8,0,0,0-8-8H240a8,8,0,0,0-8,8V32H16a8,8,0,0,0-8,8V352a8,8,0,0,0,8,8H184v16a8,8,0,0,0,8,8h2.67L136.94,492.24A8,8,0,0,0,144,504h32a8.005,8.005,0,0,0,7.06-4.24L232,408v88a8,8,0,0,0,8,8h32a8,8,0,0,0,8-8V408l48.94,91.76A8.005,8.005,0,0,0,336,504h32a8,8,0,0,0,7.06-11.76L317.33,384H320a8,8,0,0,0,8-8V360H496a8,8,0,0,0,8-8V40A8,8,0,0,0,496,32ZM248,24h16v8H248ZM24,344V48H248V344ZM171.2,488H157.33L212.8,384h13.87Zm92.8,0H248V384h16ZM200,368v-8H312v8ZM354.67,488H340.8L285.33,384H299.2ZM488,344H264V48H488Z"/><path d="M188.438,153.344l-48-32A8,8,0,0,0,128,128v76.305A31.989,31.989,0,1,0,144,232V142.948l35.562,23.708a8,8,0,0,0,8.876-13.312ZM112,248a16,16,0,1,1,16-16A16.019,16.019,0,0,1,112,248Z"/><path d="M240,268V116a28.032,28.032,0,0,0-28-28H60a28.032,28.032,0,0,0-28,28V268a28.032,28.032,0,0,0,28,28H212A28.032,28.032,0,0,0,240,268ZM48,268V116a12.013,12.013,0,0,1,12-12H212a12.013,12.013,0,0,1,12,12V268a12.013,12.013,0,0,1-12,12H60A12.013,12.013,0,0,1,48,268Z"/><path d="M280,104H472a8,8,0,0,0,0-16H280a8,8,0,0,0,0,16Z"/><path d="M472,112H280a8,8,0,0,0,0,16H472a8,8,0,0,0,0-16Z"/><path d="M472,136H280a8,8,0,0,0,0,16H472a8,8,0,0,0,0-16Z"/><path d="M280,176H408a8,8,0,0,0,0-16H280a8,8,0,0,0,0,16Z"/><path d="M440,176a8,8,0,0,0,0-16h-8a8,8,0,0,0,0,16Z"/><path d="M472,208H280a8,8,0,0,0,0,16H472a8,8,0,0,0,0-16Z"/><path d="M472,232H280a8,8,0,0,0,0,16H472a8,8,0,0,0,0-16Z"/><path d="M472,256H280a8,8,0,0,0,0,16H472a8,8,0,0,0,0-16Z"/><path d="M408,280H280a8,8,0,0,0,0,16H408a8,8,0,0,0,0-16Z"/><path d="M440,280h-8a8,8,0,0,0,0,16h8a8,8,0,0,0,0-16Z"/></g></svg>
