<svg height="512" viewBox="0 0 512 512" width="512" xmlns="http://www.w3.org/2000/svg"><g><path d="m496 56h-24v-16a8.011 8.011 0 0 0 -5.65-7.65c-69.78-21.47-140.54-21.7-210.35-.71-69.81-21-140.57-20.76-210.35.71a8.011 8.011 0 0 0 -5.65 7.65v16h-24a8 8 0 0 0 -8 8v336a8 8 0 0 0 8 8h160v24a8 8 0 0 0 8 8h48v56a8 8 0 0 0 8 8h32a8 8 0 0 0 8-8v-56h48a8 8 0 0 0 8-8v-24h160a8 8 0 0 0 8-8v-336a8 8 0 0 0 -8-8zm-232-10.04c63.73-18.5 128.27-18.5 192 0v287.37a354.141 354.141 0 0 0 -192 .01zm-208 0c63.73-18.5 128.27-18.5 192 0v287.38a354.013 354.013 0 0 0 -192-.01zm208 442.04h-16v-48h16zm56-64h-128v-16h128zm168-32h-464v-16h464zm0-32h-464v-288h16v272a8.012 8.012 0 0 0 10.35 7.65c67.45-20.76 135.85-20.76 203.3 0a8.01 8.01 0 0 0 4.7 0c67.45-20.76 135.85-20.76 203.3 0a8.209 8.209 0 0 0 2.35.35 8.015 8.015 0 0 0 8-8v-272h16z"/><path d="m128 248a32.036 32.036 0 0 0 32-32v-89.052l35.562 23.708a8 8 0 0 0 8.876-13.312l-48-32a8 8 0 0 0 -12.438 6.656v76.305a31.993 31.993 0 1 0 -16 59.695zm0-48a16 16 0 1 1 -16 16 16.019 16.019 0 0 1 16-16z"/><path d="m280 104h160a8 8 0 0 0 0-16h-160a8 8 0 0 0 0 16z"/><path d="m280 128h160a8 8 0 0 0 0-16h-160a8 8 0 0 0 0 16z"/><path d="m280 152h160a8 8 0 0 0 0-16h-160a8 8 0 0 0 0 16z"/><path d="m280 176h96a8 8 0 0 0 0-16h-96a8 8 0 0 0 0 16z"/><path d="m400 160a8 8 0 0 0 0 16h8a8 8 0 0 0 0-16z"/><path d="m280 224h160a8 8 0 0 0 0-16h-160a8 8 0 0 0 0 16z"/><path d="m280 248h160a8 8 0 0 0 0-16h-160a8 8 0 0 0 0 16z"/><path d="m280 272h160a8 8 0 0 0 0-16h-160a8 8 0 0 0 0 16z"/><path d="m376 280h-96a8 8 0 0 0 0 16h96a8 8 0 0 0 0-16z"/><path d="m408 280h-8a8 8 0 0 0 0 16h8a8 8 0 0 0 0-16z"/></g></svg>