<svg height="512" viewBox="0 0 512 512" width="512" xmlns="http://www.w3.org/2000/svg"><g><path d="m308.438 145.344-48-32a8 8 0 0 0 -12.438 6.656v76.305a31.989 31.989 0 1 0 16 27.695v-89.052l35.562 23.708a8 8 0 0 0 8.876-13.312zm-76.438 94.656a16 16 0 1 1 16-16 16.019 16.019 0 0 1 -16 16z"/><path d="m488 144h-16a16.021 16.021 0 0 0 -16-16h-32a16.021 16.021 0 0 0 -16-16h-48v-4a28.031 28.031 0 0 0 -28-28h-152a28.031 28.031 0 0 0 -28 28v4h-48a16.021 16.021 0 0 0 -16 16h-32a16.021 16.021 0 0 0 -16 16h-16a16.021 16.021 0 0 0 -16 16v48a16.021 16.021 0 0 0 16 16h16a16.021 16.021 0 0 0 16 16h32a16.021 16.021 0 0 0 16 16h48v4a28.031 28.031 0 0 0 28 28h152a28.031 28.031 0 0 0 28-28v-4h48a16.021 16.021 0 0 0 16-16h32a16.021 16.021 0 0 0 16-16h16a16.021 16.021 0 0 0 16-16v-48a16.021 16.021 0 0 0 -16-16zm-448 64h-16v-48h16zm48 16h-32v-80h32zm64 16h-48v-112h48zm192 20a12.01 12.01 0 0 1 -12 12h-152a12.01 12.01 0 0 1 -12-12v-152a12.01 12.01 0 0 1 12-12h152a12.01 12.01 0 0 1 12 12zm64-20h-48v-112h48zm48-16h-32v-80h32zm32-16h-16v-48h16z"/><path d="m464 352h-296v-24a8 8 0 0 0 -8-8h-48a8 8 0 0 0 -8 8v24h-56a8 8 0 0 0 -8 8v32a8 8 0 0 0 8 8h56v24a8 8 0 0 0 8 8h48a8 8 0 0 0 8-8v-24h296a8 8 0 0 0 8-8v-32a8 8 0 0 0 -8-8zm-360 32h-48v-16h48zm48 32h-32v-80h32zm304-32h-288v-16h288z"/></g></svg>