<svg height="512" viewBox="0 0 512 512" width="512" xmlns="http://www.w3.org/2000/svg"><g><path d="m496 184h-432.3l149.15-113.64a8 8 0 1 0 -9.7-12.72l-165.85 126.36h-21.3a8 8 0 0 0 -8 8v256a8 8 0 0 0 8 8h480a8 8 0 0 0 8-8v-256a8 8 0 0 0 -8-8zm-8 256h-464v-240h464z"/><path d="m472 216h-432a8 8 0 0 0 -8 8v48a8 8 0 0 0 8 8h432a8 8 0 0 0 8-8v-48a8 8 0 0 0 -8-8zm-360 24h-48a8 8 0 0 0 0 16h48v8h-64v-32h64zm24 24h-8v-32h8zm328 0h-312v-8h296a8 8 0 0 0 0-16h-296v-8h312z"/><path d="m461.25 314.75a64 64 0 1 0 0 90.5 63.544 63.544 0 0 0 0-90.5zm-11.31 79.19a47.995 47.995 0 0 1 -73.06-61.74l10.84 10.83a8 8 0 0 0 11.31-11.31l-10.84-10.84a48 48 0 0 1 61.75 73.06z"/><path d="m324 296h-272a20.023 20.023 0 0 0 -20 20v88a20.023 20.023 0 0 0 20 20h272a20.023 20.023 0 0 0 20-20v-88a20.023 20.023 0 0 0 -20-20zm4 108a4 4 0 0 1 -4 4h-272a4 4 0 0 1 -4-4v-88a4 4 0 0 1 4-4h272a4 4 0 0 1 4 4z"/></g></svg>