<svg height="512" viewBox="0 0 512 512" width="512" xmlns="http://www.w3.org/2000/svg"><g><path d="m476 144h-52v-36a28.031 28.031 0 0 0 -28-28h-28v-8a8 8 0 0 0 -8-8h-208a8 8 0 0 0 -8 8v8h-28a28.031 28.031 0 0 0 -28 28v36h-52a28.031 28.031 0 0 0 -28 28v248a28.031 28.031 0 0 0 28 28h440a28.031 28.031 0 0 0 28-28v-248a28.031 28.031 0 0 0 -28-28zm-316-64h192v16h-192zm-56 28a12.01 12.01 0 0 1 12-12h28v8a8 8 0 0 0 8 8h208a8 8 0 0 0 8-8v-8h28a12.01 12.01 0 0 1 12 12v36h-304zm384 312a12.01 12.01 0 0 1 -12 12h-440a12.01 12.01 0 0 1 -12-12v-248a12.01 12.01 0 0 1 12-12h440a12.01 12.01 0 0 1 12 12z"/><path d="m120 240a88 88 0 1 0 88 88 88.1 88.1 0 0 0 -88-88zm0 160a72 72 0 1 1 72-72 72.081 72.081 0 0 1 -72 72z"/><path d="m120 288a40 40 0 1 0 40 40 40.045 40.045 0 0 0 -40-40zm0 64a24 24 0 1 1 24-24 24.028 24.028 0 0 1 -24 24z"/><path d="m392 240a88 88 0 1 0 88 88 88.1 88.1 0 0 0 -88-88zm0 160a72 72 0 1 1 72-72 72.081 72.081 0 0 1 -72 72z"/><path d="m392 288a40 40 0 1 0 40 40 40.045 40.045 0 0 0 -40-40zm0 64a24 24 0 1 1 24-24 24.028 24.028 0 0 1 -24 24z"/><path d="m288 296h-64a8 8 0 0 0 -8 8v48a8 8 0 0 0 8 8h64a8 8 0 0 0 8-8v-48a8 8 0 0 0 -8-8zm-8 48h-48v-32h48z"/><path d="m272 288a8 8 0 0 0 8-8v-24a8 8 0 0 0 -8-8h-32a8 8 0 0 0 -8 8v24a8 8 0 0 0 8 8zm-24-24h16v8h-16z"/><path d="m272 368h-32a8 8 0 0 0 -8 8v24a8 8 0 0 0 8 8h32a8 8 0 0 0 8-8v-24a8 8 0 0 0 -8-8zm-8 24h-16v-8h16z"/><path d="m472 176h-432a8 8 0 0 0 -8 8v32a8 8 0 0 0 8 8h432a8 8 0 0 0 8-8v-32a8 8 0 0 0 -8-8zm-8 32h-416v-16h32a8 8 0 0 0 16 0h368z"/></g></svg>