<?xml version="1.0" encoding="UTF-8"?>
<svg xmlns="http://www.w3.org/2000/svg" width="512" height="512" viewBox="0 0 512 512"><g><path d="M496,240a8,8,0,0,0,8-8V200a8,8,0,0,0-8-8H16a8,8,0,0,0-8,8v32a8,8,0,0,0,8,8h8V416H16a8,8,0,0,0-8,8v32a8,8,0,0,0,8,8H496a8,8,0,0,0,8-8V424a8,8,0,0,0-8-8h-8V240Zm-8,208H24V432H488ZM112,288h8v80h-8a8,8,0,0,0-8,8v40H40V240h64v40A8,8,0,0,0,112,288Zm128,0h8v80h-8a8,8,0,0,0-8,8v40H152V376a8,8,0,0,0-8-8h-8V288h8a8,8,0,0,0,8-8V240h80v40A8,8,0,0,0,240,288Zm128,0h8v80h-8a8,8,0,0,0-8,8v40H280V376a8,8,0,0,0-8-8h-8V288h8a8,8,0,0,0,8-8V240h80v40A8,8,0,0,0,368,288Zm32,80h-8V288h8a8,8,0,0,0,8-8V240h64V416H408V376A8,8,0,0,0,400,368Zm-8-96H376V240h16Zm0,112v32H376V384ZM264,272H248V240h16Zm0,112v32H248V384ZM136,272H120V240h16Zm0,112v32H120V384ZM24,224V208H488v16Z"/><path d="M496,112H96a8.032,8.032,0,0,0-2.53.41L72,119.567,50.53,112.41A8.032,8.032,0,0,0,48,112H32a24,24,0,0,0,0,48H48a8.032,8.032,0,0,0,2.53-.41L72,152.433l21.47,7.157A8.032,8.032,0,0,0,96,160H496a8,8,0,0,0,8-8V120A8,8,0,0,0,496,112Zm-8,32H97.3L74.53,136.41a8.011,8.011,0,0,0-5.06,0L46.7,144H32a8,8,0,0,1,0-16H46.7l22.768,7.59a8.011,8.011,0,0,0,5.06,0L97.3,128H488Z"/><path d="M496,56H96a8.032,8.032,0,0,0-2.53.41L72,63.567,50.53,56.41A8.032,8.032,0,0,0,48,56H32a24,24,0,0,0,0,48H48a8.032,8.032,0,0,0,2.53-.41L72,96.433l21.47,7.157A8.032,8.032,0,0,0,96,104H496a8,8,0,0,0,8-8V64A8,8,0,0,0,496,56Zm-8,32H97.3L74.53,80.41a8.011,8.011,0,0,0-5.06,0L46.7,88H32a8,8,0,0,1,0-16H46.7L69.47,79.59a8.011,8.011,0,0,0,5.06,0L97.3,72H488Z"/></g></svg>
