<svg height="512" viewBox="0 0 512 512" width="512" xmlns="http://www.w3.org/2000/svg"><g><path d="m431.36 80.64a248 248 0 1 0 -350.72 350.72 248 248 0 1 0 350.72-350.72zm-11.31 339.41a232 232 0 0 1 -328.1-328.1 232 232 0 0 1 328.1 328.1z"/><path d="m256 48c-114.69 0-208 93.31-208 208s93.31 208 208 208 208-93.31 208-208-93.31-208-208-208zm0 400c-105.87 0-192-86.13-192-192s86.13-192 192-192 192 86.13 192 192-86.13 192-192 192z"/><path d="m256 96a8 8 0 0 0 0-16 176.046 176.046 0 0 0 -162.775 108.95 8 8 0 1 0 14.791 6.1 160.053 160.053 0 0 1 147.984-99.05z"/><path d="m356.45 153.35a8.034 8.034 0 0 0 -7.5-.75l-134.53 55.4h-30.42a8 8 0 0 0 -8 8v8h-16a8 8 0 0 0 -8 8v48a8 8 0 0 0 8 8h16v8a8 8 0 0 0 8 8h30.42l134.53 55.4a8 8 0 0 0 11.05-7.4v-192a8.006 8.006 0 0 0 -3.55-6.65zm-180.45 118.65h-8v-32h8zm32 16h-16v-64h16zm136 52.05-120-49.41v-69.28l120-49.41z"/></g></svg>