<svg height="512" viewBox="0 0 512 512" width="512" xmlns="http://www.w3.org/2000/svg"><g><path d="m380 8h-248a28.032 28.032 0 0 0 -28 28v440a28.032 28.032 0 0 0 28 28h248a28.032 28.032 0 0 0 28-28v-440a28.032 28.032 0 0 0 -28-28zm12 468a12.013 12.013 0 0 1 -12 12h-248a12.013 12.013 0 0 1 -12-12v-440a12.013 12.013 0 0 1 12-12h248a12.013 12.013 0 0 1 12 12z"/><path d="m256 232a120 120 0 1 0 120 120 120.136 120.136 0 0 0 -120-120zm0 224a104 104 0 1 1 104-104 104.118 104.118 0 0 1 -104 104z"/><path d="m256 280a72 72 0 1 0 72 72 72.081 72.081 0 0 0 -72-72zm0 128a56 56 0 1 1 56-56 56.064 56.064 0 0 1 -56 56z"/><path d="m256 200a72 72 0 1 0 -72-72 72.081 72.081 0 0 0 72 72zm0-128a56 56 0 1 1 -56 56 56.064 56.064 0 0 1 56-56z"/><path d="m256 168a40 40 0 1 0 -40-40 40.045 40.045 0 0 0 40 40zm0-64a24 24 0 1 1 -24 24 24.028 24.028 0 0 1 24-24z"/><circle cx="136" cy="40" r="8"/><circle cx="376" cy="40" r="8"/><circle cx="136" cy="472" r="8"/><circle cx="376" cy="472" r="8"/></g></svg>