<svg height="512" viewBox="0 0 512 512" width="512" xmlns="http://www.w3.org/2000/svg"><g><path d="m80 304a48 48 0 1 0 -48-48 48.053 48.053 0 0 0 48 48zm0-80a32 32 0 1 1 -32 32 32.036 32.036 0 0 1 32-32z"/><path d="m80 192a48 48 0 1 0 -48-48 48.053 48.053 0 0 0 48 48zm0-80a32 32 0 1 1 -32 32 32.036 32.036 0 0 1 32-32z"/><path d="m132 64h-104a20.023 20.023 0 0 0 -20 20v328a19.96 19.96 0 0 0 8 15.962v12.038a8 8 0 0 0 16 0v-8h96v8a8 8 0 0 0 16 0v-12.038a19.96 19.96 0 0 0 8-15.962v-328a20.023 20.023 0 0 0 -20-20zm-108 20a4 4 0 0 1 4-4h104a4 4 0 0 1 4 4v328a4 4 0 0 1 -4 4h-104a4 4 0 0 1 -4-4z"/><path d="m80 168a24 24 0 1 0 -24-24 24.028 24.028 0 0 0 24 24zm0-32a8 8 0 1 1 -8 8 8.009 8.009 0 0 1 8-8z"/><path d="m80 280a24 24 0 1 0 -24-24 24.028 24.028 0 0 0 24 24zm0-32a8 8 0 1 1 -8 8 8.009 8.009 0 0 1 8-8z"/><path d="m432 304a48 48 0 1 0 -48-48 48.053 48.053 0 0 0 48 48zm0-80a32 32 0 1 1 -32 32 32.036 32.036 0 0 1 32-32z"/><path d="m432 192a48 48 0 1 0 -48-48 48.053 48.053 0 0 0 48 48zm0-80a32 32 0 1 1 -32 32 32.036 32.036 0 0 1 32-32z"/><path d="m484 64h-104a20.023 20.023 0 0 0 -20 20v328a19.96 19.96 0 0 0 8 15.962v12.038a8 8 0 0 0 16 0v-8h96v8a8 8 0 0 0 16 0v-12.038a19.96 19.96 0 0 0 8-15.962v-328a20.023 20.023 0 0 0 -20-20zm-108 20a4 4 0 0 1 4-4h104a4 4 0 0 1 4 4v328a4 4 0 0 1 -4 4h-104a4 4 0 0 1 -4-4z"/><path d="m432 168a24 24 0 1 0 -24-24 24.028 24.028 0 0 0 24 24zm0-32a8 8 0 1 1 -8 8 8.009 8.009 0 0 1 8-8z"/><path d="m432 280a24 24 0 1 0 -24-24 24.028 24.028 0 0 0 24 24zm0-32a8 8 0 1 1 -8 8 8.009 8.009 0 0 1 8-8z"/><path d="m332 208h-152a20.02 20.02 0 0 0 -20 20v184a20.035 20.035 0 0 0 16 19.6v8.4a8 8 0 0 0 16 0v-8h128v8a8 8 0 0 0 16 0v-8.4a20.035 20.035 0 0 0 16-19.6v-184a20.02 20.02 0 0 0 -20-20zm4 204a4 4 0 0 1 -4 4h-152a4 4 0 0 1 -4-4v-184a4 4 0 0 1 4-4h152a4 4 0 0 1 4 4z"/><path d="m320 296a64 64 0 1 0 -64 64 64.072 64.072 0 0 0 64-64zm-64 48a48 48 0 1 1 48-48 48.053 48.053 0 0 1 -48 48z"/><path d="m256 264a32 32 0 1 0 32 32 32.036 32.036 0 0 0 -32-32zm0 48a16 16 0 1 1 16-16 16.019 16.019 0 0 1 -16 16z"/><path d="m304 360a24 24 0 1 0 24 24 24.028 24.028 0 0 0 -24-24zm0 32a8 8 0 1 1 8-8 8.009 8.009 0 0 1 -8 8z"/><path d="m456 360a24 24 0 1 0 24 24 24.028 24.028 0 0 0 -24-24zm0 32a8 8 0 1 1 8-8 8.009 8.009 0 0 1 -8 8z"/><path d="m104 360a24 24 0 1 0 24 24 24.028 24.028 0 0 0 -24-24zm0 32a8 8 0 1 1 8-8 8.009 8.009 0 0 1 -8 8z"/></g></svg>