<?xml version="1.0" encoding="UTF-8"?>
<svg xmlns="http://www.w3.org/2000/svg" width="512" height="512" viewBox="0 0 512 512"><g><path d="M256,104c-83.813,0-152,68.187-152,152s68.187,152,152,152,152-68.187,152-152S339.813,104,256,104Zm0,288c-74.99,0-136-61.01-136-136s61.01-136,136-136,136,61.01,136,136S330.99,392,256,392Z"/><path d="M448.01,200a198.148,198.148,0,0,0-16.68-40.13.078.078,0,0,0,.04-.04,56,56,0,0,0-79.2-79.2.078.078,0,0,0-.04.04A198.148,198.148,0,0,0,312,63.99a56,56,0,0,0-112,0,198.148,198.148,0,0,0-40.13,16.68.078.078,0,0,0-.04-.04,56,56,0,0,0-79.2,79.2.078.078,0,0,0,.04.04A198.148,198.148,0,0,0,63.99,200a56,56,0,0,0,0,112,198.148,198.148,0,0,0,16.68,40.13.078.078,0,0,0-.04.04,56,56,0,0,0,79.2,79.2.078.078,0,0,0,.04-.04A198.148,198.148,0,0,0,200,448.01a56,56,0,0,0,112,0,198.148,198.148,0,0,0,40.13-16.68.078.078,0,0,0,.04.04,56,56,0,0,0,79.2-79.2.078.078,0,0,0-.04-.04A198.148,198.148,0,0,0,448.01,312a56,56,0,0,0,0-112ZM59.98,295.8a40,40,0,0,1,0-79.6,200.99,200.99,0,0,0,0,79.6ZM420.05,91.95a40.069,40.069,0,0,1,2.64,53.66,201.48,201.48,0,0,0-56.3-56.3A40.069,40.069,0,0,1,420.05,91.95ZM256,24a40.059,40.059,0,0,1,39.8,35.98,200.99,200.99,0,0,0-79.6,0A40.059,40.059,0,0,1,256,24ZM91.95,91.95a40.069,40.069,0,0,1,53.66-2.64,201.48,201.48,0,0,0-56.3,56.3A40.069,40.069,0,0,1,91.95,91.95Zm0,328.1a40.069,40.069,0,0,1-2.64-53.66,201.48,201.48,0,0,0,56.3,56.3A40.069,40.069,0,0,1,91.95,420.05ZM256,488a40.059,40.059,0,0,1-39.8-35.98,200.99,200.99,0,0,0,79.6,0A40.059,40.059,0,0,1,256,488Zm164.05-67.95a40.069,40.069,0,0,1-53.66,2.64,201.48,201.48,0,0,0,56.3-56.3A40.069,40.069,0,0,1,420.05,420.05ZM256,440C154.54,440,72,357.46,72,256S154.54,72,256,72s184,82.54,184,184S357.46,440,256,440ZM452.02,295.8a200.99,200.99,0,0,0,0-79.6,40,40,0,0,1,0,79.6Z"/></g></svg>
