<svg height="512" viewBox="0 0 512 512" width="512" xmlns="http://www.w3.org/2000/svg"><g><path d="m480 80h-448a24.032 24.032 0 0 0 -24 24v304a24.032 24.032 0 0 0 24 24h448a24.032 24.032 0 0 0 24-24v-304a24.032 24.032 0 0 0 -24-24zm8 328a8.011 8.011 0 0 1 -8 8h-448a8.011 8.011 0 0 1 -8-8v-304a8.011 8.011 0 0 1 8-8h448a8.011 8.011 0 0 1 8 8z"/><path d="m184 232a24 24 0 1 0 24 24 24.027 24.027 0 0 0 -24-24zm0 32a8 8 0 1 1 8-8 8.009 8.009 0 0 1 -8 8z"/><path d="m416 104a40 40 0 0 0 -17.32 76.05l-44.86 171.95h-49.82v-8a8 8 0 0 0 -8-8h-2.01a135.389 135.389 0 0 0 26.01-80c0-74.99-61.01-136-136-136s-136 61.01-136 136 61.01 136 136 136a136.142 136.142 0 0 0 56.84-12.44 7.993 7.993 0 0 0 7.16 4.44h48a8 8 0 0 0 8-8v-8h56a8 8 0 0 0 7.74-5.98l46.45-178.07c.6.03 1.2.05 1.81.05a40 40 0 0 0 0-80zm-176 240v18.14a120.05 120.05 0 1 1 33.44-26.14h-25.44a8 8 0 0 0 -8 8zm48 24h-32v-16h32zm128-200a24 24 0 1 1 24-24 24.032 24.032 0 0 1 -24 24z"/><path d="m472 256h-40a8 8 0 0 0 -8 8v136a8 8 0 0 0 8 8h40a8 8 0 0 0 8-8v-136a8 8 0 0 0 -8-8zm-8 136h-24v-120h24z"/><circle cx="416" cy="144" r="8"/><path d="m80 144v-32a8 8 0 0 0 -8-8h-32a8 8 0 0 0 -8 8v32a8 8 0 0 0 8 8h32a8 8 0 0 0 8-8zm-16-8h-16v-16h16z"/></g></svg>