<svg height="512" viewBox="0 0 512 512" width="512" xmlns="http://www.w3.org/2000/svg"><g><path d="m256 168a104 104 0 1 0 104 104 104.112 104.112 0 0 0 -104-104zm0 192a88 88 0 1 1 88-88 88.1 88.1 0 0 1 -88 88z"/><path d="m364 96h-28v-80a8 8 0 0 0 -8-8h-144a8 8 0 0 0 -8 8v80h-28a28.031 28.031 0 0 0 -28 28v352a28.031 28.031 0 0 0 28 28h216a28.031 28.031 0 0 0 28-28v-352a28.031 28.031 0 0 0 -28-28zm-172-72h128v72h-128zm184 452a12.01 12.01 0 0 1 -12 12h-216a12.01 12.01 0 0 1 -12-12v-36h240zm0-52h-240v-300a12.01 12.01 0 0 1 12-12h216a12.01 12.01 0 0 1 12 12z"/><path d="m308.44 233.34-48-32a8.009 8.009 0 0 0 -12.44 6.66v76.31a31.705 31.705 0 0 0 -16-4.31 32 32 0 1 0 32 32v-89.05l35.56 23.71a8 8 0 1 0 8.88-13.32zm-76.44 94.66a16 16 0 1 1 16-16 16.021 16.021 0 0 1 -16 16z"/><path d="m256 32a8 8 0 0 0 -8 8v32a8 8 0 0 0 16 0v-32a8 8 0 0 0 -8-8z"/><path d="m216 32a8 8 0 0 0 -8 8v32a8 8 0 0 0 16 0v-32a8 8 0 0 0 -8-8z"/><path d="m296 32a8 8 0 0 0 -8 8v32a8 8 0 0 0 16 0v-32a8 8 0 0 0 -8-8z"/></g></svg>