<?xml version="1.0" encoding="UTF-8"?>
<svg xmlns="http://www.w3.org/2000/svg" width="512" height="512" viewBox="0 0 512 512"><g><path d="M216,368h-8a16.019,16.019,0,0,0-16,16v48h-8a8,8,0,0,0,0,16h8a16.019,16.019,0,0,0,16-16V384h8a8,8,0,0,0,0-16Z"/><path d="M296,368a8,8,0,0,0,0,16h8v48a16.019,16.019,0,0,0,16,16h8a8,8,0,0,0,0-16h-8V384a16.019,16.019,0,0,0-16-16Z"/><path d="M256,320a8,8,0,0,0-8,8v88a8,8,0,0,0,16,0V328A8,8,0,0,0,256,320Z"/><path d="M496,264H471.2A40.069,40.069,0,0,0,432,232H323.98A87.565,87.565,0,0,0,280,203.33V96h8a8,8,0,0,0,7.94-8.99L295.06,80H296a8,8,0,0,0,0-16h-2.94l-3-24H296a8,8,0,0,0,0-16h-7.94l-1.12-8.99A8,8,0,0,0,279,8H232a8,8,0,0,0-7.95,7.12L223.06,24H216a8,8,0,0,0,0,16h5.28l-2.66,24H216a8,8,0,0,0,0,16h.84l-.79,7.12A8.007,8.007,0,0,0,224,96h8V203.33A87.565,87.565,0,0,0,188.02,232H80a40.069,40.069,0,0,0-39.2,32H16a8,8,0,0,0-8,8v24a8,8,0,0,0,8,8H188.61A39.794,39.794,0,0,1,192,320a39.969,39.969,0,0,1-40,40,8,8,0,0,0-8,8v48a88.1,88.1,0,0,0,88,88h48a88.1,88.1,0,0,0,88-88V368a8,8,0,0,0-8-8,39.9,39.9,0,0,1-36.61-56H496a8,8,0,0,0,8-8V272A8,8,0,0,0,496,264ZM239.16,24h32.78l7,56h-46ZM264,96V288H248V96ZM24,288v-8H168.64a8.018,8.018,0,0,0,3.8,5.62,36.793,36.793,0,0,1,3.52,2.38Zm147.3-24H57.38A24.031,24.031,0,0,1,80,248h97.54A88.225,88.225,0,0,0,171.3,264Zm70.34,224,6-32h16.72l6,32ZM304,320a56.224,56.224,0,0,0,27.99,48.5A55.659,55.659,0,0,0,352,375.43V416a72.094,72.094,0,0,1-65.42,71.69l-7.72-41.16A8,8,0,0,0,271,440H241a8,8,0,0,0-7.86,6.53l-7.72,41.16A72.094,72.094,0,0,1,160,416V375.43a55.659,55.659,0,0,0,20.01-6.93,56,56,0,0,0,5.18-93.6A71.625,71.625,0,0,1,232,220.1V296a8,8,0,0,0,8,8h32a8,8,0,0,0,8-8V220.1a71.625,71.625,0,0,1,46.81,54.8A56.292,56.292,0,0,0,304,320Zm128-72a24.031,24.031,0,0,1,22.62,16H340.7a88.225,88.225,0,0,0-6.24-16Zm56,40H336.04a36.793,36.793,0,0,1,3.52-2.38,8.018,8.018,0,0,0,3.8-5.62H488Z"/></g></svg>
