<?xml version="1.0" encoding="UTF-8"?>
<svg xmlns="http://www.w3.org/2000/svg" width="512" height="512" viewBox="0 0 512 512"><g><path d="M384,384H353.76l-3.2-16H368a8,8,0,0,0,8-8V312a8,8,0,0,0-8-8H337.76l-3.2-16H352a8,8,0,0,0,8-8V232a8,8,0,0,0-8-8H321.76l-3.2-16H336a8,8,0,0,0,8-8V152a8,8,0,0,0-8-8H305.76l-3.2-16H320a8,8,0,0,0,8-8V72a8,8,0,0,0-8-8H289.76l-9.92-49.57a8,8,0,1,0-15.68,3.14L273.44,64H142.56l9.28-46.43a8,8,0,1,0-15.68-3.14L126.24,64H96a8,8,0,0,0-8,8v48a8,8,0,0,0,8,8h17.44l-3.2,16H80a8,8,0,0,0-8,8v48a8,8,0,0,0,8,8H97.44l-3.2,16H64a8,8,0,0,0-8,8v48a8,8,0,0,0,8,8H81.44l-3.2,16H48a8,8,0,0,0-8,8v48a8,8,0,0,0,8,8H65.44l-3.2,16H32a8,8,0,0,0-8,8v48a8,8,0,0,0,8,8H49.44l-9.28,46.43a7.99,7.99,0,0,0,6.27,9.41,7.772,7.772,0,0,0,1.58.16,8,8,0,0,0,7.83-6.43L65.76,448H350.24l9.92,49.57a8,8,0,0,0,7.83,6.43,7.772,7.772,0,0,0,1.58-.16,7.99,7.99,0,0,0,6.27-9.41L366.56,448H384a8,8,0,0,0,8-8V392A8,8,0,0,0,384,384ZM104,112V80H312v32H104Zm185.44,32H126.56l3.2-16H286.24ZM88,192V160H328v32Zm217.44,32H110.56l3.2-16H302.24ZM72,272V240H344v32Zm249.44,32H94.56l3.2-16H318.24ZM56,352V320H360v32Zm281.44,32H78.56l3.2-16H334.24ZM376,432H40V400H376Z"/><path d="M72,408H56a8,8,0,0,0,0,16H72a8,8,0,0,0,0-16Z"/><path d="M344,408a8,8,0,0,0,0,16h16a8,8,0,0,0,0-16Z"/><path d="M88,328H72a8,8,0,0,0,0,16H88a8,8,0,0,0,0-16Z"/><path d="M344,328H328a8,8,0,0,0,0,16h16a8,8,0,0,0,0-16Z"/><path d="M104,264a8,8,0,0,0,0-16H88a8,8,0,0,0,0,16Z"/><path d="M312,264h16a8,8,0,0,0,0-16H312a8,8,0,0,0,0,16Z"/><path d="M120,184a8,8,0,0,0,0-16H104a8,8,0,0,0,0,16Z"/><path d="M296,184h16a8,8,0,0,0,0-16H296a8,8,0,0,0,0,16Z"/><path d="M136,104a8,8,0,0,0,0-16H120a8,8,0,0,0,0,16Z"/><path d="M280,104h16a8,8,0,0,0,0-16H280a8,8,0,0,0,0,16Z"/><path d="M408,160a24,24,0,0,0-8,46.624V376a8,8,0,0,0,16,0V206.624A24,24,0,0,0,408,160Zm0,32a8,8,0,1,1,8-8A8.009,8.009,0,0,1,408,192Z"/><path d="M488,184a24,24,0,1,0-32,22.624V376a8,8,0,0,0,16,0V206.624A24.039,24.039,0,0,0,488,184Zm-24,8a8,8,0,1,1,8-8A8.009,8.009,0,0,1,464,192Z"/></g></svg>
